<?xml version="1.0" encoding="utf-8"?>
<!-- Generator: Adobe Illustrator 22.1.0, SVG Export Plug-In . SVG Version: 6.00 Build 0)  -->
<svg version="1.1" id="Layer_1" xmlns="http://www.w3.org/2000/svg" xmlns:xlink="http://www.w3.org/1999/xlink" x="0px" y="0px"
	 viewBox="0 0 188.9 42.8" style="enable-background:new 0 0 188.9 42.8;" xml:space="preserve">
<style type="text/css">
	.st0{fill:#FFFFFF;}
	.st1{fill:#2C3B51;}
	.st2{fill:#65D2FF;}
	.st3{fill:url(#SVGID_1_);}
	.st4{fill:url(#SVGID_2_);}
	.st5{fill:url(#SVGID_3_);}
	.st6{fill:url(#SVGID_4_);}
	.st7{fill:url(#SVGID_5_);}
	.st8{fill:url(#SVGID_6_);}
	.st9{fill:url(#SVGID_7_);}
	.st10{fill:url(#SVGID_8_);}
	.st11{fill:url(#SVGID_9_);}
	.st12{fill:url(#SVGID_10_);}
</style>
<g>
	<g>
		<circle class="st0" cx="22.6" cy="21.2" r="18.5"/>
		<polygon class="st1" points="23.4,12.9 23.4,18.1 18.4,18.1 18.4,12.9 18.4,12.9 14,12.9 14,17.3 14,27.7 14,27.7 18.4,27.7 
			18.4,23.3 18.4,22.5 23.4,22.5 23.4,27.7 27.8,23.3 27.8,12.9 		"/>
		<polygon class="st2" points="34.5,22.8 31.4,19.7 23.4,27.6 18.4,22.6 15.3,25.7 20.3,30.7 20.3,30.7 23.4,33.9 23.4,33.8 
			23.5,33.9 26.6,30.7 26.6,30.7 		"/>
	</g>
	<g>
		<g>
			<path class="st0" d="M60,15.3v11.8h-3v-4.4h-4.7v4.4h-2.9V15.3h2.9v4.6h4.7v-4.6H60z"/>
			<path class="st0" d="M69.7,15.2c3.4,0,6.1,2.7,6.1,6s-2.8,6-6.1,6c-3.3,0-6.1-2.7-6.1-6S66.4,15.2,69.7,15.2z M69.7,24.3
				c1.8,0,3.1-1.4,3.1-3.1c0-1.7-1.4-3.1-3.1-3.1c-1.7,0-3.1,1.4-3.1,3.1C66.6,22.9,68,24.3,69.7,24.3z"/>
			<path class="st0" d="M90,15.3v6.5c0,3-1.9,5.3-5.3,5.3c-3.5,0-5.3-2.3-5.3-5.3v-6.5h3v6.3c0,1.7,0.8,2.6,2.3,2.6
				c1.6,0,2.4-0.9,2.4-2.6v-6.3H90z"/>
			<path class="st0" d="M97.2,23.5L97.2,23.5c0,0.5,0.6,1.1,2,1.1c1.1,0,1.5-0.4,1.5-0.7c0-0.5-0.6-0.8-2-1.3
				c-1.8-0.6-4.2-1.5-4.2-3.9c0-2.2,1.9-3.6,4.5-3.6c2.7,0,4.7,1.4,4.7,3.7v0.2h-2.9V19c0-0.6-0.6-1.2-1.8-1.2c-1,0-1.4,0.4-1.4,0.8
				c0,0.5,0.5,0.7,1.9,1.2c1.6,0.6,4.3,1.5,4.3,4c0,2.3-2,3.4-4.6,3.4c-2.8,0-4.9-1.3-4.9-3.6v-0.1H97.2z"/>
			<path class="st0" d="M108.6,15.3h8.9v2.9h-5.9v1.7h4.9v2.7h-4.9v1.5h5.9v2.9h-8.9V15.3z"/>
		</g>
		<g>
			<g>
				<linearGradient id="SVGID_1_" gradientUnits="userSpaceOnUse" x1="121.3511" y1="21.1667" x2="133.8917" y2="21.1667">
					<stop  offset="0" style="stop-color:#1DE9B6"/>
					<stop  offset="3.720033e-02" style="stop-color:#21E8BA"/>
					<stop  offset="0.454" style="stop-color:#46DCDF"/>
					<stop  offset="0.7896" style="stop-color:#5DD5F6"/>
					<stop  offset="1" style="stop-color:#65D2FF"/>
				</linearGradient>
				<path class="st3" d="M126.1,27.1l-4.8-11.8h3.3l3,7.9l3-7.9h3.3l-4.8,11.8H126.1z"/>
				<linearGradient id="SVGID_2_" gradientUnits="userSpaceOnUse" x1="134.6763" y1="21.1667" x2="147.1898" y2="21.1667">
					<stop  offset="0" style="stop-color:#1DE9B6"/>
					<stop  offset="3.720033e-02" style="stop-color:#21E8BA"/>
					<stop  offset="0.454" style="stop-color:#46DCDF"/>
					<stop  offset="0.7896" style="stop-color:#5DD5F6"/>
					<stop  offset="1" style="stop-color:#65D2FF"/>
				</linearGradient>
				<path class="st4" d="M142.4,15.3l4.8,11.8h-3.3l-0.6-1.7h-4.6l-0.6,1.7h-3.3l4.8-11.8H142.4z M140.9,19.1l-1.3,3.5h2.6
					L140.9,19.1z"/>
				<linearGradient id="SVGID_3_" gradientUnits="userSpaceOnUse" x1="149.8352" y1="21.1667" x2="160.4539" y2="21.1667">
					<stop  offset="0" style="stop-color:#1DE9B6"/>
					<stop  offset="3.720033e-02" style="stop-color:#21E8BA"/>
					<stop  offset="0.454" style="stop-color:#46DCDF"/>
					<stop  offset="0.7896" style="stop-color:#5DD5F6"/>
					<stop  offset="1" style="stop-color:#65D2FF"/>
				</linearGradient>
				<path class="st5" d="M160.5,15.3v6.5c0,3-1.9,5.3-5.3,5.3c-3.5,0-5.3-2.3-5.3-5.3v-6.5h3v6.3c0,1.7,0.8,2.6,2.3,2.6
					c1.6,0,2.4-0.9,2.4-2.6v-6.3H160.5z"/>
				<linearGradient id="SVGID_4_" gradientUnits="userSpaceOnUse" x1="164.9261" y1="21.1667" x2="173.4119" y2="21.1667">
					<stop  offset="0" style="stop-color:#1DE9B6"/>
					<stop  offset="3.720033e-02" style="stop-color:#21E8BA"/>
					<stop  offset="0.454" style="stop-color:#46DCDF"/>
					<stop  offset="0.7896" style="stop-color:#5DD5F6"/>
					<stop  offset="1" style="stop-color:#65D2FF"/>
				</linearGradient>
				<path class="st6" d="M164.9,15.3h2.9v8.9h5.5v2.9h-8.5V15.3z"/>
				<linearGradient id="SVGID_5_" gradientUnits="userSpaceOnUse" x1="174.403" y1="21.1667" x2="184.5635" y2="21.1667">
					<stop  offset="0" style="stop-color:#1DE9B6"/>
					<stop  offset="3.720033e-02" style="stop-color:#21E8BA"/>
					<stop  offset="0.454" style="stop-color:#46DCDF"/>
					<stop  offset="0.7896" style="stop-color:#5DD5F6"/>
					<stop  offset="1" style="stop-color:#65D2FF"/>
				</linearGradient>
				<path class="st7" d="M174.4,15.3h10.2v2.9H181v8.8h-3v-8.8h-3.6V15.3z"/>
			</g>
			<g>
				<linearGradient id="SVGID_6_" gradientUnits="userSpaceOnUse" x1="121.3511" y1="21.1667" x2="184.5635" y2="21.1667">
					<stop  offset="0" style="stop-color:#1DE9B6"/>
					<stop  offset="3.720033e-02" style="stop-color:#21E8BA"/>
					<stop  offset="0.454" style="stop-color:#46DCDF"/>
					<stop  offset="0.7896" style="stop-color:#5DD5F6"/>
					<stop  offset="1" style="stop-color:#65D2FF"/>
				</linearGradient>
				<path class="st8" d="M126.1,27.1l-4.8-11.8h3.3l3,7.9l3-7.9h3.3l-4.8,11.8H126.1z"/>
				<linearGradient id="SVGID_7_" gradientUnits="userSpaceOnUse" x1="121.3511" y1="21.1667" x2="184.5635" y2="21.1667">
					<stop  offset="0" style="stop-color:#1DE9B6"/>
					<stop  offset="3.720033e-02" style="stop-color:#21E8BA"/>
					<stop  offset="0.454" style="stop-color:#46DCDF"/>
					<stop  offset="0.7896" style="stop-color:#5DD5F6"/>
					<stop  offset="1" style="stop-color:#65D2FF"/>
				</linearGradient>
				<path class="st9" d="M142.4,15.3l4.8,11.8h-3.3l-0.6-1.7h-4.6l-0.6,1.7h-3.3l4.8-11.8H142.4z M140.9,19.1l-1.3,3.5h2.6
					L140.9,19.1z"/>
				<linearGradient id="SVGID_8_" gradientUnits="userSpaceOnUse" x1="121.3511" y1="21.1667" x2="184.5635" y2="21.1667">
					<stop  offset="0" style="stop-color:#1DE9B6"/>
					<stop  offset="3.720033e-02" style="stop-color:#21E8BA"/>
					<stop  offset="0.454" style="stop-color:#46DCDF"/>
					<stop  offset="0.7896" style="stop-color:#5DD5F6"/>
					<stop  offset="1" style="stop-color:#65D2FF"/>
				</linearGradient>
				<path class="st10" d="M160.5,15.3v6.5c0,3-1.9,5.3-5.3,5.3c-3.5,0-5.3-2.3-5.3-5.3v-6.5h3v6.3c0,1.7,0.8,2.6,2.3,2.6
					c1.6,0,2.4-0.9,2.4-2.6v-6.3H160.5z"/>
				<linearGradient id="SVGID_9_" gradientUnits="userSpaceOnUse" x1="121.3511" y1="21.1667" x2="184.5635" y2="21.1667">
					<stop  offset="0" style="stop-color:#1DE9B6"/>
					<stop  offset="3.720033e-02" style="stop-color:#21E8BA"/>
					<stop  offset="0.454" style="stop-color:#46DCDF"/>
					<stop  offset="0.7896" style="stop-color:#5DD5F6"/>
					<stop  offset="1" style="stop-color:#65D2FF"/>
				</linearGradient>
				<path class="st11" d="M164.9,15.3h2.9v8.9h5.5v2.9h-8.5V15.3z"/>
				<linearGradient id="SVGID_10_" gradientUnits="userSpaceOnUse" x1="121.3511" y1="21.1667" x2="184.5635" y2="21.1667">
					<stop  offset="0" style="stop-color:#1DE9B6"/>
					<stop  offset="3.720033e-02" style="stop-color:#21E8BA"/>
					<stop  offset="0.454" style="stop-color:#46DCDF"/>
					<stop  offset="0.7896" style="stop-color:#5DD5F6"/>
					<stop  offset="1" style="stop-color:#65D2FF"/>
				</linearGradient>
				<path class="st12" d="M174.4,15.3h10.2v2.9H181v8.8h-3v-8.8h-3.6V15.3z"/>
			</g>
		</g>
	</g>
</g>
</svg>
