<?xml version="1.0" encoding="utf-8"?>
<!-- Generator: Adobe Illustrator 22.1.0, SVG Export Plug-In . SVG Version: 6.00 Build 0)  -->
<svg version="1.1" xmlns="http://www.w3.org/2000/svg" xmlns:xlink="http://www.w3.org/1999/xlink" x="0px" y="0px"
	 viewBox="0 0 635.4 510.6" style="enable-background:new 0 0 635.4 510.6;" xml:space="preserve">
<style type="text/css">
	.st0{display:none;fill:#212C40;}
	.st1{fill:#FFFFFF;}
	.st2{fill:#212C40;}
	.st3{opacity:0.3;}
	.st4{fill:#65D2FF;}
	.st5{opacity:0.3;fill:#65D2FF;}
	.st6{fill:url(#SVGID_1_);}
	.st7{fill:#6ABC5C;}
	.st8{fill:url(#SVGID_2_);}
	.st9{fill:url(#SVGID_3_);}
	.st10{fill:url(#SVGID_4_);}
	.st11{fill:url(#SVGID_5_);}
	.st12{fill:none;stroke:#212C40;stroke-width:0.75;stroke-linecap:round;stroke-linejoin:round;stroke-miterlimit:10;}
	.st13{fill:url(#SVGID_6_);}
	.st14{opacity:0.3;clip-path:url(#SVGID_8_);fill:#65D2FF;}
	.st15{fill:url(#SVGID_9_);}
</style>
<g id="Layer_1">
	<rect x="-281.6" y="486" class="st0" width="1083" height="571"/>
	<g>
		<circle class="st1" cx="21.6" cy="490.1" r="19"/>
		<path class="st2" d="M21.6,509.4c-10.7,0-19.3-8.7-19.3-19.3c0-10.7,8.7-19.3,19.3-19.3c10.7,0,19.3,8.7,19.3,19.3
			C41,500.7,32.3,509.4,21.6,509.4z M21.6,471.5c-10.2,0-18.6,8.3-18.6,18.6c0,10.2,8.3,18.6,18.6,18.6c10.2,0,18.6-8.3,18.6-18.6
			C40.2,479.8,31.9,471.5,21.6,471.5z"/>
	</g>
	<g>
		<circle class="st1" cx="39.3" cy="449.1" r="8.6"/>
		<path class="st2" d="M39.3,458c-4.9,0-8.9-4-8.9-8.9s4-8.9,8.9-8.9s8.9,4,8.9,8.9S44.2,458,39.3,458z M39.3,440.9
			c-4.5,0-8.2,3.7-8.2,8.2s3.7,8.2,8.2,8.2s8.2-3.7,8.2-8.2S43.8,440.9,39.3,440.9z"/>
	</g>
	<g>
		<circle class="st1" cx="56.3" cy="427.4" r="3.4"/>
		<path class="st2" d="M56.3,431.3c-2.1,0-3.8-1.7-3.8-3.8c0-2.1,1.7-3.8,3.8-3.8c2.1,0,3.8,1.7,3.8,3.8
			C60.1,429.5,58.4,431.3,56.3,431.3z M56.3,424.4c-1.7,0-3.1,1.4-3.1,3.1c0,1.7,1.4,3.1,3.1,3.1c1.7,0,3.1-1.4,3.1-3.1
			C59.3,425.8,57.9,424.4,56.3,424.4z"/>
	</g>
	<polygon class="st2" points="51.3,471.8 57.3,466.6 51.6,463.8 	"/>
	<g class="st3">
		<g>
			<path class="st4" d="M371.7,54.5l-2.5-3.2c12.6-10,26.7-17.8,41.7-23.4l1.4,3.8C397.7,37.1,384,44.8,371.7,54.5z"/>
		</g>
		<g>
			<path class="st4" d="M595.1,97.2c-22.4-38.6-60.4-65.1-104.3-72.7l0.7-4c45,7.9,84,35.1,107.1,74.7L595.1,97.2z"/>
		</g>
		<g>
			<path class="st4" d="M552.3,300.5l-2.3-3.4c34-23.3,57.1-60,63.6-100.5l4,0.6C611,238.9,587.2,276.5,552.3,300.5z"/>
		</g>
		<g>
			<path class="st4" d="M389,307.7c-35.3-19.9-61-52.2-72.5-90.8l3.9-1.2c11.1,37.6,36.2,69,70.6,88.4L389,307.7z"/>
		</g>
		<g>
			<path class="st4" d="M315.7,151.5l-4-0.6c2.8-19.6,9.3-38.3,19.2-55.5l3.5,2C324.7,114.2,318.4,132.4,315.7,151.5z"/>
		</g>
	</g>
	<ellipse class="st5" cx="606.2" cy="198.5" rx="4.7" ry="1.2"/>
	<ellipse class="st5" cx="553.7" cy="189.3" rx="4.7" ry="1.2"/>
	<linearGradient id="SVGID_1_" gradientUnits="userSpaceOnUse" x1="400.3159" y1="298.4495" x2="524.1736" y2="298.4495">
		<stop  offset="0" style="stop-color:#6ABC5C"/>
		<stop  offset="1" style="stop-color:#65D2FF"/>
	</linearGradient>
	<rect x="407.4" y="264.2" class="st6" width="112.5" height="68.5"/>
	<g>
		<path class="st7" d="M380.2,49.3l-0.6-0.8c12.9-8.8,27.1-15.5,42-19.9l0.3,1C407.1,33.9,393.1,40.5,380.2,49.3z"/>
		<path class="st7" d="M598.3,106.8c-19.6-39.7-55.3-68.5-98.2-79.1l0.2-1c43.1,10.6,79.1,39.6,98.8,79.6L598.3,106.8z"/>
		<path class="st7" d="M540.5,302.3l-0.5-0.9c35.2-20.8,60.6-55.4,69.8-95l1,0.2C601.5,246.6,576,281.4,540.5,302.3z"/>
		<path class="st7" d="M381.6,298.4c-32.9-21.7-55.7-54.7-64.2-92.9l1-0.2c8.4,38,31.1,70.8,63.8,92.3L381.6,298.4z"/>
		<path class="st7" d="M318.2,141.5l-1-0.2c4-18.9,11.5-36.5,22.4-52.6l0.8,0.6C329.6,105.2,322.2,122.7,318.2,141.5z"/>
	</g>
	<path class="st2" d="M423.6,110.5l-0.4-0.6c7.5-4.9,15.8-8.4,24.5-10.4l0.2,0.7C439.2,102.2,431.1,105.6,423.6,110.5z"/>
	<path class="st2" d="M484.3,101.2c-6.5-1.8-13.3-2.7-20.1-2.7v-0.8c6.9,0,13.7,0.9,20.3,2.8L484.3,101.2z"/>
	<path class="st2" d="M508,112.6c-7.2-5.2-15.1-9.1-23.7-11.5l0.2-0.7c8.6,2.4,16.7,6.3,23.9,11.6L508,112.6z"/>
	<path class="st2" d="M538.4,168c-0.2-3-0.6-6-1.1-9c-1.8-9.7-5.5-18.8-10.9-27.1c-1.1-1.6-2.2-3.2-3.4-4.8l0.6-0.5
		c1.2,1.6,2.4,3.2,3.5,4.8c5.5,8.3,9.2,17.5,11,27.3c0.6,3,0.9,6,1.1,9.1L538.4,168z"/>
	<path class="st2" d="M525.2,216.6l-0.6-0.4c0.9-1.2,1.8-2.5,2.6-3.8c6.2-9.8,10-21.1,11.1-32.6l0.7,0.1c-1.1,11.6-5,23-11.2,32.9
		C527,214.1,526.1,215.4,525.2,216.6z"/>
	<path class="st2" d="M470.9,247.6l-0.1-0.7c16.7-1.5,32.5-8.6,44.7-20.2l0.5,0.5C503.7,238.8,487.7,246.1,470.9,247.6z"/>
	<path class="st2" d="M456.8,247.5c-4.6-0.4-9.1-1.3-13.5-2.6c-13-3.7-24.7-11-34-20.9l0.5-0.5c9.2,9.8,20.8,17,33.7,20.7
		c4.3,1.3,8.8,2.1,13.3,2.5L456.8,247.5z"/>
	<path class="st2" d="M394.6,200.9c-3.6-8.9-5.5-18.4-5.5-28.2c0-25.4,12.7-49,34.1-62.9l0.4,0.6c-21.1,13.8-33.7,37.1-33.7,62.3
		c0,9.6,1.8,19,5.4,27.9L394.6,200.9z"/>
	<g>
		<path class="st2" d="M537,325.8l-0.3-0.7c1.5-0.7,3-1.5,4.5-2.2l0.3,0.7C540,324.3,538.5,325,537,325.8z M386.8,323.4
			c-1.5-0.8-3-1.6-4.4-2.4l0.4-0.7c1.4,0.8,2.9,1.6,4.4,2.3L386.8,323.4z M545.9,321.2l-0.4-0.7c1.5-0.8,2.9-1.6,4.3-2.5l0.4,0.6
			C548.9,319.5,547.4,320.4,545.9,321.2z M378,318.6c-1.4-0.8-2.9-1.7-4.3-2.6l0.4-0.6c1.4,0.9,2.8,1.8,4.3,2.6L378,318.6z
			 M554.6,316.1l-0.4-0.6c1.4-0.9,2.8-1.8,4.2-2.7l0.4,0.6C557.4,314.2,556,315.2,554.6,316.1z M369.6,313.2
			c-1.4-0.9-2.8-1.9-4.1-2.9l0.4-0.6c1.3,1,2.7,1.9,4.1,2.9L369.6,313.2z M562.9,310.4l-0.4-0.6c1.4-1,2.7-2,4-3l0.5,0.6
			C565.6,308.5,564.3,309.5,562.9,310.4z M361.4,307.4c-1.3-1-2.6-2.1-3.9-3.1l0.5-0.6c1.3,1,2.6,2.1,3.9,3.1L361.4,307.4z
			 M570.9,304.3l-0.5-0.6c1.3-1,2.6-2.1,3.8-3.2l0.5,0.6C573.5,302.2,572.2,303.3,570.9,304.3z M353.6,301c-1.3-1.1-2.5-2.2-3.7-3.3
			l0.5-0.6c1.2,1.1,2.5,2.2,3.7,3.3L353.6,301z M578.5,297.8l-0.5-0.6c1.2-1.1,2.5-2.3,3.6-3.4l0.5,0.5
			C580.9,295.5,579.7,296.7,578.5,297.8z M346.2,294.3c-1.2-1.2-2.4-2.4-3.5-3.5l0.5-0.5c1.2,1.2,2.3,2.4,3.5,3.5L346.2,294.3z
			 M585.7,290.8l-0.5-0.5c1.2-1.2,2.3-2.4,3.4-3.6l0.6,0.5C588,288.4,586.9,289.6,585.7,290.8z M339.2,287.1
			c-1.1-1.2-2.3-2.5-3.3-3.8l0.6-0.5c1.1,1.2,2.2,2.5,3.3,3.7L339.2,287.1z M592.5,283.4l-0.6-0.5c1.1-1.3,2.2-2.5,3.2-3.8l0.6,0.5
			C594.6,280.9,593.6,282.1,592.5,283.4z M332.7,279.5c-1-1.3-2.1-2.6-3.1-3.9l0.6-0.5c1,1.3,2.1,2.6,3.1,3.9L332.7,279.5z
			 M598.8,275.6l-0.6-0.5c1-1.3,2-2.7,3-4l0.6,0.4C600.8,272.9,599.8,274.3,598.8,275.6z M326.6,271.5c-1-1.4-1.9-2.7-2.9-4.1
			l0.6-0.4c0.9,1.4,1.9,2.8,2.9,4.1L326.6,271.5z M604.7,267.5l-0.6-0.4c0.9-1.4,1.9-2.8,2.7-4.2l0.6,0.4
			C606.5,264.7,605.6,266.1,604.7,267.5z M321,263.1c-0.9-1.4-1.8-2.9-2.6-4.3l0.6-0.4c0.8,1.4,1.7,2.9,2.6,4.3L321,263.1z M610,259
			l-0.6-0.4c0.8-1.4,1.7-2.9,2.5-4.3l0.7,0.4C611.7,256.1,610.9,257.6,610,259z M315.9,254.5c-0.8-1.5-1.6-3-2.4-4.4l0.7-0.3
			c0.8,1.5,1.5,3,2.4,4.4L315.9,254.5z M614.9,250.3l-0.7-0.3c0.8-1.5,1.5-3,2.2-4.5l0.7,0.3C616.4,247.3,615.6,248.8,614.9,250.3z
			 M311.3,245.5c-0.7-1.5-1.4-3-2.1-4.6l0.7-0.3c0.7,1.5,1.4,3.1,2.1,4.6L311.3,245.5z M619.2,241.2l-0.7-0.3
			c0.7-1.5,1.3-3.1,1.9-4.6l0.7,0.3C620.5,238.2,619.9,239.7,619.2,241.2z M307.2,236.3c-0.6-1.5-1.2-3.1-1.8-4.7l0.7-0.3
			c0.6,1.6,1.2,3.1,1.8,4.7L307.2,236.3z M623,232l-0.7-0.3c0.6-1.5,1.1-3.1,1.7-4.7l0.7,0.2C624.1,228.8,623.5,230.4,623,232z
			 M303.7,226.9c-0.5-1.6-1-3.2-1.5-4.8l0.7-0.2c0.5,1.6,1,3.2,1.5,4.8L303.7,226.9z M626.2,222.5l-0.7-0.2c0.5-1.6,1-3.2,1.4-4.8
			l0.7,0.2C627.2,219.2,626.7,220.9,626.2,222.5z M300.8,217.3c-0.4-1.6-0.9-3.2-1.2-4.9l0.7-0.2c0.4,1.6,0.8,3.2,1.2,4.8
			L300.8,217.3z M628.8,212.8l-0.7-0.2c0.4-1.6,0.8-3.2,1.1-4.9l0.7,0.2C629.6,209.5,629.2,211.2,628.8,212.8z M630.9,203l-0.7-0.1
			c0.3-1.6,0.6-3.3,0.8-4.9l0.7,0.1C631.5,199.6,631.2,201.3,630.9,203z M632.4,193l-0.7-0.1c0.2-1.7,0.4-3.3,0.5-5l0.7,0.1
			C632.8,189.7,632.6,191.4,632.4,193z M633.3,183l-0.7,0c0.1-1.6,0.2-3.3,0.2-5l0.8,0C633.5,179.7,633.4,181.4,633.3,183z
			 M633.6,173h-0.8l0-0.2c0-1.7,0-3.3-0.1-5l0.8,0c0,1.7,0.1,3.4,0.1,5L633.6,173z M632.6,162.8c-0.1-1.6-0.2-3.3-0.4-5l0.7-0.1
			c0.1,1.7,0.3,3.3,0.4,5L632.6,162.8z M631.7,152.8c-0.2-1.7-0.4-3.3-0.7-5l0.7-0.1c0.2,1.6,0.5,3.3,0.7,5L631.7,152.8z
			 M630.2,142.9c-0.3-1.6-0.6-3.3-1-4.9l0.7-0.2c0.3,1.6,0.7,3.3,1,4.9L630.2,142.9z M628.2,133.2c-0.4-1.6-0.8-3.2-1.2-4.8l0.7-0.2
			c0.4,1.6,0.9,3.2,1.2,4.9L628.2,133.2z M304.5,118.6l-0.7-0.2c0.5-1.6,1.1-3.2,1.7-4.7l0.7,0.3C305.6,115.5,305,117.1,304.5,118.6
			z M308,109.3l-0.7-0.3c0.6-1.5,1.3-3.1,2-4.6l0.7,0.3C309.3,106.2,308.6,107.8,308,109.3z M618.6,104.7c-0.7-1.5-1.4-3.1-2.1-4.6
			l0.7-0.3c0.7,1.5,1.4,3,2.1,4.6L618.6,104.7z M312,100.2l-0.7-0.3c0.7-1.5,1.5-3,2.2-4.5l0.7,0.3C313.5,97.2,312.7,98.7,312,100.2
			z M614.3,95.7c-0.8-1.5-1.6-3-2.4-4.4l0.7-0.4c0.8,1.5,1.6,3,2.4,4.4L614.3,95.7z M316.6,91.3l-0.7-0.4c0.8-1.4,1.6-2.9,2.5-4.3
			L319,87C318.2,88.4,317.4,89.9,316.6,91.3z M609.4,86.9c-0.8-1.4-1.7-2.9-2.6-4.3l0.6-0.4c0.9,1.4,1.8,2.9,2.6,4.3L609.4,86.9z
			 M321.6,82.7l-0.6-0.4c0.9-1.4,1.8-2.8,2.7-4.2l0.6,0.4C323.4,79.9,322.5,81.3,321.6,82.7z M604.1,78.5c-0.9-1.4-1.9-2.8-2.9-4.1
			l0.6-0.4c1,1.3,1.9,2.7,2.9,4.1L604.1,78.5z M327.2,74.5l-0.6-0.4c1-1.3,2-2.7,3-4l0.6,0.5C329.2,71.8,328.2,73.1,327.2,74.5z
			 M598.2,70.4c-1-1.3-2.1-2.6-3.1-3.9l0.6-0.5c1,1.3,2.1,2.6,3.1,3.9L598.2,70.4z M333.3,66.5l-0.6-0.5c1-1.3,2.1-2.6,3.2-3.8
			l0.6,0.5C335.4,64,334.3,65.2,333.3,66.5z M591.9,62.6c-1.1-1.2-2.2-2.5-3.3-3.7l0.6-0.5c1.1,1.2,2.3,2.5,3.3,3.8L591.9,62.6z
			 M339.8,59l-0.6-0.5c1.1-1.2,2.3-2.5,3.4-3.7l0.5,0.5C342.1,56.5,340.9,57.7,339.8,59z M585.2,55.3c-1.2-1.2-2.3-2.4-3.5-3.5
			l0.5-0.5c1.2,1.2,2.4,2.3,3.5,3.5L585.2,55.3z M346.8,51.8l-0.5-0.5c1.2-1.2,2.4-2.3,3.7-3.4l0.5,0.6
			C349.2,49.5,348,50.6,346.8,51.8z M578,48.3c-1.2-1.1-2.5-2.2-3.7-3.3l0.5-0.6c1.3,1.1,2.5,2.2,3.8,3.3L578,48.3z M354.1,45
			l-0.5-0.6c1.3-1.1,2.6-2.2,3.8-3.2l0.5,0.6C356.7,42.9,355.4,44,354.1,45z M570.4,41.8c-1.3-1-2.6-2.1-3.9-3.1l0.5-0.6
			c1.3,1,2.7,2.1,3.9,3.1L570.4,41.8z M361.9,38.7l-0.5-0.6c1.3-1,2.7-2,4-3l0.4,0.6C364.6,36.7,363.2,37.7,361.9,38.7z M562.5,35.7
			c-1.4-1-2.7-1.9-4.1-2.9l0.4-0.6c1.4,0.9,2.8,1.9,4.1,2.9L562.5,35.7z M370,32.9l-0.4-0.6c1.4-0.9,2.8-1.9,4.2-2.7l0.4,0.6
			C372.8,31.1,371.4,32,370,32.9z M554.2,30.1c-1.4-0.9-2.8-1.8-4.3-2.6l0.4-0.6c1.4,0.8,2.9,1.7,4.3,2.6L554.2,30.1z M378.5,27.6
			l-0.4-0.6c1.4-0.8,2.9-1.7,4.4-2.5l0.4,0.7C381.4,25.9,379.9,26.7,378.5,27.6z M545.6,25.1c-1.5-0.8-2.9-1.6-4.4-2.3l0.3-0.7
			c1.5,0.8,3,1.5,4.4,2.4L545.6,25.1z M387.2,22.7l-0.3-0.7c1.5-0.8,3-1.5,4.5-2.2l0.3,0.7C390.2,21.2,388.7,22,387.2,22.7z
			 M396.3,18.4l-0.3-0.7c1.5-0.7,3.1-1.3,4.6-2l0.3,0.7C399.3,17.1,397.8,17.7,396.3,18.4z M405.6,14.6l-0.3-0.7
			c1.6-0.6,3.2-1.1,4.7-1.7l0.2,0.7C408.7,13.5,407.1,14.1,405.6,14.6z M415.1,11.4l-0.2-0.7c1.6-0.5,3.2-1,4.8-1.4l0.2,0.7
			C418.3,10.5,416.6,11,415.1,11.4z M508.7,10.1c-1.6-0.4-3.2-0.9-4.8-1.2l0.2-0.7c1.6,0.4,3.3,0.8,4.9,1.2L508.7,10.1z M424.7,8.8
			l-0.2-0.7c1.6-0.4,3.3-0.8,4.9-1.1l0.2,0.7C427.9,8.1,426.3,8.4,424.7,8.8z M499,7.7c-1.6-0.3-3.3-0.7-4.9-1l0.1-0.7
			c1.6,0.3,3.3,0.6,4.9,1L499,7.7z M434.5,6.8L434.3,6c1.7-0.3,3.3-0.6,5-0.8l0.1,0.7C437.8,6.2,436.1,6.5,434.5,6.8z M489.2,6
			c-1.6-0.2-3.3-0.5-5-0.7l0.1-0.7c1.6,0.2,3.3,0.4,5,0.7L489.2,6z M444.4,5.3l-0.1-0.7c1.7-0.2,3.3-0.4,5-0.5l0.1,0.7
			C447.7,4.9,446,5.1,444.4,5.3z M479.3,4.8c-1.7-0.1-3.3-0.3-5-0.4l0-0.7c1.7,0.1,3.3,0.2,5,0.4L479.3,4.8z M454.3,4.4l0-0.7
			c1.7-0.1,3.3-0.2,5-0.2l0,0.8C457.6,4.3,456,4.3,454.3,4.4z M469.3,4.2c-1.7,0-3.3-0.1-5-0.1V3.4c1.7,0,3.4,0,5,0.1L469.3,4.2z"/>
	</g>
	<rect x="452.7" y="216.9" class="st4" width="18.1" height="1.5"/>
	<rect x="303.3" y="146.8" class="st4" width="8.8" height="44.9"/>
	<rect x="351.4" y="159" class="st4" width="8.8" height="32.7"/>
	<polygon class="st4" points="470.8,32.7 466.7,39.7 479.6,39.7 	"/>
	<polygon class="st4" points="447.5,18.1 437.8,22.5 449.2,27.8 	"/>
	<polygon class="st4" points="440.1,44.4 441.8,53.4 450.9,44.4 	"/>
	<polygon class="st4" points="479.6,51.1 467.4,62.7 470.2,71.1 473.3,80.8 481.7,65.8 	"/>
	<polygon class="st4" points="452.8,55.6 442.2,58.7 447.5,66.5 458.4,66.5 	"/>
	<linearGradient id="SVGID_2_" gradientUnits="userSpaceOnUse" x1="538.9598" y1="87.6495" x2="561.6443" y2="87.6495">
		<stop  offset="0" style="stop-color:#6ABC5C"/>
		<stop  offset="1" style="stop-color:#65D2FF"/>
	</linearGradient>
	<rect x="539" y="83.9" class="st8" width="22.7" height="7.4"/>
	<rect x="539" y="114.4" class="st4" width="8.1" height="7.4"/>
	<rect x="548.2" y="114.4" class="st4" width="13.4" height="7.4"/>
	<path id="XMLID_10_" class="st4" d="M409.5,79.7v-2.4h-2.7c-0.2-1.3-0.7-2.5-1.5-3.5l1.9-1.9l-1.7-1.7l-1.9,1.9
		c-1-0.7-2.2-1.3-3.5-1.5v-2.7h-2.4v2.7c-1.3,0.2-2.5,0.7-3.5,1.5l-1.9-1.9l-1.7,1.7l1.9,1.9c-0.7,1-1.3,2.2-1.5,3.5h-2.7v2.4h2.7
		c0.2,1.3,0.7,2.5,1.5,3.5l-1.9,1.9l1.7,1.7l1.9-1.9c1,0.7,2.2,1.3,3.5,1.5v2.7h2.4v-2.7c1.3-0.2,2.5-0.7,3.5-1.5l1.9,1.9l1.7-1.7
		l-1.9-1.9c0.7-1,1.3-2.2,1.5-3.5H409.5z M398.8,82.2c-2,0-3.7-1.6-3.7-3.7c0-2,1.6-3.7,3.7-3.7c2,0,3.7,1.6,3.7,3.7
		C402.5,80.5,400.8,82.2,398.8,82.2z"/>
	<circle class="st4" cx="577.9" cy="197.7" r="8.4"/>
	<g>
		<g>
			<path class="st2" d="M563.9,124.2h-53.4c-0.2,0-0.4-0.2-0.4-0.4v-11.4c0-0.2,0.2-0.4,0.4-0.4h53.4c0.2,0,0.4,0.2,0.4,0.4v11.4
				C564.3,124,564.1,124.2,563.9,124.2z M510.9,123.4h52.6v-10.7h-52.6V123.4z"/>
			<path class="st2" d="M520.1,121h-5.9c-0.2,0-0.4-0.2-0.4-0.4v-4.9c0-0.2,0.2-0.4,0.4-0.4h5.9c0.2,0,0.4,0.2,0.4,0.4v4.9
				C520.4,120.8,520.3,121,520.1,121z M514.5,120.3h5.2v-4.2h-5.2V120.3z"/>
			<path class="st2" d="M526.3,119.9c-1,0-1.9-0.8-1.9-1.9s0.8-1.9,1.9-1.9s1.9,0.8,1.9,1.9S527.3,119.9,526.3,119.9z M526.3,117
				c-0.6,0-1.1,0.5-1.1,1.1s0.5,1.1,1.1,1.1s1.1-0.5,1.1-1.1S526.9,117,526.3,117z"/>
			<path class="st2" d="M532.9,119.9c-1,0-1.9-0.8-1.9-1.9s0.8-1.9,1.9-1.9s1.9,0.8,1.9,1.9S533.9,119.9,532.9,119.9z M532.9,117
				c-0.6,0-1.1,0.5-1.1,1.1s0.5,1.1,1.1,1.1s1.1-0.5,1.1-1.1S533.5,117,532.9,117z"/>
		</g>
	</g>
	<g>
		<g>
			<path class="st2" d="M563.9,108.9h-53.4c-0.2,0-0.4-0.2-0.4-0.4V97.1c0-0.2,0.2-0.4,0.4-0.4h53.4c0.2,0,0.4,0.2,0.4,0.4v11.4
				C564.3,108.7,564.1,108.9,563.9,108.9z M510.9,108.1h52.6V97.5h-52.6V108.1z"/>
			<path class="st2" d="M520.1,105.8h-5.9c-0.2,0-0.4-0.2-0.4-0.4v-4.9c0-0.2,0.2-0.4,0.4-0.4h5.9c0.2,0,0.4,0.2,0.4,0.4v4.9
				C520.4,105.6,520.3,105.8,520.1,105.8z M514.5,105h5.2v-4.2h-5.2V105z"/>
			<path class="st2" d="M561.6,107H539c-0.2,0-0.4-0.2-0.4-0.4v-7.4c0-0.2,0.2-0.4,0.4-0.4h22.7c0.2,0,0.4,0.2,0.4,0.4v7.4
				C562,106.8,561.9,107,561.6,107z M539.3,106.2h21.9v-6.7h-21.9V106.2z"/>
			<path class="st2" d="M526.3,104.7c-1,0-1.9-0.8-1.9-1.9s0.8-1.9,1.9-1.9s1.9,0.8,1.9,1.9S527.3,104.7,526.3,104.7z M526.3,101.7
				c-0.6,0-1.1,0.5-1.1,1.1s0.5,1.1,1.1,1.1s1.1-0.5,1.1-1.1S526.9,101.7,526.3,101.7z"/>
			<path class="st2" d="M532.9,104.7c-1,0-1.9-0.8-1.9-1.9s0.8-1.9,1.9-1.9s1.9,0.8,1.9,1.9S533.9,104.7,532.9,104.7z M532.9,101.7
				c-0.6,0-1.1,0.5-1.1,1.1s0.5,1.1,1.1,1.1s1.1-0.5,1.1-1.1S533.5,101.7,532.9,101.7z"/>
		</g>
	</g>
	<g>
		<g>
			<path class="st2" d="M563.9,93.6h-53.4c-0.2,0-0.4-0.2-0.4-0.4V81.8c0-0.2,0.2-0.4,0.4-0.4h53.4c0.2,0,0.4,0.2,0.4,0.4v11.4
				C564.3,93.5,564.1,93.6,563.9,93.6z M510.9,92.9h52.6V82.2h-52.6V92.9z"/>
			<path class="st2" d="M520.1,90.5h-5.9c-0.2,0-0.4-0.2-0.4-0.4v-4.9c0-0.2,0.2-0.4,0.4-0.4h5.9c0.2,0,0.4,0.2,0.4,0.4v4.9
				C520.4,90.3,520.3,90.5,520.1,90.5z M514.5,89.8h5.2v-4.2h-5.2V89.8z"/>
			<path class="st2" d="M526.3,89.4c-1,0-1.9-0.8-1.9-1.9s0.8-1.9,1.9-1.9s1.9,0.8,1.9,1.9S527.3,89.4,526.3,89.4z M526.3,86.4
				c-0.6,0-1.1,0.5-1.1,1.1s0.5,1.1,1.1,1.1s1.1-0.5,1.1-1.1S526.9,86.4,526.3,86.4z"/>
			<path class="st2" d="M532.9,89.4c-1,0-1.9-0.8-1.9-1.9s0.8-1.9,1.9-1.9s1.9,0.8,1.9,1.9S533.9,89.4,532.9,89.4z M532.9,86.4
				c-0.6,0-1.1,0.5-1.1,1.1s0.5,1.1,1.1,1.1s1.1-0.5,1.1-1.1S533.5,86.4,532.9,86.4z"/>
		</g>
	</g>
	<g>
		<g>
			<path class="st2" d="M563.9,78.4h-53.4c-0.2,0-0.4-0.2-0.4-0.4V66.6c0-0.2,0.2-0.4,0.4-0.4h53.4c0.2,0,0.4,0.2,0.4,0.4V78
				C564.3,78.2,564.1,78.4,563.9,78.4z M510.9,77.6h52.6V67h-52.6V77.6z"/>
			<path class="st2" d="M520.1,75.3h-5.9c-0.2,0-0.4-0.2-0.4-0.4v-4.9c0-0.2,0.2-0.4,0.4-0.4h5.9c0.2,0,0.4,0.2,0.4,0.4v4.9
				C520.4,75.1,520.3,75.3,520.1,75.3z M514.5,74.5h5.2v-4.2h-5.2V74.5z"/>
			<path class="st2" d="M561.6,76.5H539c-0.2,0-0.4-0.2-0.4-0.4v-7.4c0-0.2,0.2-0.4,0.4-0.4h22.7c0.2,0,0.4,0.2,0.4,0.4v7.4
				C562,76.3,561.9,76.5,561.6,76.5z M539.3,75.7h21.9v-6.7h-21.9V75.7z"/>
			<path class="st2" d="M526.3,74.2c-1,0-1.9-0.8-1.9-1.9s0.8-1.9,1.9-1.9s1.9,0.8,1.9,1.9S527.3,74.2,526.3,74.2z M526.3,71.2
				c-0.6,0-1.1,0.5-1.1,1.1s0.5,1.1,1.1,1.1s1.1-0.5,1.1-1.1S526.9,71.2,526.3,71.2z"/>
			<path class="st2" d="M532.9,74.2c-1,0-1.9-0.8-1.9-1.9s0.8-1.9,1.9-1.9s1.9,0.8,1.9,1.9S533.9,74.2,532.9,74.2z M532.9,71.2
				c-0.6,0-1.1,0.5-1.1,1.1s0.5,1.1,1.1,1.1s1.1-0.5,1.1-1.1S533.5,71.2,532.9,71.2z"/>
		</g>
	</g>
	<path class="st2" d="M324.2,192h-8.8c-0.2,0-0.4-0.2-0.4-0.4v-23.7c0-0.2,0.2-0.4,0.4-0.4h8.8c0.2,0,0.4,0.2,0.4,0.4v23.7
		C324.6,191.9,324.4,192,324.2,192z M315.7,191.3h8.1v-23h-8.1V191.3z"/>
	<rect x="363.3" y="178.6" class="st5" width="8.8" height="13"/>
	<path class="st2" d="M384.2,192h-8.8c-0.2,0-0.4-0.2-0.4-0.4v-23.7c0-0.2,0.2-0.4,0.4-0.4h8.8c0.2,0,0.4,0.2,0.4,0.4v23.7
		C384.6,191.9,384.4,192,384.2,192z M375.7,191.3h8.1v-23h-8.1V191.3z"/>
	<path class="st2" d="M336.2,192h-8.8c-0.2,0-0.4-0.2-0.4-0.4v-29.1c0-0.2,0.2-0.4,0.4-0.4h8.8c0.2,0,0.4,0.2,0.4,0.4v29.1
		C336.6,191.9,336.4,192,336.2,192z M327.7,191.3h8.1v-28.3h-8.1V191.3z"/>
	<linearGradient id="SVGID_3_" gradientUnits="userSpaceOnUse" x1="340.1716" y1="164.4392" x2="347.494" y2="164.4392">
		<stop  offset="0" style="stop-color:#6ABC5C"/>
		<stop  offset="1" style="stop-color:#65D2FF"/>
	</linearGradient>
	<rect x="339.3" y="137.2" class="st9" width="8.8" height="54.4"/>
	<path class="st2" d="M385.1,196.6h-85.4c-0.2,0-0.4-0.2-0.4-0.4v-59c0-0.2,0.2-0.4,0.4-0.4s0.4,0.2,0.4,0.4v58.6h85.1
		c0.2,0,0.4,0.2,0.4,0.4S385.3,196.6,385.1,196.6z"/>
	<g>
		<linearGradient id="SVGID_4_" gradientUnits="userSpaceOnUse" x1="569.4509" y1="204.7184" x2="590.0425" y2="204.7184">
			<stop  offset="0" style="stop-color:#6ABC5C"/>
			<stop  offset="1" style="stop-color:#65D2FF"/>
		</linearGradient>
		<path class="st10" d="M568,188.4L568,188.4c-4.6,4.6-5.4,11.7-2,17.2l11.9,19.5l11.9-19.5c3.4-5.5,2.5-12.6-2-17.2l0,0
			C582.3,182.9,573.4,182.9,568,188.4z"/>
		<circle class="st1" cx="577.9" cy="197.7" r="8.4"/>
	</g>
	<g>
		<path class="st2" d="M606.2,198.4c-0.2,0-0.4-0.1-0.5-0.3l-7.9-12.9c-2.4-3.9-1.8-8.9,1.4-12.2l0,0c1.9-1.9,4.3-2.9,7-2.9
			c2.6,0,5.1,1,7,2.9c3.2,3.2,3.8,8.2,1.4,12.2l-7.9,12.9C606.6,198.3,606.5,198.4,606.2,198.4z M606.2,171.4
			c-2.3,0-4.5,0.9-6.1,2.5l0,0c-2.8,2.8-3.4,7.2-1.3,10.7l7.4,12.1l7.4-12.1c2.1-3.4,1.6-7.8-1.3-10.7
			C610.7,172.3,608.6,171.4,606.2,171.4z M599.7,173.5L599.7,173.5L599.7,173.5z"/>
		<path class="st2" d="M606.2,185.9c-3.4,0-6.2-2.8-6.2-6.2s2.8-6.2,6.2-6.2c3.4,0,6.2,2.8,6.2,6.2S609.7,185.9,606.2,185.9z
			 M606.2,174.7c-2.7,0-5,2.2-5,5c0,2.7,2.2,5,5,5s5-2.2,5-5C611.2,176.9,609,174.7,606.2,174.7z"/>
	</g>
	<g>
		<path class="st2" d="M553.7,189.2c-0.1,0-0.3-0.1-0.3-0.2l-6.8-11c-2-3.3-1.5-7.5,1.2-10.2c3.2-3.2,8.5-3.2,11.7,0
			c2.7,2.7,3.2,6.9,1.2,10.2l-6.8,11C553.9,189.1,553.8,189.2,553.7,189.2z M548.3,168.3c-2.5,2.5-2.9,6.3-1.1,9.3l6.4,10.5
			l6.4-10.5c1.8-3,1.4-6.8-1.1-9.3C556.1,165.3,551.3,165.3,548.3,168.3C548.3,168.3,548.3,168.3,548.3,168.3z M548.1,168L548.1,168
			L548.1,168z"/>
		<path class="st2" d="M553.7,178.4c-2.8,0-5.1-2.3-5.1-5.1c0-2.8,2.3-5.1,5.1-5.1s5.1,2.3,5.1,5.1
			C558.8,176.1,556.5,178.4,553.7,178.4z M553.7,168.9c-2.4,0-4.4,2-4.4,4.4c0,2.4,2,4.4,4.4,4.4c2.4,0,4.4-2,4.4-4.4
			C558.1,170.9,556.1,168.9,553.7,168.9z"/>
	</g>
	<path class="st2" d="M373.6,125.3h-3.4c-0.2,0-0.4-0.2-0.4-0.4v-3.4c-1.6-0.3-3.1-0.9-4.5-1.8l-2.4,2.4c-0.1,0.1-0.4,0.1-0.5,0
		l-2.4-2.4c-0.1-0.1-0.1-0.2-0.1-0.3s0-0.2,0.1-0.3l2.4-2.4c-0.9-1.3-1.6-2.9-1.8-4.5h-3.4c-0.2,0-0.4-0.2-0.4-0.4v-3.4
		c0-0.2,0.2-0.4,0.4-0.4h3.4c0.3-1.6,0.9-3.1,1.8-4.5l-2.4-2.4c-0.1-0.1-0.1-0.4,0-0.5l2.4-2.4c0.1-0.1,0.4-0.1,0.5,0l2.4,2.4
		c1.3-0.9,2.9-1.6,4.5-1.8v-3.4c0-0.2,0.2-0.4,0.4-0.4h3.4c0.2,0,0.4,0.2,0.4,0.4v3.4c1.6,0.3,3.1,0.9,4.5,1.8l2.4-2.4
		c0.1-0.1,0.4-0.1,0.5,0l2.4,2.4c0.1,0.1,0.1,0.4,0,0.5l-2.4,2.4c0.9,1.3,1.6,2.9,1.8,4.5h3.4c0.2,0,0.4,0.2,0.4,0.4v3.4
		c0,0.2-0.2,0.4-0.4,0.4h-3.4c-0.3,1.6-0.9,3.1-1.8,4.5l2.4,2.4c0.1,0.1,0.1,0.2,0.1,0.3s0,0.2-0.1,0.3l-2.4,2.4
		c-0.1,0.1-0.4,0.1-0.5,0l-2.4-2.4c-1.3,0.9-2.9,1.6-4.5,1.8v3.4C373.9,125.1,373.8,125.3,373.6,125.3z M370.6,124.6h2.6v-3.4
		c0-0.2,0.1-0.3,0.3-0.4c1.7-0.3,3.3-0.9,4.7-1.9c0.1-0.1,0.4-0.1,0.5,0l2.4,2.4l1.9-1.9l-2.4-2.4c-0.1-0.1-0.1-0.3,0-0.5
		c1-1.4,1.7-3,1.9-4.7c0-0.2,0.2-0.3,0.4-0.3h3.4v-2.6h-3.4c-0.2,0-0.3-0.1-0.4-0.3c-0.3-1.7-0.9-3.3-1.9-4.7
		c-0.1-0.1-0.1-0.4,0-0.5l2.4-2.4l-1.9-1.9l-2.4,2.4c-0.1,0.1-0.3,0.1-0.5,0c-1.4-1-3-1.7-4.7-1.9c-0.2,0-0.3-0.2-0.3-0.4v-3.4h-2.6
		v3.4c0,0.2-0.1,0.3-0.3,0.4c-1.7,0.3-3.3,0.9-4.7,1.9c-0.2,0.1-0.4,0.1-0.5,0l-2.4-2.4l-1.9,1.9l2.4,2.4c0.1,0.1,0.1,0.3,0,0.5
		c-1,1.4-1.7,3-1.9,4.7c0,0.2-0.2,0.3-0.4,0.3h-3.4v2.6h3.4c0.2,0,0.3,0.1,0.4,0.3c0.3,1.7,0.9,3.3,1.9,4.7c0.1,0.1,0.1,0.4,0,0.5
		l-2.4,2.4l1.9,1.9l2.4-2.4c0.1-0.1,0.3-0.1,0.5,0c1.4,1,3,1.7,4.7,1.9c0.2,0,0.3,0.2,0.3,0.4V124.6z M371.9,115.6
		c-3,0-5.4-2.4-5.4-5.4s2.4-5.4,5.4-5.4s5.4,2.4,5.4,5.4S374.9,115.6,371.9,115.6z M371.9,105.5c-2.6,0-4.7,2.1-4.7,4.7
		s2.1,4.7,4.7,4.7s4.7-2.1,4.7-4.7S374.5,105.5,371.9,105.5z"/>
	<path class="st2" d="M365.6,95.9h-5.1c-0.3,0-0.6-0.3-0.6-0.6v-5.2c-2.4-0.4-4.7-1.4-6.7-2.8l-3.7,3.7c-0.2,0.2-0.6,0.2-0.8,0
		l-3.6-3.6c-0.2-0.2-0.2-0.6,0-0.8l3.7-3.7c-1.4-2-2.3-4.3-2.8-6.7h-5.2c-0.3,0-0.6-0.3-0.6-0.6v-5.1c0-0.3,0.3-0.6,0.6-0.6h5.2
		c0.4-2.4,1.4-4.7,2.8-6.7l-3.7-3.7c-0.1-0.1-0.2-0.3-0.2-0.4s0.1-0.3,0.2-0.4l3.6-3.6c0.2-0.2,0.6-0.2,0.8,0l3.7,3.7
		c2-1.4,4.3-2.3,6.7-2.8v-5.2c0-0.3,0.3-0.6,0.6-0.6h5.1c0.3,0,0.6,0.3,0.6,0.6v5.2c2.4,0.4,4.7,1.4,6.7,2.8l3.7-3.7
		c0.2-0.2,0.6-0.2,0.8,0l3.6,3.6c0.1,0.1,0.2,0.3,0.2,0.4s-0.1,0.3-0.2,0.4l-3.7,3.7c1.4,2,2.3,4.3,2.8,6.7h5.2
		c0.3,0,0.6,0.3,0.6,0.6v5.1c0,0.3-0.3,0.6-0.6,0.6h-5.2c-0.4,2.4-1.4,4.7-2.8,6.7l3.7,3.7c0.2,0.2,0.2,0.6,0,0.8l-3.6,3.6
		c-0.2,0.2-0.6,0.2-0.8,0l-3.7-3.7c-2,1.4-4.3,2.3-6.7,2.8v5.2C366.2,95.7,366,95.9,365.6,95.9z M361.1,94.7h3.9v-5.1
		c0-0.3,0.2-0.5,0.5-0.6c2.6-0.4,5-1.4,7.1-2.9c0.2-0.2,0.6-0.1,0.8,0.1l3.6,3.6l2.8-2.8l-3.6-3.6c-0.2-0.2-0.2-0.5-0.1-0.8
		c1.5-2.1,2.5-4.5,2.9-7.1c0-0.3,0.3-0.5,0.6-0.5h5.1v-3.9h-5.1c-0.3,0-0.5-0.2-0.6-0.5c-0.4-2.6-1.4-5-2.9-7.1
		c-0.2-0.2-0.2-0.6,0.1-0.8l3.6-3.6l-2.8-2.8l-3.6,3.6c-0.2,0.2-0.5,0.2-0.8,0.1c-2.1-1.5-4.5-2.6-7.1-2.9c-0.3,0-0.5-0.3-0.5-0.6
		v-5.1h-3.9v5.1c0,0.3-0.2,0.5-0.5,0.6c-2.6,0.4-5,1.4-7.1,2.9c-0.2,0.2-0.6,0.2-0.8-0.1l-3.6-3.6l-2.8,2.8l3.6,3.6
		c0.2,0.2,0.2,0.5,0.1,0.8c-1.5,2.1-2.5,4.5-2.9,7.1c0,0.3-0.3,0.5-0.6,0.5h-5.1V75h5.1c0.3,0,0.5,0.2,0.6,0.5
		c0.4,2.6,1.4,5,2.9,7.1c0.2,0.2,0.2,0.6-0.1,0.8l-3.6,3.6l2.8,2.8l3.6-3.6c0.2-0.2,0.5-0.2,0.8-0.1c2.1,1.5,4.5,2.6,7.1,2.9
		c0.3,0,0.5,0.3,0.5,0.6V94.7z M363.1,81.3c-4.6,0-8.3-3.7-8.3-8.3s3.7-8.3,8.3-8.3s8.3,3.7,8.3,8.3S367.6,81.3,363.1,81.3z
		 M363.1,65.9c-3.9,0-7.1,3.2-7.1,7.1s3.2,7.1,7.1,7.1s7.1-3.2,7.1-7.1S367,65.9,363.1,65.9z"/>
	<path class="st2" d="M444.4,154c-0.2,0-0.4-0.2-0.4-0.4v-31.7c0-0.2,0.2-0.4,0.4-0.4h8.2V66.8c0-0.2,0.2-0.4,0.4-0.4
		s0.4,0.2,0.4,0.4v55.1c0,0.2-0.2,0.4-0.4,0.4h-8.2v31.3C444.8,153.8,444.6,154,444.4,154z"/>
	<path class="st2" d="M571.9,186c-0.2,0-0.4-0.2-0.4-0.4v-38.9H557c-0.2,0-0.4-0.2-0.4-0.4v-22.6c0-0.2,0.2-0.4,0.4-0.4
		s0.4,0.2,0.4,0.4V146h14.6c0.2,0,0.4,0.2,0.4,0.4v39.3C572.3,185.9,572.1,186,571.9,186z"/>
	<path class="st2" d="M606.2,171.2c-0.2,0-0.4-0.2-0.4-0.4v-52.4h-41.4c-0.2,0-0.4-0.2-0.4-0.4s0.2-0.4,0.4-0.4h41.8
		c0.2,0,0.4,0.2,0.4,0.4v52.7C606.6,171,606.5,171.2,606.2,171.2z"/>
	<path class="st2" d="M553.7,166.1c-0.2,0-0.4-0.2-0.4-0.4v-19.3c0-0.2,0.2-0.4,0.4-0.4h3.3c0.2,0,0.4,0.2,0.4,0.4s-0.2,0.4-0.4,0.4
		h-2.9v19C554.1,165.9,553.9,166.1,553.7,166.1z"/>
	<path class="st2" d="M415,206.3h-71.2c-0.2,0-0.4-0.2-0.4-0.4v-9.7c0-0.2,0.2-0.4,0.4-0.4c0.2,0,0.4,0.2,0.4,0.4v9.3H415
		c0.2,0,0.4,0.2,0.4,0.4S415.2,206.3,415,206.3z"/>
	<g>
		<polygon class="st5" points="444.1,159.5 415,181 415,184.9 444.1,163.2 456.4,172.2 458.9,170.3 		"/>
		<linearGradient id="SVGID_5_" gradientUnits="userSpaceOnUse" x1="461.9731" y1="214" x2="461.9731" y2="187.6646">
			<stop  offset="0" style="stop-color:#6ABC5C"/>
			<stop  offset="1" style="stop-color:#65D2FB"/>
		</linearGradient>
		<rect x="454.5" y="183.3" class="st11" width="14.9" height="26.4"/>
		<polygon class="st5" points="450.4,181 462.5,172.8 473.5,180.6 473.5,183.8 462.6,176.3 450.4,184.6 		"/>
		<rect x="452.7" y="209.7" class="st4" width="18.1" height="1.5"/>
		<rect x="452.7" y="213.3" class="st4" width="18.1" height="1.5"/>
		<g>
			<rect x="481.7" y="205.1" class="st4" width="27.3" height="7.4"/>
			<rect x="481.7" y="197" class="st4" width="27.3" height="7.3"/>
			<path class="st12" d="M406.5,182.4"/>
			<path class="st2" d="M479.5,220.4H415c-0.2,0-0.4-0.2-0.4-0.4v-39c0-0.2,0.2-0.4,0.4-0.4s0.4,0.2,0.4,0.4v28.3h34.7V181
				c0-0.1,0.1-0.2,0.2-0.3l12.1-8.2c0.1-0.1,0.3-0.1,0.4,0l11,7.8c0.1,0.1,0.2,0.2,0.2,0.3v28.7h5.7c0.2,0,0.4,0.2,0.4,0.4V220
				C479.9,220.2,479.7,220.4,479.5,220.4z M415.3,219.6h63.8v-9.5h-5.7c-0.2,0-0.4-0.2-0.4-0.4v-28.9l-10.6-7.5l-11.7,7.9v28.5
				c0,0.2-0.2,0.4-0.4,0.4h-35.1V219.6z"/>
			<path class="st2" d="M480.1,185.7c-0.1,0-0.2,0-0.2-0.1l-17.4-12.3l-17.9,12c-0.1,0.1-0.2,0.1-0.3,0.1c-0.1,0-0.2-0.1-0.2-0.2
				l-1.6-2.5c-0.1-0.2-0.1-0.4,0.1-0.5l19.2-14.4c0.1-0.1,0.3-0.1,0.5,0l19.7,15.1c0.2,0.1,0.2,0.4,0.1,0.5l-1.6,2.2
				C480.3,185.6,480.2,185.7,480.1,185.7z M462.5,172.4c0.1,0,0.2,0,0.2,0.1l17.3,12.3l1.2-1.6L462,168.5l-18.7,14l1.2,1.9
				l17.8-11.9C462.4,172.5,462.4,172.4,462.5,172.4z"/>
			<path class="st2" d="M408.8,186C408.7,186,408.7,186,408.8,186c-0.2,0-0.2-0.1-0.3-0.2l-1.9-2.6c-0.1-0.2-0.1-0.4,0.1-0.5
				l37.5-29.4c0.1-0.1,0.3-0.1,0.5,0l17.6,14.4c0.1,0.1,0.1,0.2,0.1,0.3c0,0.1-0.1,0.2-0.1,0.3l-3.1,2.3c-0.1,0.1-0.3,0.1-0.4,0
				L444.1,160L409,185.9C408.9,185.9,408.8,186,408.8,186z M407.4,183.1l1.4,2l35-25.8c0.1-0.1,0.3-0.1,0.4,0l14.6,10.7l2.5-1.8
				l-17-13.9L407.4,183.1z"/>
			<rect x="424.2" y="185.6" class="st4" width="3.5" height="21"/>
			
				<rect x="438.4" y="185.6" transform="matrix(-1 -1.224647e-16 1.224647e-16 -1 880.3112 392.1281)" class="st4" width="3.5" height="21"/>
			<linearGradient id="SVGID_6_" gradientUnits="userSpaceOnUse" x1="429.7708" y1="196.064" x2="437.5887" y2="196.064">
				<stop  offset="0" style="stop-color:#6ABC5C"/>
				<stop  offset="1" style="stop-color:#65D2FF"/>
			</linearGradient>
			<polygon class="st13" points="428.6,206.6 437.5,206.6 437.5,185.6 428.6,185.6 			"/>
			<rect x="427.7" y="212.2" class="st4" width="10.6" height="5.2"/>
			<path class="st2" d="M474.4,220.4h-25.5c-0.2,0-0.4-0.2-0.4-0.4v-10.3c0-0.2,0.2-0.4,0.4-0.4h25.5c0.2,0,0.4,0.2,0.4,0.4V220
				C474.8,220.2,474.6,220.4,474.4,220.4z M449.2,219.6H474v-9.5h-24.8V219.6z"/>
			<rect x="454.5" y="183.3" class="st4" width="14.9" height="26.4"/>
			<path class="st2" d="M470.8,220.4h-18.1c-0.2,0-0.4-0.2-0.4-0.4v-3.1c0-0.2,0.2-0.4,0.4-0.4h18.1c0.2,0,0.4,0.2,0.4,0.4v3.1
				C471.2,220.2,471,220.4,470.8,220.4z M453.1,219.6h17.3v-2.4h-17.3V219.6z"/>
			<path class="st2" d="M470.8,217.3h-18.1c-0.2,0-0.4-0.2-0.4-0.4v-3.6c0-0.2,0.2-0.4,0.4-0.4h18.1c0.2,0,0.4,0.2,0.4,0.4v3.6
				C471.2,217.1,471,217.3,470.8,217.3z M453.1,216.5h17.3v-2.8h-17.3V216.5z"/>
			<path class="st2" d="M470.8,213.7h-18.1c-0.2,0-0.4-0.2-0.4-0.4v-3.6c0-0.2,0.2-0.4,0.4-0.4h18.1c0.2,0,0.4,0.2,0.4,0.4v3.6
				C471.2,213.5,471,213.7,470.8,213.7z M453.1,212.9h17.3v-2.8h-17.3V212.9z"/>
			<path class="st2" d="M474.3,168.4h-8c-0.2,0-0.4-0.2-0.4-0.4v-6.7c0-0.2,0.2-0.4,0.4-0.4h8c0.2,0,0.4,0.2,0.4,0.4v6.7
				C474.7,168.2,474.5,168.4,474.3,168.4z M466.7,167.6h7.2v-6h-7.2V167.6z"/>
			<path class="st2" d="M473.1,161.7h-5.5c-0.2,0-0.4-0.2-0.4-0.4v-6.7c0-0.2,0.2-0.4,0.4-0.4h5.5c0.2,0,0.4,0.2,0.4,0.4v6.7
				C473.5,161.5,473.3,161.7,473.1,161.7z M468,160.9h4.7v-6H468V160.9z"/>
			<path class="st2" d="M473.1,152.1h-5.5c-0.2,0-0.4-0.2-0.4-0.4v-2.3c0-0.2,0.2-0.4,0.4-0.4h5.5c0.2,0,0.4,0.2,0.4,0.4v2.3
				C473.5,151.9,473.3,152.1,473.1,152.1z M468,151.3h4.7v-1.5H468V151.3z"/>
			<path class="st2" d="M474.3,154.9h-8c-0.2,0-0.4-0.2-0.4-0.4v-2.9c0-0.2,0.2-0.4,0.4-0.4h8c0.2,0,0.4,0.2,0.4,0.4v2.9
				C474.7,154.7,474.5,154.9,474.3,154.9z M466.7,154.2h7.2v-2.1h-7.2V154.2z"/>
			<path class="st2" d="M466.3,165h-8.5c-0.2,0-0.4-0.2-0.4-0.4s0.2-0.4,0.4-0.4h8.5c0.2,0,0.4,0.2,0.4,0.4S466.6,165,466.3,165z"/>
			<path class="st2" d="M518.6,188.3h-45.1c-0.2,0-0.4-0.2-0.4-0.4s0.2-0.4,0.4-0.4h44.8V165h-43.9c-0.2,0-0.4-0.2-0.4-0.4
				s0.2-0.4,0.4-0.4h44.3c0.2,0,0.4,0.2,0.4,0.4V188C519,188.2,518.9,188.3,518.6,188.3z"/>
			<path class="st2" d="M518.6,191.9h-45.1c-0.2,0-0.4-0.2-0.4-0.4s0.2-0.4,0.4-0.4h44.8V188c0-0.2,0.2-0.4,0.4-0.4s0.4,0.2,0.4,0.4
				v3.6C519,191.8,518.9,191.9,518.6,191.9z"/>
			<path class="st2" d="M513.7,220.4h-34.2c-0.2,0-0.4-0.2-0.4-0.4s0.2-0.4,0.4-0.4h33.8v-28c0-0.2,0.2-0.4,0.4-0.4s0.4,0.2,0.4,0.4
				V220C514.1,220.2,513.9,220.4,513.7,220.4z"/>
			<path class="st2" d="M444.4,176.6c-3,0-5.4-2.4-5.4-5.4c0-3,2.4-5.4,5.4-5.4s5.4,2.4,5.4,5.4
				C449.8,174.2,447.4,176.6,444.4,176.6z M444.4,166.5c-2.6,0-4.7,2.1-4.7,4.7c0,2.6,2.1,4.7,4.7,4.7c2.6,0,4.7-2.1,4.7-4.7
				C449.1,168.6,447,166.5,444.4,166.5z"/>
		</g>
	</g>
	<path class="st2" d="M545.8,173.2h-27.1c-0.2,0-0.4-0.2-0.4-0.4s0.2-0.4,0.4-0.4h27.1c0.2,0,0.4,0.2,0.4,0.4S546,173.2,545.8,173.2
		z"/>
	<path class="st2" d="M546.4,220.6H336.2c-0.3,0-0.6-0.3-0.6-0.6s0.3-0.6,0.6-0.6h210.3c0.3,0,0.6,0.3,0.6,0.6
		S546.8,220.6,546.4,220.6z"/>
	<circle class="st2" cx="343.8" cy="196.2" r="1.6"/>
	<circle class="st2" cx="553.7" cy="165.7" r="1.6"/>
	<circle class="st2" cx="518.6" cy="172.8" r="1.6"/>
	<circle class="st2" cx="444.4" cy="153.6" r="1.6"/>
	<circle class="st2" cx="571.9" cy="185.7" r="1.6"/>
	<circle class="st2" cx="463.6" cy="256.9" r="1.6"/>
	<path class="st2" d="M463.6,257.2c-0.2,0-0.4-0.2-0.4-0.4V220c0-0.2,0.2-0.4,0.4-0.4s0.4,0.2,0.4,0.4v36.9
		C464,257.1,463.8,257.2,463.6,257.2z"/>
	<g>
		<path class="st2" d="M473.3,81.1C473.3,81.1,473.3,81.1,473.3,81.1c-0.2,0-0.3-0.1-0.4-0.3l-5.8-17.7l-8.7,3.6c0,0-0.1,0-0.1,0
			h-10.9c-0.1,0-0.2-0.1-0.3-0.2l-5.3-7.8c0-0.1-0.1-0.1-0.1-0.2l-0.4-5l-12.3-2.1c-0.1,0-0.2-0.1-0.3-0.2l-3.6-7.8
			c0-0.1,0-0.2,0-0.3l3.1-5.6v-7.3c0-0.1,0.1-0.3,0.2-0.3l5.6-2.7l3.3-5.2c0-0.1,0.1-0.1,0.2-0.1l9.7-4.4c0,0,0.1,0,0.1,0l17-1.7
			c0,0,0.1,0,0.1,0l9.7,1.7c0,0,0.1,0,0.1,0l13,7.6c0.1,0.1,0.2,0.2,0.2,0.3l1.2,7l5.5,3.1c0.1,0.1,0.2,0.2,0.2,0.3l1.7,10
			c0,0,0,0.1,0,0.1l-1.5,10.3c0,0.2-0.1,0.3-0.3,0.3l-5.1,0.8l-2.6,5.3c0,0.1-0.1,0.1-0.1,0.1l-4.6,3.1L473.7,81
			C473.6,81.1,473.5,81.1,473.3,81.1z M467.4,62.3c0.1,0,0.1,0,0.2,0c0.1,0,0.2,0.1,0.2,0.2l5.6,17.3l8-14.2c0-0.1,0.1-0.1,0.1-0.1
			l4.5-3.1l2.7-5.4c0.1-0.1,0.2-0.2,0.3-0.2l5-0.8l1.4-10l-1.6-9.8l-5.5-3.1c-0.1-0.1-0.2-0.2-0.2-0.3l-1.2-7L474,18.5l-9.6-1.7
			l-16.9,1.7l-9.5,4.3l-3.3,5.2c0,0.1-0.1,0.1-0.2,0.1l-5.5,2.6v7.1c0,0.1,0,0.1,0,0.2l-3.1,5.5l3.4,7.4l12.4,2.1
			c0.2,0,0.3,0.2,0.3,0.3l0.4,5.2l5.1,7.5h10.7l9-3.8C467.4,62.3,467.4,62.3,467.4,62.3z M434.4,27.8L434.4,27.8L434.4,27.8z"/>
		<path class="st2" d="M445.8,37.9c0,0-0.1,0-0.1,0l-17.1-7c-0.1-0.1-0.2-0.2-0.2-0.3s0.1-0.3,0.2-0.3l5.7-2.7
			c0.1-0.1,0.3,0,0.4,0.1l11.4,9.7c0.1,0.1,0.2,0.3,0.1,0.5C446.1,37.8,445.9,37.9,445.8,37.9z M429.7,30.5l14.1,5.8l-9.4-8
			L429.7,30.5z"/>
		<path class="st2" d="M440.1,44.8c-0.6,0-14-0.9-14.5-0.9c-0.1,0-0.2-0.1-0.3-0.2s-0.1-0.2,0-0.4l3.2-5.7c0-0.1,0.1-0.2,0.2-0.2
			c0.1,0,0.2,0,0.3,0l11.4,6.6c0.1,0.1,0.2,0.3,0.2,0.4C440.4,44.7,440.3,44.8,440.1,44.8z M426.2,43.2c3.8,0.2,9.6,0.6,12.4,0.8
			l-9.7-5.6L426.2,43.2z"/>
		<path class="st2" d="M440.1,44.8C440.1,44.8,440.1,44.8,440.1,44.8c-0.1,0-0.2-0.1-0.3-0.1l-11.4-13.9c-0.1-0.1-0.1-0.3,0-0.5
			s0.3-0.2,0.4-0.1l17.1,7c0.1,0,0.2,0.1,0.2,0.3c0,0.1,0,0.2-0.1,0.3l-5.7,6.9C440.3,44.8,440.2,44.8,440.1,44.8z M430,31.4
			l10.1,12.4l5.1-6.2L430,31.4z"/>
		<path class="st2" d="M441.8,53.8C441.8,53.8,441.8,53.8,441.8,53.8l-12.7-2.1c-0.2,0-0.3-0.1-0.3-0.3c0-0.2,0-0.3,0.2-0.4
			l10.9-6.9c0.1-0.1,0.2-0.1,0.4,0c0.1,0,0.2,0.2,0.2,0.3l1.7,9c0,0.1,0,0.2-0.1,0.3C442,53.8,441.9,53.8,441.8,53.8z M430.2,51.1
			l11.1,1.9l-1.5-7.9L430.2,51.1z"/>
		<path class="st2" d="M447.5,66.8c-0.1,0-0.2-0.1-0.3-0.2l-5.3-7.8c-0.1-0.1-0.1-0.2,0-0.3s0.1-0.2,0.2-0.2l10.6-3.1
			c0.1,0,0.3,0,0.4,0.1c0.1,0.1,0.1,0.3,0,0.4l-5.3,10.9C447.7,66.8,447.6,66.8,447.5,66.8C447.5,66.8,447.5,66.8,447.5,66.8z
			 M442.8,58.9l4.6,6.8l4.7-9.5L442.8,58.9z"/>
		<path class="st2" d="M452.8,56C452.8,56,452.8,56,452.8,56l-11.1-2.2c-0.1,0-0.2-0.1-0.3-0.3c0-0.1,0-0.3,0.1-0.4l9.1-9
			c0.1-0.1,0.2-0.1,0.4-0.1s0.2,0.2,0.3,0.3l1.9,11.2c0,0.1,0,0.2-0.1,0.3C453,56,452.9,56,452.8,56z M442.6,53.2l9.8,1.9l-1.7-9.9
			L442.6,53.2z"/>
		<path class="st2" d="M450.9,44.8h-10.8c-0.1,0-0.3-0.1-0.3-0.2c-0.1-0.1,0-0.3,0-0.4l5.7-6.9c0.1-0.1,0.2-0.1,0.3-0.1
			c0.1,0,0.2,0.1,0.3,0.2l5.1,6.9c0.1,0.1,0.1,0.3,0,0.4C451.2,44.7,451.1,44.8,450.9,44.8z M440.9,44.1h9.3l-4.4-6L440.9,44.1z"/>
		<path class="st2" d="M449.2,28.2c-0.1,0-0.1,0-0.2,0l-11.4-5.3c-0.1-0.1-0.2-0.2-0.2-0.3s0.1-0.3,0.2-0.3l9.7-4.4
			c0.1,0,0.2,0,0.3,0c0.1,0.1,0.2,0.2,0.2,0.3l1.8,9.7c0,0.1,0,0.3-0.1,0.4C449.4,28.2,449.3,28.2,449.2,28.2z M438.7,22.5l10,4.6
			l-1.6-8.5L438.7,22.5z"/>
		<path class="st2" d="M445.8,37.9c-0.1,0-0.3-0.1-0.3-0.2l-8-15c-0.1-0.1-0.1-0.3,0.1-0.4s0.3-0.2,0.4-0.1l11.4,5.3
			c0.2,0.1,0.3,0.3,0.2,0.5l-3.4,9.7C446.1,37.8,446,37.9,445.8,37.9C445.8,37.9,445.8,37.9,445.8,37.9z M438.7,23.3l7.1,13.2l3-8.6
			L438.7,23.3z"/>
		<path class="st2" d="M470.8,33c-0.2,0-0.3-0.1-0.3-0.2l-6.3-16.2c0-0.1,0-0.3,0.1-0.4c0.1-0.1,0.2-0.2,0.4-0.1l9.7,1.7
			c0.1,0,0.2,0.1,0.2,0.2s0.1,0.2,0.1,0.3l-3.4,14.6C471.1,32.9,471,33,470.8,33C470.8,33,470.8,33,470.8,33z M465.1,16.9l5.6,14.5
			l3-13L465.1,16.9z"/>
		<path class="st2" d="M449.2,28.2c0,0-0.1,0-0.1,0c-0.1,0-0.2-0.2-0.2-0.3l-1.8-9.7c0-0.1,0-0.2,0.1-0.3c0.1-0.1,0.2-0.1,0.3-0.1
			l17-1.7c0.2,0,0.3,0.1,0.4,0.2c0.1,0.2,0,0.3-0.1,0.4l-15.3,11.4C449.4,28.2,449.3,28.2,449.2,28.2z M447.9,18.4l1.6,8.7
			l13.7-10.2L447.9,18.4z"/>
		<path class="st2" d="M488.5,33.2C488.5,33.2,488.5,33.2,488.5,33.2L470.8,33c-0.2,0-0.3-0.1-0.4-0.3c0-0.2,0.1-0.3,0.2-0.4l16.4-7
			c0.1,0,0.2,0,0.3,0c0.1,0.1,0.2,0.2,0.2,0.3l1.3,7.1c0,0.1,0,0.2-0.1,0.3C488.7,33.2,488.6,33.2,488.5,33.2z M472.6,32.3l15.4,0.1
			l-1.1-6.2L472.6,32.3z"/>
		<path class="st2" d="M486.4,63.1c-0.1,0-0.3-0.1-0.3-0.2l-6.7-11.6c-0.1-0.2-0.1-0.3,0.1-0.5c0.1-0.1,0.3-0.1,0.5,0l9.5,6.2
			c0.2,0.1,0.2,0.3,0.1,0.5l-2.7,5.5C486.6,63,486.5,63.1,486.4,63.1C486.4,63.1,486.4,63.1,486.4,63.1z M480.7,52.2l5.6,9.7
			l2.3-4.5L480.7,52.2z"/>
		<path class="st2" d="M479.6,51.4c-0.1,0-0.2-0.1-0.3-0.2c-0.1-0.1-0.1-0.3,0-0.5l14.5-15c0.1-0.1,0.2-0.1,0.4-0.1
			c0.1,0,0.2,0.2,0.3,0.3l1.7,10c0,0.2-0.1,0.4-0.3,0.4l-16.2,5C479.7,51.4,479.7,51.4,479.6,51.4z M493.9,36.8l-13,13.4l14.5-4.5
			L493.9,36.8z"/>
		<path class="st2" d="M479.6,40.1c-0.1,0-0.2,0-0.2-0.1l-8.8-7.1c-0.1-0.1-0.2-0.3-0.1-0.4c0.1-0.1,0.2-0.2,0.4-0.2c0,0,0,0,0,0
			l17.7,0.2c0.2,0,0.3,0.1,0.4,0.3c0.1,0.2,0,0.3-0.1,0.4l-8.8,6.9C479.8,40.1,479.7,40.1,479.6,40.1z M471.9,33l7.8,6.2l7.8-6
			L471.9,33z"/>
		<path class="st2" d="M479.6,51.4c0,0-0.1,0-0.1,0c-0.1-0.1-0.2-0.2-0.2-0.3V39.7c0-0.2,0.1-0.3,0.3-0.4l14.5-3.7
			c0.2,0,0.3,0,0.4,0.2c0.1,0.1,0.1,0.3-0.1,0.4l-14.5,15C479.8,51.4,479.7,51.4,479.6,51.4z M480,40v10.1l13-13.4L480,40z"/>
		<path class="st2" d="M452.8,56c0,0-0.1,0-0.1,0c-0.1,0-0.2-0.2-0.3-0.3l-1.9-11.2c0-0.2,0.1-0.4,0.3-0.4l15.8-4.7
			c0.2,0,0.3,0,0.4,0.2s0.1,0.3,0,0.4l-13.9,15.9C453,55.9,452.9,56,452.8,56z M451.4,44.7l1.7,10.1l12.5-14.3L451.4,44.7z"/>
		<path class="st2" d="M479.6,51.4c-0.1,0-0.2,0-0.2-0.1L466.5,40c-0.1-0.1-0.2-0.3-0.1-0.4c0.1-0.1,0.2-0.2,0.4-0.2h12.9
			c0.2,0,0.4,0.2,0.4,0.4v11.3c0,0.1-0.1,0.3-0.2,0.3C479.7,51.4,479.7,51.4,479.6,51.4z M467.7,40.1l11.6,10.1V40.1H467.7z"/>
		<path class="st2" d="M458.4,66.8c-0.1,0-0.3-0.1-0.3-0.2l-5.6-10.9c-0.1-0.1,0-0.3,0.1-0.4c0.1-0.1,0.3-0.1,0.4-0.1l14.6,7.1
			c0.1,0.1,0.2,0.2,0.2,0.3s-0.1,0.3-0.2,0.3l-9,3.8C458.5,66.8,458.5,66.8,458.4,66.8z M453.7,56.4l4.9,9.6l8-3.3L453.7,56.4z"/>
		<path class="st2" d="M470.2,71.5c-0.1,0-0.1,0-0.2,0c-0.1,0-0.2-0.1-0.2-0.2l-2.7-8.4c0-0.1,0-0.3,0.1-0.4
			c0.1-0.1,0.2-0.1,0.4-0.1l14.3,3.2c0.2,0,0.3,0.2,0.3,0.3s-0.1,0.3-0.2,0.4l-11.6,5.2C470.3,71.4,470.2,71.5,470.2,71.5z
			 M468,63.2l2.4,7.4l10.2-4.6L468,63.2z"/>
		<path class="st2" d="M481.7,66.2C481.7,66.2,481.7,66.2,481.7,66.2l-14.4-3.2c-0.1,0-0.2-0.1-0.3-0.3s0-0.3,0.1-0.4l12.2-11.6
			c0.1-0.1,0.2-0.1,0.4-0.1c0.1,0,0.2,0.2,0.2,0.3l2.1,14.8c0,0.1,0,0.2-0.1,0.3C481.9,66.2,481.8,66.2,481.7,66.2z M468.2,62.5
			l13.1,2.9l-1.9-13.5L468.2,62.5z"/>
		<path class="st2" d="M462.9,53.8c-0.1,0-0.2,0-0.3-0.1c-0.1-0.1-0.1-0.2-0.1-0.3l3.8-13.7c0-0.1,0.1-0.2,0.3-0.3
			c0.1,0,0.3,0,0.4,0.1l12.9,11.3c0.1,0.1,0.2,0.2,0.1,0.4c0,0.1-0.2,0.2-0.3,0.3L462.9,53.8C463,53.8,463,53.8,462.9,53.8z
			 M466.9,40.4L463.5,53l15.3-2.2L466.9,40.4z"/>
		<path class="st2" d="M467.4,63.1c-0.1,0-0.1,0-0.2,0L452.7,56c-0.1-0.1-0.2-0.2-0.2-0.4c0-0.2,0.1-0.3,0.3-0.3l10.1-2.2
			c0.2,0,0.3,0,0.4,0.2l4.5,9.3c0.1,0.1,0,0.3-0.1,0.4C467.6,63,467.5,63.1,467.4,63.1z M454,55.8l12.7,6.1l-3.9-8L454,55.8z"/>
		<path class="st2" d="M450.9,44.8c-0.1,0-0.1,0-0.2,0c-0.1-0.1-0.2-0.2-0.2-0.3l-1.7-16.6c0-0.1,0-0.2,0.1-0.3s0.2-0.1,0.3-0.1
			l21.6,4.8c0.2,0,0.3,0.2,0.3,0.3c0,0.2,0,0.3-0.2,0.4l-19.9,11.8C451.1,44.8,451,44.8,450.9,44.8z M449.7,28.3l1.6,15.5l18.6-11
			L449.7,28.3z"/>
		<path class="st2" d="M479.6,40.1h-12.9c-0.1,0-0.3-0.1-0.3-0.2c-0.1-0.1-0.1-0.3,0-0.4l4.1-7.1c0.1-0.1,0.1-0.2,0.3-0.2
			c0.1,0,0.2,0,0.3,0.1l8.8,7.1c0.1,0.1,0.2,0.3,0.1,0.4S479.8,40.1,479.6,40.1z M467.3,39.3h11.2l-7.7-6.1L467.3,39.3z"/>
	</g>
	<g>
		<path class="st2" d="M448.8,401.9H177c-0.2,0-0.4-0.2-0.4-0.4s0.2-0.4,0.4-0.4h271.9c10.8,0,19.6-8.8,19.6-19.6v-36h-8.2v32.7
			c0,8.1-6.6,14.6-14.6,14.6H116.1c-0.2,0-0.4-0.2-0.4-0.4s0.2-0.4,0.4-0.4h329.5c7.6,0,13.9-6.2,13.9-13.9v-33.1
			c0-0.2,0.2-0.4,0.4-0.4h9c0.2,0,0.4,0.2,0.4,0.4v36.4C469.2,392.7,460,401.9,448.8,401.9z"/>
	</g>
	<g>
		<path class="st2" d="M54.3,466.2c0,0-0.1,0-0.1,0c-0.2-0.1-0.3-0.3-0.2-0.5c0.3-0.8,0.8-2.4,1.8-4.7c0.1-0.2,0.3-0.3,0.5-0.2
			c0.2,0.1,0.3,0.3,0.2,0.5c-0.9,2.3-1.5,3.9-1.8,4.7C54.6,466.1,54.4,466.2,54.3,466.2z M58,456.9c-0.1,0-0.1,0-0.2,0
			c-0.2-0.1-0.3-0.3-0.2-0.5c0.7-1.5,1.4-3,2.2-4.5c0.1-0.2,0.3-0.3,0.5-0.2c0.2,0.1,0.3,0.3,0.2,0.5c-0.8,1.5-1.5,3-2.2,4.5
			C58.3,456.9,58.2,456.9,58,456.9z M62.6,448c-0.1,0-0.1,0-0.2,0c-0.2-0.1-0.2-0.3-0.1-0.5c0.8-1.5,1.7-2.9,2.5-4.3
			c0.1-0.2,0.3-0.2,0.5-0.1c0.2,0.1,0.2,0.3,0.1,0.5c-0.9,1.4-1.7,2.9-2.5,4.3C62.8,447.9,62.7,448,62.6,448z M67.8,439.4
			c-0.1,0-0.1,0-0.2-0.1c-0.2-0.1-0.2-0.3-0.1-0.5c0.9-1.4,1.9-2.8,2.9-4.1c0.1-0.2,0.4-0.2,0.5-0.1c0.2,0.1,0.2,0.4,0.1,0.5
			c-1,1.3-1.9,2.7-2.8,4.1C68,439.4,67.9,439.4,67.8,439.4z M73.7,431.3c-0.1,0-0.2,0-0.2-0.1c-0.2-0.1-0.2-0.4-0.1-0.5
			c1-1.3,2.1-2.6,3.2-3.9c0.1-0.2,0.4-0.2,0.5,0c0.2,0.1,0.2,0.4,0,0.5c-1.1,1.2-2.2,2.5-3.2,3.8C73.9,431.3,73.8,431.3,73.7,431.3z
			 M80.2,423.8c-0.1,0-0.2,0-0.3-0.1c-0.1-0.1-0.2-0.4,0-0.5c1.2-1.2,2.4-2.4,3.6-3.5c0.2-0.1,0.4-0.1,0.5,0c0.1,0.2,0.1,0.4,0,0.5
			c-1.2,1.1-2.4,2.3-3.5,3.5C80.4,423.8,80.3,423.8,80.2,423.8z M87.5,417c-0.1,0-0.2,0-0.3-0.1c-0.1-0.2-0.1-0.4,0-0.5
			c1.3-1.1,2.6-2.1,3.9-3.1c0.2-0.1,0.4-0.1,0.5,0.1c0.1,0.2,0.1,0.4-0.1,0.5c-1.3,1-2.6,2-3.9,3.1C87.7,416.9,87.6,417,87.5,417z
			 M95.5,410.9c-0.1,0-0.2-0.1-0.3-0.2c-0.1-0.2-0.1-0.4,0.1-0.5c1.4-0.9,2.8-1.8,4.3-2.7c0.2-0.1,0.4,0,0.5,0.1
			c0.1,0.2,0,0.4-0.1,0.5c-1.4,0.8-2.8,1.7-4.2,2.6C95.7,410.9,95.6,410.9,95.5,410.9z M104.1,405.9c-0.1,0-0.3-0.1-0.3-0.2
			c-0.1-0.2,0-0.4,0.2-0.5c1.5-0.8,3-1.5,4.6-2.1c0.2-0.1,0.4,0,0.5,0.2c0.1,0.2,0,0.4-0.2,0.5c-1.5,0.6-3,1.4-4.5,2.1
			C104.3,405.9,104.2,405.9,104.1,405.9z M113.3,402c-0.2,0-0.3-0.1-0.4-0.2c-0.1-0.2,0-0.4,0.2-0.5c1.6-0.6,3.2-1.1,4.8-1.5
			c0.2-0.1,0.4,0.1,0.5,0.3c0.1,0.2-0.1,0.4-0.3,0.5c-1.6,0.5-3.2,1-4.7,1.5C113.4,402,113.4,402,113.3,402z M122.9,399.3
			c-0.2,0-0.3-0.1-0.4-0.3c0-0.2,0.1-0.4,0.3-0.4c1.6-0.4,3.3-0.7,4.9-0.9c0.2,0,0.4,0.1,0.4,0.3c0,0.2-0.1,0.4-0.3,0.4
			C126.3,398.6,124.6,398.9,122.9,399.3C123,399.3,123,399.3,122.9,399.3z M132.8,397.7c-0.2,0-0.4-0.1-0.4-0.3
			c0-0.2,0.1-0.4,0.3-0.4c1.6-0.2,3.3-0.3,5-0.3c0.2,0,0.4,0.2,0.4,0.4c0,0.2-0.2,0.4-0.4,0.4C136.1,397.5,134.5,397.6,132.8,397.7
			C132.8,397.7,132.8,397.7,132.8,397.7z M446.7,397.4h-3.5c-0.2,0-0.4-0.2-0.4-0.4s0.2-0.4,0.4-0.4h3.5c0.5,0,1,0,1.5-0.1
			c0.2,0,0.4,0.1,0.4,0.3c0,0.2-0.1,0.4-0.3,0.4C447.8,397.4,447.3,397.4,446.7,397.4z M438.2,397.4h-5c-0.2,0-0.4-0.2-0.4-0.4
			s0.2-0.4,0.4-0.4h5c0.2,0,0.4,0.2,0.4,0.4S438.4,397.4,438.2,397.4z M428.2,397.4h-5c-0.2,0-0.4-0.2-0.4-0.4s0.2-0.4,0.4-0.4h5
			c0.2,0,0.4,0.2,0.4,0.4S428.4,397.4,428.2,397.4z M418.1,397.4h-5c-0.2,0-0.4-0.2-0.4-0.4s0.2-0.4,0.4-0.4h5
			c0.2,0,0.4,0.2,0.4,0.4S418.3,397.4,418.1,397.4z M408.1,397.4h-5c-0.2,0-0.4-0.2-0.4-0.4s0.2-0.4,0.4-0.4h5
			c0.2,0,0.4,0.2,0.4,0.4S408.3,397.4,408.1,397.4z M398.1,397.4h-5c-0.2,0-0.4-0.2-0.4-0.4s0.2-0.4,0.4-0.4h5
			c0.2,0,0.4,0.2,0.4,0.4S398.3,397.4,398.1,397.4z M388.1,397.4h-5c-0.2,0-0.4-0.2-0.4-0.4s0.2-0.4,0.4-0.4h5
			c0.2,0,0.4,0.2,0.4,0.4S388.3,397.4,388.1,397.4z M378.1,397.4h-5c-0.2,0-0.4-0.2-0.4-0.4s0.2-0.4,0.4-0.4h5
			c0.2,0,0.4,0.2,0.4,0.4S378.3,397.4,378.1,397.4z M368.1,397.4h-5c-0.2,0-0.4-0.2-0.4-0.4s0.2-0.4,0.4-0.4h5
			c0.2,0,0.4,0.2,0.4,0.4S368.3,397.4,368.1,397.4z M358,397.4h-5c-0.2,0-0.4-0.2-0.4-0.4s0.2-0.4,0.4-0.4h5c0.2,0,0.4,0.2,0.4,0.4
			S358.2,397.4,358,397.4z M348,397.4h-5c-0.2,0-0.4-0.2-0.4-0.4s0.2-0.4,0.4-0.4h5c0.2,0,0.4,0.2,0.4,0.4S348.2,397.4,348,397.4z
			 M338,397.4h-5c-0.2,0-0.4-0.2-0.4-0.4s0.2-0.4,0.4-0.4h5c0.2,0,0.4,0.2,0.4,0.4S338.2,397.4,338,397.4z M328,397.4h-5
			c-0.2,0-0.4-0.2-0.4-0.4s0.2-0.4,0.4-0.4h5c0.2,0,0.4,0.2,0.4,0.4S328.2,397.4,328,397.4z M318,397.4h-5c-0.2,0-0.4-0.2-0.4-0.4
			s0.2-0.4,0.4-0.4h5c0.2,0,0.4,0.2,0.4,0.4S318.2,397.4,318,397.4z M308,397.4h-5c-0.2,0-0.4-0.2-0.4-0.4s0.2-0.4,0.4-0.4h5
			c0.2,0,0.4,0.2,0.4,0.4S308.2,397.4,308,397.4z M298,397.4h-5c-0.2,0-0.4-0.2-0.4-0.4s0.2-0.4,0.4-0.4h5c0.2,0,0.4,0.2,0.4,0.4
			S298.2,397.4,298,397.4z M288,397.4h-5c-0.2,0-0.4-0.2-0.4-0.4s0.2-0.4,0.4-0.4h5c0.2,0,0.4,0.2,0.4,0.4S288.2,397.4,288,397.4z
			 M277.9,397.4h-5c-0.2,0-0.4-0.2-0.4-0.4s0.2-0.4,0.4-0.4h5c0.2,0,0.4,0.2,0.4,0.4S278.2,397.4,277.9,397.4z M267.9,397.4h-5
			c-0.2,0-0.4-0.2-0.4-0.4s0.2-0.4,0.4-0.4h5c0.2,0,0.4,0.2,0.4,0.4S268.1,397.4,267.9,397.4z M257.9,397.4h-5
			c-0.2,0-0.4-0.2-0.4-0.4s0.2-0.4,0.4-0.4h5c0.2,0,0.4,0.2,0.4,0.4S258.1,397.4,257.9,397.4z M247.9,397.4h-5
			c-0.2,0-0.4-0.2-0.4-0.4s0.2-0.4,0.4-0.4h5c0.2,0,0.4,0.2,0.4,0.4S248.1,397.4,247.9,397.4z M237.9,397.4h-5
			c-0.2,0-0.4-0.2-0.4-0.4s0.2-0.4,0.4-0.4h5c0.2,0,0.4,0.2,0.4,0.4S238.1,397.4,237.9,397.4z M227.9,397.4h-5
			c-0.2,0-0.4-0.2-0.4-0.4s0.2-0.4,0.4-0.4h5c0.2,0,0.4,0.2,0.4,0.4S228.1,397.4,227.9,397.4z M217.9,397.4h-5
			c-0.2,0-0.4-0.2-0.4-0.4s0.2-0.4,0.4-0.4h5c0.2,0,0.4,0.2,0.4,0.4S218.1,397.4,217.9,397.4z M207.9,397.4h-5
			c-0.2,0-0.4-0.2-0.4-0.4s0.2-0.4,0.4-0.4h5c0.2,0,0.4,0.2,0.4,0.4S208.1,397.4,207.9,397.4z M197.9,397.4h-5
			c-0.2,0-0.4-0.2-0.4-0.4s0.2-0.4,0.4-0.4h5c0.2,0,0.4,0.2,0.4,0.4S198.1,397.4,197.9,397.4z M187.8,397.4h-5
			c-0.2,0-0.4-0.2-0.4-0.4s0.2-0.4,0.4-0.4h5c0.2,0,0.4,0.2,0.4,0.4S188.1,397.4,187.8,397.4z M177.8,397.4h-5
			c-0.2,0-0.4-0.2-0.4-0.4s0.2-0.4,0.4-0.4h5c0.2,0,0.4,0.2,0.4,0.4S178,397.4,177.8,397.4z M167.8,397.4h-5c-0.2,0-0.4-0.2-0.4-0.4
			s0.2-0.4,0.4-0.4h5c0.2,0,0.4,0.2,0.4,0.4S168,397.4,167.8,397.4z M157.8,397.4h-5c-0.2,0-0.4-0.2-0.4-0.4s0.2-0.4,0.4-0.4h5
			c0.2,0,0.4,0.2,0.4,0.4S158,397.4,157.8,397.4z M147.8,397.4h-5c-0.2,0-0.4-0.2-0.4-0.4s0.2-0.4,0.4-0.4h5c0.2,0,0.4,0.2,0.4,0.4
			S148,397.4,147.8,397.4z M453.1,396.1c-0.1,0-0.3-0.1-0.3-0.2c-0.1-0.2,0-0.4,0.2-0.5c1.5-0.6,2.9-1.4,4.2-2.5
			c0.2-0.1,0.4-0.1,0.5,0.1c0.1,0.2,0.1,0.4-0.1,0.5c-1.3,1.1-2.8,1.9-4.4,2.6C453.2,396.1,453.2,396.1,453.1,396.1z M460.8,389.9
			c-0.1,0-0.1,0-0.2-0.1c-0.2-0.1-0.2-0.4-0.1-0.5c0.9-1.4,1.6-2.8,2.1-4.4c0.1-0.2,0.3-0.3,0.5-0.2c0.2,0.1,0.3,0.3,0.2,0.5
			c-0.5,1.6-1.3,3.2-2.2,4.6C461,389.9,460.9,389.9,460.8,389.9z M463.8,380.6C463.8,380.6,463.8,380.6,463.8,380.6
			c-0.2,0-0.4-0.2-0.4-0.4l0-5c0-0.2,0.2-0.4,0.4-0.4s0.4,0.2,0.4,0.4l0,5C464.2,380.4,464,380.6,463.8,380.6z M463.8,370.6
			c-0.2,0-0.4-0.2-0.4-0.4v-5c0-0.2,0.2-0.4,0.4-0.4s0.4,0.2,0.4,0.4v5C464.2,370.4,464,370.6,463.8,370.6z M463.8,360.6
			c-0.2,0-0.4-0.2-0.4-0.4v-5c0-0.2,0.2-0.4,0.4-0.4s0.4,0.2,0.4,0.4v5C464.2,360.4,464,360.6,463.8,360.6z M463.8,350.6
			c-0.2,0-0.4-0.2-0.4-0.4v-5c0-0.2,0.2-0.4,0.4-0.4s0.4,0.2,0.4,0.4v5C464.2,350.4,464,350.6,463.8,350.6z"/>
	</g>
	<ellipse class="st5" cx="577.9" cy="225.1" rx="10" ry="2.6"/>
	<g>
		<defs>
			<rect id="SVGID_7_" x="389.5" y="345.2" width="149.1" height="9.8"/>
		</defs>
		<clipPath id="SVGID_8_">
			<use xlink:href="#SVGID_7_"  style="overflow:visible;"/>
		</clipPath>
		<ellipse class="st14" cx="463.6" cy="345.6" rx="71.1" ry="3.1"/>
	</g>
	<g>
		<g>
			<path class="st2" d="M524.5,337.8H402.8c-0.2,0-0.4-0.2-0.4-0.4V264c0-4.1,3.4-7.5,7.5-7.5h107.4c4.1,0,7.5,3.4,7.5,7.5v73.4
				C524.9,337.6,524.7,337.8,524.5,337.8z M403.2,337h120.9v-73c0-3.7-3-6.7-6.7-6.7H409.9c-3.7,0-6.7,3-6.7,6.7V337z"/>
			<path class="st2" d="M530.8,345.6H396.4c-2.4,0-4.3-1.9-4.3-4.3v-1.5c0-0.2,0.2-0.4,0.4-0.4h142.2c0.2,0,0.4,0.2,0.4,0.4v1.5
				C535.1,343.6,533.2,345.6,530.8,345.6z M392.9,340.2v1.1c0,1.9,1.6,3.5,3.5,3.5h134.4c1.9,0,3.5-1.6,3.5-3.5v-1.1H392.9z"/>
			<path class="st2" d="M534.7,340.2H392.6c-0.2,0-0.4-0.2-0.4-0.4v-2.4c0-0.2,0.2-0.4,0.4-0.4h142.2c0.2,0,0.4,0.2,0.4,0.4v2.4
				C535.1,340,534.9,340.2,534.7,340.2z M392.9,339.4h141.4v-1.6H392.9V339.4z"/>
			<path class="st2" d="M480.1,341.6h-33c-0.2,0-0.4-0.2-0.4-0.4v-1.5c0-0.2,0.2-0.4,0.4-0.4h33c0.2,0,0.4,0.2,0.4,0.4v1.5
				C480.5,341.5,480.4,341.6,480.1,341.6z M447.5,340.9h32.3v-0.7h-32.3V340.9z"/>
		</g>
		<g>
			<rect x="414.2" y="272.5" class="st1" width="30.6" height="22.9"/>
			<path class="st2" d="M444.8,278.3h-30.6c-0.2,0-0.4-0.2-0.4-0.4v-5.4c0-0.2,0.2-0.4,0.4-0.4h30.6c0.2,0,0.4,0.2,0.4,0.4v5.4
				C445.2,278.1,445,278.3,444.8,278.3z M414.5,277.5h29.9v-4.7h-29.9V277.5z"/>
		</g>
		<g>
			<rect x="449.6" y="272.5" class="st1" width="30.6" height="22.9"/>
			<path class="st2" d="M480.2,278.3h-30.6c-0.2,0-0.4-0.2-0.4-0.4v-5.4c0-0.2,0.2-0.4,0.4-0.4h30.6c0.2,0,0.4,0.2,0.4,0.4v5.4
				C480.6,278.1,480.4,278.3,480.2,278.3z M450,277.5h29.9v-4.7H450V277.5z"/>
		</g>
		<g>
			<rect x="485.2" y="272.5" class="st1" width="30.6" height="22.9"/>
			<path class="st2" d="M515.8,278.3h-30.6c-0.2,0-0.4-0.2-0.4-0.4v-5.4c0-0.2,0.2-0.4,0.4-0.4h30.6c0.2,0,0.4,0.2,0.4,0.4v5.4
				C516.1,278.1,516,278.3,515.8,278.3z M485.5,277.5h29.9v-4.7h-29.9V277.5z"/>
		</g>
		<g>
			<rect x="414.2" y="301.8" class="st1" width="30.6" height="22.9"/>
			<path class="st2" d="M444.8,307.6h-30.6c-0.2,0-0.4-0.2-0.4-0.4v-5.4c0-0.2,0.2-0.4,0.4-0.4h30.6c0.2,0,0.4,0.2,0.4,0.4v5.4
				C445.2,307.4,445,307.6,444.8,307.6z M414.5,306.8h29.9v-4.7h-29.9V306.8z"/>
		</g>
		<g>
			<rect x="449.6" y="301.8" class="st1" width="30.6" height="22.9"/>
			<path class="st2" d="M480.2,307.6h-30.6c-0.2,0-0.4-0.2-0.4-0.4v-5.4c0-0.2,0.2-0.4,0.4-0.4h30.6c0.2,0,0.4,0.2,0.4,0.4v5.4
				C480.6,307.4,480.4,307.6,480.2,307.6z M450,306.8h29.9v-4.7H450V306.8z"/>
		</g>
	</g>
	<polygon class="st1" points="307.4,318.4 295.1,335 289.5,344.2 290.1,346.5 291.2,347.9 293.1,347.5 294.2,348 299,359 
		301.4,362.7 313.3,379.1 314.3,375.8 315.6,372.4 314.8,370.7 311.4,350.4 308.4,328.6 	"/>
</g>
<g id="Layer_2">
</g>
<g id="Layer_3">
	<g>
		<path class="st1" d="M389.5,287.3c-0.6-1-1.6-1.3-1.6-1.3s-0.4-1.9-2.8-1.4c-2-2.3-3.2-1.3-3.2-1.3s-0.6-2.6-3.7-1.4
			c1.6-7.5,1-12.1,1-12.1c-0.2-2.6-2.9-2-2.9,0c0,2-1.6,20.3-1.6,20.3s-2.6-1.2-3.9-4c-1.2-2.8-4.2-2.3-4.2-2.3s2.3,4.2,4,7.2
			c1.7,3-0.7,8.2,3.5,10.2c-0.6,7.8-2.8,13.9-2.8,13.9l0,0.2h0l-2.8,8.3l-1.9,5.1c0,0-13.3-25.8-16.4-29.4
			c-2.1-2.5-9.9-6.9-14.7-9.5c-2.3-1.2-3.9-2.1-3.9-2.1v-3.7c6-4.8,8.9-22,8.9-22c3.7-10.8,1.2-21.3,0-22.6
			c-4.9-0.7-6.5,2.3-6.5,2.3s0.9-3.5,3.3-4.2c-1.1-1.7-7.8-3.9-10.2-3.6c-2.4,0.3-4,3.8-4,3.8s-1.7-2.6-0.6-5.6c-1.9,0-5,0-5,0
			s-11.9,5.6-9.4,14.9c0.1,0.1,0.2,0.1,0.3,0.2l-0.7,1.4c-3.9,3.5,0,13,0,13s-3.4,4.9,4,9.8c0.2,1,0.4,3.6,0.5,6.5
			c0.1,4.3,0.1,8.9,0.1,8.9l-2.4,2.1l-0.8,0.7c0,0-13,9.5-16.6,13C289,305.9,274,342,274,344.8c0,2.9,4.8,8,4.8,8l-1.2,1.4l9.8,11
			c0,0,16.6,15.6,23.5,21c-0.2,1.6-0.4,3.5-0.9,6.1h42.8c0.1-1.5,0.1-2.7,0.1-4.2c0.9,0,1.5-0.6,1.5-0.6l0.3-4.5l-0.1-0.2l-0.4-0.8
			c2.7-12.4-4.4-49.5-4.4-49.5s0,0,0,0c0.9,1,15.2,17.7,20.2,17.2c6.6-0.7,9.6-16.1,9.6-16.1l1.9,1.8l3.1-10.6l-2.5-1.8l0,0
			l-0.2-0.1l0.1-0.1l1.1-20.2l3.1-6.7c0,0,1.5,0.3,1.9-1C388.6,293.5,390.2,288.4,389.5,287.3z M299.6,360.2l-5.6-12.9l-2.7,0.5
			c0,0-1.8-1.7-1.7-3.7c0.1-2,15.7-24.2,17.9-25.8c2.5,27.3,7.9,54.7,7.9,54.7l0.1,0.1c-0.4,0.7-0.7,1.3-0.9,1.9
			c-0.7,2.2-1.2,4.1-1.2,4.1L299.6,360.2z"/>
		<g>
			<polygon class="st5" points="335.5,289.8 336.7,290.6 339.8,306.6 331.7,298.2 338.4,303.2 			"/>
			<polygon class="st5" points="310,288.7 310,288.7 323.7,305.5 328.2,298.2 322.4,308.2 			"/>
			<g>
				<path class="st2" d="M325.1,256.6c0,0,0.2-3.3-1.1-3.3c-1.3,0-8.3,2.4-8.9,6.3C320.1,255.2,325.1,256.6,325.1,256.6z"/>
				<path class="st2" d="M331.4,255.9c2.2,0.7,6,1.9,6.2,2.4s-7.2-1.2-8.4-0.2C329.3,257.3,329.2,255.2,331.4,255.9z"/>
				<ellipse class="st2" cx="320.3" cy="262" rx="1.2" ry="1.1"/>
				<ellipse class="st2" cx="332.1" cy="262.2" rx="1.2" ry="1.1"/>
			</g>
			<linearGradient id="SVGID_9_" gradientUnits="userSpaceOnUse" x1="325.7558" y1="338.5509" x2="345.9589" y2="338.5509">
				<stop  offset="0" style="stop-color:#6ABC5C"/>
				<stop  offset="1" style="stop-color:#65D2FF"/>
			</linearGradient>
			<path class="st15" d="M331.7,298.2l5.2,3.9c0,0-1.8,0.7-3.1,2.1c10.6,14.6,12.1,70.1,12.1,70.1l-4.9,4.6l-4.7-4.9
				c0,0,1.7-60.6-5.7-68.7c-2.4-1.5-4.9-3.1-4.9-3.1l2.4-4H331.7z"/>
			<g>
				<path class="st2" d="M340.5,262.3C340.5,262.3,340.5,262.3,340.5,262.3c-0.3,0-0.5-0.3-0.5-0.5c0-5.2-1.2-10.5-2.8-12.4
					c-8.9,1.3-11.6,0.8-14.3,0.2c-2.1-0.4-4.1-0.8-9-0.3c-1.7,0.5-3.1-0.4-4.7-1.3c-0.4-0.2-0.8-0.5-1.3-0.7
					c-0.1-0.1-0.2-0.2-0.2-0.3c-2.6-9.6,9.5-15.5,9.7-15.5c0.1,0,0.1,0,0.2,0h5c0.2,0,0.3,0.1,0.4,0.2c0.1,0.1,0.1,0.3,0.1,0.5
					c-0.6,1.8-0.2,3.4,0.2,4.4c0.7-1.1,2-2.9,3.9-3.2c2.5-0.3,9.4,1.9,10.7,3.8c0.1,0.1,0.1,0.3,0.1,0.4s-0.2,0.3-0.3,0.3
					c-0.9,0.3-1.5,0.9-2,1.6c1.1-0.6,2.7-1.1,5-0.7c0.1,0,0.2,0.1,0.3,0.2c1.4,1.5,3.7,12.4,0.1,23.1
					C340.9,262.2,340.7,262.3,340.5,262.3z M337.4,248.4c0.1,0,0.3,0.1,0.4,0.2c1.7,1.8,2.8,6.1,3.1,10.3c2.3-9.3,0.3-17.6-0.6-19.1
					c-4.3-0.5-5.8,2-5.8,2.1c-0.1,0.2-0.4,0.3-0.6,0.2c-0.2-0.1-0.4-0.4-0.3-0.6c0-0.1,0.9-3.1,3-4.2c-1.8-1.4-7.2-3.2-9.3-2.9
					c-2.1,0.3-3.6,3.4-3.6,3.5c-0.1,0.2-0.2,0.3-0.4,0.3c-0.2,0-0.4-0.1-0.5-0.2c-0.1-0.1-1.6-2.5-0.9-5.4h-4.2
					c-1.1,0.6-11.1,5.9-9.1,14.1c0.4,0.2,0.7,0.4,1.1,0.7c1.5,0.9,2.6,1.6,4,1.2c5.2-0.6,7.2-0.2,9.4,0.3
					C325.7,249.2,328.4,249.7,337.4,248.4C337.3,248.4,337.4,248.4,337.4,248.4z"/>
				<path class="st2" d="M312.7,268.3c-0.2,0-0.3-0.1-0.4-0.2l-4.9-6.4c0,0,0-0.1-0.1-0.1c-0.2-0.4-4-9.9,0.1-13.5
					c0.2-0.2,0.4-0.2,0.6,0l0.5,0.3c1.1,0.7,2.7,1.8,5,3.2c0.1,0.1,0.2,0.2,0.2,0.4c0,0.1,0,0.3-0.1,0.4c-3.9,4.1-0.4,15.2-0.4,15.3
					c0.1,0.2,0,0.5-0.2,0.6C312.9,268.3,312.8,268.3,312.7,268.3z M308.2,261.2l3.4,4.4c-0.8-3.5-1.8-9.9,0.9-13.4
					c-2-1.3-3.5-2.2-4.5-2.9l-0.1-0.1C304.9,252.4,307.9,260.4,308.2,261.2z"/>
				<path class="st2" d="M315.3,373.6c-0.2,0-0.4-0.2-0.5-0.4c-0.1-0.3-5.3-27-7.8-53.7c-3.7,4.1-16.8,23-17,24.8
					c-0.1,1.4,0.9,2.6,1.3,3.1l2.5-0.5c0.3-0.1,0.5,0.1,0.6,0.4c0.1,0.3-0.1,0.5-0.4,0.6l-2.7,0.5c-0.2,0-0.3,0-0.4-0.1
					c-0.1-0.1-2-1.9-1.8-4.1c0.2-2.4,16.1-24.7,18.1-26.2c0.1-0.1,0.3-0.1,0.5-0.1s0.3,0.2,0.3,0.4c2.4,27,7.8,54.4,7.9,54.6
					C315.8,373.2,315.7,373.5,315.3,373.6C315.4,373.6,315.3,373.6,315.3,373.6z"/>
				<path class="st2" d="M314,388.6c-0.3,0-0.5,0-0.7-0.1c-3-1.1-25.3-22-26.3-22.9l-9.9-11c-0.2-0.2-0.2-0.5,0-0.7l0.9-1
					c-1.1-1.2-4.6-5.4-4.6-8c0-3.2,15.3-39.4,18.8-42.8c3.6-3.5,16.1-12.6,16.7-13l3-2.6c0-1.7,0-12.2-0.6-14.8
					c-2.7-1.8-4.3-3.9-4.7-6.1c-0.5-2.5,0.7-4.2,0.8-4.3c0.2-0.2,0.5-0.3,0.7-0.1c0.2,0.2,0.3,0.5,0.1,0.7l0,0c0,0-1,1.5-0.6,3.6
					c0.4,2,1.9,3.9,4.5,5.6c0.1,0.1,0.2,0.2,0.2,0.3c0.6,2.5,0.6,15,0.6,15.5c0,0.1-0.1,0.3-0.2,0.4l-3.2,2.8
					c-0.2,0.1-13.1,9.5-16.6,12.9c-3.3,3.2-18.5,39.3-18.5,42.1c0,2.2,3.4,6.3,4.7,7.7c0.2,0.2,0.2,0.5,0,0.7l-0.9,1l9.5,10.6
					c6.4,6,23.6,21.8,25.9,22.6c2,0.7,8.1-4.3,11.5-7.6c0.1-0.1,0.3-0.2,0.4-0.1c0.1,0,0.3,0.1,0.4,0.2c1.7,2.4,3.9,5,4.7,4.8
					c0.2,0,0.2-0.1,0.3-0.2c0.3-0.5,0.1-1.8-0.2-2.5c-0.1-0.1,0-0.3,0.1-0.4s0.2-0.2,0.4-0.2c0,0,1,0,1.6-0.6
					c0.4-0.4,0.5-1.4,0.6-1.9c-1.5-2.3-4-5.9-4.8-6.3c-0.6-0.4-3.3,0.1-5,0.6c-0.2,0.1-0.4,0-0.6-0.2c-0.1-0.2-0.1-0.4,0.1-0.6
					l2.3-2.4c0.1-0.1,0.3-0.2,0.4-0.2c0,0,4.5,0.4,6-2c-1.5,0.2-3.1,0.2-4.4,0.3c-1.4,0.1-3.1,0.1-3.4,0.3c-0.6,0.4-3.3,3.1-4.8,4.8
					c-0.2,0.2-0.4,0.2-0.6,0.1c-0.2-0.1-0.3-0.4-0.2-0.6c0.3-1,0.9-3.8,0.2-4.9c-0.3,1.4-1.2,2.9-2.1,4.3c-0.7,1.1-1.3,2.2-1.6,3
					l-1.3,4.1c-0.1,0.2-0.2,0.3-0.4,0.3c-0.2,0-0.4,0-0.5-0.2l-13.7-18.9c-0.2-0.2-0.1-0.5,0.1-0.7s0.5-0.1,0.7,0.1l13.1,18.1l1-3.1
					c0.3-1,1-2.1,1.7-3.3c1-1.6,2-3.3,2.1-4.7c0-0.2,0.1-0.3,0.2-0.4c0.1-0.1,0.3-0.1,0.4-0.1c1.7,0.6,1.7,3,1.4,4.7
					c1.3-1.4,3.1-3.3,3.7-3.6c0.5-0.3,1.7-0.4,3.9-0.5c1.6-0.1,3.5-0.2,5.2-0.4c0.2,0,0.3,0,0.5,0.2c0.1,0.1,0.1,0.3,0.1,0.5
					c-1.1,3.7-6,3.6-7.2,3.5l-1,1c1.4-0.3,3.2-0.5,4-0.1c1.2,0.7,4.5,5.7,5.2,6.7c0.1,0.1,0.1,0.2,0.1,0.3c0,0.2,0,1.9-0.9,2.8
					c-0.5,0.5-1.1,0.7-1.6,0.8c0.2,0.7,0.4,1.9-0.1,2.7c-0.2,0.4-0.6,0.6-1,0.7c-1.6,0.3-4.2-3.1-5.4-4.7
					C323.6,382.8,317.2,388.6,314,388.6z"/>
				<path class="st2" d="M328.5,285.5c-8.3,0-14.2-7.3-14.4-7.6c-0.2-0.2-0.1-0.5,0.1-0.7c0.2-0.2,0.5-0.1,0.7,0.1
					c0.1,0.1,5.8,7.2,13.6,7.2c3.9,0,6.8-6.1,8.6-11.3c2-5.7,2.9-11.5,2.9-11.5c0-0.3,0.3-0.5,0.6-0.4c0.3,0,0.5,0.3,0.4,0.6
					C340.9,262.9,337,285.5,328.5,285.5z"/>
				<path class="st2" d="M331.7,298.7h-3.5c-0.1,0-0.2,0-0.3-0.1L312.1,287c-0.2-0.2-0.3-0.5-0.1-0.7c0.2-0.2,0.5-0.3,0.7-0.1
					l15.6,11.5h2.8v-13.9c0-0.3,0.2-0.5,0.5-0.5s0.5,0.2,0.5,0.5v14.4C332.2,298.5,331.9,298.7,331.7,298.7z"/>
				<path class="st2" d="M352.8,392.8h-42.8c-0.1,0-0.3-0.1-0.4-0.2s-0.1-0.3-0.1-0.4c0.4-2.3,0.7-4.2,0.9-6.1
					c0-0.3,0.3-0.5,0.6-0.4c0.3,0,0.5,0.3,0.4,0.6c-0.2,1.7-0.4,3.5-0.8,5.5h41.8c0.1-1.3,0.1-2.4,0.1-3.7c0-0.3,0.2-0.5,0.5-0.5
					c0.5,0,0.9-0.2,1-0.4l0.3-4.2l-0.4-0.9c0-0.1,0-0.2,0-0.3c2.6-12.2-4.3-48.9-4.4-49.3c0-0.2,0.1-0.4,0.3-0.5
					c0.2-0.1,0.5,0,0.6,0.1c4.1,4.9,15.8,17.5,19.8,17.1c6.1-0.6,9.1-15.5,9.1-15.7c0-0.2,0.2-0.3,0.3-0.4c0.2-0.1,0.4,0,0.5,0.1
					l1.3,1.2l2.8-9.5l-2.2-1.6c-0.2-0.2-0.3-0.5-0.1-0.7c0.2-0.2,0.5-0.3,0.7-0.1l2.5,1.8c0.2,0.1,0.3,0.3,0.2,0.5l-3.1,10.6
					c0,0.2-0.2,0.3-0.3,0.3c-0.2,0-0.3,0-0.5-0.1l-1.3-1.2c-0.8,3.4-3.8,15-9.8,15.6c-0.1,0-0.2,0-0.3,0c-4.7,0-15.4-11.7-19.2-16
					c1.4,7.6,6.4,36.7,4.1,47.7l0.4,0.9c0,0.1,0,0.1,0,0.2l-0.3,4.5c0,0.1-0.1,0.2-0.1,0.3c0,0-0.6,0.5-1.4,0.7
					c0,1.3-0.1,2.4-0.1,3.8C353.3,392.6,353,392.8,352.8,392.8z"/>
				<path class="st2" d="M366.7,329.1c-0.2,0-0.4-0.1-0.4-0.3c-0.1-0.3-13.3-25.8-16.4-29.3c-3-3.5-18.3-11.4-18.5-11.5
					c-0.2-0.1-0.3-0.4-0.2-0.7c0.1-0.2,0.4-0.3,0.7-0.2c0.6,0.3,15.6,8.1,18.8,11.8c2.8,3.3,13.5,23.7,16,28.5l1.5-4l2.8-8.4
					c0-0.1,2.1-6,2.7-13.4c-2.6-1.4-2.7-4.1-2.8-6.4c0-1.4-0.1-2.8-0.7-3.9l-4-7.2c-0.1-0.1-0.1-0.3,0-0.5c0.1-0.1,0.2-0.2,0.4-0.3
					c1.1-0.2,3.6,0.1,4.7,2.6c0.8,1.8,2.2,2.9,3,3.4c0.3-3.5,1.5-17.8,1.5-19.5c0-1.4,1-2.2,2-2.2c0.9,0,1.8,0.6,1.9,2.2
					c0,0.2,0.5,4.4-0.9,11.4c0.8-0.2,1.5-0.1,2.1,0.2c0.6,0.3,1,0.9,1.2,1.3c0.6-0.1,1.8-0.1,3.2,1.4c1.8-0.3,2.7,0.8,3,1.6
					c0.4,0.2,1.1,0.5,1.6,1.4c0.6,1.1-0.4,4.8-1.3,7.8c-0.4,1.1-1.4,1.4-2.1,1.4l-2.9,6.3l-1.1,20.2c0,0.3-0.3,0.5-0.5,0.5
					c-0.3,0-0.5-0.2-0.5-0.5l1.1-20.3c0-0.1,0-0.1,0-0.2l3.1-6.7c0.1-0.2,0.3-0.3,0.5-0.3c0.1,0,1,0.1,1.3-0.7
					c1.3-4.2,1.7-6.6,1.4-7c-0.5-0.8-1.2-1-1.3-1c-0.2,0-0.3-0.2-0.4-0.4c0-0.1-0.4-1.4-2.2-1c-0.2,0-0.4,0-0.5-0.2
					c-1.6-1.9-2.5-1.3-2.6-1.2c-0.1,0.1-0.3,0.1-0.5,0.1c-0.2-0.1-0.3-0.2-0.3-0.3c0,0-0.2-0.8-0.9-1.2c-0.5-0.3-1.3-0.3-2.1,0.1
					c-0.2,0.1-0.4,0-0.5-0.1c-0.1-0.1-0.2-0.3-0.2-0.5c1.6-7.3,1-11.9,1-12c-0.1-0.8-0.4-1.3-0.9-1.3c-0.5,0-1,0.5-1,1.2
					c0,2-1.5,19.6-1.6,20.3c0,0.2-0.1,0.3-0.2,0.4c-0.1,0.1-0.3,0.1-0.5,0c-0.1,0-2.8-1.3-4.1-4.2c-0.7-1.6-2.1-2-2.9-2l3.6,6.5
					c0.7,1.2,0.7,2.8,0.8,4.3c0.1,2.4,0.2,4.6,2.5,5.7c0.2,0.1,0.3,0.3,0.3,0.5c-0.6,7.8-2.8,14-2.8,14l-2.8,8.4l-1.9,5.1
					C367.1,329,366.9,329.1,366.7,329.1C366.7,329.1,366.7,329.1,366.7,329.1z"/>
				<path class="st2" d="M328.4,271.9c-0.8,0-1.7-0.3-2.6-0.9c-0.2-0.2-0.3-0.5-0.1-0.7c0.2-0.2,0.5-0.3,0.7-0.1
					c1,0.6,1.9,0.8,2.7,0.7c1.1-0.3,1.7-1.3,1.7-1.3c0.1-0.2,0.4-0.3,0.7-0.2c0.2,0.1,0.3,0.4,0.2,0.7c0,0.1-0.8,1.4-2.3,1.8
					C328.9,271.9,328.7,271.9,328.4,271.9z"/>
				<path class="st2" d="M327.5,276.3c-1.4,0-3.2-0.4-5.3-1.4c-0.2-0.1-0.4-0.4-0.2-0.7c0.1-0.2,0.4-0.4,0.7-0.2
					c6.9,3.3,9.4-0.8,9.4-0.8c0.1-0.2,0.4-0.3,0.7-0.2c0.2,0.1,0.3,0.4,0.2,0.7C332.9,273.7,331.4,276.3,327.5,276.3z"/>
				<path class="st2" d="M344.2,388.6c-0.3,0-0.5-0.2-0.5-0.5c0-0.3,0.2-0.5,0.5-0.5l3.1,0l0.3-6.9c0-0.3,0.2-0.5,0.5-0.5h2.4
					c0.1,0,0.3,0.1,0.4,0.2c0.1,0.1,0.1,0.2,0.1,0.4l-0.5,6.8h2.4c0.3,0,0.5,0.2,0.5,0.5s-0.2,0.5-0.5,0.5H350
					c-0.1,0-0.3-0.1-0.4-0.2c-0.1-0.1-0.1-0.2-0.1-0.4l0.5-6.8h-1.4l-0.3,6.9c0,0.3-0.2,0.5-0.5,0.5L344.2,388.6
					C344.2,388.6,344.2,388.6,344.2,388.6z"/>
				<path class="st2" d="M354.8,383.3L354.8,383.3l-4.1,0c-0.3,0-0.5-0.2-0.5-0.5c0-0.3,0.2-0.5,0.5-0.5h0l4.1,0
					c0.3,0,0.5,0.2,0.5,0.5C355.3,383,355.1,383.3,354.8,383.3z"/>
				<path class="st2" d="M348,383.2h-3.7c-0.3,0-0.5-0.2-0.5-0.5s0.2-0.5,0.5-0.5h3.7c0.3,0,0.5,0.2,0.5,0.5S348.3,383.2,348,383.2z
					"/>
				<path class="st2" d="M343.9,391h-11.4c-0.3,0-0.5-0.2-0.5-0.5v-8.9c0-0.3,0.2-0.5,0.5-0.5s0.5,0.2,0.5,0.5v8.4h10.5l0.3-8.8
					h-10.3c-0.3,0-0.5-0.2-0.5-0.5s0.2-0.5,0.5-0.5h10.9c0.1,0,0.3,0.1,0.4,0.2c0.1,0.1,0.1,0.2,0.1,0.4l-0.4,9.8
					C344.4,390.8,344.2,391,343.9,391z"/>
				<path class="st2" d="M342.6,389.3h-8.8c-0.1,0-0.3-0.1-0.4-0.2c-0.1-0.1-0.1-0.2-0.1-0.4l0.3-6.4c0-0.3,0.2-0.5,0.5-0.5h8.5
					c0.3,0,0.5,0.2,0.5,0.5v2.6c0,0.3-0.2,0.5-0.5,0.5l-2.3,0.2l0,0.9h2.2c0.3,0,0.5,0.2,0.5,0.5v1.8
					C343.1,389,342.9,389.3,342.6,389.3z M334.4,388.3h7.8v-0.8h-2.2c-0.3,0-0.5-0.2-0.5-0.5l-0.1-1.8c0-0.3,0.2-0.5,0.5-0.5
					l2.3-0.2v-1.6h-7.5L334.4,388.3z"/>
				<path class="st2" d="M332.5,388h-5.3c-0.3,0-0.5-0.2-0.5-0.5v-4.8l-1.3-1.7l-0.5,0.5v5.5c0,0.1-0.1,0.3-0.2,0.4
					s-0.2,0.1-0.4,0.1l-6.5-0.5c-0.3,0-0.5-0.3-0.5-0.5c0-0.3,0.3-0.5,0.5-0.5l6,0.5v-5.2c0-0.1,0.1-0.3,0.2-0.4l1.1-1
					c0.1-0.1,0.2-0.1,0.4-0.1c0.1,0,0.3,0.1,0.4,0.2l0.7,0.9l1.1,1.3c0.1,0.1,0.1,0.2,0.1,0.3v4.5h4.8c0.3,0,0.5,0.2,0.5,0.5
					S332.8,388,332.5,388z"/>
				<path class="st2" d="M354.3,382.4h-3.9c-0.3,0-0.5-0.2-0.5-0.5s0.2-0.5,0.5-0.5h3.9c0.3,0,0.5,0.2,0.5,0.5
					S354.6,382.4,354.3,382.4z"/>
				<path class="st2" d="M348,382.4h-3.8c-0.3,0-0.5-0.2-0.5-0.5s0.2-0.5,0.5-0.5h3.8c0.3,0,0.5,0.2,0.5,0.5S348.3,382.4,348,382.4z
					"/>
				<path class="st2" d="M287.3,365.7c-0.2,0-0.4-0.1-0.5-0.3c-0.1-0.3,0-0.5,0.3-0.7l11.8-4.8l-5.2-11.9l-16,6.7
					c-0.3,0.1-0.5,0-0.7-0.3c-0.1-0.3,0-0.5,0.3-0.7l16.4-6.9c0.2-0.1,0.5,0,0.7,0.3L300,360c0.1,0.1,0.1,0.3,0,0.4
					c-0.1,0.1-0.1,0.2-0.3,0.3l-12.2,5C287.5,365.7,287.4,365.7,287.3,365.7z"/>
				<path class="st2" d="M384.4,325.1c-0.1,0-0.2,0-0.3-0.1l-13-9.3c-0.2-0.2-0.3-0.5-0.1-0.7c0.2-0.2,0.5-0.3,0.7-0.1l13,9.3
					c0.2,0.2,0.3,0.5,0.1,0.7C384.8,325.1,384.6,325.1,384.4,325.1z"/>
				<path class="st2" d="M379.7,334c-0.1,0-0.2,0-0.3-0.1l-11.1-10c-0.2-0.2-0.2-0.5,0-0.7c0.2-0.2,0.5-0.2,0.7,0l11.1,10
					c0.2,0.2,0.2,0.5,0,0.7C380,334,379.9,334,379.7,334z"/>
				<path class="st2" d="M350.3,334.6c-0.2,0-0.4-0.2-0.5-0.4c-1.7-8.2-2.7-10.4-2.7-10.4c-0.1-0.2,0-0.5,0.2-0.7
					c0.2-0.1,0.5,0,0.7,0.2c0,0.1,1.1,2.3,2.8,10.7c0.1,0.3-0.1,0.5-0.4,0.6C350.4,334.6,350.3,334.6,350.3,334.6z"/>
			</g>
			<path class="st2" d="M323.7,306c-0.1,0-0.3-0.1-0.4-0.2L309.6,289c-0.2-0.2-0.1-0.5,0.1-0.7c0.2-0.2,0.5-0.1,0.7,0.1l13.3,16.3
				l4.1-6.7c0.1-0.2,0.5-0.3,0.7-0.2c0.2,0.1,0.3,0.5,0.2,0.7l-4.5,7.3C324.1,305.9,323.9,306,323.7,306
				C323.7,306,323.7,306,323.7,306z"/>
			<path class="st2" d="M338.4,303.7c-0.1,0-0.2,0-0.3-0.1l-6.7-4.9c-0.2-0.2-0.3-0.5-0.1-0.7c0.2-0.2,0.5-0.3,0.7-0.1l5.6,4.2
				l-2.6-12c-0.1-0.3,0.1-0.5,0.4-0.6c0.3-0.1,0.5,0.1,0.6,0.4l2.9,13.3c0,0.2,0,0.4-0.2,0.5C338.5,303.6,338.4,303.7,338.4,303.7z"
				/>
		</g>
	</g>
</g>
</svg>
