<?xml version="1.0" encoding="utf-8"?>
<!-- Generator: Adobe Illustrator 22.1.0, SVG Export Plug-In . SVG Version: 6.00 Build 0)  -->
<svg version="1.1" xmlns="http://www.w3.org/2000/svg" xmlns:xlink="http://www.w3.org/1999/xlink" x="0px" y="0px"
	 viewBox="0 0 321.4 333.8" style="enable-background:new 0 0 321.4 333.8;" xml:space="preserve">
<style type="text/css">
	.st0{fill:#6ABC5C;}
	.st1{opacity:0.36;}
	.st2{fill:#65D2FF;}
	.st3{opacity:0.3;fill:#65D2FF;}
	.st4{fill:url(#SVGID_1_);}
	.st5{fill:none;stroke:#212C40;stroke-width:0.75;stroke-linecap:round;stroke-linejoin:round;stroke-miterlimit:10;}
	.st6{fill:#212C40;}
	.st7{fill:url(#SVGID_2_);}
	.st8{fill:url(#SVGID_3_);}
	.st9{fill:url(#SVGID_4_);}
	.st10{fill:#FFFFFF;}
	.st11{fill:#214672;}
	.st12{fill:url(#SVGID_5_);}
	.st13{fill:url(#SVGID_6_);}
</style>
<g id="Layer_1">
	<path class="st0" d="M160.6,298.9c-11.1,0-22.2-1.3-32.8-3.9l0.2-1c10.6,2.6,21.6,3.9,32.6,3.9c12.9,0,25.6-1.8,37.8-5.3l0.3,1
		C186.3,297.1,173.5,298.9,160.6,298.9z"/>
	<g>
		<g class="st1">
			<path class="st2" d="M302.7,154.6c-2.6-48.3-29.7-94.1-75.4-118.3C158-0.2,71.9,26.3,35.3,95.6c-17.5,33.2-21.3,71.3-10.5,107.2
				l4.9-1.5C19.3,166.7,22.9,130,39.8,97.9C75.1,31.2,158.1,5.6,224.9,40.9c44,23.3,70.2,67.3,72.7,113.8H302.7z"/>
		</g>
		<g>
			<g>
				<polygon class="st3" points="139.8,136.6 101.3,165 101.3,170.1 139.8,141.5 156.1,153.4 159.4,150.9 				"/>
				<linearGradient id="SVGID_1_" gradientUnits="userSpaceOnUse" x1="163.435" y1="208.6493" x2="163.435" y2="173.8339">
					<stop  offset="0" style="stop-color:#6ABC5C"/>
					<stop  offset="1" style="stop-color:#65D2FF"/>
				</linearGradient>
				<rect x="153.6" y="168" class="st4" width="19.7" height="34.9"/>
				<polygon class="st3" points="148.2,165 164.1,154.2 178.7,164.5 178.7,168.7 164.3,158.8 148.2,169.8 				"/>
				<rect x="151.2" y="203" class="st2" width="23.9" height="2"/>
				<rect x="151.2" y="207.7" class="st2" width="23.9" height="2"/>
				<g>
					<rect x="189.5" y="196.9" class="st2" width="36.1" height="9.8"/>
					<rect x="189.5" y="186.2" class="st2" width="36.1" height="9.6"/>
					<path class="st5" d="M90,166.9"/>
					<path class="st6" d="M186.6,216.9h-85.4c-0.2,0-0.4-0.2-0.4-0.4V165c0-0.2,0.2-0.4,0.4-0.4s0.4,0.2,0.4,0.4v37.6h46.1V165
						c0-0.1,0.1-0.2,0.2-0.3l15.9-10.8c0.1-0.1,0.3-0.1,0.4,0l14.5,10.3c0.1,0.1,0.2,0.2,0.2,0.3v38.1h7.6c0.2,0,0.4,0.2,0.4,0.4
						v13.6C187,216.8,186.9,216.9,186.6,216.9z M101.7,216.2h84.6v-12.9h-7.6c-0.2,0-0.4-0.2-0.4-0.4v-38.3l-14.2-10.1l-15.6,10.5
						V203c0,0.2-0.2,0.4-0.4,0.4h-46.5V216.2z"/>
					<path class="st6" d="M187.4,171.1c-0.1,0-0.2,0-0.2-0.1l-23-16.3l-23.7,15.9c-0.1,0.1-0.2,0.1-0.3,0.1c-0.1,0-0.2-0.1-0.2-0.2
						l-2.1-3.3c-0.1-0.2-0.1-0.4,0.1-0.5l25.3-19.1c0.1-0.1,0.3-0.1,0.5,0l26,19.9c0.2,0.1,0.2,0.4,0.1,0.5l-2.1,2.9
						C187.6,171,187.5,171.1,187.4,171.1z M164.1,153.8c0.1,0,0.2,0,0.2,0.1l22.9,16.3l1.7-2.3l-25.5-19.5L138.6,167l1.7,2.7
						l23.6-15.8C164,153.8,164.1,153.8,164.1,153.8z"/>
					<path class="st6" d="M93.1,171.5C93.1,171.5,93,171.4,93.1,171.5c-0.2,0-0.2-0.1-0.3-0.2l-2.5-3.4c-0.1-0.2-0.1-0.4,0.1-0.5
						l49.6-38.8c0.1-0.1,0.3-0.1,0.5,0l23.2,19.1c0.1,0.1,0.1,0.2,0.1,0.3c0,0.1-0.1,0.2-0.1,0.3l-4,3c-0.1,0.1-0.3,0.1-0.4,0
						l-19.4-14.1l-46.4,34.3C93.2,171.4,93.2,171.5,93.1,171.5z M91.1,167.7l2,2.8l46.4-34.2c0.1-0.1,0.3-0.1,0.4,0l19.4,14.1
						l3.4-2.6l-22.6-18.6L91.1,167.7z"/>
					<rect x="113.5" y="171.1" class="st2" width="4.7" height="27.7"/>
					
						<rect x="132.2" y="171.1" transform="matrix(-1 -1.224647e-16 1.224647e-16 -1 269.1846 369.8759)" class="st2" width="4.7" height="27.7"/>
					<linearGradient id="SVGID_2_" gradientUnits="userSpaceOnUse" x1="125.2126" y1="195.0988" x2="125.2126" y2="170.952">
						<stop  offset="0" style="stop-color:#6ABC5C"/>
						<stop  offset="1" style="stop-color:#65D2FF"/>
					</linearGradient>
					<polygon class="st7" points="119.3,198.8 131.1,198.8 131.1,171.1 119.3,171.1 					"/>
					<rect x="118.2" y="206.3" class="st2" width="14.1" height="6.9"/>
					<path class="st6" d="M179.8,216.9h-33.8c-0.2,0-0.4-0.2-0.4-0.4V203c0-0.2,0.2-0.4,0.4-0.4h33.8c0.2,0,0.4,0.2,0.4,0.4v13.6
						C180.2,216.8,180.1,216.9,179.8,216.9z M146.5,216.2h33v-12.9h-33V216.2z"/>
					<rect x="153.6" y="168" class="st2" width="19.7" height="34.9"/>
					<path class="st6" d="M175.2,216.9h-23.9c-0.2,0-0.4-0.2-0.4-0.4v-4.1c0-0.2,0.2-0.4,0.4-0.4h23.9c0.2,0,0.4,0.2,0.4,0.4v4.1
						C175.5,216.8,175.4,216.9,175.2,216.9z M151.6,216.2h23.2v-3.4h-23.2V216.2z"/>
					<path class="st6" d="M175.2,212.8h-23.9c-0.2,0-0.4-0.2-0.4-0.4v-4.7c0-0.2,0.2-0.4,0.4-0.4h23.9c0.2,0,0.4,0.2,0.4,0.4v4.7
						C175.5,212.7,175.4,212.8,175.2,212.8z M151.6,212.1h23.2v-4h-23.2V212.1z"/>
					<path class="st6" d="M175.2,208.1h-23.9c-0.2,0-0.4-0.2-0.4-0.4V203c0-0.2,0.2-0.4,0.4-0.4h23.9c0.2,0,0.4,0.2,0.4,0.4v4.7
						C175.5,207.9,175.4,208.1,175.2,208.1z M151.6,207.3h23.2v-4h-23.2V207.3z"/>
					<path class="st6" d="M179.8,148.2h-10.6c-0.2,0-0.4-0.2-0.4-0.4v-8.9c0-0.2,0.2-0.4,0.4-0.4h10.6c0.2,0,0.4,0.2,0.4,0.4v8.9
						C180.1,148.1,180,148.2,179.8,148.2z M169.6,147.5h9.8v-8.2h-9.8V147.5z"/>
					<path class="st6" d="M178.1,139.3h-7.3c-0.2,0-0.4-0.2-0.4-0.4V130c0-0.2,0.2-0.4,0.4-0.4h7.3c0.2,0,0.4,0.2,0.4,0.4v8.9
						C178.5,139.2,178.3,139.3,178.1,139.3z M171.2,138.6h6.5v-8.2h-6.5V138.6z"/>
					<path class="st6" d="M178.1,126.6h-7.3c-0.2,0-0.4-0.2-0.4-0.4v-3c0-0.2,0.2-0.4,0.4-0.4h7.3c0.2,0,0.4,0.2,0.4,0.4v3
						C178.5,126.5,178.3,126.6,178.1,126.6z M171.2,125.9h6.5v-2.3h-6.5V125.9z"/>
					<path class="st6" d="M179.8,130.4h-10.6c-0.2,0-0.4-0.2-0.4-0.4v-3.8c0-0.2,0.2-0.4,0.4-0.4h10.6c0.2,0,0.4,0.2,0.4,0.4v3.8
						C180.1,130.2,180,130.4,179.8,130.4z M169.6,129.7h9.8v-3h-9.8V129.7z"/>
					<path class="st6" d="M169.2,143.8H158c-0.2,0-0.4-0.2-0.4-0.4s0.2-0.4,0.4-0.4h11.2c0.2,0,0.4,0.2,0.4,0.4
						S169.4,143.8,169.2,143.8z"/>
					<path class="st6" d="M238.4,174.6h-59.7c-0.2,0-0.4-0.2-0.4-0.4s0.2-0.4,0.4-0.4H238v-30.1h-58.1c-0.2,0-0.4-0.2-0.4-0.4
						s0.2-0.4,0.4-0.4h58.5c0.2,0,0.4,0.2,0.4,0.4v30.8C238.7,174.4,238.6,174.6,238.4,174.6z"/>
					<path class="st6" d="M238.4,179.4h-59.7c-0.2,0-0.4-0.2-0.4-0.4s0.2-0.4,0.4-0.4H238v-4.4c0-0.2,0.2-0.4,0.4-0.4
						s0.4,0.2,0.4,0.4v4.7C238.7,179.2,238.6,179.4,238.4,179.4z"/>
					<path class="st6" d="M231.8,216.9h-45.2c-0.2,0-0.4-0.2-0.4-0.4s0.2-0.4,0.4-0.4h44.8V179c0-0.2,0.2-0.4,0.4-0.4
						s0.4,0.2,0.4,0.4v37.6C232.2,216.8,232.1,216.9,231.8,216.9z"/>
					<path class="st6" d="M140.2,159.1c-3.9,0-7.1-3.2-7.1-7.1c0-3.9,3.2-7.1,7.1-7.1s7.1,3.2,7.1,7.1
						C147.3,156,144.1,159.1,140.2,159.1z M140.2,145.8c-3.5,0-6.3,2.8-6.3,6.3s2.8,6.3,6.3,6.3s6.3-2.8,6.3-6.3
						S143.7,145.8,140.2,145.8z"/>
				</g>
			</g>
			<path class="st6" d="M275.1,216.9H41.7c-0.2,0-0.4-0.2-0.4-0.4s0.2-0.4,0.4-0.4h233.4c0.2,0,0.4,0.2,0.4,0.4
				S275.3,216.9,275.1,216.9z"/>
		</g>
		<ellipse class="st3" cx="180.1" cy="227.2" rx="10" ry="2.6"/>
		<path class="st0" d="M62.5,257.8c-25.5-25.9-39.6-60.2-39.6-96.6c0-75.9,61.8-137.7,137.7-137.7s137.7,61.8,137.7,137.7
			c0,9.6-1,19.2-2.9,28.5l-1-0.2c1.9-9.2,2.9-18.7,2.9-28.3c0-75.4-61.3-136.7-136.7-136.7S23.9,85.8,23.9,161.2
			c0,36.1,14,70.2,39.3,95.9L62.5,257.8z"/>
		<path class="st0" d="M255.5,261l-0.7-0.7c10.8-10.3,19.9-22.2,26.8-35.5l0.9,0.5C275.5,238.6,266.4,250.6,255.5,261z"/>
		<g>
			<linearGradient id="SVGID_3_" gradientUnits="userSpaceOnUse" x1="160.5751" y1="308.8281" x2="160.5751" y2="10.2775">
				<stop  offset="0" style="stop-color:#6ABC5C"/>
				<stop  offset="1" style="stop-color:#65D2FF"/>
			</linearGradient>
			<path class="st8" d="M160.6,320.7h-0.2v-1h0.2c1.6,0,3.2,0,4.8-0.1l0,1C163.8,320.7,162.2,320.7,160.6,320.7z M155.3,320.6
				c-1.7-0.1-3.4-0.1-5-0.2l0.1-1c1.6,0.1,3.3,0.2,5,0.2L155.3,320.6z M170.4,320.4l-0.1-1c1.6-0.1,3.3-0.2,5-0.4l0.1,1
				C173.7,320.2,172,320.3,170.4,320.4z M145.3,320c-1.7-0.2-3.4-0.3-5-0.6l0.1-1c1.6,0.2,3.3,0.4,4.9,0.5L145.3,320z M180.3,319.5
				l-0.1-1c1.6-0.2,3.3-0.4,4.9-0.7l0.2,1C183.7,319,182,319.3,180.3,319.5z M135.4,318.7c-1.7-0.3-3.3-0.6-4.9-0.9l0.2-1
				c1.6,0.3,3.3,0.6,4.9,0.9L135.4,318.7z M190.2,317.9l-0.2-1c1.6-0.3,3.3-0.6,4.9-1l0.2,1C193.5,317.3,191.9,317.6,190.2,317.9z
				 M125.6,316.8c-1.6-0.4-3.3-0.8-4.9-1.2l0.2-1c1.6,0.4,3.2,0.8,4.8,1.2L125.6,316.8z M200,315.8l-0.2-1c1.6-0.4,3.2-0.8,4.8-1.3
				l0.3,1C203.3,314.9,201.6,315.4,200,315.8z M115.9,314.3c-1.6-0.5-3.2-1-4.8-1.5l0.3-1c1.6,0.5,3.2,1,4.8,1.5L115.9,314.3z
				 M209.7,313l-0.3-1c1.6-0.5,3.2-1,4.7-1.6l0.3,0.9C212.8,311.9,211.2,312.5,209.7,313z M106.3,311.2c-1.6-0.6-3.1-1.2-4.7-1.8
				l0.4-0.9c1.5,0.6,3.1,1.2,4.7,1.8L106.3,311.2z M219.1,309.6l-0.4-0.9c1.5-0.6,3.1-1.2,4.6-1.9l0.4,0.9
				C222.2,308.3,220.7,309,219.1,309.6z M97,307.5c-1.5-0.7-3.1-1.4-4.5-2.1l0.4-0.9c1.5,0.7,3,1.4,4.5,2.1L97,307.5z M228.3,305.6
				l-0.4-0.9c1.5-0.7,3-1.4,4.5-2.2l0.5,0.9C231.4,304.2,229.8,304.9,228.3,305.6z M88,303.3c-1.5-0.8-3-1.5-4.4-2.3l0.5-0.9
				c1.5,0.8,2.9,1.6,4.4,2.3L88,303.3z M237.3,301.1l-0.5-0.9c1.4-0.8,2.9-1.6,4.3-2.5l0.5,0.9C240.2,299.4,238.7,300.3,237.3,301.1
				z M79.3,298.4c-1.4-0.8-2.9-1.7-4.3-2.6l0.5-0.8c1.4,0.9,2.8,1.8,4.2,2.6L79.3,298.4z M245.9,296l-0.5-0.8
				c1.4-0.9,2.8-1.8,4.2-2.7l0.6,0.8C248.7,294.1,247.3,295.1,245.9,296z M70.8,293.1c-1.4-0.9-2.8-1.9-4.1-2.9l0.6-0.8
				c1.3,1,2.7,1.9,4.1,2.9L70.8,293.1z M254.2,290.3l-0.6-0.8c1.3-1,2.7-2,4-3l0.6,0.8C256.9,288.3,255.6,289.3,254.2,290.3z
				 M62.7,287.2c-1.3-1-2.6-2.1-3.9-3.1l0.6-0.8c1.3,1.1,2.6,2.1,3.9,3.1L62.7,287.2z M262.1,284.2l-0.6-0.8
				c1.3-1.1,2.5-2.1,3.8-3.2l0.7,0.8C264.7,282,263.4,283.1,262.1,284.2z M55,280.8c-1.3-1.1-2.5-2.2-3.7-3.4l0.7-0.7
				c1.2,1.1,2.4,2.3,3.7,3.4L55,280.8z M269.7,277.6l-0.7-0.7c1.2-1.1,2.4-2.3,3.6-3.5l0.7,0.7C272.1,275.2,270.9,276.4,269.7,277.6
				z M47.7,273.9c-1.2-1.2-2.3-2.4-3.5-3.6l0.7-0.7c1.1,1.2,2.3,2.4,3.5,3.6L47.7,273.9z M276.7,270.5l-0.7-0.7
				c1.1-1.2,2.3-2.4,3.4-3.7l0.8,0.7C279,268,277.9,269.3,276.7,270.5z M40.9,266.6c-1.1-1.3-2.2-2.5-3.3-3.8l0.8-0.6
				c1,1.3,2.1,2.5,3.2,3.8L40.9,266.6z M283.4,263l-0.8-0.6c1-1.3,2.1-2.6,3.1-3.9l0.8,0.6C285.5,260.4,284.4,261.7,283.4,263z
				 M34.5,258.9c-1-1.3-2-2.7-3-4l0.8-0.6c1,1.3,2,2.7,3,4L34.5,258.9z M289.5,255.1l-0.8-0.6c1-1.3,1.9-2.7,2.9-4.1l0.8,0.6
				C291.5,252.4,290.5,253.7,289.5,255.1z M28.6,250.8c-0.9-1.4-1.9-2.8-2.8-4.2l0.8-0.5c0.9,1.4,1.8,2.8,2.7,4.2L28.6,250.8z
				 M295.2,246.8l-0.8-0.5c0.9-1.4,1.8-2.8,2.6-4.2l0.9,0.5C296.9,244,296.1,245.4,295.2,246.8z M23.2,242.3
				c-0.9-1.4-1.7-2.9-2.5-4.4l0.9-0.5c0.8,1.4,1.6,2.9,2.5,4.3L23.2,242.3z M300.3,238.2l-0.9-0.5c0.8-1.4,1.6-2.9,2.3-4.4l0.9,0.5
				C301.9,235.3,301.1,236.8,300.3,238.2z M18.4,233.5c-0.8-1.5-1.5-3-2.2-4.5l0.9-0.4c0.7,1.5,1.4,3,2.2,4.5L18.4,233.5z
				 M304.8,229.3l-0.9-0.4c0.7-1.5,1.4-3,2.1-4.5l0.9,0.4C306.2,226.3,305.5,227.8,304.8,229.3z M14.1,224.4
				c-0.7-1.5-1.3-3.1-1.9-4.6l0.9-0.4c0.6,1.5,1.2,3.1,1.9,4.6L14.1,224.4z M308.8,220.2l-0.9-0.4c0.6-1.5,1.2-3.1,1.8-4.7l0.9,0.3
				C310,217,309.4,218.6,308.8,220.2z M10.4,215.1c-0.6-1.6-1.1-3.2-1.6-4.8l1-0.3c0.5,1.6,1.1,3.2,1.6,4.7L10.4,215.1z
				 M312.2,210.7l-1-0.3c0.5-1.6,1-3.2,1.5-4.8l1,0.3C313.2,207.5,312.7,209.2,312.2,210.7z M7.3,205.5c-0.5-1.6-0.9-3.2-1.3-4.8
				l1-0.2c0.4,1.6,0.9,3.2,1.3,4.8L7.3,205.5z M315,201.1l-1-0.2c0.4-1.6,0.8-3.2,1.2-4.8l1,0.2C315.9,197.9,315.5,199.5,315,201.1z
				 M4.8,195.8c-0.4-1.6-0.7-3.3-1-4.9l1-0.2c0.3,1.6,0.6,3.3,1,4.9L4.8,195.8z M317.2,191.3l-1-0.2c0.3-1.6,0.6-3.3,0.9-4.9l1,0.2
				C317.8,188.1,317.5,189.7,317.2,191.3z M3,186c-0.3-1.7-0.5-3.3-0.7-5l1-0.1c0.2,1.6,0.4,3.3,0.7,4.9L3,186z M318.8,181.5l-1-0.1
				c0.2-1.6,0.4-3.3,0.5-4.9l1,0.1C319.2,178.1,319,179.8,318.8,181.5z M1.8,176c-0.2-1.6-0.3-3.3-0.4-5l1-0.1
				c0.1,1.7,0.2,3.3,0.4,5L1.8,176z M319.8,171.5l-1-0.1c0.1-1.6,0.2-3.3,0.2-5l1,0C319.9,168.1,319.9,169.8,319.8,171.5z M1.1,166
				c0-1.6-0.1-3.2-0.1-4.9V161h1v0.1c0,1.6,0,3.2,0.1,4.8L1.1,166z M320.1,161.5h-1v-0.3c0-1.7,0-3.3-0.1-5l1,0
				c0.1,1.6,0.1,3.3,0.1,5V161.5z M2.1,156.1l-1,0c0.1-1.7,0.1-3.3,0.2-5l1,0.1C2.3,152.7,2.2,154.4,2.1,156.1z M318.8,151.2
				c-0.1-1.7-0.2-3.3-0.4-5l1-0.1c0.2,1.6,0.3,3.3,0.4,5L318.8,151.2z M2.8,146.1l-1-0.1c0.2-1.6,0.3-3.3,0.5-5l1,0.1
				C3.1,142.8,2.9,144.5,2.8,146.1z M317.9,141.3c-0.2-1.6-0.4-3.3-0.7-4.9l1-0.2c0.3,1.6,0.5,3.3,0.7,5L317.9,141.3z M4,136.2
				l-1-0.2c0.3-1.6,0.5-3.3,0.9-4.9l1,0.2C4.6,133,4.3,134.6,4,136.2z M316.3,131.5c-0.3-1.6-0.6-3.3-1-4.9l1-0.2
				c0.4,1.6,0.7,3.3,1,4.9L316.3,131.5z M5.9,126.5l-1-0.2c0.4-1.6,0.8-3.3,1.2-4.9l1,0.2C6.6,123.2,6.2,124.8,5.9,126.5z
				 M314.1,121.8c-0.4-1.6-0.8-3.2-1.3-4.8l1-0.3c0.5,1.6,0.9,3.2,1.3,4.8L314.1,121.8z M8.4,116.8l-1-0.3c0.5-1.6,1-3.2,1.5-4.8
				l1,0.3C9.3,113.6,8.8,115.2,8.4,116.8z M311.4,112.2c-0.5-1.6-1.1-3.2-1.6-4.7l0.9-0.3c0.6,1.6,1.1,3.2,1.6,4.8L311.4,112.2z
				 M11.4,107.4l-0.9-0.3c0.6-1.6,1.2-3.1,1.8-4.7l0.9,0.4C12.6,104.2,12,105.8,11.4,107.4z M308,102.8c-0.6-1.5-1.3-3.1-1.9-4.6
				l0.9-0.4c0.7,1.5,1.3,3.1,1.9,4.6L308,102.8z M15.1,98.1l-0.9-0.4c0.7-1.5,1.4-3.1,2.1-4.6l0.9,0.4
				C16.5,95.1,15.8,96.6,15.1,98.1z M304,93.6c-0.7-1.5-1.4-3-2.2-4.5l0.9-0.5c0.8,1.5,1.5,3,2.2,4.5L304,93.6z M19.3,89.1l-0.9-0.5
				c0.8-1.5,1.5-3,2.3-4.4l0.9,0.5C20.9,86.2,20.1,87.7,19.3,89.1z M299.5,84.8c-0.8-1.4-1.6-2.9-2.5-4.3l0.9-0.5
				c0.9,1.4,1.7,2.9,2.5,4.4L299.5,84.8z M24.1,80.4l-0.9-0.5c0.8-1.4,1.7-2.9,2.6-4.3l0.8,0.5C25.9,77.6,25,79,24.1,80.4z
				 M294.4,76.2c-0.9-1.4-1.8-2.8-2.7-4.2l0.8-0.6c0.9,1.4,1.9,2.8,2.8,4.2L294.4,76.2z M29.5,72l-0.8-0.6c0.9-1.4,1.9-2.7,2.9-4.1
				l0.8,0.6C31.4,69.3,30.4,70.7,29.5,72z M288.8,67.9c-1-1.3-2-2.7-3-4l0.8-0.6c1,1.3,2,2.7,3,4L288.8,67.9z M35.3,64l-0.8-0.6
				c1-1.3,2.1-2.6,3.1-3.9l0.8,0.6C37.4,61.4,36.4,62.7,35.3,64z M282.7,60.1c-1.1-1.3-2.1-2.5-3.2-3.8l0.8-0.7
				c1.1,1.2,2.2,2.5,3.3,3.8L282.7,60.1z M41.7,56.3l-0.8-0.7c1.1-1.2,2.2-2.5,3.4-3.7l0.7,0.7C43.9,53.9,42.8,55.1,41.7,56.3z
				 M276.1,52.6c-1.1-1.2-2.3-2.4-3.5-3.6l0.7-0.7c1.2,1.2,2.3,2.4,3.5,3.6L276.1,52.6z M48.5,49.1l-0.7-0.7
				c1.2-1.2,2.4-2.4,3.6-3.5l0.7,0.7C50.9,46.7,49.7,47.9,48.5,49.1z M269,45.6c-1.2-1.1-2.4-2.3-3.7-3.3l0.7-0.8
				c1.2,1.1,2.5,2.2,3.7,3.4L269,45.6z M55.8,42.3l-0.7-0.8c1.2-1.1,2.5-2.2,3.8-3.3l0.6,0.8C58.3,40.1,57,41.2,55.8,42.3z
				 M261.6,39c-1.3-1.1-2.6-2.1-3.9-3.1l0.6-0.8c1.3,1,2.6,2.1,3.9,3.1L261.6,39z M63.4,35.9l-0.6-0.8c1.3-1,2.7-2,4-3l0.6,0.8
				C66.1,33.9,64.7,34.9,63.4,35.9z M253.7,32.9c-1.3-1-2.7-1.9-4.1-2.9l0.6-0.8c1.4,0.9,2.8,1.9,4.1,2.9L253.7,32.9z M71.5,30.1
				l-0.6-0.8c1.4-0.9,2.8-1.9,4.2-2.8l0.5,0.8C74.2,28.2,72.8,29.1,71.5,30.1z M245.5,27.3c-1.4-0.9-2.8-1.8-4.2-2.6l0.5-0.9
				c1.4,0.9,2.9,1.7,4.3,2.6L245.5,27.3z M79.9,24.7l-0.5-0.9c1.4-0.8,2.9-1.7,4.4-2.5l0.5,0.9C82.8,23,81.3,23.9,79.9,24.7z
				 M236.9,22.2c-1.4-0.8-2.9-1.6-4.4-2.3L233,19c1.5,0.8,3,1.6,4.4,2.3L236.9,22.2z M88.6,19.9L88.2,19c1.5-0.8,3-1.5,4.5-2.2
				l0.4,0.9C91.6,18.4,90.1,19.2,88.6,19.9z M228.1,17.7c-1.5-0.7-3-1.4-4.5-2l0.4-0.9c1.5,0.7,3,1.4,4.6,2.1L228.1,17.7z
				 M97.7,15.6l-0.4-0.9c1.5-0.7,3.1-1.3,4.6-1.9l0.4,0.9C100.7,14.3,99.2,15,97.7,15.6z M219,13.8c-1.5-0.6-3.1-1.2-4.7-1.8
				l0.3-0.9c1.6,0.6,3.1,1.2,4.7,1.8L219,13.8z M106.9,12l-0.3-0.9c1.6-0.6,3.2-1.1,4.8-1.6l0.3,1C110.1,10.9,108.5,11.4,106.9,12z
				 M209.6,10.4c-1.6-0.5-3.2-1-4.8-1.5l0.3-1c1.6,0.5,3.2,1,4.8,1.5L209.6,10.4z M116.4,8.9l-0.3-1c1.6-0.5,3.2-0.9,4.8-1.3l0.2,1
				C119.6,8,118,8.4,116.4,8.9z M200.1,7.6c-1.6-0.4-3.2-0.8-4.8-1.2l0.2-1c1.6,0.4,3.3,0.8,4.9,1.2L200.1,7.6z M126.1,6.4l-0.2-1
				c1.6-0.4,3.3-0.7,4.9-1l0.2,1C129.3,5.7,127.7,6.1,126.1,6.4z M190.3,5.5c-1.6-0.3-3.3-0.6-4.9-0.9l0.2-1
				c1.6,0.3,3.3,0.5,4.9,0.9L190.3,5.5z M135.9,4.6l-0.2-1c1.6-0.3,3.3-0.5,5-0.7l0.1,1C139.1,4.1,137.5,4.3,135.9,4.6z M180.5,3.9
				c-1.6-0.2-3.3-0.4-4.9-0.5l0.1-1c1.7,0.2,3.3,0.3,5,0.5L180.5,3.9z M145.7,3.4l-0.1-1c1.6-0.2,3.3-0.3,5-0.4l0.1,1
				C149,3.1,147.4,3.2,145.7,3.4z M170.6,3c-1.6-0.1-3.3-0.2-5-0.2l0-1c1.7,0.1,3.4,0.1,5,0.2L170.6,3z M155.7,2.7l0-1
				c1.6,0,3.3-0.1,4.9-0.1l0.1,1l-0.1,0C159,2.7,157.3,2.7,155.7,2.7z"/>
		</g>
		<g>
			<g>
				<rect x="178.1" y="186" class="st0" width="3.9" height="41.3"/>
				<path class="st6" d="M182.4,227.6h-4.6v-42h4.6V227.6z M178.5,226.9h3.1v-40.5h-3.1V226.9z"/>
			</g>
			<g>
				<linearGradient id="SVGID_4_" gradientUnits="userSpaceOnUse" x1="180.0557" y1="186.417" x2="180.0557" y2="176.4139">
					<stop  offset="0" style="stop-color:#6ABC5C"/>
					<stop  offset="1" style="stop-color:#65D2FF"/>
				</linearGradient>
				<rect x="169.7" y="176" class="st9" width="20.7" height="12.2"/>
				<path class="st6" d="M190.8,188.5h-21.4v-12.9h21.4V188.5z M170.1,187.8H190v-11.4h-19.9V187.8z"/>
			</g>
			<g>
				<path class="st10" d="M175.2,183.2c0-0.2,0-0.3-0.1-0.4c-0.1-0.1-0.3-0.2-0.5-0.3c-0.5-0.2-0.8-0.4-1-0.6
					c-0.2-0.2-0.3-0.5-0.3-0.9c0-0.4,0.1-0.7,0.4-1c0.3-0.2,0.6-0.4,1.1-0.4c0.3,0,0.6,0.1,0.8,0.2c0.2,0.1,0.4,0.3,0.5,0.5
					c0.1,0.2,0.2,0.5,0.2,0.8h-1c0-0.2,0-0.4-0.1-0.5c-0.1-0.1-0.2-0.2-0.4-0.2c-0.2,0-0.3,0-0.4,0.1s-0.1,0.2-0.1,0.4
					c0,0.1,0.1,0.2,0.2,0.4c0.1,0.1,0.3,0.2,0.6,0.3c0.5,0.2,0.8,0.4,1,0.6c0.2,0.2,0.3,0.6,0.3,0.9c0,0.4-0.1,0.7-0.4,1
					c-0.3,0.2-0.6,0.4-1.1,0.4c-0.3,0-0.6-0.1-0.8-0.2c-0.3-0.1-0.5-0.3-0.6-0.5c-0.1-0.2-0.2-0.5-0.2-0.8h1c0,0.3,0.1,0.5,0.2,0.6
					c0.1,0.1,0.3,0.2,0.5,0.2C175.1,183.7,175.2,183.6,175.2,183.2z"/>
				<path class="st10" d="M180.2,182.5c0,0.6-0.2,1.1-0.5,1.5c-0.3,0.4-0.7,0.5-1.3,0.5c-0.5,0-1-0.2-1.3-0.5s-0.5-0.8-0.5-1.5v-0.8
					c0-0.7,0.2-1.2,0.5-1.5c0.3-0.4,0.7-0.6,1.3-0.6c0.5,0,0.9,0.2,1.3,0.5s0.5,0.9,0.5,1.5V182.5z M179.2,181.7
					c0-0.4-0.1-0.8-0.2-1s-0.3-0.3-0.6-0.3c-0.3,0-0.4,0.1-0.6,0.3s-0.2,0.5-0.2,0.9v0.8c0,0.4,0.1,0.7,0.2,0.9
					c0.1,0.2,0.3,0.3,0.6,0.3c0.3,0,0.4-0.1,0.6-0.3c0.1-0.2,0.2-0.5,0.2-0.9V181.7z"/>
				<path class="st10" d="M181.9,183.7h1.7v0.8h-2.7v-4.8h1V183.7z"/>
				<path class="st10" d="M184.1,184.5v-4.8h1.3c0.6,0,1,0.2,1.3,0.5c0.3,0.4,0.5,0.8,0.5,1.5v0.8c0,0.6-0.2,1.1-0.5,1.5
					c-0.3,0.4-0.8,0.5-1.4,0.5H184.1z M185.1,180.5v3.2h0.3c0.3,0,0.5-0.1,0.7-0.3s0.2-0.5,0.2-0.9v-0.8c0-0.4-0.1-0.8-0.2-0.9
					c-0.1-0.2-0.3-0.3-0.6-0.3H185.1z"/>
			</g>
		</g>
		<path class="st2" d="M175.5,117.2c0,0,3.9-0.8,4.4,3c0.5,3.8-3.8,7.9-3.8,7.9s-7,1-6.5-4C170.2,119,175.5,117.2,175.5,117.2z"/>
	</g>
	<path class="st6" d="M303.7,332H12.4c-0.3,0-0.5-0.2-0.5-0.5s0.2-0.5,0.5-0.5h291.3c0.3,0,0.5,0.2,0.5,0.5S304,332,303.7,332z"/>
</g>
<g id="Layer_2">
	<g>
		<g>
			<g>
				<path class="st10" d="M74.9,200.9c-1.9,4.9-16.6,16.6-16.6,16.6l8.3,2"/>
				<path class="st6" d="M66.6,219.9c0,0-0.1,0-0.1,0l-8.3-2c-0.2,0-0.3-0.2-0.4-0.4c0-0.2,0-0.4,0.2-0.5
					c0.1-0.1,14.6-11.6,16.4-16.4c0.1-0.3,0.4-0.4,0.6-0.3c0.3,0.1,0.4,0.4,0.3,0.6c-1.7,4.4-12.8,13.6-15.9,16.2l7.3,1.7
					c0.3,0.1,0.4,0.3,0.4,0.6C67,219.8,66.8,219.9,66.6,219.9z"/>
			</g>
			<g>
				<path class="st10" d="M64.6,166.8c0,0-0.5,13.2,0.6,15.6c1.2,2.3,10.1,9.6,10.1,9.6"/>
				<path class="st6" d="M75.3,192.5c-0.1,0-0.2,0-0.3-0.1c-0.4-0.3-9-7.4-10.2-9.8c-1.2-2.4-0.8-14.4-0.7-15.8
					c0-0.3,0.2-0.5,0.5-0.5c0.3,0,0.5,0.2,0.5,0.5c-0.1,3.6-0.3,13.5,0.6,15.3c0.9,1.8,7.5,7.5,10,9.5c0.2,0.2,0.2,0.5,0.1,0.7
					C75.6,192.4,75.5,192.5,75.3,192.5z"/>
			</g>
			<g>
				<path class="st10" d="M89.9,275.1c0,0,0,8.6,1.3,12.9c1.3,4.3,18.5,42.7,18.5,42.7h3.6l0.3-1.6c0,0,2.7,2.3,7.8,2.1
					c5.1-0.2,11.2-0.5,11.2-0.5v-2c0,0-15.7-3.3-19.3-8.7s-16.3-89.7-16.3-89.7"/>
				<path class="st6" d="M120.7,331.7c-3.4,0-5.7-1.1-6.7-1.7l-0.1,0.8c0,0.2-0.2,0.4-0.5,0.4h-3.6c-0.2,0-0.4-0.1-0.5-0.3
					c-0.7-1.6-17.3-38.5-18.6-42.8c-1.3-4.3-1.3-12.6-1.3-13c0-0.3,0.2-0.5,0.5-0.5l0,0c0.3,0,0.5,0.2,0.5,0.5c0,0.1,0,8.6,1.3,12.7
					c1.2,4,16.8,38.8,18.4,42.3h2.9l0.2-1.1c0-0.2,0.2-0.3,0.3-0.4c0.2-0.1,0.4,0,0.5,0.1c0,0,2.7,2.2,7.5,2l10.7-0.5v-1.1
					c-2.5-0.6-15.9-3.7-19.2-8.8c-3.5-5.5-15.8-86.5-16.3-89.9c0-0.3,0.1-0.5,0.4-0.6c0.3,0,0.5,0.1,0.6,0.4
					c0.1,0.8,12.8,84.2,16.2,89.5c3.4,5.2,18.8,8.5,18.9,8.5c0.2,0,0.4,0.3,0.4,0.5v2c0,0.3-0.2,0.5-0.5,0.5l-11.2,0.5
					C121.2,331.6,120.9,331.7,120.7,331.7z"/>
			</g>
			<g>
				<path class="st10" d="M98.1,220.6c0,0-5.2,50.9-6,53.2c-13.4,7.2-54.5,42.9-54.5,42.9s-1.7,8.5,0,9.9c1.7,1.4,6.8,1.8,6.8,1.8
					l-0.5,3.1H32.4l-3-7.2l-1.8-1.2l-0.7-4.9l6-6.2c0,0,21.3-35.1,26-38.8s18.5-6.5,18.5-6.5l-0.8-40.1"/>
				<path class="st6" d="M43.9,332H32.4c-0.2,0-0.4-0.1-0.5-0.3l-2.9-7.1l-1.7-1.1c-0.1-0.1-0.2-0.2-0.2-0.4l-0.7-4.9
					c0-0.2,0-0.3,0.1-0.4l5.9-6.2c1.2-2,21.4-35.2,26.1-38.9c4.3-3.4,15.9-6,18.3-6.5l-0.8-39.7c0-0.3,0.2-0.5,0.5-0.5
					c0.3,0,0.5,0.2,0.5,0.5l0.8,40.1c0,0.2-0.2,0.5-0.4,0.5c-0.1,0-13.7,2.9-18.3,6.4c-4.6,3.5-25.7,38.3-25.9,38.6
					c0,0,0,0.1-0.1,0.1l-5.8,6.1l0.6,4.4l1.6,1.1c0.1,0.1,0.2,0.1,0.2,0.2l2.8,6.9h10.7l0.4-2.2c-1.4-0.1-5-0.6-6.5-1.9
					c-1.8-1.5-0.5-8.9-0.2-10.4c0-0.1,0.1-0.2,0.2-0.3c0.4-0.4,40.9-35.6,54.4-42.9c0.7-3.2,4.1-35.7,5.9-52.9
					c0-0.3,0.3-0.5,0.5-0.4c0.3,0,0.5,0.3,0.4,0.5c-0.2,2.1-5.2,50.9-6,53.3c0,0.1-0.1,0.2-0.2,0.3c-12.8,6.8-51.7,40.5-54.2,42.8
					c-0.7,3.4-1.1,8.4-0.1,9.2c1.3,1.1,5.1,1.6,6.5,1.7c0.1,0,0.3,0.1,0.4,0.2c0.1,0.1,0.1,0.3,0.1,0.4l-0.5,3.1
					C44.3,331.9,44.1,332,43.9,332z"/>
			</g>
			<polygon class="st10" points="64.7,91.3 55.2,105.4 51.8,114.2 54.6,119.8 57.7,122.3 60.9,123.1 65.5,133 67.8,140.2 
				76.9,129.8 73.1,120.5 			"/>
			<g>
				<path class="st10" d="M133.6,82.5c0,0,2.7-2.8,3.5-5.2c0.8-2.4,1.6-25.2,2.9-25.2c1.4,0,2.1,7.7,2.1,7.7v19.4l-5.4,8.3"/>
				<path class="st6" d="M136.7,88c-0.1,0-0.2,0-0.3-0.1c-0.2-0.2-0.3-0.5-0.1-0.7l5.4-8.2V59.8c-0.3-3.3-1-6.3-1.5-7.1
					c-0.6,1.6-1.2,9.4-1.6,14.6c-0.4,4.8-0.7,9-1,10c-0.8,2.5-3.5,5.3-3.6,5.4c-0.2,0.2-0.5,0.2-0.7,0c-0.2-0.2-0.2-0.5,0-0.7
					c0,0,2.6-2.7,3.4-5c0.3-0.9,0.6-5.2,1-9.8c1-13.9,1.4-15.7,2.4-15.7c1.5,0,2.3,4.4,2.6,8.2l0,19.5c0,0.1,0,0.2-0.1,0.3l-5.4,8.3
					C137,87.9,136.9,88,136.7,88z"/>
			</g>
			<g>
				<path class="st10" d="M141.1,53.8c0,0,2.2-5.1,2.3-4.6s3.8,15.6,3.8,15.6l1.7,15.5l-3.9,2.6l-2.8-3.7V59.8L141.1,53.8z"/>
				<path class="st6" d="M145,83.4c-0.2,0-0.3-0.1-0.4-0.2l-2.8-3.7c-0.1-0.1-0.1-0.2-0.1-0.3V59.8l-1-5.9c0-0.1,0-0.2,0-0.3
					c2.1-5,2.4-5,2.8-4.9c0.2,0,0.4,0.2,0.5,0.4c0.1,0.5,3.6,15,3.8,15.6l1.7,15.5c0,0.2-0.1,0.4-0.2,0.5l-3.9,2.6
					C145.2,83.4,145.1,83.4,145,83.4z M142.6,79l2.5,3.2l3.2-2.2l-1.7-15.2c0-0.1-2.6-10.9-3.5-14.5c-0.4,0.8-1,2.2-1.6,3.4l1,5.8
					L142.6,79z"/>
			</g>
			<circle class="st2" cx="211.2" cy="263.2" r="5.5"/>
			<g>
				<path class="st10" d="M215.9,216.2l-0.3,43.8l-8.5-0.4c0,0-6.2-5.8-7.1-8.6c-0.9-2.8-6.6-20.6-6.1-27.2
					c0.5-6.6,8.7-13.6,8.7-13.6L215.9,216.2z"/>
				<path class="st6" d="M215.6,260.5C215.6,260.5,215.6,260.5,215.6,260.5l-8.5-0.4c-0.1,0-0.2-0.1-0.3-0.1
					c-0.3-0.2-6.4-5.9-7.2-8.8l-0.2-0.7c-4.3-13.5-6.3-22.5-5.9-26.7c0.5-6.8,8.5-13.7,8.9-14c0.1-0.1,0.4-0.2,0.5-0.1l13.4,6
					c0.2,0.1,0.3,0.3,0.3,0.5l-0.3,43.8c0,0.1-0.1,0.3-0.2,0.4C215.9,260.5,215.7,260.5,215.6,260.5z M207.3,259.1l7.8,0.4l0.3-43
					l-12.8-5.8c-1.3,1.2-7.8,7.4-8.3,13.1c-0.2,2.8,0.6,9.6,5.9,26.3l0.2,0.7C201.2,253.3,206.4,258.3,207.3,259.1z"/>
			</g>
			<g>
				<path class="st10" d="M204.9,267c1.1-2.2,13.3-1.4,13.3-1.4s2.1,4,3.1,6.9c1,2.9,2.9,50.9,2.9,50.9h-6.4
					c0,0-16.5-40.6-16.5-45.3C201.3,273.4,203.8,269.2,204.9,267z"/>
				<path class="st6" d="M224.2,323.8h-6.4c-0.2,0-0.4-0.1-0.5-0.3c-0.7-1.7-16.6-40.7-16.6-45.5c0-4.2,1.9-7.9,3.1-10.3
					c0.2-0.3,0.3-0.7,0.5-1c1.1-2.3,10.9-1.9,13.8-1.7c0.2,0,0.3,0.1,0.4,0.3c0.1,0.2,2.1,4.1,3.1,7c1.1,2.9,2.8,49.1,2.9,51
					c0,0.1,0,0.3-0.1,0.4C224.5,323.8,224.3,323.8,224.2,323.8z M218.2,322.8h5.5c-0.5-13.7-2-47.9-2.8-50.2c-0.9-2.4-2.5-5.7-3-6.6
					c-5.8-0.3-12,0-12.6,1.2c-0.1,0.3-0.3,0.6-0.5,1c-1.2,2.4-3,5.9-3,9.9C201.8,281.7,212.4,308.7,218.2,322.8z"/>
			</g>
			<g>
				<polygon class="st10" points="201.8,331.3 224.2,331.3 224.2,323.3 217.8,323.3 201.8,328.2 				"/>
				<path class="st6" d="M224.2,331.8h-22.4c-0.3,0-0.5-0.2-0.5-0.5v-3.1c0-0.2,0.1-0.4,0.4-0.5l16-4.8c0,0,0.1,0,0.1,0h6.4
					c0.3,0,0.5,0.2,0.5,0.5v7.9C224.7,331.5,224.5,331.8,224.2,331.8z M202.3,330.8h21.4v-6.9h-5.8l-15.6,4.7V330.8z"/>
			</g>
			<circle class="st2" cx="239" cy="264.3" r="6.5"/>
			<circle class="st2" cx="264" cy="180.9" r="4.8"/>
			<g>
				<path class="st10" d="M65.5,93.5c0,0,5.9,4.4,7,6c1.2,1.6,0,4.9,0,4.9s5.2,1.3,6.2,2.6c1,1.3-1,4.2-1,4.2l1,3.6
					c0,0,2.3,4.9,1.8,7s-15.1,1-15.1,1"/>
				<path class="st6" d="M72.9,123.7c-2,0-4.4-0.1-7.4-0.3c-0.3,0-0.5-0.3-0.5-0.5c0-0.3,0.3-0.5,0.5-0.5c7.6,0.5,14.2,0.2,14.6-0.7
					c0.4-1.6-1.2-5.4-1.8-6.7l-1.1-3.7c0-0.1,0-0.3,0.1-0.4c0.6-0.8,1.7-2.8,1.1-3.6c-0.7-0.9-4-1.9-6-2.4c-0.1,0-0.3-0.1-0.3-0.2
					s-0.1-0.3,0-0.4c0.3-0.9,0.9-3.4,0.1-4.5c-1.1-1.5-6.9-5.8-6.9-5.9c-0.2-0.2-0.3-0.5-0.1-0.7c0.2-0.2,0.5-0.3,0.7-0.1
					c0.2,0.2,5.9,4.5,7.1,6.1c1,1.4,0.5,3.8,0.2,4.9c1.4,0.4,5.1,1.5,6,2.6c1.1,1.4-0.4,3.8-0.9,4.6l1,3.4c0.2,0.4,2.4,5.1,1.8,7.3
					C80.9,122.7,79.5,123.7,72.9,123.7z"/>
			</g>
			<g>
				<path class="st10" d="M73.7,123.1c0,0,2,3,2.6,5.3"/>
				<path class="st6" d="M76.3,129c-0.2,0-0.4-0.1-0.5-0.4c-0.6-2.2-2.5-5.2-2.5-5.2c-0.2-0.2-0.1-0.5,0.1-0.7
					c0.2-0.1,0.5-0.1,0.7,0.1c0.1,0.1,2,3.1,2.7,5.5c0.1,0.3-0.1,0.5-0.3,0.6C76.4,129,76.3,129,76.3,129z"/>
			</g>
			<g>
				<path class="st10" d="M60.9,123.1c-3.6,0.5-13.9-8.1-13.9-8.1s-1-9.5,0-12.5c1-3,12.2-10.1,14.6-18.5c3.9,0.1,3.9,9.4,3.9,11.4
					c-1.5,1.2-4.2,3.4-4,3.9c0.1,0.5,1,3,1.2,5.3c0.1,2.3-3.8,2.2-2.9,4.7s2.5,6.6,2.5,6.6s-5.6-5.2-8.1-2.7S58.5,123.1,60.9,123.1
					c2,4,3.8,8.3,3.8,8.3s-4.6,10.8-5.3,13.9c-0.7,3.1,0,9.7,1.2,12.5c1.2,2.8,13.8,31.1,15.4,36c1.6,4.9-10,26.8-10.9,28.4
					c17.7,14.7,48.4-12.1,48.4-12.1s-5.3-7.3-7-19c-1.7-11.7-10-33.6-16.5-44.2c15.2-11.2,47.7-57.9,47.7-57.9l-5.5-8.7
					c0,0-21.9,26.7-28.6,34c-6.8,7.3-23.4,12.9-27.3,14.2c-3.9,1.3-8.1,9.4-8.1,9.4"/>
				<path class="st6" d="M78,227.2c-4.7,0-9.3-1.3-13.2-4.6c-0.2-0.2-0.2-0.4-0.1-0.6c1.9-3.3,12.3-23.6,10.9-28
					c-1.2-3.9-9.5-22.6-13.4-31.6c-1-2.2-1.7-3.8-1.9-4.4c-1.2-2.8-2-9.5-1.3-12.8c0.7-2.9,4.6-12.3,5.2-13.8
					c-0.4-0.9-1.9-4.4-3.5-7.8c0,0,0,0,0,0c-4,0-12.9-7.3-13.9-8.2c-0.1-0.1-0.2-0.2-0.2-0.3c0-0.4-1-9.6,0-12.7
					c0.4-1.2,2.1-2.8,4.4-5c3.7-3.5,8.7-8.3,10.2-13.5c0.1-0.2,0.3-0.4,0.5-0.4c2,0.1,4.4,2.2,4.4,11.9c0,0.1-0.1,0.3-0.2,0.4
					l-0.6,0.5c-1,0.8-2.9,2.4-3.2,3c0,0.1,0.1,0.2,0.1,0.4c0.3,1,0.9,3,1,5c0.1,1.4-1,2.1-1.8,2.6c-1,0.6-1.4,1-1.1,1.9l2.5,6.6
					c0.1,0.2,0,0.5-0.2,0.6c-0.2,0.1-0.4,0.1-0.6,0c-1.5-1.4-5.6-4.5-7.4-2.7c-0.6,0.6-0.4,1.7,0,2.5c1.2,2.9,5,6.4,6.4,6.4
					c0,0,0,0,0,0c0.2,0,0.4,0.1,0.5,0.3c1.9,4,3.8,8.3,3.8,8.3c0.1,0.1,0.1,0.3,0,0.4c0,0.1-4.5,10.8-5.2,13.8
					c-0.7,3.1,0.1,9.6,1.2,12.2c0.2,0.6,0.9,2.1,1.9,4.3c4,9,12.2,27.8,13.5,31.7c1.6,5.1-9.1,25.4-10.8,28.4
					c16.2,12.9,43.7-9.2,47.1-12.1c-1.1-1.7-5.4-8.6-6.9-18.8c-1.6-11.3-9.8-33.1-16.5-44c-0.1-0.2-0.1-0.5,0.1-0.7
					C104,136,134.4,92.9,137.1,89l-4.9-7.8c-3.1,3.8-22,26.8-28.2,33.4c-4.5,4.8-14.2,9.9-27.5,14.3c-3.7,1.2-7.7,9-7.8,9.1
					c-0.1,0.2-0.4,0.3-0.7,0.2c-0.2-0.1-0.3-0.4-0.2-0.7c0.2-0.3,4.3-8.3,8.4-9.6c13.1-4.4,22.8-9.4,27.1-14
					c6.7-7.2,28.4-33.7,28.6-33.9c0.1-0.1,0.3-0.2,0.4-0.2c0.2,0,0.3,0.1,0.4,0.2l5.5,8.7c0.1,0.2,0.1,0.4,0,0.6
					c-0.3,0.5-32.2,46.2-47.5,57.7c6.7,11.2,14.7,32.8,16.4,44c1.7,11.5,6.9,18.7,6.9,18.8c0.2,0.2,0.1,0.5-0.1,0.7
					C112.8,211.4,94.5,227.2,78,227.2z M47.5,114.8c2,1.7,6.3,5,9.7,6.7c-1.5-1.4-3-3.2-3.6-4.9c-0.8-2-0.3-3.1,0.3-3.6
					c2-2,5.4,0.1,7.3,1.5l-1.8-4.9c-0.6-1.7,0.6-2.5,1.5-3.1c0.9-0.6,1.4-1,1.4-1.7c-0.1-1.8-0.7-3.8-1-4.7C61,99.9,61,99.7,61,99.6
					c-0.2-0.6,0.5-1.3,3.6-3.9l0.4-0.4c0-6.3-1.1-10.2-3-10.7c-1.7,5.3-6.7,10-10.3,13.5c-2,1.9-3.8,3.6-4.1,4.6
					C46.6,105.4,47.3,113.4,47.5,114.8z M61.9,99.5L61.9,99.5L61.9,99.5z"/>
			</g>
			<path class="st6" d="M78.1,116.7c-1.6,0-4.4-0.4-6.6-2.7c-0.2-0.2-0.2-0.4-0.1-0.6c0.1-0.2,0.4-0.3,0.6-0.2
				c4.1,1.4,6.1,0.1,6.1,0.1c0.2-0.2,0.5-0.1,0.7,0.1c0.2,0.2,0.1,0.5-0.1,0.7c-0.1,0.1-1.6,1.1-4.6,0.7c2.5,1.3,5.1,0.9,5.1,0.9
				c0.3,0,0.5,0.1,0.6,0.4c0,0.3-0.1,0.5-0.4,0.6C79.3,116.6,78.8,116.7,78.1,116.7z"/>
			<g>
				<path class="st10" d="M71.1,104.9c0,0-1.3-0.7-3.3,2.1"/>
				<path class="st6" d="M67.8,107.5c-0.1,0-0.2,0-0.3-0.1c-0.2-0.2-0.3-0.5-0.1-0.7c2.1-3,3.7-2.3,3.9-2.2c0.2,0.1,0.3,0.4,0.2,0.7
					c-0.1,0.2-0.4,0.3-0.7,0.2c-0.1,0-1.1-0.3-2.6,1.9C68.1,107.4,68,107.5,67.8,107.5z"/>
			</g>
			<path class="st11" d="M71.1,100.1c-1.6,0.4-5.6,4.7-5.6,4.7S68.5,98.3,71.1,100.1z"/>
			<g>
				<line class="st10" x1="64.7" y1="131.5" x2="72.5" y2="131.5"/>
				<path class="st6" d="M72.5,132h-7.8c-0.3,0-0.5-0.2-0.5-0.5s0.2-0.5,0.5-0.5h7.8c0.3,0,0.5,0.2,0.5,0.5S72.8,132,72.5,132z"/>
			</g>
			<g>
				<path class="st10" d="M33,312c0,0,1.7,4.8,4.7,4.7"/>
				<path class="st6" d="M37.5,317.2c-3.2,0-5-4.8-5-5c-0.1-0.3,0-0.5,0.3-0.6c0.3-0.1,0.5,0,0.6,0.3c0,0,1.6,4.5,4.2,4.3
					c0.3,0,0.5,0.2,0.5,0.5c0,0.3-0.2,0.5-0.5,0.5C37.6,317.2,37.6,317.2,37.5,317.2z"/>
			</g>
			<g>
				<path class="st10" d="M113.4,320c0,0-3.6,4.3-6.1,5.1"/>
				<path class="st6" d="M107.2,325.6c-0.2,0-0.4-0.1-0.5-0.3c-0.1-0.3,0-0.5,0.3-0.6c2.3-0.8,5.9-4.9,5.9-5
					c0.2-0.2,0.5-0.2,0.7-0.1c0.2,0.2,0.2,0.5,0.1,0.7c-0.2,0.2-3.8,4.4-6.3,5.3C107.3,325.6,107.3,325.6,107.2,325.6z"/>
			</g>
			<g>
				<path class="st10" d="M175.5,117.2c0,0,1.4-4.2,0-7.4s-26.7-29.4-26.7-29.4l-3.9,2.6c0,0,13.3,36.7,15.3,38.9s9.4,2.2,9.4,2.2
					L175.5,117.2z"/>
				<path class="st6" d="M169.7,124.5c-0.3,0-7.7,0-9.8-2.4c-2-2.2-14-35.3-15.4-39.1c-0.1-0.2,0-0.5,0.2-0.6l3.9-2.6
					c0.2-0.1,0.5-0.1,0.6,0.1c1,1.1,25.3,26.2,26.8,29.5c1.5,3.4,0.1,7.6,0,7.8c0,0.1-0.1,0.1-0.1,0.2l-5.9,6.9
					C170,124.5,169.8,124.5,169.7,124.5z M145.6,83.1c3.8,10.4,13.5,36.6,15,38.4c1.5,1.6,6.7,2,8.8,2l5.6-6.6c0.2-0.6,1.2-4.2,0-7
					c-1.1-2.5-17.5-19.8-26.3-29L145.6,83.1z M175.5,117.2L175.5,117.2L175.5,117.2z"/>
			</g>
			<g>
				<path class="st10" d="M176.2,128.1l3.8-7.9c0,0,25.5,2.5,28.1,4.9c2.6,2.5,9.4,9,9.4,9l-4.9,3.6l-7,8.7c0,0-10.8-0.1-15.9-1.7
					C184.5,143.2,176.2,128.1,176.2,128.1z"/>
				<path class="st6" d="M205.5,146.9C205.5,146.9,205.5,146.9,205.5,146.9c-0.5,0-10.9-0.1-16-1.7c-5.2-1.6-13.3-16.3-13.7-16.9
					c-0.1-0.1-0.1-0.3,0-0.5l3.8-7.9c0.1-0.2,0.3-0.3,0.5-0.3c2.6,0.3,25.8,2.5,28.4,5.1l9.4,9c0.1,0.1,0.2,0.2,0.2,0.4
					s-0.1,0.3-0.2,0.4l-4.9,3.6l-7,8.7C205.8,146.9,205.6,146.9,205.5,146.9z M176.8,128.1c1.1,1.9,8.5,14.8,13,16.2
					c4.5,1.4,13.9,1.6,15.5,1.7l6.9-8.5c0,0,0.1-0.1,0.1-0.1l4.5-3.3l-8.9-8.6c-1.8-1.7-17.3-3.8-27.5-4.8L176.8,128.1z"/>
			</g>
			<g>
				<path class="st10" d="M238.9,133.3c-3.5-2.1-12.4-1.3-13.9-1.4c-1.6-0.1-7.5,2.2-7.5,2.2l-4.9,3.6l-7,8.7c0,0-6.4,12.6-7.5,19.5
					s0.4,22.5,0.9,29.1s3.1,18.1,9,21.9c5.9,3.8,11.2-3.8,11.2-3.8s24.3-29.6,25-31.6c0.7-2.1,8.6-25.4,7.2-34
					C249.7,139,242.4,135.4,238.9,133.3z"/>
				<path class="st6" d="M211.2,218.5c-1.2,0-2.4-0.3-3.7-1.1c-6.2-4-8.7-15.9-9.2-22.2l-0.2-2.5c-0.6-7.7-1.7-20.5-0.7-26.7
					c1.1-6.9,7.3-19.1,7.6-19.7c0,0,0-0.1,0.1-0.1l7-8.7c0,0,0.1-0.1,0.1-0.1l4.9-3.6c0,0,0.1,0,0.1-0.1c0.6-0.2,6.2-2.3,7.8-2.2
					c0.3,0,0.9,0,1.7,0c3.3-0.1,9.6-0.2,12.5,1.5l0.8,0.5c3.9,2.2,10.3,6,11.7,14.2c1.5,9.1-7.1,34-7.2,34.2
					c-0.7,2.1-22.6,28.7-25.1,31.8C219.3,213.5,215.8,218.5,211.2,218.5z M205.9,146.7c-0.4,0.8-6.4,12.8-7.5,19.3
					c-1,6.1,0.1,18.9,0.7,26.5l0.2,2.5c0.5,5.8,2.9,17.7,8.7,21.5c5.4,3.5,10.3-3.3,10.5-3.6c9.7-11.9,24.4-30,24.9-31.5
					c2.2-6.4,8.4-26.3,7.1-33.7c-1.3-7.8-7.5-11.3-11.2-13.5l-0.8-0.5c0,0,0,0,0,0c-2.7-1.6-8.9-1.4-12-1.4c-0.8,0-1.4,0-1.7,0
					c-1-0.1-4.9,1.2-7.3,2.2l-4.8,3.6L205.9,146.7z"/>
			</g>
			<path class="st2" d="M175.5,117.2c0,0,3.9-0.8,4.4,3c0.5,3.8-3.8,7.9-3.8,7.9s-7,1-6.5-4C170.2,119,175.5,117.2,175.5,117.2z"/>
			<path class="st6" d="M218.1,209.2c-0.3,0-0.5-0.2-0.5-0.5c0-0.3-0.1-8.4,1.2-11.3c0.5-1,2.2-2.5,4.7-4.6
				c4.5-3.7,11.3-9.4,12.4-15.1c0.8-4.3,0.2-7.9-0.3-11.3c-0.6-3.4-1.1-6.6-0.1-10c1-3.6,2.4-5.9,3.4-7.6c0.9-1.5,1.5-2.6,1.5-3.8
				c0-2.1-4.7-8.8-6.5-11.1c-0.2-0.2-0.1-0.5,0.1-0.7c0.2-0.2,0.5-0.1,0.7,0.1c0.7,0.9,6.7,8.9,6.7,11.7c0,1.5-0.7,2.7-1.7,4.3
				c-1,1.7-2.3,3.9-3.3,7.4c-0.9,3.2-0.4,6.3,0.1,9.6c0.6,3.3,1.2,7.1,0.3,11.6c-1.2,6.1-7.8,11.6-12.7,15.7c-2.2,1.8-4,3.4-4.4,4.2
				c-1.2,2.7-1.1,10.8-1.1,10.9C218.6,209,218.4,209.2,218.1,209.2C218.1,209.2,218.1,209.2,218.1,209.2z"/>
			<g>
				<path class="st10" d="M210.7,117.8c0.9,14,13,13.5,20.7,15.5c7.7,2,25.9-4.2,25.9-13.1s-7.4-16.7-15.4-20.7
					C233.9,95.4,209.7,103.8,210.7,117.8z"/>
				<path class="st6" d="M234.7,134.2c-1.3,0-2.5-0.1-3.5-0.4c-1.2-0.3-2.6-0.6-4-0.8c-7.2-1.3-16.2-3-17-15.1l0,0
					c-0.3-5.2,2.8-10.3,8.7-14.2c7.6-5,18.2-7.1,23.2-4.6c7.2,3.7,15.6,11.4,15.6,21.1c0,2.7-1.6,5.4-4.7,7.8
					C248.4,131.6,240.5,134.2,234.7,134.2z M236.6,98.9c-5.1,0-12,2.1-17.2,5.5c-5.7,3.7-8.6,8.5-8.3,13.3l0,0
					c0.7,11.3,9,12.8,16.2,14.2c1.4,0.3,2.8,0.5,4.1,0.8c4.9,1.2,14.9-0.9,21-5.6c2-1.5,4.3-4,4.3-7c0-9.3-8.1-16.7-15.1-20.2
					C240.4,99.3,238.6,98.9,236.6,98.9z"/>
			</g>
			<g>
				<path class="st10" d="M235.7,112c0,0-6.2-11.2-14.2-9.3"/>
				<path class="st6" d="M235.7,112.5c-0.2,0-0.3-0.1-0.4-0.3c-0.1-0.1-6.1-10.8-13.7-9.1c-0.3,0.1-0.5-0.1-0.6-0.4
					c-0.1-0.3,0.1-0.5,0.4-0.6c8.3-1.9,14.5,9.1,14.8,9.6c0.1,0.2,0,0.5-0.2,0.7C235.8,112.4,235.7,112.5,235.7,112.5z"/>
			</g>
			<g>
				<path class="st10" d="M233.1,118.4c0,0-14.8,6.2-21.9-5"/>
				<path class="st6" d="M224.1,120.6c-4.6,0-9.8-1.4-13.3-6.9c-0.1-0.2-0.1-0.5,0.2-0.7s0.5-0.1,0.7,0.2
					c6.8,10.7,21.1,4.8,21.3,4.8c0.3-0.1,0.5,0,0.7,0.3c0.1,0.3,0,0.5-0.3,0.7C233.2,118.9,229.1,120.6,224.1,120.6z"/>
			</g>
			<g>
				<path class="st10" d="M221.4,110.4c0,0,6.1-3.7,9.6,1.6"/>
				<path class="st6" d="M231.1,112.5c-0.2,0-0.3-0.1-0.4-0.2c-3.2-4.9-8.7-1.6-9-1.4c-0.2,0.1-0.5,0.1-0.7-0.2
					c-0.1-0.2-0.1-0.5,0.2-0.7c0.1,0,6.6-3.9,10.3,1.7c0.2,0.2,0.1,0.5-0.1,0.7C231.3,112.4,231.2,112.5,231.1,112.5z"/>
			</g>
			<g>
				<path class="st10" d="M242.3,154.7c0-2.7,4-10.4,4-10.4s5.4-4.2,7.4-2.5c2,1.7,9.8,8,10.4,12.9c0.6,4.9,2.6,21.5,2.6,21.5
					l-7.7,4.7c0,0-7.8-4.4-10.4-6.8C246.2,171.8,242.3,157.4,242.3,154.7z"/>
				<path class="st6" d="M259.1,181.4c-0.1,0-0.2,0-0.2-0.1c-0.3-0.2-7.9-4.5-10.5-6.8c-2.6-2.5-6.6-17-6.6-19.7
					c0-2.8,3.9-10.3,4.1-10.6c0-0.1,0.1-0.1,0.1-0.2c0.6-0.5,5.8-4.4,8-2.5l0.6,0.5c2.8,2.4,9.4,8,10,12.7l2.6,21.5
					c0,0.2-0.1,0.4-0.2,0.5l-7.7,4.7C259.2,181.4,259.1,181.4,259.1,181.4z M246.7,144.7c-1.1,2.2-3.9,8-3.9,10.1
					c0,2.8,3.9,16.8,6.3,19c2.2,2,8.6,5.8,10,6.6l7.1-4.4l-2.6-21.1c-0.5-4.3-7.2-9.9-9.6-12.1l-0.6-0.5
					C252.2,141.2,248.7,143.2,246.7,144.7z"/>
			</g>
			<g>
				<path class="st10" d="M260.5,185.3l9.2-6c0,0,5.3,2,8.6,6c3.3,4,14.3,29.9,14.3,29.9l-3.4,4.3c0,0-25.9-21.9-27.7-24.8
					C259.7,191.7,260.5,185.3,260.5,185.3z"/>
				<path class="st6" d="M289.3,220c-0.1,0-0.2,0-0.3-0.1c-1.1-0.9-26-21.9-27.8-25c-1.9-3.1-1.1-9.4-1.1-9.7c0-0.1,0.1-0.3,0.2-0.4
					l9.2-6c0.1-0.1,0.3-0.1,0.4,0c0.2,0.1,5.5,2,8.8,6.1c3.3,4,13.9,29,14.4,30c0.1,0.2,0,0.4-0.1,0.5l-3.4,4.3
					C289.6,219.9,289.4,220,289.3,220C289.3,220,289.3,220,289.3,220z M261,185.6c-0.1,1.1-0.5,6.3,1,8.8
					c1.4,2.3,18.2,16.8,27.2,24.4l2.9-3.7c-1.2-2.8-11.1-25.8-14.1-29.5c-2.7-3.4-7.1-5.3-8.1-5.7L261,185.6z"/>
			</g>
			<g>
				<polygon class="st10" points="303.7,217.7 292.6,215.2 289.3,219.5 291.2,228.1 290.7,231.4 292.6,232.8 295.5,227.3 
					306.2,225.9 314.7,218.5 314.7,213.7 				"/>
				<path class="st6" d="M292.6,233.3c-0.1,0-0.2,0-0.3-0.1l-2-1.4c-0.2-0.1-0.2-0.3-0.2-0.5l0.5-3.2l-1.9-8.5c0-0.1,0-0.3,0.1-0.4
					l3.4-4.3c0.1-0.2,0.3-0.2,0.5-0.2l10.9,2.4l10.9-4c0.2-0.1,0.3,0,0.5,0.1c0.1,0.1,0.2,0.2,0.2,0.4v4.8c0,0.1-0.1,0.3-0.2,0.4
					l-8.6,7.4c-0.1,0.1-0.2,0.1-0.3,0.1l-10.4,1.4l-2.7,5.2c-0.1,0.1-0.2,0.2-0.3,0.3C292.7,233.3,292.7,233.3,292.6,233.3z
					 M291.2,231.1l1.2,0.9l2.6-4.9c0.1-0.1,0.2-0.2,0.4-0.3l10.5-1.4l8.3-7.2v-3.9l-10.4,3.8c-0.1,0-0.2,0-0.3,0l-10.8-2.4l-3,3.9
					l1.9,8.4c0,0.1,0,0.1,0,0.2L291.2,231.1z"/>
			</g>
			<g>
				<path class="st10" d="M232.8,270.7c0-2.6,13.5-4.3,13.5-4.3s4.6,2.7,6.9,6.5c2.3,3.8,7.3,48.3,7.3,48.3l-5.9,2.7
					c0,0-20.4-34.5-21.9-39.3S232.8,273.3,232.8,270.7z"/>
				<path class="st6" d="M254.6,324.4c-0.2,0-0.3-0.1-0.4-0.2c-0.8-1.4-20.5-34.6-21.9-39.4c-1.1-3.6-0.6-8-0.3-11.2
					c0.1-1.2,0.2-2.2,0.2-2.9c0-2.8,10.7-4.4,14-4.8c0.1,0,0.2,0,0.3,0.1c0.2,0.1,4.7,2.8,7.1,6.7c2.4,3.8,7.2,46.6,7.4,48.5
					c0,0.2-0.1,0.4-0.3,0.5l-5.9,2.7C254.8,324.3,254.7,324.4,254.6,324.4z M246.2,266.9c-6.3,0.8-12.9,2.5-12.9,3.8
					c0,0.7-0.1,1.8-0.2,3c-0.3,3.1-0.8,7.4,0.2,10.8c1.3,4.4,19.3,35,21.6,38.8l5.1-2.4c-1.7-15.4-5.4-44.8-7.2-47.7
					C250.8,269.9,247,267.4,246.2,266.9z"/>
			</g>
			<g>
				<polygon class="st10" points="255.8,331.3 254.6,323.9 260.5,321.1 271.3,328.5 271.3,331.3 				"/>
				<path class="st6" d="M271.3,331.8h-15.5c-0.2,0-0.5-0.2-0.5-0.4l-1.2-7.4c0-0.2,0.1-0.4,0.3-0.5l5.9-2.7c0.2-0.1,0.3-0.1,0.5,0
					l10.8,7.4c0.1,0.1,0.2,0.2,0.2,0.4v2.7C271.8,331.5,271.6,331.8,271.3,331.8z M256.2,330.8h14.6v-2l-10.3-7.1l-5.3,2.5
					L256.2,330.8z"/>
			</g>
			<path class="st2" d="M238.5,211.4c0,0,1.1-7.6-0.6-9c-1.8-1.5-6.4-6.1-11.3-4.3c-4.9,1.8-7.7,8.5-8.5,10.7
				c-0.8,2.2,3.1,8.6,3.1,8.6l5.6-8.6h7.4L238.5,211.4z"/>
			<linearGradient id="SVGID_5_" gradientUnits="userSpaceOnUse" x1="87.5993" y1="193.9018" x2="100.6079" y2="193.9018">
				<stop  offset="0" style="stop-color:#6ABC5C"/>
				<stop  offset="1" style="stop-color:#65D2FF"/>
			</linearGradient>
			<path class="st12" d="M87.6,193.4c1,0.3,8.1-2.2,12-4.9c1,5,1,5,1,5l-13,6V193.4z"/>
			<linearGradient id="SVGID_6_" gradientUnits="userSpaceOnUse" x1="240.8911" y1="126.3281" x2="240.8911" y2="109.5707">
				<stop  offset="0" style="stop-color:#6ABC5C"/>
				<stop  offset="1" style="stop-color:#65D2FF"/>
			</linearGradient>
			<ellipse class="st13" cx="240.9" cy="118.4" rx="7.8" ry="8.7"/>
			<g>
				<path class="st10" d="M220.2,220.3c0-3,6.5-11.6,6.5-11.6h7.4c0,0,8.5,4.4,10.8,8.6c2.3,4.2-2,42.3-2,42.3l-9.6,0.8
					c0,0-6.3-4.4-6.9-7C226,250.8,220.2,223.3,220.2,220.3z"/>
				<path class="st6" d="M233.4,260.9c-0.1,0-0.2,0-0.3-0.1c-0.7-0.5-6.5-4.6-7.1-7.3c-0.4-1.7-6.3-30-6.3-33.1c0-3.1,6-11,6.6-11.9
					c0.1-0.1,0.2-0.2,0.4-0.2h7.4c0.1,0,0.2,0,0.2,0.1c0.4,0.2,8.6,4.5,11,8.8c2.4,4.3-1.7,41-1.9,42.6c0,0.2-0.2,0.4-0.5,0.4
					L233.4,260.9C233.5,260.9,233.4,260.9,233.4,260.9z M227,209.2c-1.9,2.5-6.3,8.8-6.3,11.1c0,2.9,5.7,30.2,6.3,32.9
					c0.4,1.9,4.7,5.3,6.5,6.6l9-0.7c1.2-10.9,3.8-38.3,2-41.6c-2.1-3.7-9.5-7.8-10.5-8.3H227z"/>
			</g>
		</g>
		<path class="st6" d="M233.4,260.9c-0.2,0-0.3-0.1-0.4-0.2c-0.2-0.3-4.7-7.7-5.4-12.5c-0.2-1.6-0.7-4.5-1.3-7.8
			c-1.2-6.6-2.6-14.8-2.6-17.1c0-3.4,2.5-14.2,2.6-14.6c0.1-0.3,0.3-0.4,0.6-0.4c0.3,0.1,0.4,0.3,0.4,0.6c0,0.1-2.6,11.1-2.6,14.4
			c0,2.2,1.4,10.4,2.6,16.9c0.6,3.3,1.1,6.2,1.3,7.8c0.7,4.6,5.2,12,5.2,12.1c0.1,0.2,0.1,0.5-0.2,0.7
			C233.6,260.9,233.5,260.9,233.4,260.9z"/>
		<path class="st6" d="M254.2,324.1l-19.4-40.9c-1.5-3.3-2.5-12.1-2.5-12.4c0-0.3,0.2-0.5,0.4-0.5c0.3,0,0.5,0.2,0.5,0.4
			c0,0.1,1,9,2.4,12.1l19.4,40.9L254.2,324.1z"/>
		<path class="st6" d="M221.5,323.8c-0.3,0-0.5-0.2-0.5-0.5l-1.4-48.5c-0.1-3.8-4-8.9-4.1-9c-0.2-0.2-0.1-0.5,0.1-0.7
			c0.2-0.2,0.5-0.1,0.7,0.1c0.2,0.2,4.1,5.5,4.3,9.6l1.4,48.5C222,323.6,221.7,323.8,221.5,323.8
			C221.5,323.8,221.5,323.8,221.5,323.8z"/>
		<path class="st6" d="M213,260.4c-0.3,0-0.5-0.2-0.5-0.4l-4-36.7l-1.2-6.3c-0.1-0.3,0.1-0.5,0.4-0.6c0.3-0.1,0.5,0.1,0.6,0.4
			l1.2,6.3l4,36.7C213.5,260.1,213.3,260.4,213,260.4C213,260.4,213,260.4,213,260.4z"/>
		<path class="st6" d="M260.3,180.6c-0.1,0-0.2,0-0.3-0.1c-0.3-0.2-7.1-6-9.1-9.2c-2-3.1-5.1-11-5.1-14.7c0-3.6,2.3-13.5,2.4-14
			c0.1-0.3,0.3-0.4,0.6-0.4c0.3,0.1,0.4,0.3,0.4,0.6c0,0.1-2.4,10.3-2.4,13.7c0,3.3,2.8,10.9,4.9,14.2c2,3.1,8.9,8.9,8.9,8.9
			c0.2,0.2,0.2,0.5,0.1,0.7C260.6,180.5,260.5,180.6,260.3,180.6z"/>
		<path class="st6" d="M290,219.1c-0.1,0-0.3,0-0.4-0.1L263,192.7c-2.3-2.3-1.4-8.3-1.4-8.5c0-0.3,0.3-0.5,0.6-0.4
			c0.3,0,0.5,0.3,0.4,0.6c0,0.1-0.9,5.7,1.1,7.7l26.7,26.2c0.2,0.2,0.2,0.5,0,0.7C290.3,219,290.1,219.1,290,219.1z"/>
		<path class="st6" d="M209.5,142C209.5,142,209.4,142,209.5,142c-0.7,0-16.4-0.8-20.6-3.3c-4.2-2.5-11.8-11-12.1-11.3
			c-0.2-0.2-0.2-0.5,0-0.7c0.2-0.2,0.5-0.2,0.7,0c0.1,0.1,7.9,8.7,11.9,11.1c4,2.4,19.9,3.1,20.1,3.1c0.3,0,0.5,0.2,0.5,0.5
			C209.9,141.7,209.7,142,209.5,142z"/>
		<path class="st6" d="M170,123.1c-0.1,0-0.1,0-0.2,0c-0.3-0.1-6.3-2.6-8.4-5c-2.1-2.4-15.4-34.2-16-35.5c-0.1-0.3,0-0.5,0.3-0.7
			c0.3-0.1,0.5,0,0.7,0.3c4.8,11.4,14.3,33.4,15.8,35.3c1.9,2.3,8,4.7,8,4.7c0.3,0.1,0.4,0.4,0.3,0.7
			C170.4,123,170.2,123.1,170,123.1z"/>
	</g>
</g>
</svg>
