<?xml version="1.0" encoding="utf-8"?>
<!-- Generator: Adobe Illustrator 22.1.0, SVG Export Plug-In . SVG Version: 6.00 Build 0)  -->
<svg version="1.1" id="Layer_1" xmlns="http://www.w3.org/2000/svg" xmlns:xlink="http://www.w3.org/1999/xlink" x="0px" y="0px"
	 viewBox="0 0 315.5 370" style="enable-background:new 0 0 315.5 370;" xml:space="preserve">
<style type="text/css">
	.st0{opacity:0.4;fill:#65D2FF;}
	.st1{opacity:0.69;fill:#65D2FF;}
	.st2{fill:url(#SVGID_1_);}
	.st3{fill:#FFFFFF;}
	.st4{opacity:0.3;fill:#65D2FF;}
	.st5{fill:url(#SVGID_2_);}
	.st6{fill:url(#SVGID_3_);}
	.st7{fill:#65D2FF;}
	.st8{opacity:0.1;fill:#FFFFFF;}
	.st9{opacity:0.5;fill:#FFFFFF;}
	.st10{opacity:0.6;fill:#65D2FF;}
	.st11{opacity:0.2;fill:#FFFFFF;}
	.st12{fill:#212C40;}
	.st13{fill:url(#SVGID_4_);}
	.st14{fill:#222C40;}
</style>
<path class="st0" d="M97.7,50.2c9.2,0,17.9,1.9,25.8,5.3L118.2,68c-6.3-2.8-13.3-4.3-20.7-4.3c-28.7,0-52,23.3-52,52
	c0,28.4,24.3,51.5,52.6,51.9v13.6c-35.7-0.6-66-29.7-66-65.5C32.1,79.5,61.5,50.2,97.7,50.2z"/>
<path class="st1" d="M97.5,63.8c7.4,0,14.3,1.5,20.7,4.3c9.3,4,17.2,10.7,22.7,19.1l-11.3,7.5c-6.9-10.4-18.7-17.3-32.1-17.3
	c-21.2,0-38.3,17.2-38.3,38.3c0,20.9,18.2,37.9,39,38.3v8.4v5.2c-28.3-0.5-52.6-23.5-52.6-51.9C45.5,87,68.8,63.8,97.5,63.8z"/>
<linearGradient id="SVGID_1_" gradientUnits="userSpaceOnUse" x1="75.0803" y1="140.5468" x2="116.4136" y2="83.8801">
	<stop  offset="0" style="stop-color:#6ABC5C"/>
	<stop  offset="1" style="stop-color:#65D2FF"/>
</linearGradient>
<path class="st2" d="M97.5,77.4c13.4,0,25.2,6.9,32.1,17.3c4,6,6.3,13.3,6.3,21c0,0.3,0,0.5,0,0.7h-13.3c0-0.2,0-0.5,0-0.7
	c0-13.8-11.2-25.1-25.1-25.1c-13.8,0-25.1,11.2-25.1,25.1c0,13.5,12.3,24.6,25.7,25v9.7v3.6c-20.8-0.5-39-17.4-39-38.3
	C59.1,94.5,76.3,77.4,97.5,77.4z"/>
<g>
	<g>
		<path class="st3" d="M105.1,149.1h-1.8l-0.3,1.3h-1.4l2-6.4h1.2l2,6.4h-1.4L105.1,149.1z M103.6,148h1.2l-0.6-2.3L103.6,148z"/>
	</g>
</g>
<g>
	<g>
		<path class="st3" d="M146,116.9c0,0.2-0.1,0.4-0.2,0.6c-0.1,0.2-0.2,0.3-0.4,0.4c0.2,0.1,0.4,0.3,0.5,0.5s0.2,0.4,0.2,0.7
			c0,0.4-0.1,0.8-0.4,1s-0.6,0.4-1,0.4s-0.8-0.1-1-0.4c-0.3-0.3-0.4-0.6-0.4-1c0-0.3,0.1-0.5,0.2-0.7s0.3-0.4,0.5-0.5
			c-0.2-0.1-0.3-0.3-0.4-0.4c-0.1-0.2-0.2-0.4-0.2-0.6c0-0.4,0.1-0.8,0.4-1c0.2-0.2,0.6-0.4,1-0.4c0.4,0,0.7,0.1,1,0.4
			C145.9,116.1,146,116.4,146,116.9z M144.7,119.7c0.1,0,0.3-0.1,0.3-0.2c0.1-0.1,0.1-0.3,0.1-0.5c0-0.2,0-0.4-0.1-0.5
			c-0.1-0.1-0.2-0.2-0.3-0.2c-0.1,0-0.3,0.1-0.3,0.2c-0.1,0.1-0.1,0.3-0.1,0.5c0,0.2,0,0.4,0.1,0.5
			C144.5,119.7,144.6,119.7,144.7,119.7z M145.1,116.9c0-0.2,0-0.3-0.1-0.5c-0.1-0.1-0.2-0.2-0.3-0.2c-0.1,0-0.2,0.1-0.3,0.2
			c-0.1,0.1-0.1,0.3-0.1,0.5c0,0.2,0,0.3,0.1,0.5c0.1,0.1,0.2,0.2,0.3,0.2c0.1,0,0.2-0.1,0.3-0.2
			C145.1,117.3,145.1,117.1,145.1,116.9z"/>
		<path class="st3" d="M149.8,118.4c0,0.7-0.1,1.2-0.4,1.6c-0.2,0.4-0.6,0.5-1.1,0.5c-0.5,0-0.8-0.2-1-0.5c-0.2-0.3-0.4-0.8-0.4-1.5
			v-0.9c0-0.7,0.1-1.2,0.4-1.6c0.2-0.4,0.6-0.5,1.1-0.5c0.5,0,0.8,0.2,1.1,0.5c0.2,0.4,0.4,0.9,0.4,1.5V118.4z M148.8,117.4
			c0-0.4,0-0.7-0.1-0.9c-0.1-0.2-0.2-0.3-0.4-0.3c-0.3,0-0.5,0.4-0.5,1.1v1.2c0,0.4,0,0.7,0.1,0.9c0.1,0.2,0.2,0.3,0.4,0.3
			c0.2,0,0.3-0.1,0.3-0.3c0.1-0.2,0.1-0.5,0.1-0.8V117.4z"/>
		<path class="st3" d="M150.6,116.5c0-0.3,0.1-0.5,0.2-0.7c0.2-0.2,0.4-0.3,0.7-0.3s0.5,0.1,0.7,0.3c0.2,0.2,0.3,0.4,0.3,0.7v0.2
			c0,0.3-0.1,0.5-0.2,0.7c-0.2,0.2-0.4,0.3-0.7,0.3c-0.3,0-0.5-0.1-0.7-0.3c-0.2-0.2-0.3-0.4-0.3-0.8V116.5z M151.2,116.8
			c0,0.1,0,0.2,0.1,0.3c0.1,0.1,0.1,0.1,0.2,0.1c0.1,0,0.2,0,0.2-0.1s0.1-0.2,0.1-0.3v-0.2c0-0.1,0-0.2-0.1-0.3
			c-0.1-0.1-0.1-0.1-0.2-0.1c-0.1,0-0.2,0-0.2,0.1c-0.1,0.1-0.1,0.2-0.1,0.3V116.8z M151.7,120.1l-0.5-0.3l2-3.8l0.5,0.3
			L151.7,120.1z M152.6,119.3c0-0.3,0.1-0.5,0.3-0.7s0.4-0.3,0.7-0.3c0.3,0,0.5,0.1,0.7,0.3c0.2,0.2,0.3,0.4,0.3,0.8v0.2
			c0,0.3-0.1,0.5-0.2,0.7c-0.2,0.2-0.4,0.3-0.7,0.3c-0.3,0-0.5-0.1-0.7-0.3c-0.2-0.2-0.2-0.4-0.2-0.7V119.3z M153.2,119.5
			c0,0.1,0,0.2,0.1,0.3c0.1,0.1,0.1,0.1,0.2,0.1c0.2,0,0.3-0.1,0.3-0.4v-0.3c0-0.1,0-0.2-0.1-0.3s-0.1-0.1-0.2-0.1
			c-0.2,0-0.3,0.2-0.3,0.5V119.5z"/>
	</g>
</g>
<g>
	<g>
		<path class="st3" d="M102.1,163.9v-6.4h2c0.7,0,1.2,0.1,1.5,0.4c0.3,0.3,0.5,0.7,0.5,1.3c0,0.3-0.1,0.6-0.2,0.8
			c-0.1,0.2-0.3,0.4-0.6,0.5c0.3,0.1,0.5,0.2,0.7,0.5s0.2,0.5,0.2,0.9c0,0.6-0.2,1.1-0.5,1.4c-0.3,0.3-0.8,0.5-1.5,0.5H102.1z
			 M103.4,160.2h0.7c0.5,0,0.8-0.3,0.8-0.8c0-0.3-0.1-0.5-0.2-0.6c-0.1-0.1-0.3-0.2-0.6-0.2h-0.7V160.2z M103.4,161.1v1.7h0.8
			c0.2,0,0.4-0.1,0.5-0.2c0.1-0.1,0.2-0.3,0.2-0.6c0-0.6-0.2-0.9-0.6-0.9H103.4z"/>
	</g>
</g>
<g>
	<g>
		<path class="st3" d="M106.4,176.2c0,0.7-0.2,1.3-0.6,1.6c-0.4,0.4-0.9,0.6-1.6,0.6c-0.7,0-1.3-0.2-1.7-0.7s-0.6-1.1-0.6-2v-1.1
			c0-0.9,0.2-1.5,0.6-2c0.4-0.5,0.9-0.7,1.6-0.7c0.7,0,1.2,0.2,1.6,0.6c0.4,0.4,0.6,0.9,0.6,1.7h-1.3c0-0.4-0.1-0.8-0.2-0.9
			s-0.4-0.3-0.7-0.3c-0.3,0-0.6,0.1-0.7,0.4s-0.2,0.6-0.2,1.2v1.2c0,0.6,0.1,1.1,0.2,1.3c0.1,0.2,0.4,0.4,0.7,0.4
			c0.3,0,0.6-0.1,0.7-0.2c0.1-0.2,0.2-0.5,0.2-0.9H106.4z"/>
	</g>
</g>
<g>
	<g>
		<polygon class="st4" points="157.5,167 150,159.2 142.6,167 146.7,167 146.7,177.8 153.4,177.8 153.4,167 		"/>
		<polygon class="st4" points="193.4,160.1 185.9,152.3 178.5,160.1 182.6,160.1 182.6,177.8 189.2,177.8 189.2,160.1 		"/>
		<linearGradient id="SVGID_2_" gradientUnits="userSpaceOnUse" x1="158.785" y1="173.8333" x2="158.785" y2="152.666">
			<stop  offset="0" style="stop-color:#6ABC5C"/>
			<stop  offset="1" style="stop-color:#65D2FF"/>
		</linearGradient>
		<polygon class="st5" points="166.2,158.1 158.8,150.3 151.4,158.1 155.5,158.1 155.5,177.8 162.1,177.8 162.1,158.1 		"/>
		<polygon class="st4" points="184.6,149.8 177.2,142 169.7,149.8 173.8,149.8 173.8,177.8 180.5,177.8 180.5,149.8 		"/>
		<polygon class="st4" points="175.4,141.2 168,133.4 160.5,141.2 164.6,141.2 164.6,177.8 171.3,177.8 171.3,141.2 		"/>
	</g>
	<g>
		<g>
			<path class="st3" d="M147.7,181.2h0.2c0.1,0,0.1,0,0.2-0.1c0-0.1,0.1-0.1,0.1-0.2c0-0.1,0-0.2-0.1-0.2c0,0-0.1-0.1-0.1-0.1
				c-0.1,0-0.1,0-0.1,0.1c0,0-0.1,0.1-0.1,0.2h-0.4c0-0.1,0-0.2,0.1-0.3c0.1-0.1,0.1-0.2,0.2-0.2c0.1-0.1,0.2-0.1,0.3-0.1
				c0.2,0,0.4,0.1,0.5,0.2s0.2,0.3,0.2,0.5c0,0.1,0,0.2-0.1,0.3s-0.1,0.1-0.2,0.2c0.1,0,0.2,0.1,0.2,0.2s0.1,0.2,0.1,0.3
				c0,0.2-0.1,0.3-0.2,0.5c-0.1,0.1-0.3,0.2-0.5,0.2c-0.2,0-0.3-0.1-0.5-0.2c-0.1-0.1-0.2-0.3-0.2-0.5h0.4c0,0.1,0,0.1,0.1,0.2
				c0,0.1,0.1,0.1,0.2,0.1c0.1,0,0.1,0,0.2-0.1s0.1-0.1,0.1-0.2c0-0.2-0.1-0.3-0.2-0.3h-0.2V181.2z"/>
			<path class="st3" d="M150.3,181.6c0,0.3-0.1,0.5-0.2,0.7s-0.3,0.2-0.5,0.2c-0.2,0-0.4-0.1-0.5-0.2s-0.2-0.4-0.2-0.7v-0.4
				c0-0.3,0.1-0.5,0.2-0.7c0.1-0.2,0.3-0.2,0.5-0.2c0.2,0,0.4,0.1,0.5,0.2s0.2,0.4,0.2,0.7V181.6z M149.8,181.1c0-0.2,0-0.3-0.1-0.4
				c0-0.1-0.1-0.1-0.2-0.1c-0.1,0-0.2,0.2-0.2,0.5v0.5c0,0.2,0,0.3,0.1,0.4c0,0.1,0.1,0.1,0.2,0.1c0.1,0,0.1,0,0.2-0.1
				c0-0.1,0.1-0.2,0.1-0.4V181.1z"/>
			<path class="st3" d="M150.6,180.7c0-0.1,0-0.2,0.1-0.3c0.1-0.1,0.2-0.1,0.3-0.1c0.1,0,0.2,0,0.3,0.1c0.1,0.1,0.1,0.2,0.1,0.3v0.1
				c0,0.1,0,0.2-0.1,0.3c-0.1,0.1-0.2,0.1-0.3,0.1c-0.1,0-0.2,0-0.3-0.1c-0.1-0.1-0.1-0.2-0.1-0.3V180.7z M150.9,180.8
				c0,0.1,0,0.1,0,0.1s0.1,0.1,0.1,0.1c0,0,0.1,0,0.1-0.1c0,0,0-0.1,0-0.1v-0.1c0-0.1,0-0.1,0-0.1s-0.1-0.1-0.1-0.1
				c0,0-0.1,0-0.1,0.1s0,0.1,0,0.1V180.8z M151.1,182.3l-0.2-0.1l0.9-1.7l0.2,0.1L151.1,182.3z M151.5,181.9c0-0.1,0-0.2,0.1-0.3
				s0.2-0.1,0.3-0.1c0.1,0,0.2,0,0.3,0.1s0.1,0.2,0.1,0.3v0.1c0,0.1,0,0.2-0.1,0.3s-0.2,0.1-0.3,0.1c-0.1,0-0.2,0-0.3-0.1
				c-0.1-0.1-0.1-0.2-0.1-0.3V181.9z M151.8,182c0,0.1,0,0.1,0,0.1c0,0,0.1,0.1,0.1,0.1c0.1,0,0.1-0.1,0.1-0.2v-0.1
				c0-0.1,0-0.1,0-0.1s-0.1-0.1-0.1-0.1C151.8,181.7,151.8,181.8,151.8,182L151.8,182z"/>
		</g>
	</g>
	<g>
		<g>
			<path class="st3" d="M157.2,181.6h0.2v0.4h-0.2v0.5h-0.4V182h-0.7l0-0.3l0.7-1.4h0.4V181.6z M156.5,181.6h0.3v-0.7l0,0
				L156.5,181.6z"/>
			<path class="st3" d="M157.8,181.4l0.1-1.1h1.1v0.4h-0.7l0,0.5c0.1-0.1,0.2-0.1,0.3-0.1c0.2,0,0.3,0.1,0.4,0.2
				c0.1,0.1,0.1,0.3,0.1,0.5c0,0.2-0.1,0.4-0.2,0.5c-0.1,0.1-0.3,0.2-0.5,0.2c-0.1,0-0.2,0-0.3-0.1c-0.1-0.1-0.2-0.1-0.2-0.2
				s-0.1-0.2-0.1-0.3h0.4c0,0.1,0,0.2,0.1,0.2s0.1,0.1,0.1,0.1c0.1,0,0.1,0,0.2-0.1c0-0.1,0.1-0.2,0.1-0.3c0-0.1,0-0.2-0.1-0.3
				c0-0.1-0.1-0.1-0.2-0.1c-0.1,0-0.1,0-0.2,0.1l0,0L157.8,181.4z"/>
			<path class="st3" d="M159.4,180.7c0-0.1,0-0.2,0.1-0.3c0.1-0.1,0.2-0.1,0.3-0.1c0.1,0,0.2,0,0.3,0.1c0.1,0.1,0.1,0.2,0.1,0.3v0.1
				c0,0.1,0,0.2-0.1,0.3c-0.1,0.1-0.2,0.1-0.3,0.1c-0.1,0-0.2,0-0.3-0.1c-0.1-0.1-0.1-0.2-0.1-0.3V180.7z M159.6,180.8
				c0,0.1,0,0.1,0,0.1s0.1,0.1,0.1,0.1c0,0,0.1,0,0.1-0.1c0,0,0-0.1,0-0.1v-0.1c0-0.1,0-0.1,0-0.1s-0.1-0.1-0.1-0.1
				c0,0-0.1,0-0.1,0.1s0,0.1,0,0.1V180.8z M159.8,182.3l-0.2-0.1l0.9-1.7l0.2,0.1L159.8,182.3z M160.2,181.9c0-0.1,0-0.2,0.1-0.3
				s0.2-0.1,0.3-0.1c0.1,0,0.2,0,0.3,0.1s0.1,0.2,0.1,0.3v0.1c0,0.1,0,0.2-0.1,0.3s-0.2,0.1-0.3,0.1c-0.1,0-0.2,0-0.3-0.1
				c-0.1-0.1-0.1-0.2-0.1-0.3V181.9z M160.5,182c0,0.1,0,0.1,0,0.1c0,0,0.1,0.1,0.1,0.1c0.1,0,0.1-0.1,0.1-0.2v-0.1
				c0-0.1,0-0.1,0-0.1s-0.1-0.1-0.1-0.1C160.5,181.7,160.5,181.8,160.5,182L160.5,182z"/>
		</g>
	</g>
	<g>
		<g>
			<path class="st3" d="M175.6,180.3v0.4h0c-0.2,0-0.3,0-0.4,0.1c-0.1,0.1-0.1,0.2-0.2,0.4c0.1-0.1,0.2-0.2,0.3-0.2
				c0.2,0,0.3,0.1,0.4,0.2c0.1,0.1,0.1,0.3,0.1,0.5c0,0.1,0,0.3-0.1,0.4s-0.1,0.2-0.2,0.3c-0.1,0.1-0.2,0.1-0.3,0.1
				c-0.2,0-0.4-0.1-0.5-0.2c-0.1-0.2-0.2-0.4-0.2-0.6v-0.2c0-0.2,0-0.5,0.1-0.6s0.2-0.3,0.3-0.4
				C175.2,180.3,175.3,180.3,175.6,180.3L175.6,180.3z M175.2,181.4c-0.1,0-0.1,0-0.1,0.1c0,0-0.1,0.1-0.1,0.1v0.2
				c0,0.2,0,0.3,0.1,0.3c0,0.1,0.1,0.1,0.2,0.1c0.1,0,0.1,0,0.2-0.1c0-0.1,0.1-0.2,0.1-0.3c0-0.1,0-0.2-0.1-0.3
				C175.4,181.4,175.3,181.4,175.2,181.4z"/>
			<path class="st3" d="M177.5,181.6c0,0.3-0.1,0.5-0.2,0.7s-0.3,0.2-0.5,0.2c-0.2,0-0.4-0.1-0.5-0.2s-0.2-0.4-0.2-0.7v-0.4
				c0-0.3,0.1-0.5,0.2-0.7c0.1-0.2,0.3-0.2,0.5-0.2c0.2,0,0.4,0.1,0.5,0.2s0.2,0.4,0.2,0.7V181.6z M177,181.1c0-0.2,0-0.3-0.1-0.4
				c0-0.1-0.1-0.1-0.2-0.1c-0.1,0-0.2,0.2-0.2,0.5v0.5c0,0.2,0,0.3,0.1,0.4c0,0.1,0.1,0.1,0.2,0.1c0.1,0,0.1,0,0.2-0.1
				c0-0.1,0.1-0.2,0.1-0.4V181.1z"/>
			<path class="st3" d="M177.8,180.7c0-0.1,0-0.2,0.1-0.3c0.1-0.1,0.2-0.1,0.3-0.1c0.1,0,0.2,0,0.3,0.1c0.1,0.1,0.1,0.2,0.1,0.3v0.1
				c0,0.1,0,0.2-0.1,0.3c-0.1,0.1-0.2,0.1-0.3,0.1c-0.1,0-0.2,0-0.3-0.1c-0.1-0.1-0.1-0.2-0.1-0.3V180.7z M178.1,180.8
				c0,0.1,0,0.1,0,0.1s0.1,0.1,0.1,0.1c0,0,0.1,0,0.1-0.1c0,0,0-0.1,0-0.1v-0.1c0-0.1,0-0.1,0-0.1s-0.1-0.1-0.1-0.1
				c0,0-0.1,0-0.1,0.1s0,0.1,0,0.1V180.8z M178.3,182.3l-0.2-0.1l0.9-1.7l0.2,0.1L178.3,182.3z M178.7,181.9c0-0.1,0-0.2,0.1-0.3
				s0.2-0.1,0.3-0.1c0.1,0,0.2,0,0.3,0.1s0.1,0.2,0.1,0.3v0.1c0,0.1,0,0.2-0.1,0.3s-0.2,0.1-0.3,0.1c-0.1,0-0.2,0-0.3-0.1
				c-0.1-0.1-0.1-0.2-0.1-0.3V181.9z M179,182c0,0.1,0,0.1,0,0.1c0,0,0.1,0.1,0.1,0.1c0.1,0,0.1-0.1,0.1-0.2v-0.1c0-0.1,0-0.1,0-0.1
				s-0.1-0.1-0.1-0.1C179,181.7,179,181.8,179,182L179,182z"/>
		</g>
	</g>
	<g>
		<g>
			<path class="st3" d="M166.7,180.9c0,0.1,0,0.2-0.1,0.3c0,0.1-0.1,0.1-0.2,0.2c0.1,0.1,0.2,0.1,0.2,0.2c0.1,0.1,0.1,0.2,0.1,0.3
				c0,0.2-0.1,0.3-0.2,0.5c-0.1,0.1-0.3,0.2-0.5,0.2c-0.2,0-0.3-0.1-0.5-0.2c-0.1-0.1-0.2-0.3-0.2-0.5c0-0.1,0-0.2,0.1-0.3
				c0.1-0.1,0.1-0.2,0.2-0.2c-0.1,0-0.1-0.1-0.2-0.2c0-0.1-0.1-0.2-0.1-0.3c0-0.2,0.1-0.3,0.2-0.4s0.2-0.2,0.4-0.2
				c0.2,0,0.3,0.1,0.4,0.2S166.7,180.7,166.7,180.9z M166.1,182.1c0.1,0,0.1,0,0.1-0.1c0-0.1,0.1-0.1,0.1-0.2s0-0.2-0.1-0.2
				s-0.1-0.1-0.1-0.1c-0.1,0-0.1,0-0.1,0.1c0,0.1-0.1,0.1-0.1,0.2s0,0.2,0.1,0.2C166,182.1,166.1,182.1,166.1,182.1z M166.3,180.9
				c0-0.1,0-0.2,0-0.2s-0.1-0.1-0.1-0.1c-0.1,0-0.1,0-0.1,0.1s0,0.1,0,0.2c0,0.1,0,0.2,0,0.2c0,0.1,0.1,0.1,0.1,0.1
				c0.1,0,0.1,0,0.1-0.1C166.3,181,166.3,181,166.3,180.9z"/>
			<path class="st3" d="M167.2,181.4l0.1-1.1h1.1v0.4h-0.7l0,0.5c0.1-0.1,0.2-0.1,0.3-0.1c0.2,0,0.3,0.1,0.4,0.2
				c0.1,0.1,0.1,0.3,0.1,0.5c0,0.2-0.1,0.4-0.2,0.5c-0.1,0.1-0.3,0.2-0.5,0.2c-0.1,0-0.2,0-0.3-0.1c-0.1-0.1-0.2-0.1-0.2-0.2
				s-0.1-0.2-0.1-0.3h0.4c0,0.1,0,0.2,0.1,0.2s0.1,0.1,0.1,0.1c0.1,0,0.1,0,0.2-0.1c0-0.1,0.1-0.2,0.1-0.3c0-0.1,0-0.2-0.1-0.3
				c0-0.1-0.1-0.1-0.2-0.1c-0.1,0-0.1,0-0.2,0.1l0,0L167.2,181.4z"/>
			<path class="st3" d="M168.7,180.7c0-0.1,0-0.2,0.1-0.3c0.1-0.1,0.2-0.1,0.3-0.1c0.1,0,0.2,0,0.3,0.1c0.1,0.1,0.1,0.2,0.1,0.3v0.1
				c0,0.1,0,0.2-0.1,0.3c-0.1,0.1-0.2,0.1-0.3,0.1c-0.1,0-0.2,0-0.3-0.1c-0.1-0.1-0.1-0.2-0.1-0.3V180.7z M169,180.8
				c0,0.1,0,0.1,0,0.1s0.1,0.1,0.1,0.1c0,0,0.1,0,0.1-0.1c0,0,0-0.1,0-0.1v-0.1c0-0.1,0-0.1,0-0.1s-0.1-0.1-0.1-0.1
				c0,0-0.1,0-0.1,0.1s0,0.1,0,0.1V180.8z M169.2,182.3l-0.2-0.1l0.9-1.7l0.2,0.1L169.2,182.3z M169.6,181.9c0-0.1,0-0.2,0.1-0.3
				s0.2-0.1,0.3-0.1c0.1,0,0.2,0,0.3,0.1s0.1,0.2,0.1,0.3v0.1c0,0.1,0,0.2-0.1,0.3s-0.2,0.1-0.3,0.1c-0.1,0-0.2,0-0.3-0.1
				c-0.1-0.1-0.1-0.2-0.1-0.3V181.9z M169.9,182c0,0.1,0,0.1,0,0.1c0,0,0.1,0.1,0.1,0.1c0.1,0,0.1-0.1,0.1-0.2v-0.1
				c0-0.1,0-0.1,0-0.1s-0.1-0.1-0.1-0.1C169.9,181.7,169.9,181.8,169.9,182L169.9,182z"/>
		</g>
	</g>
	<g>
		<g>
			<path class="st3" d="M184.3,181.6h0.2v0.4h-0.2v0.5h-0.4V182h-0.7l0-0.3l0.7-1.4h0.4V181.6z M183.6,181.6h0.3v-0.7l0,0
				L183.6,181.6z"/>
			<path class="st3" d="M186.1,181.6c0,0.3-0.1,0.5-0.2,0.7s-0.3,0.2-0.5,0.2c-0.2,0-0.4-0.1-0.5-0.2s-0.2-0.4-0.2-0.7v-0.4
				c0-0.3,0.1-0.5,0.2-0.7c0.1-0.2,0.3-0.2,0.5-0.2c0.2,0,0.4,0.1,0.5,0.2s0.2,0.4,0.2,0.7V181.6z M185.7,181.1c0-0.2,0-0.3-0.1-0.4
				c0-0.1-0.1-0.1-0.2-0.1c-0.1,0-0.2,0.2-0.2,0.5v0.5c0,0.2,0,0.3,0.1,0.4c0,0.1,0.1,0.1,0.2,0.1c0.1,0,0.1,0,0.2-0.1
				c0-0.1,0.1-0.2,0.1-0.4V181.1z"/>
			<path class="st3" d="M186.4,180.7c0-0.1,0-0.2,0.1-0.3c0.1-0.1,0.2-0.1,0.3-0.1c0.1,0,0.2,0,0.3,0.1c0.1,0.1,0.1,0.2,0.1,0.3v0.1
				c0,0.1,0,0.2-0.1,0.3c-0.1,0.1-0.2,0.1-0.3,0.1c-0.1,0-0.2,0-0.3-0.1c-0.1-0.1-0.1-0.2-0.1-0.3V180.7z M186.7,180.8
				c0,0.1,0,0.1,0,0.1s0.1,0.1,0.1,0.1c0,0,0.1,0,0.1-0.1c0,0,0-0.1,0-0.1v-0.1c0-0.1,0-0.1,0-0.1s-0.1-0.1-0.1-0.1
				c0,0-0.1,0-0.1,0.1s0,0.1,0,0.1V180.8z M186.9,182.3l-0.2-0.1l0.9-1.7l0.2,0.1L186.9,182.3z M187.3,181.9c0-0.1,0-0.2,0.1-0.3
				s0.2-0.1,0.3-0.1c0.1,0,0.2,0,0.3,0.1s0.1,0.2,0.1,0.3v0.1c0,0.1,0,0.2-0.1,0.3s-0.2,0.1-0.3,0.1c-0.1,0-0.2,0-0.3-0.1
				c-0.1-0.1-0.1-0.2-0.1-0.3V181.9z M187.6,182c0,0.1,0,0.1,0,0.1c0,0,0.1,0.1,0.1,0.1c0.1,0,0.1-0.1,0.1-0.2v-0.1
				c0-0.1,0-0.1,0-0.1s-0.1-0.1-0.1-0.1C187.6,181.7,187.6,181.8,187.6,182L187.6,182z"/>
		</g>
	</g>
</g>
<path class="st3" d="M127.8,125.3c-1.4,0-2.5-1.1-2.5-2.5s1.1-2.5,2.5-2.5s2.5,1.1,2.5,2.5S129.2,125.3,127.8,125.3z M127.8,121.3
	c-0.8,0-1.5,0.7-1.5,1.5s0.7,1.5,1.5,1.5s1.5-0.7,1.5-1.5S128.6,121.3,127.8,121.3z"/>
<g>
	<path class="st3" d="M130,123.2h50.5c0.1,0,0.3-0.1,0.3-0.3c0-0.1-0.1-0.3-0.3-0.3H130c-0.1,0-0.3,0.1-0.3,0.3
		C129.7,123.1,129.8,123.2,130,123.2z"/>
	<path class="st3" d="M180.4,123.3H130c-0.2,0-0.4-0.2-0.4-0.4s0.2-0.4,0.4-0.4h50.5c0.2,0,0.4,0.2,0.4,0.4S180.6,123.3,180.4,123.3
		z M130,122.8c-0.1,0-0.1,0.1-0.1,0.1c0,0.1,0.1,0.1,0.1,0.1h50.5c0.1,0,0.1-0.1,0.1-0.1c0-0.1-0.1-0.1-0.1-0.1H130z"/>
</g>
<g>
	<g>
		<path class="st3" d="M143.4,58.1l0.2-2.5h2.4v0.8h-1.6l-0.1,1.1c0.2-0.1,0.4-0.2,0.6-0.2c0.4,0,0.7,0.1,0.9,0.4
			c0.2,0.3,0.3,0.7,0.3,1.2c0,0.5-0.1,0.9-0.4,1.2c-0.3,0.3-0.6,0.5-1,0.5c-0.3,0-0.5-0.1-0.7-0.2s-0.4-0.3-0.5-0.5
			s-0.2-0.5-0.2-0.7h0.9c0,0.2,0.1,0.4,0.2,0.5s0.2,0.2,0.3,0.2c0.2,0,0.3-0.1,0.4-0.2c0.1-0.2,0.1-0.4,0.1-0.7
			c0-0.3-0.1-0.5-0.2-0.6c-0.1-0.1-0.2-0.2-0.4-0.2c-0.2,0-0.3,0.1-0.4,0.2l-0.1,0.1L143.4,58.1z"/>
		<path class="st3" d="M147,58.1l0.2-2.5h2.4v0.8h-1.6l-0.1,1.1c0.2-0.1,0.4-0.2,0.6-0.2c0.4,0,0.7,0.1,0.9,0.4
			c0.2,0.3,0.3,0.7,0.3,1.2c0,0.5-0.1,0.9-0.4,1.2c-0.3,0.3-0.6,0.5-1,0.5c-0.3,0-0.5-0.1-0.7-0.2s-0.4-0.3-0.5-0.5
			s-0.2-0.5-0.2-0.7h0.9c0,0.2,0.1,0.4,0.2,0.5s0.2,0.2,0.3,0.2c0.2,0,0.3-0.1,0.4-0.2c0.1-0.2,0.1-0.4,0.1-0.7
			c0-0.3-0.1-0.5-0.2-0.6c-0.1-0.1-0.2-0.2-0.4-0.2c-0.2,0-0.3,0.1-0.4,0.2l-0.1,0.1L147,58.1z"/>
		<path class="st3" d="M150.6,56.5c0-0.3,0.1-0.5,0.2-0.7c0.2-0.2,0.4-0.3,0.7-0.3s0.5,0.1,0.7,0.3c0.2,0.2,0.3,0.4,0.3,0.7v0.2
			c0,0.3-0.1,0.5-0.2,0.7c-0.2,0.2-0.4,0.3-0.7,0.3c-0.3,0-0.5-0.1-0.7-0.3c-0.2-0.2-0.3-0.4-0.3-0.8V56.5z M151.2,56.8
			c0,0.1,0,0.2,0.1,0.3c0.1,0.1,0.1,0.1,0.2,0.1c0.1,0,0.2,0,0.2-0.1s0.1-0.2,0.1-0.3v-0.2c0-0.1,0-0.2-0.1-0.3
			c-0.1-0.1-0.1-0.1-0.2-0.1c-0.1,0-0.2,0-0.2,0.1c-0.1,0.1-0.1,0.2-0.1,0.3V56.8z M151.7,60.1l-0.5-0.3l2-3.8l0.5,0.3L151.7,60.1z
			 M152.6,59.3c0-0.3,0.1-0.5,0.3-0.7s0.4-0.3,0.7-0.3c0.3,0,0.5,0.1,0.7,0.3c0.2,0.2,0.3,0.4,0.3,0.8v0.2c0,0.3-0.1,0.5-0.2,0.7
			c-0.2,0.2-0.4,0.3-0.7,0.3c-0.3,0-0.5-0.1-0.7-0.3c-0.2-0.2-0.2-0.4-0.2-0.7V59.3z M153.2,59.5c0,0.1,0,0.2,0.1,0.3
			c0.1,0.1,0.1,0.1,0.2,0.1c0.2,0,0.3-0.1,0.3-0.4v-0.3c0-0.1,0-0.2-0.1-0.3s-0.1-0.1-0.2-0.1c-0.2,0-0.3,0.2-0.3,0.5V59.5z"/>
	</g>
</g>
<path class="st3" d="M127.8,65.3c-1.4,0-2.5-1.1-2.5-2.5c0-1.4,1.1-2.5,2.5-2.5s2.5,1.1,2.5,2.5C130.3,64.2,129.2,65.3,127.8,65.3z
	 M127.8,61.3c-0.8,0-1.5,0.7-1.5,1.5s0.7,1.5,1.5,1.5s1.5-0.7,1.5-1.5S128.6,61.3,127.8,61.3z"/>
<g>
	<path class="st3" d="M130,63.2h50.5c0.1,0,0.3-0.1,0.3-0.3c0-0.1-0.1-0.3-0.3-0.3H130c-0.1,0-0.3,0.1-0.3,0.3
		C129.7,63.1,129.8,63.2,130,63.2z"/>
	<path class="st3" d="M180.4,63.4H130c-0.2,0-0.4-0.2-0.4-0.4s0.2-0.4,0.4-0.4h50.5c0.2,0,0.4,0.2,0.4,0.4S180.6,63.4,180.4,63.4z
		 M130,62.8c-0.1,0-0.1,0.1-0.1,0.1s0.1,0.1,0.1,0.1h50.5c0.1,0,0.1-0.1,0.1-0.1s-0.1-0.1-0.1-0.1H130z"/>
</g>
<g>
	<g>
		<path class="st3" d="M156,89.3v0.8H156c-0.4,0-0.6,0.1-0.9,0.3c-0.2,0.2-0.3,0.5-0.4,0.9c0.2-0.2,0.5-0.4,0.8-0.4
			c0.4,0,0.6,0.2,0.9,0.5c0.2,0.3,0.3,0.7,0.3,1.2c0,0.3-0.1,0.6-0.2,0.9c-0.1,0.3-0.3,0.5-0.5,0.6c-0.2,0.1-0.5,0.2-0.7,0.2
			c-0.4,0-0.8-0.2-1.1-0.5c-0.3-0.4-0.4-0.8-0.4-1.4V92c0-0.5,0.1-1,0.3-1.4c0.2-0.4,0.4-0.7,0.7-0.9c0.3-0.2,0.7-0.3,1.1-0.3H156z
			 M155.2,91.7c-0.1,0-0.2,0-0.3,0.1c-0.1,0.1-0.1,0.2-0.2,0.3v0.3c0,0.3,0,0.6,0.1,0.8c0.1,0.2,0.2,0.3,0.4,0.3
			c0.2,0,0.3-0.1,0.4-0.2c0.1-0.2,0.1-0.4,0.1-0.6c0-0.3,0-0.5-0.1-0.6C155.5,91.8,155.3,91.7,155.2,91.7z"/>
		<path class="st3" d="M157.5,91.8l0.2-2.5h2.4v0.8h-1.6l-0.1,1.1c0.2-0.1,0.4-0.2,0.6-0.2c0.4,0,0.7,0.1,0.9,0.4
			c0.2,0.3,0.3,0.7,0.3,1.2c0,0.5-0.1,0.9-0.4,1.2c-0.3,0.3-0.6,0.5-1,0.5c-0.3,0-0.5-0.1-0.7-0.2s-0.4-0.3-0.5-0.5
			s-0.2-0.5-0.2-0.7h0.9c0,0.2,0.1,0.4,0.2,0.5s0.2,0.2,0.3,0.2c0.2,0,0.3-0.1,0.4-0.2c0.1-0.2,0.1-0.4,0.1-0.7
			c0-0.3-0.1-0.5-0.2-0.6c-0.1-0.1-0.2-0.2-0.4-0.2c-0.2,0-0.3,0.1-0.4,0.2l-0.1,0.1L157.5,91.8z"/>
		<path class="st3" d="M161.1,90.3c0-0.3,0.1-0.5,0.2-0.7c0.2-0.2,0.4-0.3,0.7-0.3s0.5,0.1,0.7,0.3c0.2,0.2,0.3,0.4,0.3,0.7v0.2
			c0,0.3-0.1,0.5-0.2,0.7c-0.2,0.2-0.4,0.3-0.7,0.3c-0.3,0-0.5-0.1-0.7-0.3c-0.2-0.2-0.3-0.4-0.3-0.8V90.3z M161.7,90.5
			c0,0.1,0,0.2,0.1,0.3c0.1,0.1,0.1,0.1,0.2,0.1c0.1,0,0.2,0,0.2-0.1s0.1-0.2,0.1-0.3v-0.2c0-0.1,0-0.2-0.1-0.3
			c-0.1-0.1-0.1-0.1-0.2-0.1c-0.1,0-0.2,0-0.2,0.1c-0.1,0.1-0.1,0.2-0.1,0.3V90.5z M162.2,93.9l-0.5-0.3l2-3.8l0.5,0.3L162.2,93.9z
			 M163,93c0-0.3,0.1-0.5,0.3-0.7s0.4-0.3,0.7-0.3c0.3,0,0.5,0.1,0.7,0.3c0.2,0.2,0.3,0.4,0.3,0.8v0.2c0,0.3-0.1,0.5-0.2,0.7
			c-0.2,0.2-0.4,0.3-0.7,0.3c-0.3,0-0.5-0.1-0.7-0.3c-0.2-0.2-0.2-0.4-0.2-0.7V93z M163.6,93.3c0,0.1,0,0.2,0.1,0.3
			c0.1,0.1,0.1,0.1,0.2,0.1c0.2,0,0.3-0.1,0.3-0.4V93c0-0.1,0-0.2-0.1-0.3s-0.1-0.1-0.2-0.1c-0.2,0-0.3,0.2-0.3,0.5V93.3z"/>
	</g>
</g>
<path class="st3" d="M142.9,99.1c-1.4,0-2.5-1.1-2.5-2.5c0-1.4,1.1-2.5,2.5-2.5s2.5,1.1,2.5,2.5C145.3,97.9,144.2,99.1,142.9,99.1z
	 M142.9,95.1c-0.8,0-1.5,0.7-1.5,1.5s0.7,1.5,1.5,1.5s1.5-0.7,1.5-1.5S143.7,95.1,142.9,95.1z"/>
<g>
	<path class="st3" d="M144.9,97h35.8c0.1,0,0.2-0.1,0.2-0.3c0-0.1-0.1-0.3-0.2-0.3h-35.8c-0.1,0-0.2,0.1-0.2,0.3
		C144.7,96.9,144.8,97,144.9,97z"/>
	<path class="st3" d="M180.8,97.1h-35.8c-0.2,0-0.3-0.2-0.3-0.4c0-0.2,0.1-0.4,0.3-0.4h35.8c0.2,0,0.3,0.2,0.3,0.4
		C181.1,97,180.9,97.1,180.8,97.1z M144.9,96.6c0,0-0.1,0-0.1,0.1s0,0.1,0.1,0.1h35.8c0,0,0.1,0,0.1-0.1s0-0.1-0.1-0.1H144.9z"/>
</g>
<g>
	<g>
		<path class="st3" d="M187.9,211.3l-1.2,3.3h-0.8l1.2-3.1h-1.5v-0.6h2.3V211.3z"/>
		<path class="st3" d="M190.6,211.9c0,0.2,0,0.3-0.1,0.5c-0.1,0.1-0.2,0.3-0.3,0.3c0.2,0.1,0.3,0.2,0.4,0.4s0.1,0.3,0.1,0.5
			c0,0.3-0.1,0.6-0.3,0.8c-0.2,0.2-0.5,0.3-0.8,0.3c-0.3,0-0.6-0.1-0.8-0.3c-0.2-0.2-0.3-0.5-0.3-0.8c0-0.2,0-0.4,0.1-0.5
			c0.1-0.2,0.2-0.3,0.4-0.4c-0.1-0.1-0.2-0.2-0.3-0.3c-0.1-0.1-0.1-0.3-0.1-0.5c0-0.3,0.1-0.6,0.3-0.8c0.2-0.2,0.4-0.3,0.7-0.3
			c0.3,0,0.6,0.1,0.7,0.3C190.5,211.3,190.6,211.5,190.6,211.9z M189.5,214c0.1,0,0.2,0,0.3-0.1c0.1-0.1,0.1-0.2,0.1-0.4
			c0-0.2,0-0.3-0.1-0.4s-0.1-0.1-0.3-0.1s-0.2,0-0.3,0.1s-0.1,0.2-0.1,0.4c0,0.2,0,0.3,0.1,0.4C189.3,214,189.4,214,189.5,214z
			 M189.8,211.9c0-0.1,0-0.3-0.1-0.3c0-0.1-0.1-0.1-0.2-0.1c-0.1,0-0.2,0-0.2,0.1c0,0.1-0.1,0.2-0.1,0.4c0,0.1,0,0.3,0.1,0.4
			s0.1,0.1,0.2,0.1s0.2,0,0.2-0.1C189.8,212.2,189.8,212,189.8,211.9z"/>
		<path class="st3" d="M191.3,211.6c0-0.2,0.1-0.4,0.2-0.6c0.1-0.1,0.3-0.2,0.5-0.2s0.4,0.1,0.5,0.2c0.1,0.1,0.2,0.3,0.2,0.6v0.2
			c0,0.2-0.1,0.4-0.2,0.6c-0.1,0.1-0.3,0.2-0.5,0.2c-0.2,0-0.4-0.1-0.5-0.2c-0.1-0.1-0.2-0.3-0.2-0.6V211.6z M191.7,211.8
			c0,0.1,0,0.2,0.1,0.2c0,0.1,0.1,0.1,0.2,0.1c0.1,0,0.1,0,0.2-0.1c0-0.1,0.1-0.1,0.1-0.2v-0.2c0-0.1,0-0.2-0.1-0.2
			c0-0.1-0.1-0.1-0.2-0.1c-0.1,0-0.1,0-0.2,0.1s-0.1,0.1-0.1,0.3V211.8z M192.1,214.3l-0.3-0.2l1.5-2.9l0.3,0.2L192.1,214.3z
			 M192.7,213.7c0-0.2,0.1-0.4,0.2-0.6c0.1-0.1,0.3-0.2,0.5-0.2c0.2,0,0.4,0.1,0.5,0.2c0.1,0.1,0.2,0.3,0.2,0.6v0.2
			c0,0.2-0.1,0.4-0.2,0.6c-0.1,0.1-0.3,0.2-0.5,0.2c-0.2,0-0.4-0.1-0.5-0.2c-0.1-0.1-0.2-0.3-0.2-0.6V213.7z M193.2,213.9
			c0,0.1,0,0.2,0.1,0.2c0,0.1,0.1,0.1,0.2,0.1c0.1,0,0.2-0.1,0.2-0.3v-0.2c0-0.1,0-0.2-0.1-0.2s-0.1-0.1-0.2-0.1
			c-0.2,0-0.2,0.1-0.2,0.4V213.9z"/>
	</g>
</g>
<g>
	<path class="st4" d="M92,226c8,0,14.5,6.5,14.5,14.5c0,8-6.5,14.5-14.5,14.5c-8,0-14.5-6.5-14.5-14.5C77.6,232.4,84,226,92,226z"/>
	<path class="st3" d="M92,240.4h11.9c0,6.6-5.3,11.9-11.9,11.9c-6.6,0-11.9-5.3-11.9-11.9c0-6.6,5.3-11.9,11.9-11.9
		c1.3,0,2.4,0.2,3.7,0.6L92,240.4z"/>
</g>
<g>
	<path class="st4" d="M181.7,226c8,0,14.5,6.5,14.5,14.5c0,8-6.5,14.5-14.5,14.5c-8,0-14.5-6.5-14.5-14.5
		C167.3,232.4,173.8,226,181.7,226z"/>
	<path class="st3" d="M181.9,240.7l12.1,0c0,6.7-5.5,12.1-12.2,12.1c-6.7,0-12.1-5.5-12.1-12.2c0-4,1.8-7.5,5-9.8L181.9,240.7z"/>
</g>
<g>
	<path class="st4" d="M136.9,226c8,0,14.5,6.5,14.5,14.5c0,8-6.5,14.5-14.5,14.5c-8,0-14.5-6.5-14.5-14.5
		C122.4,232.4,128.9,226,136.9,226z"/>
	<linearGradient id="SVGID_3_" gradientUnits="userSpaceOnUse" x1="133.1472" y1="246.5908" x2="149.1901" y2="246.5908">
		<stop  offset="0" style="stop-color:#6ABC5C"/>
		<stop  offset="1" style="stop-color:#65D2FF"/>
	</linearGradient>
	<path class="st6" d="M136.9,240.5l12.3,0c0,6.8-5.5,12.3-12.2,12.3c-1.4,0-2.5-0.2-3.8-0.6L136.9,240.5z"/>
</g>
<g>
	<path class="st4" d="M47.1,226c8,0,14.5,6.5,14.5,14.5c0,8-6.5,14.5-14.5,14.5c-8,0-14.5-6.5-14.5-14.5
		C32.7,232.4,39.2,226,47.1,226z"/>
	<path class="st7" d="M47.6,240l11.5,0.2c-0.1,3.8-1.8,7.1-4.9,9.2L47.6,240z"/>
</g>
<g>
	<g>
		<path class="st3" d="M47.1,204.8c-0.9,0-1.6-0.7-1.6-1.6c0-0.9,0.7-1.6,1.6-1.6c0.9,0,1.6,0.7,1.6,1.6
			C48.8,204,48,204.8,47.1,204.8z M47.1,202.2c-0.5,0-1,0.4-1,1s0.4,1,1,1c0.5,0,1-0.4,1-1S47.7,202.2,47.1,202.2z"/>
	</g>
	<g>
		<path class="st3" d="M47.1,222.7c-0.2,0-0.4-0.2-0.4-0.4v-17.8c0-0.2,0.2-0.4,0.4-0.4c0.2,0,0.4,0.2,0.4,0.4v17.8
			C47.6,222.6,47.4,222.7,47.1,222.7z"/>
	</g>
</g>
<g>
	<g>
		<path class="st3" d="M92,204.8c-0.9,0-1.6-0.7-1.6-1.6c0-0.9,0.7-1.6,1.6-1.6s1.6,0.7,1.6,1.6C93.6,204,92.9,204.8,92,204.8z
			 M92,202.2c-0.5,0-1,0.4-1,1s0.4,1,1,1c0.5,0,1-0.4,1-1S92.5,202.2,92,202.2z"/>
	</g>
	<g>
		<path class="st3" d="M92,222.7c-0.2,0-0.4-0.2-0.4-0.4v-17.8c0-0.2,0.2-0.4,0.4-0.4c0.2,0,0.4,0.2,0.4,0.4v17.8
			C92.4,222.6,92.2,222.7,92,222.7z"/>
	</g>
</g>
<g>
	<g>
		<path class="st3" d="M136.9,204.8c-0.9,0-1.6-0.7-1.6-1.6c0-0.9,0.7-1.6,1.6-1.6s1.6,0.7,1.6,1.6
			C138.5,204,137.8,204.8,136.9,204.8z M136.9,202.2c-0.5,0-1,0.4-1,1s0.4,1,1,1c0.5,0,1-0.4,1-1S137.4,202.2,136.9,202.2z"/>
	</g>
	<g>
		<path class="st3" d="M136.9,222.7c-0.2,0-0.4-0.2-0.4-0.4v-17.8c0-0.2,0.2-0.4,0.4-0.4c0.2,0,0.4,0.2,0.4,0.4v17.8
			C137.3,222.6,137.1,222.7,136.9,222.7z"/>
	</g>
</g>
<g>
	<g>
		<path class="st3" d="M181.7,204.8c-0.9,0-1.6-0.7-1.6-1.6c0-0.9,0.7-1.6,1.6-1.6s1.6,0.7,1.6,1.6
			C183.4,204,182.6,204.8,181.7,204.8z M181.7,202.2c-0.5,0-1,0.4-1,1s0.4,1,1,1c0.5,0,1-0.4,1-1S182.3,202.2,181.7,202.2z"/>
	</g>
	<g>
		<path class="st3" d="M181.7,222.7c-0.2,0-0.4-0.2-0.4-0.4v-17.8c0-0.2,0.2-0.4,0.4-0.4c0.2,0,0.4,0.2,0.4,0.4v17.8
			C182.2,222.6,182,222.7,181.7,222.7z"/>
	</g>
</g>
<g>
	<g>
		<path class="st3" d="M141.3,212.4h0.4c0.1,0,0.2,0,0.3-0.1c0.1-0.1,0.1-0.2,0.1-0.4c0-0.1,0-0.3-0.1-0.3c-0.1-0.1-0.2-0.1-0.3-0.1
			c-0.1,0-0.2,0-0.2,0.1c-0.1,0.1-0.1,0.2-0.1,0.3h-0.7c0-0.2,0-0.4,0.1-0.5c0.1-0.2,0.2-0.3,0.4-0.4c0.2-0.1,0.3-0.1,0.5-0.1
			c0.3,0,0.6,0.1,0.8,0.3c0.2,0.2,0.3,0.5,0.3,0.8c0,0.2,0,0.3-0.1,0.5c-0.1,0.1-0.2,0.3-0.3,0.3c0.2,0.1,0.3,0.2,0.4,0.3
			c0.1,0.2,0.1,0.3,0.1,0.5c0,0.3-0.1,0.6-0.3,0.8s-0.5,0.3-0.8,0.3c-0.3,0-0.6-0.1-0.8-0.3c-0.2-0.2-0.3-0.5-0.3-0.8h0.7
			c0,0.1,0,0.2,0.1,0.3c0.1,0.1,0.2,0.1,0.3,0.1c0.1,0,0.2,0,0.3-0.1s0.1-0.2,0.1-0.4c0-0.4-0.1-0.6-0.4-0.6h-0.4V212.4z"/>
		<path class="st3" d="M143.6,212.8l0.2-1.9h1.8v0.6h-1.2l-0.1,0.8c0.1-0.1,0.3-0.1,0.4-0.1c0.3,0,0.5,0.1,0.7,0.3
			c0.2,0.2,0.3,0.5,0.3,0.9c0,0.4-0.1,0.7-0.3,0.9c-0.2,0.2-0.5,0.3-0.8,0.3c-0.2,0-0.4,0-0.5-0.1c-0.2-0.1-0.3-0.2-0.4-0.4
			s-0.1-0.4-0.1-0.6h0.7c0,0.2,0.1,0.3,0.1,0.4c0.1,0.1,0.1,0.1,0.3,0.1c0.1,0,0.2-0.1,0.3-0.2c0.1-0.1,0.1-0.3,0.1-0.5
			c0-0.2,0-0.4-0.1-0.5c-0.1-0.1-0.2-0.2-0.3-0.2c-0.1,0-0.2,0-0.3,0.1l0,0.1L143.6,212.8z"/>
		<path class="st3" d="M146.3,211.6c0-0.2,0.1-0.4,0.2-0.6c0.1-0.1,0.3-0.2,0.5-0.2s0.4,0.1,0.5,0.2c0.1,0.1,0.2,0.3,0.2,0.6v0.2
			c0,0.2-0.1,0.4-0.2,0.6c-0.1,0.1-0.3,0.2-0.5,0.2c-0.2,0-0.4-0.1-0.5-0.2c-0.1-0.1-0.2-0.3-0.2-0.6V211.6z M146.8,211.8
			c0,0.1,0,0.2,0.1,0.2c0,0.1,0.1,0.1,0.2,0.1c0.1,0,0.1,0,0.2-0.1c0-0.1,0.1-0.1,0.1-0.2v-0.2c0-0.1,0-0.2-0.1-0.2
			c0-0.1-0.1-0.1-0.2-0.1c-0.1,0-0.1,0-0.2,0.1s-0.1,0.1-0.1,0.3V211.8z M147.1,214.3l-0.3-0.2l1.5-2.9l0.3,0.2L147.1,214.3z
			 M147.8,213.7c0-0.2,0.1-0.4,0.2-0.6c0.1-0.1,0.3-0.2,0.5-0.2c0.2,0,0.4,0.1,0.5,0.2c0.1,0.1,0.2,0.3,0.2,0.6v0.2
			c0,0.2-0.1,0.4-0.2,0.6c-0.1,0.1-0.3,0.2-0.5,0.2c-0.2,0-0.4-0.1-0.5-0.2c-0.1-0.1-0.2-0.3-0.2-0.6V213.7z M148.2,213.9
			c0,0.1,0,0.2,0.1,0.2c0,0.1,0.1,0.1,0.2,0.1c0.1,0,0.2-0.1,0.2-0.3v-0.2c0-0.1,0-0.2-0.1-0.2s-0.1-0.1-0.2-0.1
			c-0.2,0-0.2,0.1-0.2,0.4V213.9z"/>
	</g>
</g>
<g>
	<g>
		<path class="st3" d="M97.8,211.9c0,0.2,0,0.3-0.1,0.5c-0.1,0.1-0.2,0.3-0.3,0.3c0.2,0.1,0.3,0.2,0.4,0.4s0.1,0.3,0.1,0.5
			c0,0.3-0.1,0.6-0.3,0.8c-0.2,0.2-0.5,0.3-0.8,0.3c-0.3,0-0.6-0.1-0.8-0.3c-0.2-0.2-0.3-0.5-0.3-0.8c0-0.2,0-0.4,0.1-0.5
			c0.1-0.2,0.2-0.3,0.4-0.4c-0.1-0.1-0.2-0.2-0.3-0.3c-0.1-0.1-0.1-0.3-0.1-0.5c0-0.3,0.1-0.6,0.3-0.8c0.2-0.2,0.4-0.3,0.7-0.3
			c0.3,0,0.6,0.1,0.7,0.3C97.7,211.3,97.8,211.5,97.8,211.9z M96.8,214c0.1,0,0.2,0,0.3-0.1c0.1-0.1,0.1-0.2,0.1-0.4
			c0-0.2,0-0.3-0.1-0.4s-0.1-0.1-0.3-0.1s-0.2,0-0.3,0.1s-0.1,0.2-0.1,0.4c0,0.2,0,0.3,0.1,0.4C96.6,214,96.7,214,96.8,214z
			 M97.1,211.9c0-0.1,0-0.3-0.1-0.3c0-0.1-0.1-0.1-0.2-0.1c-0.1,0-0.2,0-0.2,0.1c0,0.1-0.1,0.2-0.1,0.4c0,0.1,0,0.3,0.1,0.4
			s0.1,0.1,0.2,0.1s0.2,0,0.2-0.1C97.1,212.2,97.1,212,97.1,211.9z"/>
		<path class="st3" d="M99.9,213.2c-0.2,0.2-0.3,0.2-0.5,0.2c-0.3,0-0.5-0.1-0.7-0.3s-0.2-0.5-0.2-0.9c0-0.2,0-0.5,0.1-0.7
			c0.1-0.2,0.2-0.4,0.4-0.5s0.3-0.2,0.6-0.2c0.2,0,0.4,0.1,0.6,0.2c0.2,0.1,0.3,0.3,0.4,0.5c0.1,0.2,0.1,0.5,0.1,0.8v0.3
			c0,0.6-0.1,1.1-0.4,1.5s-0.7,0.5-1.2,0.5H99V214h0c0.3,0,0.5-0.1,0.6-0.2S99.9,213.4,99.9,213.2z M99.6,212.8
			c0.1,0,0.3-0.1,0.3-0.3v-0.3c0-0.2,0-0.4-0.1-0.6c-0.1-0.1-0.2-0.2-0.3-0.2c-0.1,0-0.2,0.1-0.3,0.2c-0.1,0.1-0.1,0.3-0.1,0.5
			c0,0.2,0,0.4,0.1,0.5C99.4,212.8,99.5,212.8,99.6,212.8z"/>
		<path class="st3" d="M101.3,211.6c0-0.2,0.1-0.4,0.2-0.6c0.1-0.1,0.3-0.2,0.5-0.2s0.4,0.1,0.5,0.2c0.1,0.1,0.2,0.3,0.2,0.6v0.2
			c0,0.2-0.1,0.4-0.2,0.6c-0.1,0.1-0.3,0.2-0.5,0.2c-0.2,0-0.4-0.1-0.5-0.2c-0.1-0.1-0.2-0.3-0.2-0.6V211.6z M101.8,211.8
			c0,0.1,0,0.2,0.1,0.2c0,0.1,0.1,0.1,0.2,0.1c0.1,0,0.1,0,0.2-0.1c0-0.1,0.1-0.1,0.1-0.2v-0.2c0-0.1,0-0.2-0.1-0.2
			c0-0.1-0.1-0.1-0.2-0.1c-0.1,0-0.1,0-0.2,0.1s-0.1,0.1-0.1,0.3V211.8z M102.2,214.3l-0.3-0.2l1.5-2.9l0.3,0.2L102.2,214.3z
			 M102.8,213.7c0-0.2,0.1-0.4,0.2-0.6c0.1-0.1,0.3-0.2,0.5-0.2c0.2,0,0.4,0.1,0.5,0.2c0.1,0.1,0.2,0.3,0.2,0.6v0.2
			c0,0.2-0.1,0.4-0.2,0.6c-0.1,0.1-0.3,0.2-0.5,0.2c-0.2,0-0.4-0.1-0.5-0.2c-0.1-0.1-0.2-0.3-0.2-0.6V213.7z M103.3,213.9
			c0,0.1,0,0.2,0.1,0.2c0,0.1,0.1,0.1,0.2,0.1c0.1,0,0.2-0.1,0.2-0.3v-0.2c0-0.1,0-0.2-0.1-0.2s-0.1-0.1-0.2-0.1
			c-0.2,0-0.2,0.1-0.2,0.4V213.9z"/>
	</g>
</g>
<g>
	<g>
		<path class="st3" d="M52.4,214.6h-0.7v-2.9L51,212v-0.6l1.4-0.6h0.1V214.6z"/>
		<path class="st3" d="M53.7,212.8l0.2-1.9h1.8v0.6h-1.2l-0.1,0.8c0.1-0.1,0.3-0.1,0.4-0.1c0.3,0,0.5,0.1,0.7,0.3
			c0.2,0.2,0.3,0.5,0.3,0.9c0,0.4-0.1,0.7-0.3,0.9c-0.2,0.2-0.5,0.3-0.8,0.3c-0.2,0-0.4,0-0.5-0.1c-0.2-0.1-0.3-0.2-0.4-0.4
			s-0.1-0.4-0.1-0.6h0.7c0,0.2,0.1,0.3,0.1,0.4c0.1,0.1,0.1,0.1,0.3,0.1c0.1,0,0.2-0.1,0.3-0.2c0.1-0.1,0.1-0.3,0.1-0.5
			c0-0.2,0-0.4-0.1-0.5c-0.1-0.1-0.2-0.2-0.3-0.2c-0.1,0-0.2,0-0.3,0.1l0,0.1L53.7,212.8z"/>
		<path class="st3" d="M56.4,211.6c0-0.2,0.1-0.4,0.2-0.6c0.1-0.1,0.3-0.2,0.5-0.2s0.4,0.1,0.5,0.2c0.1,0.1,0.2,0.3,0.2,0.6v0.2
			c0,0.2-0.1,0.4-0.2,0.6c-0.1,0.1-0.3,0.2-0.5,0.2c-0.2,0-0.4-0.1-0.5-0.2c-0.1-0.1-0.2-0.3-0.2-0.6V211.6z M56.9,211.8
			c0,0.1,0,0.2,0.1,0.2c0,0.1,0.1,0.1,0.2,0.1c0.1,0,0.1,0,0.2-0.1c0-0.1,0.1-0.1,0.1-0.2v-0.2c0-0.1,0-0.2-0.1-0.2
			c0-0.1-0.1-0.1-0.2-0.1c-0.1,0-0.1,0-0.2,0.1s-0.1,0.1-0.1,0.3V211.8z M57.3,214.3l-0.3-0.2l1.5-2.9l0.3,0.2L57.3,214.3z
			 M57.9,213.7c0-0.2,0.1-0.4,0.2-0.6c0.1-0.1,0.3-0.2,0.5-0.2c0.2,0,0.4,0.1,0.5,0.2c0.1,0.1,0.2,0.3,0.2,0.6v0.2
			c0,0.2-0.1,0.4-0.2,0.6c-0.1,0.1-0.3,0.2-0.5,0.2c-0.2,0-0.4-0.1-0.5-0.2c-0.1-0.1-0.2-0.3-0.2-0.6V213.7z M58.4,213.9
			c0,0.1,0,0.2,0.1,0.2c0,0.1,0.1,0.1,0.2,0.1c0.1,0,0.2-0.1,0.2-0.3v-0.2c0-0.1,0-0.2-0.1-0.2s-0.1-0.1-0.2-0.1
			c-0.2,0-0.2,0.1-0.2,0.4V213.9z"/>
	</g>
</g>
<path class="st7" d="M171.2,240.4c0-6,4.9-10.9,10.9-10.9c6,0,10.9,4.9,10.9,10.9c0,6-4.9,10.9-10.9,10.9
	C176.1,251.3,171.2,246.4,171.2,240.4z M192.6,240.4c0-5.7-4.7-10.4-10.4-10.4c-5.7,0-10.4,4.7-10.4,10.4s4.7,10.4,10.4,10.4
	C187.9,250.8,192.6,246.2,192.6,240.4z"/>
<path class="st3" d="M126,240.4c0-6,4.9-10.9,10.9-10.9c6,0,10.9,4.9,10.9,10.9c0,6-4.9,10.9-10.9,10.9
	C130.9,251.3,126,246.4,126,240.4z M147.3,240.4c0-5.7-4.7-10.4-10.4-10.4c-5.7,0-10.4,4.7-10.4,10.4s4.7,10.4,10.4,10.4
	C142.6,250.8,147.3,246.2,147.3,240.4z"/>
<path class="st7" d="M81.1,240.4c0-6,4.9-10.9,10.9-10.9c6,0,10.9,4.9,10.9,10.9c0,6-4.9,10.9-10.9,10.9
	C86,251.3,81.1,246.4,81.1,240.4z M102.4,240.4c0-5.7-4.7-10.4-10.4-10.4c-5.7,0-10.4,4.7-10.4,10.4s4.7,10.4,10.4,10.4
	C97.8,250.8,102.4,246.2,102.4,240.4z"/>
<path class="st3" d="M36.4,240.4c0-6,4.9-10.9,10.9-10.9c6,0,10.9,4.9,10.9,10.9c0,6-4.9,10.9-10.9,10.9
	C41.3,251.3,36.4,246.4,36.4,240.4z M57.7,240.4c0-5.7-4.7-10.4-10.4-10.4s-10.4,4.7-10.4,10.4s4.7,10.4,10.4,10.4
	S57.7,246.2,57.7,240.4z"/>
<g>
	<rect x="32.7" y="271.9" class="st4" width="163.5" height="2.5"/>
	<rect x="32.7" y="280" class="st8" width="163.5" height="2.5"/>
	<rect x="102.8" y="271.9" class="st9" width="50.9" height="2.5"/>
	<rect x="67.8" y="280" class="st10" width="64.7" height="2.5"/>
	<rect x="153.7" y="271.9" class="st11" width="32.8" height="2.5"/>
	<rect x="131.9" y="280" class="st4" width="64.3" height="2.5"/>
	<rect x="32.7" y="271.9" class="st3" width="94.6" height="2.5"/>
	<rect x="32.7" y="280" class="st3" width="38.7" height="2.5"/>
	<g>
		<g>
			<path class="st3" d="M32.8,267.2c0,0,0.1,0,0.1,0.1c0.1,0,0.1,0,0.2,0c0.1,0,0.2,0,0.2,0c0,0,0.1-0.1,0.1-0.1s0-0.1,0.1-0.2
				c0-0.1,0-0.2,0-0.3v-1.1H34v1.1c0,0.2,0,0.3,0,0.4c0,0.1-0.1,0.2-0.1,0.3c-0.1,0.1-0.1,0.2-0.2,0.2c-0.1,0.1-0.2,0.1-0.4,0.1
				c-0.2,0-0.3,0-0.5-0.1L32.8,267.2z"/>
			<path class="st3" d="M35.5,265.5h0.4l0.8,2.1h-0.4l-0.2-0.5h-0.7l-0.2,0.5h-0.4L35.5,265.5z M36,266.8l-0.3-0.8l-0.3,0.8H36z"/>
			<path class="st3" d="M37.9,266.3v1.4h-0.4v-2.1h0.3l1.1,1.4v-1.4h0.4v2.1H39L37.9,266.3z"/>
			<path class="st3" d="M42.9,268v-2.7h0.3v2.7H42.9z"/>
			<path class="st3" d="M46.9,267.6v-2.1h1.4v0.4h-1v0.5h0.8v0.3h-0.8v0.9H46.9z"/>
			<path class="st3" d="M50.6,267.3v0.4h-1.5v-2.1h1.4v0.4h-1v0.5h0.9v0.3h-0.9v0.6H50.6z"/>
			<path class="st3" d="M53.3,267.1c0,0.1,0,0.2-0.1,0.2c0,0.1-0.1,0.1-0.1,0.2c-0.1,0-0.1,0.1-0.2,0.1c-0.1,0-0.2,0-0.3,0h-1v-2.1
				h1.1c0.1,0,0.1,0,0.2,0c0.1,0,0.1,0.1,0.2,0.1c0,0.1,0.1,0.1,0.1,0.2c0,0.1,0,0.1,0,0.2c0,0.1,0,0.2-0.1,0.3
				c-0.1,0.1-0.1,0.2-0.2,0.2c0.1,0,0.2,0.1,0.3,0.2S53.3,266.9,53.3,267.1z M52,265.8v0.5h0.6c0.1,0,0.1,0,0.2-0.1
				c0,0,0.1-0.1,0.1-0.2c0-0.1,0-0.1-0.1-0.2s-0.1-0.1-0.2-0.1H52z M52.8,267c0,0,0-0.1,0-0.1c0,0,0-0.1-0.1-0.1c0,0,0,0-0.1-0.1
				c0,0-0.1,0-0.1,0H52v0.6h0.6c0,0,0.1,0,0.1,0s0.1,0,0.1-0.1c0,0,0-0.1,0.1-0.1C52.8,267.1,52.8,267,52.8,267z"/>
			<path class="st3" d="M56.7,268v-2.7h0.3v2.7H56.7z"/>
			<path class="st3" d="M62.4,267.6v-1.4l-0.5,1h-0.2l-0.5-1v1.4h-0.4v-2.1h0.4l0.6,1.2l0.6-1.2h0.4v2.1H62.4z"/>
			<path class="st3" d="M64.5,265.5h0.4l0.8,2.1h-0.4l-0.2-0.5h-0.7l-0.2,0.5h-0.4L64.5,265.5z M64.9,266.8l-0.3-0.8l-0.3,0.8H64.9z
				"/>
			<path class="st3" d="M66.4,267.6v-2.1h0.9c0.1,0,0.2,0,0.3,0.1c0.1,0,0.2,0.1,0.2,0.2c0.1,0.1,0.1,0.1,0.1,0.2
				c0,0.1,0.1,0.2,0.1,0.3c0,0.1,0,0.3-0.1,0.4c-0.1,0.1-0.2,0.2-0.3,0.2l0.5,0.8h-0.5l-0.4-0.7h-0.4v0.7H66.4z M66.8,266.5h0.5
				c0,0,0.1,0,0.1,0c0,0,0.1,0,0.1-0.1c0,0,0-0.1,0.1-0.1c0,0,0-0.1,0-0.1c0,0,0-0.1,0-0.1s0-0.1-0.1-0.1c0,0-0.1-0.1-0.1-0.1
				c0,0-0.1,0-0.1,0h-0.5V266.5z"/>
			<path class="st3" d="M71.6,268v-2.7h0.3v2.7H71.6z"/>
			<path class="st3" d="M76.1,265.5h0.4l0.8,2.1h-0.4l-0.2-0.5h-0.7l-0.2,0.5h-0.4L76.1,265.5z M76.5,266.8l-0.3-0.8l-0.3,0.8H76.5z
				"/>
			<path class="st3" d="M78,267.6v-2.1h0.9c0.1,0,0.2,0,0.3,0.1c0.1,0,0.2,0.1,0.2,0.2c0.1,0.1,0.1,0.1,0.1,0.2
				c0,0.1,0.1,0.2,0.1,0.3c0,0.1,0,0.2,0,0.3s-0.1,0.2-0.1,0.2c-0.1,0.1-0.1,0.1-0.2,0.2c-0.1,0-0.2,0.1-0.3,0.1h-0.5v0.7H78z
				 M78.4,266.5h0.5c0.1,0,0.1,0,0.2-0.1s0.1-0.1,0.1-0.3c0-0.1,0-0.1,0-0.1s0-0.1-0.1-0.1s-0.1-0.1-0.1-0.1c0,0-0.1,0-0.1,0h-0.5
				V266.5z"/>
			<path class="st3" d="M80.5,267.6v-2.1h0.9c0.1,0,0.2,0,0.3,0.1c0.1,0,0.2,0.1,0.2,0.2c0.1,0.1,0.1,0.1,0.1,0.2
				c0,0.1,0.1,0.2,0.1,0.3c0,0.1,0,0.3-0.1,0.4c-0.1,0.1-0.2,0.2-0.3,0.2l0.5,0.8h-0.5l-0.4-0.7h-0.4v0.7H80.5z M80.9,266.5h0.5
				c0,0,0.1,0,0.1,0c0,0,0.1,0,0.1-0.1c0,0,0-0.1,0.1-0.1c0,0,0-0.1,0-0.1c0,0,0-0.1,0-0.1s0-0.1-0.1-0.1c0,0-0.1-0.1-0.1-0.1
				c0,0-0.1,0-0.1,0h-0.5V266.5z"/>
			<path class="st3" d="M85.6,268v-2.7H86v2.7H85.6z"/>
			<path class="st3" d="M91.3,267.6v-1.4l-0.5,1h-0.2l-0.5-1v1.4h-0.4v-2.1H90l0.6,1.2l0.6-1.2h0.4v2.1H91.3z"/>
			<path class="st3" d="M93.3,265.5h0.4l0.8,2.1h-0.4l-0.2-0.5h-0.7l-0.2,0.5h-0.4L93.3,265.5z M93.8,266.8l-0.3-0.8l-0.3,0.8H93.8z
				"/>
			<path class="st3" d="M95.3,265.5l0.5,1l0.5-1h0.4l-0.8,1.4v0.7h-0.4v-0.7l-0.8-1.4H95.3z"/>
			<path class="st3" d="M100.1,268v-2.7h0.3v2.7H100.1z"/>
			<path class="st3" d="M103.9,267.2c0,0,0.1,0,0.1,0.1c0.1,0,0.1,0,0.2,0c0.1,0,0.2,0,0.2,0c0,0,0.1-0.1,0.1-0.1s0-0.1,0.1-0.2
				c0-0.1,0-0.2,0-0.3v-1.1h0.4v1.1c0,0.2,0,0.3,0,0.4c0,0.1-0.1,0.2-0.1,0.3c-0.1,0.1-0.1,0.2-0.2,0.2c-0.1,0.1-0.2,0.1-0.4,0.1
				c-0.2,0-0.3,0-0.5-0.1L103.9,267.2z"/>
			<path class="st3" d="M106.9,267.3c0.1,0,0.2,0,0.2-0.1c0.1,0,0.1-0.1,0.2-0.2c0-0.1,0.1-0.1,0.1-0.2c0-0.1,0-0.2,0-0.3v-1.1h0.4
				v1.1c0,0.1,0,0.3-0.1,0.4c0,0.1-0.1,0.2-0.2,0.3c-0.1,0.1-0.2,0.2-0.3,0.2c-0.1,0.1-0.3,0.1-0.4,0.1c-0.2,0-0.3,0-0.4-0.1
				c-0.1-0.1-0.2-0.1-0.3-0.2s-0.1-0.2-0.2-0.3c0-0.1,0-0.3,0-0.4v-1.1h0.4v1.1c0,0.1,0,0.2,0,0.3s0,0.2,0.1,0.2
				c0,0.1,0.1,0.1,0.2,0.2C106.7,267.2,106.8,267.3,106.9,267.3z"/>
			<path class="st3" d="M109.2,266.3v1.4h-0.4v-2.1h0.3l1.1,1.4v-1.4h0.4v2.1h-0.3L109.2,266.3z"/>
			<path class="st3" d="M114.3,268v-2.7h0.3v2.7H114.3z"/>
			<path class="st3" d="M118,267.2c0,0,0.1,0,0.1,0.1c0.1,0,0.1,0,0.2,0c0.1,0,0.2,0,0.2,0c0,0,0.1-0.1,0.1-0.1s0-0.1,0.1-0.2
				c0-0.1,0-0.2,0-0.3v-1.1h0.4v1.1c0,0.2,0,0.3,0,0.4c0,0.1-0.1,0.2-0.1,0.3c-0.1,0.1-0.1,0.2-0.2,0.2c-0.1,0.1-0.2,0.1-0.4,0.1
				c-0.2,0-0.3,0-0.5-0.1L118,267.2z"/>
			<path class="st3" d="M121.1,267.3c0.1,0,0.2,0,0.2-0.1c0.1,0,0.1-0.1,0.2-0.2c0-0.1,0.1-0.1,0.1-0.2c0-0.1,0-0.2,0-0.3v-1.1h0.4
				v1.1c0,0.1,0,0.3-0.1,0.4c0,0.1-0.1,0.2-0.2,0.3c-0.1,0.1-0.2,0.2-0.3,0.2c-0.1,0.1-0.3,0.1-0.4,0.1c-0.2,0-0.3,0-0.4-0.1
				c-0.1-0.1-0.2-0.1-0.3-0.2s-0.1-0.2-0.2-0.3c0-0.1,0-0.3,0-0.4v-1.1h0.4v1.1c0,0.1,0,0.2,0,0.3s0,0.2,0.1,0.2
				c0,0.1,0.1,0.1,0.2,0.2C120.9,267.2,121,267.3,121.1,267.3z"/>
			<path class="st3" d="M123,267.6v-2.1h0.4v1.8h1.1v0.4H123z"/>
			<path class="st3" d="M127.8,268v-2.7h0.3v2.7H127.8z"/>
			<path class="st3" d="M132.3,265.5h0.4l0.8,2.1H133l-0.2-0.5h-0.7l-0.2,0.5h-0.4L132.3,265.5z M132.8,266.8l-0.3-0.8l-0.3,0.8
				H132.8z"/>
			<path class="st3" d="M135.1,267.3c0.1,0,0.2,0,0.2-0.1c0.1,0,0.1-0.1,0.2-0.2c0-0.1,0.1-0.1,0.1-0.2c0-0.1,0-0.2,0-0.3v-1.1h0.4
				v1.1c0,0.1,0,0.3-0.1,0.4c0,0.1-0.1,0.2-0.2,0.3c-0.1,0.1-0.2,0.2-0.3,0.2c-0.1,0.1-0.3,0.1-0.4,0.1c-0.2,0-0.3,0-0.4-0.1
				c-0.1-0.1-0.2-0.1-0.3-0.2s-0.1-0.2-0.2-0.3c0-0.1,0-0.3,0-0.4v-1.1h0.4v1.1c0,0.1,0,0.2,0,0.3s0,0.2,0.1,0.2
				c0,0.1,0.1,0.1,0.2,0.2C134.9,267.2,135,267.3,135.1,267.3z"/>
			<path class="st3" d="M138.5,267.4c-0.2,0.2-0.4,0.3-0.6,0.3c-0.1,0-0.3,0-0.4-0.1c-0.1-0.1-0.2-0.1-0.3-0.2s-0.2-0.2-0.2-0.3
				c-0.1-0.1-0.1-0.3-0.1-0.4c0-0.1,0-0.3,0.1-0.4c0.1-0.1,0.1-0.2,0.2-0.3c0.1-0.1,0.2-0.2,0.3-0.2c0.1-0.1,0.3-0.1,0.4-0.1
				c0.2,0,0.4,0,0.5,0.1c0.1,0.1,0.2,0.2,0.3,0.3l-0.3,0.2c-0.1-0.1-0.1-0.2-0.2-0.2c-0.1-0.1-0.2-0.1-0.3-0.1c-0.1,0-0.2,0-0.2,0.1
				s-0.1,0.1-0.2,0.2c-0.1,0.1-0.1,0.1-0.1,0.2c0,0.1,0,0.2,0,0.3c0,0.1,0,0.2,0,0.3s0.1,0.2,0.1,0.2c0.1,0.1,0.1,0.1,0.2,0.2
				s0.2,0.1,0.2,0.1c0.2,0,0.4-0.1,0.6-0.3v-0.1H138v-0.3h0.8v1.1h-0.3V267.4z"/>
			<path class="st3" d="M142.3,268v-2.7h0.3v2.7H142.3z"/>
			<path class="st3" d="M147.6,266C147.5,266,147.5,266,147.6,266c-0.1-0.1-0.2-0.1-0.2-0.1c-0.1,0-0.1,0-0.2-0.1
				c-0.1,0-0.1,0-0.2,0c-0.1,0-0.2,0-0.3,0.1c-0.1,0-0.1,0.1-0.1,0.2c0,0,0,0.1,0,0.1s0.1,0.1,0.1,0.1c0,0,0.1,0,0.2,0.1
				c0.1,0,0.1,0,0.2,0.1c0.1,0,0.2,0.1,0.3,0.1c0.1,0,0.2,0.1,0.2,0.1c0.1,0,0.1,0.1,0.1,0.2c0,0.1,0,0.1,0,0.2c0,0.1,0,0.2-0.1,0.3
				c0,0.1-0.1,0.1-0.2,0.2c-0.1,0.1-0.2,0.1-0.3,0.1c-0.1,0-0.2,0-0.3,0c-0.2,0-0.3,0-0.5-0.1c-0.2,0-0.3-0.1-0.4-0.2l0.2-0.4
				c0,0,0.1,0,0.1,0.1s0.1,0.1,0.2,0.1c0.1,0,0.1,0.1,0.2,0.1s0.2,0,0.2,0c0.2,0,0.3-0.1,0.3-0.2c0,0,0-0.1,0-0.1
				c0,0-0.1-0.1-0.1-0.1c0,0-0.1,0-0.2-0.1c-0.1,0-0.1,0-0.2-0.1c-0.1,0-0.2-0.1-0.3-0.1c-0.1,0-0.1-0.1-0.2-0.1s-0.1-0.1-0.1-0.2
				c0-0.1,0-0.1,0-0.2c0-0.1,0-0.2,0.1-0.3s0.1-0.2,0.2-0.2s0.2-0.1,0.2-0.1c0.1,0,0.2,0,0.3,0c0.1,0,0.3,0,0.4,0.1
				c0.1,0,0.2,0.1,0.3,0.2L147.6,266z"/>
			<path class="st3" d="M150.2,267.3v0.4h-1.5v-2.1h1.4v0.4h-1v0.5h0.9v0.3h-0.9v0.6H150.2z"/>
			<path class="st3" d="M151.1,267.6v-2.1h0.9c0.1,0,0.2,0,0.3,0.1c0.1,0,0.2,0.1,0.2,0.2c0.1,0.1,0.1,0.1,0.1,0.2
				c0,0.1,0.1,0.2,0.1,0.3c0,0.1,0,0.2,0,0.3s-0.1,0.2-0.1,0.2c-0.1,0.1-0.1,0.1-0.2,0.2c-0.1,0-0.2,0.1-0.3,0.1h-0.5v0.7H151.1z
				 M151.5,266.5h0.5c0.1,0,0.1,0,0.2-0.1s0.1-0.1,0.1-0.3c0-0.1,0-0.1,0-0.1s0-0.1-0.1-0.1s-0.1-0.1-0.1-0.1c0,0-0.1,0-0.1,0h-0.5
				V266.5z"/>
			<path class="st3" d="M156,268v-2.7h0.3v2.7H156z"/>
			<path class="st3" d="M160.9,267.6c-0.2,0-0.3,0-0.4-0.1c-0.1-0.1-0.2-0.1-0.3-0.2s-0.2-0.2-0.2-0.3s-0.1-0.3-0.1-0.4
				c0-0.1,0-0.3,0.1-0.4c0.1-0.1,0.1-0.2,0.2-0.3s0.2-0.2,0.3-0.2c0.1-0.1,0.3-0.1,0.4-0.1c0.2,0,0.3,0,0.4,0.1
				c0.1,0.1,0.2,0.1,0.3,0.2c0.1,0.1,0.2,0.2,0.2,0.3s0.1,0.3,0.1,0.4c0,0.1,0,0.3-0.1,0.4c-0.1,0.1-0.1,0.2-0.2,0.3
				s-0.2,0.2-0.3,0.2C161.2,267.6,161,267.6,160.9,267.6z M160.3,266.6c0,0.1,0,0.2,0,0.3c0,0.1,0.1,0.2,0.1,0.2
				c0.1,0.1,0.1,0.1,0.2,0.2c0.1,0,0.2,0.1,0.3,0.1c0.1,0,0.2,0,0.3-0.1s0.1-0.1,0.2-0.2c0.1-0.1,0.1-0.1,0.1-0.2s0-0.2,0-0.3
				c0-0.1,0-0.2,0-0.3c0-0.1-0.1-0.2-0.1-0.2c-0.1-0.1-0.1-0.1-0.2-0.2c-0.1,0-0.2-0.1-0.3-0.1c-0.1,0-0.2,0-0.3,0.1
				s-0.1,0.1-0.2,0.2c-0.1,0.1-0.1,0.1-0.1,0.2S160.3,266.5,160.3,266.6z"/>
			<path class="st3" d="M162.7,266.5c0-0.1,0-0.3,0.1-0.4s0.1-0.2,0.2-0.3c0.1-0.1,0.2-0.2,0.3-0.2c0.1-0.1,0.3-0.1,0.4-0.1
				c0.2,0,0.4,0,0.5,0.1c0.1,0.1,0.2,0.2,0.3,0.3l-0.3,0.2c0-0.1-0.1-0.1-0.1-0.2c0,0-0.1-0.1-0.1-0.1c0,0-0.1,0-0.1-0.1
				c-0.1,0-0.1,0-0.1,0c-0.1,0-0.2,0-0.3,0.1c-0.1,0-0.1,0.1-0.2,0.2c-0.1,0.1-0.1,0.1-0.1,0.2c0,0.1,0,0.2,0,0.3c0,0.1,0,0.2,0,0.3
				c0,0.1,0.1,0.2,0.1,0.2c0.1,0.1,0.1,0.1,0.2,0.2c0.1,0,0.2,0.1,0.3,0.1c0,0,0.1,0,0.1,0s0.1,0,0.1-0.1s0.1-0.1,0.1-0.1
				s0.1-0.1,0.1-0.1l0.3,0.2c0,0.1-0.1,0.2-0.1,0.2c-0.1,0.1-0.1,0.1-0.2,0.2c-0.1,0-0.2,0.1-0.3,0.1c-0.1,0-0.2,0-0.3,0
				c-0.2,0-0.3,0-0.4-0.1c-0.1-0.1-0.2-0.1-0.3-0.2c-0.1-0.1-0.2-0.2-0.2-0.3S162.7,266.7,162.7,266.5z"/>
			<path class="st3" d="M167,265.9h-0.7v1.8h-0.4v-1.8h-0.7v-0.4h1.8V265.9z"/>
			<path class="st3" d="M170.3,268v-2.7h0.3v2.7H170.3z"/>
			<path class="st3" d="M174.7,266.3v1.4h-0.4v-2.1h0.3l1.1,1.4v-1.4h0.4v2.1h-0.3L174.7,266.3z"/>
			<path class="st3" d="M178,267.6c-0.2,0-0.3,0-0.4-0.1c-0.1-0.1-0.2-0.1-0.3-0.2s-0.2-0.2-0.2-0.3s-0.1-0.3-0.1-0.4
				c0-0.1,0-0.3,0.1-0.4c0.1-0.1,0.1-0.2,0.2-0.3s0.2-0.2,0.3-0.2c0.1-0.1,0.3-0.1,0.4-0.1c0.2,0,0.3,0,0.4,0.1
				c0.1,0.1,0.2,0.1,0.3,0.2c0.1,0.1,0.2,0.2,0.2,0.3s0.1,0.3,0.1,0.4c0,0.1,0,0.3-0.1,0.4c-0.1,0.1-0.1,0.2-0.2,0.3
				s-0.2,0.2-0.3,0.2C178.3,267.6,178.2,267.6,178,267.6z M177.4,266.6c0,0.1,0,0.2,0,0.3c0,0.1,0.1,0.2,0.1,0.2
				c0.1,0.1,0.1,0.1,0.2,0.2c0.1,0,0.2,0.1,0.3,0.1c0.1,0,0.2,0,0.3-0.1s0.1-0.1,0.2-0.2c0.1-0.1,0.1-0.1,0.1-0.2s0-0.2,0-0.3
				c0-0.1,0-0.2,0-0.3c0-0.1-0.1-0.2-0.1-0.2c-0.1-0.1-0.1-0.1-0.2-0.2c-0.1,0-0.2-0.1-0.3-0.1c-0.1,0-0.2,0-0.3,0.1
				s-0.1,0.1-0.2,0.2c-0.1,0.1-0.1,0.1-0.1,0.2S177.4,266.5,177.4,266.6z"/>
			<path class="st3" d="M180.1,265.5l0.6,1.6l0.6-1.6h0.4l-0.8,2.1h-0.3l-0.8-2.1H180.1z"/>
			<path class="st3" d="M185,268v-2.7h0.3v2.7H185z"/>
			<path class="st3" d="M188.9,267.6v-2.1h0.8c0.2,0,0.3,0,0.5,0.1c0.1,0.1,0.2,0.1,0.3,0.2s0.2,0.2,0.2,0.3s0.1,0.3,0.1,0.4
				c0,0.2,0,0.3-0.1,0.4s-0.1,0.2-0.2,0.3s-0.2,0.2-0.3,0.2c-0.1,0.1-0.3,0.1-0.4,0.1H188.9z M190.3,266.6c0-0.1,0-0.2,0-0.3
				s-0.1-0.2-0.1-0.2c-0.1-0.1-0.1-0.1-0.2-0.1c-0.1,0-0.2-0.1-0.3-0.1h-0.4v1.4h0.4c0.1,0,0.2,0,0.3-0.1c0.1,0,0.1-0.1,0.2-0.1
				c0.1-0.1,0.1-0.1,0.1-0.2S190.3,266.7,190.3,266.6z"/>
			<path class="st3" d="M193.1,267.3v0.4h-1.5v-2.1h1.4v0.4h-1v0.5h0.9v0.3h-0.9v0.6H193.1z"/>
			<path class="st3" d="M193.8,266.5c0-0.1,0-0.3,0.1-0.4s0.1-0.2,0.2-0.3c0.1-0.1,0.2-0.2,0.3-0.2c0.1-0.1,0.3-0.1,0.4-0.1
				c0.2,0,0.4,0,0.5,0.1c0.1,0.1,0.2,0.2,0.3,0.3l-0.3,0.2c0-0.1-0.1-0.1-0.1-0.2c0,0-0.1-0.1-0.1-0.1c0,0-0.1,0-0.1-0.1
				c-0.1,0-0.1,0-0.1,0c-0.1,0-0.2,0-0.3,0.1c-0.1,0-0.1,0.1-0.2,0.2c-0.1,0.1-0.1,0.1-0.1,0.2c0,0.1,0,0.2,0,0.3c0,0.1,0,0.2,0,0.3
				c0,0.1,0.1,0.2,0.1,0.2c0.1,0.1,0.1,0.1,0.2,0.2c0.1,0,0.2,0.1,0.3,0.1c0,0,0.1,0,0.1,0s0.1,0,0.1-0.1s0.1-0.1,0.1-0.1
				s0.1-0.1,0.1-0.1l0.3,0.2c0,0.1-0.1,0.2-0.1,0.2c-0.1,0.1-0.1,0.1-0.2,0.2c-0.1,0-0.2,0.1-0.3,0.1c-0.1,0-0.2,0-0.3,0
				c-0.2,0-0.3,0-0.4-0.1c-0.1-0.1-0.2-0.1-0.3-0.2c-0.1-0.1-0.2-0.2-0.2-0.3S193.8,266.7,193.8,266.5z"/>
		</g>
	</g>
</g>
<path class="st3" d="M184.7,58.5c-2.6,0-4.7,2.1-4.7,4.7c0,2.6,2.1,4.7,4.7,4.7c2.6,0,4.7-2.1,4.7-4.7
	C189.4,60.6,187.3,58.5,184.7,58.5z M186.6,62.4v3.4h-1.3V64h-1.1v1.8h-1.3v-3.4h-0.8l2.7-1.7l2.7,1.7H186.6z"/>
<g>
	<path class="st3" d="M184.7,92c-2.6,0-4.7,2.1-4.7,4.7c0,2.6,2.1,4.7,4.7,4.7c2.6,0,4.7-2.1,4.7-4.7C189.4,94.1,187.3,92,184.7,92z
		 M187.9,95.7h-0.5v3.1h-1.1v-2.5h-1.2v2.5H182v-3.1h-0.5v-0.3h0.5V95h5.5v0.3h0.5V95.7z"/>
	<rect x="182.8" y="96.3" class="st3" width="1.5" height="1.5"/>
</g>
<g>
	<rect x="183.3" y="120.2" class="st3" width="1.2" height="1.2"/>
	<rect x="185" y="120.2" class="st3" width="1.2" height="1.2"/>
	<rect x="185" y="121.9" class="st3" width="1.2" height="1.2"/>
	<rect x="183.3" y="123.6" class="st3" width="1.2" height="1.2"/>
	<path class="st3" d="M184.7,118.1c-2.6,0-4.7,2.1-4.7,4.7s2.1,4.7,4.7,4.7c2.6,0,4.7-2.1,4.7-4.7S187.3,118.1,184.7,118.1z
		 M187,125.8h-0.8v-2.1H185v2.1h-2.5v-6.2h4.5V125.8z"/>
	<rect x="183.3" y="121.9" class="st3" width="1.2" height="1.2"/>
</g>
<path class="st3" d="M41.2,166.6c-0.1,0-0.1,0-0.2,0c-22.5-9.5-37-31.4-37-55.8c0-30,22.3-55.7,52-59.9C68.9,21.8,97.7,3,129.5,3
	c23,0,44.9,9.9,60.1,27.1c0.2,0.2,0.2,0.5,0,0.7c-0.2,0.2-0.5,0.2-0.7,0c-15-17-36.7-26.8-59.4-26.8C98,4,69.5,22.7,56.9,51.6
	c-0.1,0.2-0.2,0.3-0.4,0.3c-29.3,4-51.4,29.3-51.4,59c0,24,14.3,45.5,36.3,54.8c0.3,0.1,0.4,0.4,0.3,0.7
	C41.6,166.5,41.4,166.6,41.2,166.6z"/>
<path class="st3" d="M150.8,333.7c-22.2,0-43.4-9.5-58.2-26.2c-13.3-0.2-26.2-5-36.4-13.4c-0.2-0.2-0.2-0.5-0.1-0.7
	c0.2-0.2,0.5-0.2,0.7-0.1c10.1,8.3,22.9,13,36,13.2c0.1,0,0.3,0.1,0.4,0.2c14.6,16.5,35.6,26,57.6,26c42.4,0,76.9-34.5,76.9-76.9
	c0-18.9-6.9-37-19.5-51.1c-0.2-0.2-0.2-0.4,0-0.6c4.5-6.7,6.8-14.6,6.8-22.7c0-12.7-5.7-24.5-15.8-32.4c-0.2-0.2-0.3-0.5-0.1-0.7
	c0.2-0.2,0.5-0.3,0.7-0.1c10.3,8.1,16.1,20.1,16.1,33.2c0,8.2-2.3,16.1-6.8,22.9c12.6,14.2,19.5,32.5,19.5,51.5
	C228.7,298.8,193.7,333.7,150.8,333.7z"/>
<g>
	<g>
		<path class="st3" d="M12.7,234.6c-0.1,0-0.2,0-0.3-0.1c-0.2-0.2-0.3-0.5-0.1-0.7l2.8-4.2c0.2-0.2,0.5-0.3,0.7-0.2
			c0.2,0.2,0.3,0.5,0.1,0.7l-2.8,4.2C13,234.5,12.8,234.6,12.7,234.6z M18.2,226.1c-0.1,0-0.2,0-0.3-0.1c-0.2-0.2-0.3-0.5-0.1-0.7
			l2.8-4.2c0.2-0.2,0.5-0.3,0.7-0.2c0.2,0.2,0.3,0.5,0.1,0.7l-2.8,4.2C18.5,226,18.3,226.1,18.2,226.1z M23.7,217.7
			c-0.1,0-0.2,0-0.3-0.1c-0.2-0.2-0.3-0.5-0.1-0.7l2.8-4.2c0.2-0.2,0.5-0.3,0.7-0.2c0.2,0.2,0.3,0.5,0.1,0.7l-2.8,4.2
			C24,217.6,23.9,217.7,23.7,217.7z M29.2,209.2c-0.1,0-0.2,0-0.3-0.1c-0.2-0.2-0.3-0.5-0.1-0.7l2.8-4.2c0.2-0.2,0.5-0.3,0.7-0.2
			c0.2,0.2,0.3,0.5,0.1,0.7l-2.8,4.2C29.5,209.2,29.4,209.2,29.2,209.2z M34.7,200.8c-0.1,0-0.2,0-0.3-0.1c-0.2-0.2-0.3-0.5-0.1-0.7
			l2.8-4.2c0.2-0.2,0.5-0.3,0.7-0.2c0.2,0.2,0.3,0.5,0.1,0.7l-2.8,4.2C35,200.7,34.9,200.8,34.7,200.8z M40.2,192.4
			c-0.1,0-0.2,0-0.3-0.1c-0.2-0.2-0.3-0.5-0.1-0.7l2.8-4.2c0.2-0.2,0.5-0.3,0.7-0.2c0.2,0.2,0.3,0.5,0.1,0.7l-2.8,4.2
			C40.6,192.3,40.4,192.4,40.2,192.4z"/>
	</g>
	<g>
		<path class="st3" d="M45.7,183.9c-0.1,0-0.2,0-0.3-0.1c-0.2-0.2-0.3-0.5-0.1-0.7l1.4-2.2c0.1-0.2,0.4-0.3,0.6-0.2l2.5,0.7
			c0.3,0.1,0.4,0.4,0.4,0.6c-0.1,0.3-0.4,0.4-0.6,0.4l-2.1-0.6l-1.2,1.8C46.1,183.9,45.9,183.9,45.7,183.9z"/>
	</g>
	<g>
		<path class="st3" d="M115.2,200.3c0,0-0.1,0-0.1,0l-4.7-1.3c-0.3-0.1-0.4-0.4-0.4-0.6c0.1-0.3,0.4-0.4,0.6-0.4l4.7,1.3
			c0.3,0.1,0.4,0.4,0.4,0.6C115.7,200.2,115.5,200.3,115.2,200.3z M105.9,197.8c0,0-0.1,0-0.1,0l-4.7-1.3c-0.3-0.1-0.4-0.4-0.4-0.6
			c0.1-0.3,0.4-0.4,0.6-0.4l4.7,1.3c0.3,0.1,0.4,0.4,0.4,0.6C106.3,197.6,106.1,197.8,105.9,197.8z M96.5,195.2c0,0-0.1,0-0.1,0
			l-4.7-1.3c-0.3-0.1-0.4-0.4-0.4-0.6c0.1-0.3,0.4-0.4,0.6-0.4l4.7,1.3c0.3,0.1,0.4,0.4,0.4,0.6C96.9,195.1,96.7,195.2,96.5,195.2z
			 M87.1,192.7c0,0-0.1,0-0.1,0l-4.7-1.3c-0.3-0.1-0.4-0.4-0.4-0.6c0.1-0.3,0.4-0.4,0.6-0.4l4.7,1.3c0.3,0.1,0.4,0.4,0.4,0.6
			C87.6,192.5,87.4,192.7,87.1,192.7z M77.8,190.1c0,0-0.1,0-0.1,0l-4.7-1.3c-0.3-0.1-0.4-0.4-0.4-0.6c0.1-0.3,0.4-0.4,0.6-0.4
			l4.7,1.3c0.3,0.1,0.4,0.4,0.4,0.6C78.2,190,78,190.1,77.8,190.1z M68.4,187.6c0,0-0.1,0-0.1,0l-4.7-1.3c-0.3-0.1-0.4-0.4-0.4-0.6
			c0.1-0.3,0.4-0.4,0.6-0.4l4.7,1.3c0.3,0.1,0.4,0.4,0.4,0.6C68.8,187.4,68.6,187.6,68.4,187.6z M59,185c0,0-0.1,0-0.1,0l-4.7-1.3
			c-0.3-0.1-0.4-0.4-0.4-0.6c0.1-0.3,0.4-0.4,0.6-0.4l4.7,1.3c0.3,0.1,0.4,0.4,0.4,0.6C59.4,184.9,59.2,185,59,185z"/>
	</g>
	<g>
		<path class="st3" d="M122.4,202.3c0,0-0.1,0-0.1,0l-2.5-0.7c-0.3-0.1-0.4-0.4-0.4-0.6c0.1-0.3,0.4-0.4,0.6-0.4l2.2,0.6l1.7-1.6
			c0.2-0.2,0.5-0.2,0.7,0c0.2,0.2,0.2,0.5,0,0.7l-1.9,1.8C122.7,202.2,122.6,202.3,122.4,202.3z"/>
	</g>
	<g>
		<path class="st3" d="M128.1,196.8c-0.1,0-0.3-0.1-0.4-0.2c-0.2-0.2-0.2-0.5,0-0.7l3.9-3.7c0.2-0.2,0.5-0.2,0.7,0
			c0.2,0.2,0.2,0.5,0,0.7l-3.9,3.7C128.4,196.8,128.3,196.8,128.1,196.8z M135.9,189.4c-0.1,0-0.3-0.1-0.4-0.2
			c-0.2-0.2-0.2-0.5,0-0.7l3.9-3.7c0.2-0.2,0.5-0.2,0.7,0c0.2,0.2,0.2,0.5,0,0.7l-3.9,3.7C136.1,189.4,136,189.4,135.9,189.4z
			 M189.9,137.8c-0.1,0-0.3-0.1-0.4-0.2c-0.2-0.2-0.2-0.5,0-0.7l3.9-3.7c0.2-0.2,0.5-0.2,0.7,0c0.2,0.2,0.2,0.5,0,0.7l-3.9,3.7
			C190.1,137.7,190,137.8,189.9,137.8z M197.6,130.4c-0.1,0-0.3-0.1-0.4-0.2c-0.2-0.2-0.2-0.5,0-0.7l3.9-3.7c0.2-0.2,0.5-0.2,0.7,0
			c0.2,0.2,0.2,0.5,0,0.7l-3.9,3.7C197.8,130.3,197.7,130.4,197.6,130.4z M205.3,123c-0.1,0-0.3-0.1-0.4-0.2c-0.2-0.2-0.2-0.5,0-0.7
			l3.9-3.7c0.2-0.2,0.5-0.2,0.7,0c0.2,0.2,0.2,0.5,0,0.7l-3.9,3.7C205.6,122.9,205.4,123,205.3,123z"/>
	</g>
	<g>
		<path class="st3" d="M213,115.6c-0.1,0-0.3-0.1-0.4-0.2c-0.2-0.2-0.2-0.5,0-0.7l1.9-1.8c0.2-0.2,0.5-0.2,0.7,0
			c0.2,0.2,0.2,0.5,0,0.7l-1.9,1.8C213.3,115.6,213.1,115.6,213,115.6z"/>
	</g>
</g>
<polygon class="st3" points="219.6,108.5 212.2,111.6 216.8,116 "/>
<circle class="st3" cx="12.4" cy="234.5" r="1.8"/>
<g>
	<path class="st3" d="M314.6,366.2H177.1c-0.3,0-0.5-0.2-0.5-0.5s0.2-0.5,0.5-0.5h137.5c0.3,0,0.5,0.2,0.5,0.5
		S314.9,366.2,314.6,366.2z"/>
	<g>
		<path class="st3" d="M306.3,30.7c-4-2.1-9.7,1.3-9.7,1.3c-1.7-0.6-4,0.6-4,0.6l0,0c-4.9-2.2-15.4-0.3-17.7-6
			c-15.1,3.8-14.3,21.7-14.3,21.7c-0.4,0.5-0.7,1-1,1.6c0,0,0,0,0,0s0,0,0,0c-0.4,0.8-0.8,1.6-1.1,2.4l-2.2-0.5
			c0,0-2.6,9.1,1.4,12.4c0.2,3.9,0.8,7.7,1.8,10.8c0,0,0,0,0-0.1c-1.1,5.2-1,11.4-0.6,13.6s1.7,4.3,3.9,5c1.2,0.4,2.4,0.6,3.3,0.8
			c0.7,0.2,0,0,0,0c-0.3,0.2-0.6,0.4-0.9,0.6l0,0l0,0c-14.6,9.8-22,54.4-19.8,59.7c2.3,5.4,19.9-4.8,19.9-4.8s-9.1,14.6-20.3,32.4
			c-11.2,17.8-3.9,59.7-3.9,59.7l18.6,4.5c0,0,1.6,2.7,3,8.3c-1.2,5.8-0.7,12.9,0.8,20.6l0,0c-10.6,15.6-13.2,63.8-13.1,78.3
			c-3.1,0.8-1,10.1-1,10.1l1.7-0.1v-2.9c0,0,2.1,4.7,3.6,4.7s3,0,4.6,0c-1.7,0-3.8-3.7-3.8-3.7s-1.7-3.4-0.7-7.1
			s16.7-51.4,16.7-51.4l0,0c8.9,25.2,20.5,49.4,17.9,56.3c0,0-1.4,3.5-3.2,6c2.7,0,3.8,0,5.1,0c1.3,0,3.7-4.7,3.7-4.7v4l1.4-0.1
			c0,0,2.3-12.9-1.9-12.9l-12.7-84.5l4.2-13.5l-6.5-1.9c2.4,0.7,6.2,1.8,9.9,2.9c8.8-77-13.5-94.9-3.3-112c0,0-8.1-6.9-5-4
			c3,2.9,8.2,6.8,10.3,6c2.1-0.8,4.8-15.6,3.3-20.7c-1.5-5.1-7.4-21.4-10.8-25.4c-3.2-3.8-9.1-4.7-9.7-4.7l1.6-17.4l-1.2-3.1
			c0,0-2.4,4.6-2.7,2.3c-0.3-2.3-1.6,4.1-2.4,6.1s0.1,4-0.8,5.2c-2.1-2.9-7-4.2-9.3-11.7c1,3,2.5,5.2,4.8,6.2
			c3.4,1.5,7.8-1.6,11.5-4.9c2.8-2.5,5.2-5.2,6.4-6.3c2,0.5,5-1.7,6.9-4.2l0,0c2.2,4.7,0.3,30.6,0.3,30.6l6.4,4
			c0,0,3.5-16.1,1.8-26.3c3.7,5.8-0.1,30.3-0.1,30.3s4.3,2.8,6.7,4.4C313.9,77.7,310.3,32.8,306.3,30.7z M279.4,251.7l-19.8-5.4
			C259.6,246.3,277.7,251.2,279.4,251.7z"/>
		<path class="st3" d="M273.9,123.3l0.8,10.5C275,130.2,273.9,123.3,273.9,123.3z"/>
	</g>
	<g>
		<path class="st12" d="M266.1,82c-0.7,0-1.4-0.1-2-0.4c-6.3-2.7-7.1-15.3-7-24.5c0-7.3,6.4-14.3,12.8-17.5c5-2.5,9.7-2.6,12.8-0.3
			c2.8,2.1,5.7,7.2,3.6,19.6c2.4-0.3,3.9,0.2,4.6,1.3c0.8,1.4,0.2,3.6-1.6,5.9c-1.9,2.5-4.9,4.7-7,4.3c-0.4,0.4-1,1-1.7,1.7
			C277.1,75.8,271.1,82,266.1,82z M277.2,38.4c-2.1,0-4.5,0.6-7,1.9c-6.2,3.1-12.4,9.9-12.4,16.8c0,9,0.7,21.3,6.6,23.8
			c4.7,2,11.8-5.3,15.6-9.3c0.8-0.8,1.4-1.5,1.9-1.9c0.1-0.1,0.2-0.1,0.4-0.1c1.9,0.5,4.7-1.7,6.4-4c1.6-2.1,2.2-4,1.5-5.1
			c-0.5-0.9-2-1.2-4.3-0.9c-0.1,0-0.2,0-0.3-0.1c-0.1-0.1-0.1-0.2-0.1-0.3c2.2-12.4-0.5-17.4-3.2-19.4
			C280.9,38.9,279.1,38.4,277.2,38.4z"/>
		<polygon class="st4" points="274.1,93.7 281.3,99.2 277.1,103.3 276,101.8 278.9,98.6 		"/>
		<polygon class="st4" points="265,94.9 258.1,105 271.3,110.7 270.9,109.2 261,102.7 		"/>
		<path class="st12" d="M288.2,59.7c-0.1,0-0.1,0-0.2,0c-0.2-0.1-0.3-0.3-0.2-0.5c0.1-0.2,8.9-19.4,6.4-24.4
			c-1.1-2.3-4.8-2.7-8.7-3.1c-4.6-0.5-9.4-1-11.1-4.6c-6,1.6-10.1,5.6-12.2,12c-1.6,4.8-1.5,9.2-1.5,9.3c0,0.2-0.2,0.4-0.4,0.4
			c-0.2,0-0.4-0.2-0.4-0.4c0-0.2-0.6-18.2,14.6-22.1c0.2,0,0.4,0,0.4,0.2c1.4,3.4,6.1,3.9,10.6,4.4c4.1,0.4,8,0.9,9.3,3.5
			c2.6,5.4-6,24.3-6.4,25.1C288.5,59.6,288.4,59.7,288.2,59.7z"/>
		<path class="st12" d="M271.7,112.6c-0.1,0-0.3-0.1-0.3-0.2c-0.2-0.4-0.7-2.6-1.5-6.5c-0.8-4-2.1-10-2.5-10.5
			c-0.5-0.5-1.4-0.7-2.6-1c-0.7-0.2-1.4-0.3-2.2-0.6c-2.1-0.7-3.6-2.6-4.1-5.3c-0.5-2.5-0.5-8.6,0.6-13.8c0-0.2,0.2-0.3,0.4-0.3
			c0.2,0,0.3,0.1,0.4,0.3c1.6,5.2,4.3,7.4,6.6,9.2c0.9,0.7,1.7,1.4,2.4,2.1c0.1-0.5,0.1-1,0.1-1.7c0-0.9,0-1.9,0.4-2.9
			c0.8-2.2,4.3-1.9,4.4-1.8c0.1,0,0.2,0.1,0.3,0.2c0.1,0.1,0.1,0.2,0,0.3l-2.5,6.2c0.3,0.4,0.9,1.5,1.1,3.3c0.2,2-1.3,3.4-2,4
			l10.1,14.1c0.1,0.1,0.1,0.2,0.1,0.3c0,0.1-0.1,0.2-0.2,0.2c-0.2,0.1-5.4,3.3-8.7,4.4C271.8,112.6,271.7,112.6,271.7,112.6z
			 M259.5,76.4c-0.9,5-0.7,10.2-0.3,12.1c0.5,2.4,1.8,4.1,3.6,4.7c0.8,0.2,1.5,0.4,2.1,0.6c1.3,0.3,2.3,0.5,3,1.2
			c0.5,0.5,1.2,3.8,2.7,10.9c0.5,2.4,1.1,5,1.3,5.9c2.8-1,6.7-3.3,7.9-4l-10-14c-0.1-0.1-0.1-0.2-0.1-0.3c0-0.1,0.1-0.2,0.2-0.2
			c0,0,2.2-1.5,2-3.5c-0.3-2.1-1-3.1-1.1-3.1c-0.1-0.1-0.1-0.3-0.1-0.4l2.3-5.9c-0.9,0-2.7,0.2-3.1,1.4c-0.3,0.9-0.3,1.8-0.3,2.7
			c0,1,0,1.9-0.5,2.6c-0.1,0.1-0.2,0.2-0.3,0.2h0c-0.1,0-0.2-0.1-0.3-0.2c-0.6-0.9-1.6-1.6-2.6-2.5
			C263.8,82.9,261.2,80.8,259.5,76.4z"/>
		<path class="st12" d="M273.7,99C273.7,99,273.7,99,273.7,99c-0.2,0-0.4-0.2-0.4-0.4l0.4-4.9l1.7-17.4c0-0.2,0.2-0.4,0.4-0.3
			c0.2,0,0.4,0.2,0.3,0.4l-1.7,17.4l-0.4,4.9C274.1,98.9,273.9,99,273.7,99z"/>
		<path class="st12" d="M294.9,40.2c-0.1,0-0.2-0.1-0.3-0.2c-0.1-0.2-0.1-0.4,0.1-0.5l3.1-2.1c0-1.8-0.4-4.6-1.5-5
			c-1.5-0.6-3.6,0.6-3.7,0.6c-0.2,0.1-0.4,0-0.5-0.1c-0.1-0.2,0-0.4,0.1-0.5c0.1-0.1,2.4-1.3,4.3-0.6c1.9,0.7,1.9,5.4,1.9,5.9
			c0,0.1-0.1,0.2-0.2,0.3l-3.3,2.3C295,40.1,294.9,40.2,294.9,40.2z"/>
		<path class="st12" d="M290.7,145c-2.7,0-7.6-3.9-10-6.2c-2.9-2.7-6.7-13.5-7.3-15.2l-2.7-0.6c-0.1,0-0.3-0.2-0.3-0.3
			c0-0.1-1.3-7.6-1.7-9.6c0-0.2,0.1-0.4,0.3-0.4c7.1-2.1,12.5-6.2,12.6-6.2c0.1-0.1,0.2-0.1,0.3-0.1c0.1,0,0.2,0.1,0.2,0.2l3.5,6.3
			c0.1,0.1,0.1,0.2,0,0.3l-0.7,2.3l6.8,9.3c0.1,0.2,0.1,0.4-0.1,0.5c-0.2,0.1-0.4,0.1-0.5-0.1l-6.9-9.5c-0.1-0.1-0.1-0.2-0.1-0.3
			l0.7-2.3l-3.3-5.8c-1.3,0.9-6.1,4.1-12.2,6c0.3,2.1,1.3,7.8,1.6,9l2.6,0.6c0.1,0,0.2,0.1,0.3,0.2c0,0.1,4.2,12.3,7.1,15.1
			c3.5,3.3,8.2,6.5,10,5.9c1.7-0.6,4.7-14.9,3.1-20.2c-1.4-4.7-7.3-21.2-10.7-25.2c-2.4-2.8-6.4-4-8.3-4.4l4,4.1
			c0.1,0.1,0.1,0.4,0,0.5l-3,3.1c-0.1,0.1-0.4,0.2-0.5,0c-0.1-0.1-0.2-0.4,0-0.5l2.7-2.9l-4.6-4.7c-0.1-0.1-0.1-0.3-0.1-0.4
			s0.2-0.2,0.4-0.2c0.3,0,6.5,0.8,10,4.9c3.4,4,9.2,20.1,10.8,25.5c1.5,5-1,20.2-3.5,21.1C291.2,145,291,145,290.7,145z"/>
		<path class="st12" d="M248.3,156.6c-0.6,0-1.2-0.1-1.7-0.2c-0.8-0.3-1.4-0.8-1.7-1.6c-2.5-5.9,5.7-52.2,20.9-60.7
			c0.2-0.1,0.4,0,0.5,0.1c0.1,0.2,0,0.4-0.1,0.5c-8.6,4.8-14.2,21.5-16.8,31.1c-3.5,13.2-4.9,26.1-3.8,28.7c0.2,0.6,0.7,0.9,1.3,1.1
			c4.7,1.6,17.9-6.1,18.1-6.1c0.1-0.1,0.3-0.1,0.4,0l1.7,1.3l8.2-3.4c-0.8-1.3-3.3-5.8-3.9-12c-3-1.6-14,2.9-18,4.8
			c-0.2,0.1-0.4,0-0.5-0.2c-0.1-0.2,0-0.4,0.2-0.5c0.6-0.3,15.2-7.2,18.9-4.7c0.1,0.1,0.2,0.2,0.2,0.3c0.6,7.1,4,12.1,4,12.2
			c0.1,0.1,0.1,0.2,0,0.3c0,0.1-0.1,0.2-0.2,0.2l-8.8,3.7c-0.1,0.1-0.3,0-0.4,0l-1.6-1.3C263.4,151.2,253.7,156.6,248.3,156.6z"/>
		<path class="st12" d="M289.2,255c0,0-0.1,0-0.1,0l-12.8-3.7c-0.2-0.1-0.3-0.2-0.3-0.4c0-0.3,2.7-23.9,0.5-36.6
			c-1.9,21.1-7,34.4-7.1,34.5c-0.1,0.2-0.3,0.3-0.4,0.2l-28.3-6.8c-0.1,0-0.3-0.2-0.3-0.3c0-0.1-1.8-10.6-2.3-23.2
			c-0.4-11.6,0.4-27.4,6.2-36.7l20.3-32.4c0.1-0.2,0.3-0.2,0.5-0.1c0.2,0.1,0.2,0.3,0.1,0.5l-20.3,32.4
			c-10.5,16.8-4.4,55.7-3.9,59.2l27.7,6.7c0.8-2.2,5.6-15.9,7.1-36.5c0-0.2,0.2-0.3,0.3-0.3c0.2,0,0.4,0.1,0.4,0.3
			c2.9,11.2,0.4,36,0,39l12.1,3.5c5-43.8-0.2-68.4-3.6-84.6c-2.6-12.3-4.1-19.7,0.3-27.1c0.1-0.2,0.3-0.2,0.5-0.1
			c0.2,0.1,0.2,0.3,0.1,0.5c-4.3,7.2-2.7,14.5-0.2,26.6c3.4,16.4,8.6,41.1,3.5,85.3c0,0.1-0.1,0.2-0.2,0.3
			C289.4,255,289.3,255,289.2,255z"/>
		<path class="st12" d="M291.2,361.1c-0.8,0-1.5-0.5-2.3-1.4c-0.1-0.1-0.1-0.2-0.1-0.4c1.8-4.8-3.6-18.9-10-35.2
			c-9-23.1-20.1-51.9-16.7-69.4c-1.4-5.4-3-8.1-3-8.1c-0.1-0.2,0-0.4,0.1-0.5c0.2-0.1,0.4,0,0.5,0.1c0.1,0.1,1.7,2.8,3.1,8.4
			c0,0.1,0,0.1,0,0.2c-3.5,17.3,7.7,46,16.6,69c6.6,16.9,11.8,30.3,10.1,35.6c0.6,0.7,1.2,1,1.7,1c0.5,0,1-0.4,1.4-1.1
			c0.4-0.7,1-5,1.2-7.5l-15-99.9c0-0.2,0.1-0.4,0.3-0.4c0.2,0,0.4,0.1,0.4,0.3l15,100c-0.1,0.8-0.7,6.9-1.3,7.9
			c-0.6,0.9-1.3,1.4-2,1.5C291.3,361.1,291.2,361.1,291.2,361.1z"/>
		<path class="st12" d="M304.2,109.2c-0.1,0-0.1,0-0.2-0.1l-6.7-4.4c-0.1-0.1-0.2-0.2-0.2-0.4c0-0.2,2.9-18.7,1.2-27.1
			c0.6,10-2.2,23.1-2.2,23.3c0,0.1-0.1,0.2-0.2,0.3c-0.1,0-0.2,0-0.3,0l-6.4-4c-0.1-0.1-0.2-0.2-0.2-0.3c0-0.3,1.9-25.9-0.3-30.5
			c-0.1-0.2,0-0.4,0.2-0.5c0.2-0.1,0.4,0,0.5,0.2c2.2,4.6,0.6,27.9,0.4,30.6l5.7,3.6c0.6-2.8,3.1-16.6,1.7-25.6
			c0-0.2,0.1-0.3,0.2-0.4c0.2-0.1,0.4,0,0.4,0.2c3.6,5.6,0.4,27.6-0.1,30.3l6.1,4c9.3-30.7,5.7-75.3,2-77.2c-3.7-2-9.3,1.2-9.4,1.3
			c-0.2,0.1-0.4,0-0.5-0.1s0-0.4,0.1-0.5c0.2-0.1,6-3.5,10.1-1.3c4.5,2.4,7.6,48.3-1.8,78.6c0,0.1-0.1,0.2-0.2,0.2
			C304.3,109.2,304.2,109.2,304.2,109.2z"/>
		<linearGradient id="SVGID_4_" gradientUnits="userSpaceOnUse" x1="271.0712" y1="68.2739" x2="271.0712" y2="51.7277">
			<stop  offset="0" style="stop-color:#6ABC5C"/>
			<stop  offset="1" style="stop-color:#65D2FF"/>
		</linearGradient>
		<path class="st13" d="M256.2,51.7l26.7,5.9l3.9,0.9l-0.8,1.4l-2.7-0.1c0,0-4.4,10.6-9.5,8c-5.1-2.6-3.4-10.8-3.4-10.8l-3.1-0.6
			c0,0-3.4,10.9-8.7,8.3S256.2,51.7,256.2,51.7z"/>
		<path class="st3" d="M257.5,54.3l8.1,1.9c0,0-2.7,8.2-6.2,6.9C255.8,61.7,257.5,54.3,257.5,54.3z"/>
		<path class="st3" d="M272.3,57.7l8.7,1.9c0,0-3.5,8.1-6.9,6.4C270.7,64.3,272.3,57.7,272.3,57.7z"/>
		<ellipse class="st14" cx="262.8" cy="58.8" rx="0.9" ry="1.4"/>
		<ellipse class="st14" cx="273.9" cy="61" rx="1" ry="1.7"/>
		<path class="st14" d="M260.2,50.3c0,0,2.3-2.8,3.7-1.9c1.4,1,2.7,5.6,2.7,5.6l-1.5-0.3c0,0-0.7-3-1.5-3.8
			C262.1,48.4,260.2,50.3,260.2,50.3z"/>
		<path class="st14" d="M271.7,54.7l0.4-1.6c0,0,9.6-0.9,12.3,1C277.8,53.3,271.7,54.7,271.7,54.7z"/>
		<path class="st12" d="M266,73.1c-1.8,0-3-0.4-3.1-0.5c-0.2-0.1-0.3-0.3-0.2-0.5s0.3-0.3,0.5-0.2c0,0,5,1.8,10.5-2.3
			c0.2-0.1,0.4-0.1,0.5,0.1c0.1,0.2,0.1,0.4-0.1,0.5C271,72.6,268.1,73.1,266,73.1z"/>
		<path class="st12" d="M265.8,67.1c-0.6,0-1-0.2-1.3-0.5c-0.6-0.7-0.3-1.8-0.3-1.8c0.1-0.2,0.3-0.3,0.5-0.3
			c0.2,0.1,0.3,0.3,0.3,0.5c-0.1,0.2-0.1,0.8,0.1,1.1c0.2,0.2,0.6,0.3,1.1,0.2c0.2,0,0.4,0.1,0.4,0.3c0,0.2-0.1,0.4-0.3,0.4
			C266.1,67.1,265.9,67.1,265.8,67.1z"/>
		<path class="st12" d="M281.6,267.8c0,0-0.1,0-0.1,0c-0.2-0.1-0.3-0.3-0.2-0.5l4.3-13.8c0.1-0.2,0.3-0.3,0.5-0.2
			c0.2,0.1,0.3,0.3,0.2,0.5l-4.3,13.8C281.9,267.7,281.8,267.8,281.6,267.8z"/>
		<path class="st12" d="M255.3,362c-0.1,0-0.1,0-0.2-0.1c-0.2-0.1-4.6-2.9-5.3-8.4c-0.1-8.4,0.7-24.1,2.6-38.8
			c1.7-13.5,4.9-31.3,10.6-39.8c0.1-0.2,0.3-0.2,0.5-0.1c0.2,0.1,0.2,0.3,0.1,0.5c-10.3,15.1-13.2,62.6-13.1,78.1
			c0.5,3.5,2.6,5.9,3.9,7c-0.4-1.4-0.9-3.7-0.2-6.1c1-3.7,16.1-49.5,16.7-51.4c0.1-0.2,0.3-0.3,0.5-0.2c0.2,0.1,0.3,0.3,0.2,0.5
			c-0.2,0.5-15.8,47.8-16.7,51.4c-0.9,3.5,0.7,6.8,0.7,6.8c0.1,0.2,0,0.3-0.1,0.4C255.5,362,255.4,362,255.3,362z"/>
		<path class="st12" d="M291.1,365.7H286c-0.1,0-0.3-0.1-0.3-0.2c-0.1-0.1-0.1-0.3,0-0.4c1.8-2.4,3.1-5.8,3.1-5.9
			c0.1-0.2,0.3-0.3,0.5-0.2c0.2,0.1,0.3,0.3,0.2,0.5c-0.1,0.1-1.2,3.1-2.8,5.5h4.4c0.6,0,2.3-2.3,3.4-4.5c0.1-0.2,0.3-0.2,0.4-0.2
			c0.2,0,0.3,0.2,0.3,0.4v3.6l0.7-0.1c0.3-1.6,1.4-9.4-0.5-11.6c-0.3-0.4-0.7-0.6-1.1-0.6c-0.2,0-0.4-0.2-0.4-0.4s0.2-0.4,0.4-0.4
			c0.7,0,1.3,0.3,1.7,0.8c2.3,2.8,0.6,12.1,0.6,12.5c0,0.2-0.2,0.3-0.3,0.3l-1.4,0.1c-0.1,0-0.2,0-0.3-0.1s-0.1-0.2-0.1-0.3v-2.6
			C293.5,363.6,292.1,365.7,291.1,365.7z"/>
		<path class="st12" d="M259.1,365.7h-4.6c-1.2,0-2.4-2-3.2-3.5v1.3c0,0.2-0.2,0.4-0.4,0.4l-1.7,0.1c-0.2,0-0.3-0.1-0.4-0.3
			c-0.2-1-2.2-9.7,1.2-10.5c0.2,0,0.4,0.1,0.5,0.3c0.1,0.2-0.1,0.4-0.3,0.5c-2.2,0.5-1.3,6.8-0.8,9.3l1-0.1v-2.5
			c0-0.2,0.1-0.3,0.3-0.4c0.2,0,0.3,0.1,0.4,0.2c0.8,1.8,2.4,4.4,3.3,4.4h2.9c-1.3-1-2.3-2.9-2.5-3.1c-0.1-0.2,0-0.4,0.1-0.5
			c0.2-0.1,0.4,0,0.5,0.1c0.8,1.4,2.4,3.5,3.5,3.5c0.2,0,0.4,0.2,0.4,0.4S259.3,365.7,259.1,365.7z"/>
		<path class="st12" d="M260.3,137.2c-0.1,0-0.1,0-0.2-0.1c-5.6-3.4-1.4-14.9-1.2-15.4c0.1-0.2,0.3-0.3,0.5-0.2
			c0.2,0.1,0.3,0.3,0.2,0.5c0,0.1-4.2,11.4,0.9,14.5c0.2,0.1,0.2,0.3,0.1,0.5C260.5,137.2,260.4,137.2,260.3,137.2z"/>
		<path class="st12" d="M271.7,135.5c-0.1,0-0.3-0.1-0.3-0.2c-0.1-0.2,0-0.4,0.2-0.5l5.7-2.6c0.2-0.1,0.4,0,0.5,0.2s0,0.4-0.2,0.5
			l-5.7,2.6C271.8,135.5,271.7,135.5,271.7,135.5z"/>
		<path class="st12" d="M273.4,143c-0.1,0-0.2,0-0.3-0.1c-0.1-0.2-0.1-0.4,0-0.5l6.2-5.7c0.2-0.1,0.4-0.1,0.5,0
			c0.1,0.2,0.1,0.4,0,0.5l-6.2,5.7C273.6,142.9,273.5,143,273.4,143z"/>
		<path class="st12" d="M270.8,123c-0.2,0-0.3-0.1-0.4-0.3c-0.1-0.2,0.1-0.4,0.3-0.5c8.9-2.3,14.3-9.4,14.4-9.5
			c0.1-0.2,0.4-0.2,0.5-0.1c0.2,0.1,0.2,0.4,0.1,0.5C285.7,113.4,280.1,120.6,270.8,123C270.9,123,270.9,123,270.8,123z"/>
		<path class="st12" d="M266.9,151.6c-0.1,0-0.2-0.1-0.3-0.2c-0.2-0.3-4.3-6.3-2-16.1c0-0.2,0.2-0.3,0.4-0.3c0.2,0,0.3,0.2,0.3,0.4
			c-2.2,9.5,1.9,15.5,1.9,15.5c0.1,0.2,0.1,0.4-0.1,0.5C267.1,151.6,267,151.6,266.9,151.6z"/>
		<path class="st12" d="M274.5,134.2C274.5,134.2,274.5,134.2,274.5,134.2c-0.2,0-0.4-0.2-0.4-0.4c0.3-3.5-0.8-10.4-0.8-10.4
			c0-0.2,0.1-0.4,0.3-0.4c0.2,0,0.4,0.1,0.4,0.3c0,0.3,1.1,7,0.8,10.6C274.9,134.1,274.7,134.2,274.5,134.2z"/>
		<path class="st12" d="M276.5,212.1C276.4,212.1,276.4,212.1,276.5,212.1c-0.2,0-0.4-0.2-0.4-0.4c1.6-15.7-0.3-29.6-1.9-40.8
			c-1.2-8.9-2.3-16.7-1.2-22.5c0-0.2,0.2-0.3,0.4-0.3c0.2,0,0.3,0.2,0.3,0.4c-1.1,5.7-0.1,13.3,1.2,22.2c1.6,11.2,3.5,25.1,1.9,41
			C276.8,211.9,276.6,212.1,276.5,212.1z"/>
		<path class="st12" d="M270.9,109.6c-0.1,0-0.1,0-0.2-0.1l-10-6.5c-0.2-0.1-0.2-0.3-0.1-0.5l4-7.7c0.1-0.1,0.2-0.2,0.3-0.2
			c0.1,0,0.3,0.1,0.3,0.2l5.5,12.3l0.4,2c0,0.1,0,0.3-0.2,0.4C271.1,109.6,271,109.6,270.9,109.6z M261.5,102.5l8.9,5.8l-0.2-1.1
			L265,95.8L261.5,102.5z"/>
	</g>
</g>
</svg>
