<?xml version="1.0" encoding="utf-8"?>
<!-- Generator: Adobe Illustrator 22.1.0, SVG Export Plug-In . SVG Version: 6.00 Build 0)  -->
<svg version="1.1" id="Layer_1" xmlns="http://www.w3.org/2000/svg" xmlns:xlink="http://www.w3.org/1999/xlink" x="0px" y="0px"
	 viewBox="0 0 136.1 136.1" style="enable-background:new 0 0 136.1 136.1;" xml:space="preserve">
<style type="text/css">
	.st0{fill:#FFFFFF;}
	.st1{fill:url(#SVGID_1_);}
	.st2{fill:#212C40;}
</style>
<g transform="matrix(1, 0, 0, 1, -694, 71)">
	<path id="Path_867-2" class="st0" d="M693.6-71.5h136.8V65.3H693.6V-71.5z"/>
</g>
<g>
	<linearGradient id="SVGID_1_" gradientUnits="userSpaceOnUse" x1="69.6627" y1="32.1289" x2="69.6627" y2="70.1347">
		<stop  offset="0" style="stop-color:#65D2FF"/>
		<stop  offset="1" style="stop-color:#6ABC5C"/>
	</linearGradient>
	<path class="st1" d="M74.2,72.3h-8.9c-0.6,0-1.2,0.4-1.5,0.9c-0.2,0.6-0.1,1.3,0.3,1.7c0.7,0.8,1.6,1.4,2.5,1.9
		c1,0.5,2,0.7,3.1,0.7c1.1,0,2.1-0.2,3.1-0.7c0.9-0.5,1.8-1.1,2.5-1.9c0.4-0.5,0.5-1.1,0.3-1.7C75.4,72.7,74.8,72.3,74.2,72.3z
		 M75.8,67.7C75.8,67.7,75.7,67.7,75.8,67.7l-12.1,0c-0.9,0.1-1.5,0.8-1.5,1.7c0.1,0.8,0.7,1.4,1.5,1.5h11.9c0.9,0,1.6-0.7,1.6-1.6
		C77.3,68.4,76.6,67.7,75.8,67.7z M86.7,32.6c-1.4-3.3-3.7-6.1-6.7-8.1c-3.1-2.1-6.7-3.2-10.4-3.2c-2.5,0-4.9,0.5-7.2,1.5
		c-3.3,1.4-6.1,3.7-8.1,6.7c-2.1,3.1-3.2,6.7-3.2,10.4c0,4.1,1.3,8.1,3.9,11.3l0.4,0.5c1.4,1.8,2.7,3.6,3.9,5.5
		c0.6,0.9,1,1.9,1.3,2.9c0.3,0.9,0.5,1.9,0.5,2.9v0.7c0,1.4,1.2,2.6,2.6,2.6h11.9c1.4,0,2.6-1.2,2.6-2.6v-0.7c0-1,0.2-2,0.5-2.9
		c0.6-1.6,1.3-3.1,2.3-4.5c0.9-1.3,1.9-2.7,2.9-4l0.4-0.5c2.5-3.2,3.9-7.2,3.9-11.3C88.2,37.4,87.8,34.9,86.7,32.6z"/>
	<g id="Group_257">
		<path id="Path_847" class="st2" d="M72.3,65.2H60.4c-0.9,0.1-1.5,0.8-1.5,1.7c0.1,0.8,0.7,1.4,1.5,1.5h11.9
			c0.9,0.1,1.6-0.6,1.7-1.5s-0.6-1.6-1.5-1.7C72.5,65.2,72.4,65.2,72.3,65.2z"/>
		<path id="Path_848" class="st2" d="M83.4,30.2C82,26.8,79.7,24,76.7,22c-3-2.1-6.7-3.2-10.4-3.2l0,0c-2.5,0-4.9,0.5-7.2,1.5
			C55.8,21.7,53,24,51,27c-2.1,3-3.2,6.6-3.2,10.3c0,4.1,1.3,8.1,3.9,11.3l0.4,0.5c1.4,1.8,2.7,3.6,3.9,5.5c0.6,0.9,1,1.9,1.3,2.9
			c0.3,0.9,0.5,1.9,0.5,2.9v0.7c0,1.4,1.2,2.6,2.6,2.6h11.9c1.4,0,2.6-1.2,2.6-2.6v-0.7c0-1,0.2-2,0.5-2.9c0.6-1.6,1.3-3.1,2.3-4.5
			c0.9-1.3,1.9-2.7,2.9-4l0.4-0.5c2.5-3.2,3.9-7.2,3.9-11.3C84.9,34.9,84.4,32.4,83.4,30.2z M65.1,60.9c0-0.9-0.1-1.9-0.1-2.7
			c-0.1-0.9-0.1-1.7-0.1-2.6c-0.1-0.9-0.1-1.7-0.2-2.5s-0.1-1.5-0.3-2.3c-0.1-0.7-0.2-1.5-0.3-2.1C64.1,48.3,64,48,64,47.6h0.3
			c0.7-0.1,1.4-0.1,2.1-0.1c0.7,0,1.5,0,2.1,0.1h0.3c-0.1,0.4-0.1,0.8-0.1,1.1c-0.1,0.7-0.2,1.4-0.3,2.1c-0.1,0.7-0.2,1.5-0.3,2.3
			c-0.1,0.8-0.1,1.6-0.2,2.5s-0.1,1.7-0.1,2.6c-0.1,0.9-0.1,1.8-0.1,2.7v0.9h-2.5V60.9z M79.4,47.4L79,48c-1.1,1.3-2.1,2.7-3.1,4.1
			c-1.1,1.5-1.9,3.2-2.5,4.9c-0.4,1.1-0.6,2.3-0.6,3.5v0.7c0,0.3-0.3,0.6-0.6,0.6h-3.1v-0.9c0-0.9,0.1-1.9,0.1-2.7s0.1-1.7,0.1-2.5
			l0.2-2.4c0.1-0.8,0.1-1.5,0.3-2.3c0.1-0.7,0.2-1.5,0.3-2.1c0.1-0.4,0.1-0.8,0.2-1.3h0.2c0.5,0.1,1,0.1,1.5,0.2h0.3
			c0.3,0,0.6-0.1,0.9-0.2c0.4-0.2,0.7-0.5,1-0.9c0.3-0.4,0.4-0.8,0.4-1.3c0-0.5-0.2-1-0.5-1.4c-0.3-0.3-0.6-0.6-1-0.7
			c-0.4-0.1-0.7-0.2-1.1-0.3c-0.7,0-1.3,0.2-1.9,0.7c-0.6,0.4-0.9,1.1-1.1,1.8c0,0.1-0.1,0.3-0.1,0.4h-0.5c-0.7-0.1-1.5-0.1-2.2-0.1
			s-1.5,0-2.2,0.1h-0.5c0-0.1-0.1-0.3-0.1-0.4c-0.1-0.7-0.5-1.4-1.1-1.8c-0.5-0.4-1.2-0.6-1.9-0.7c-0.4,0-0.8,0.1-1.1,0.3
			c-0.4,0.1-0.7,0.4-1,0.7C58.2,44.5,58,45,58,45.6c0,0.6,0.2,1.2,0.7,1.6c0.4,0.5,1,0.7,1.7,0.7h0.3c0.5-0.1,0.9-0.1,1.5-0.2h0.2
			c0.1,0.4,0.1,0.8,0.2,1.3c0.1,0.7,0.2,1.4,0.3,2.1c0.1,0.7,0.2,1.5,0.3,2.3l0.2,2.4c0.1,0.8,0.1,1.7,0.1,2.5
			c0.1,0.9,0.1,1.8,0.1,2.7v0.9h-3.2c-0.3,0-0.6-0.3-0.6-0.6v-0.7c0-1.2-0.2-2.4-0.6-3.5c-0.4-1.2-0.9-2.3-1.5-3.3
			c-1.2-2-2.6-4-4.1-5.8l-0.3-0.5c-5.6-7.3-4.2-17.7,3.1-23.2c1.1-0.8,2.3-1.6,3.6-2.1c2-0.9,4.2-1.3,6.5-1.3l0,0
			c6.6,0,12.6,3.9,15.2,10C83.9,36.3,83.1,42.7,79.4,47.4L79.4,47.4z M70.7,46.1c0-0.1,0-0.2,0.1-0.3c0-0.3,0.2-0.6,0.5-0.8
			c0.2-0.2,0.6-0.3,0.9-0.3c0.2,0,0.4,0.1,0.5,0.1c0.2,0.1,0.3,0.2,0.5,0.3c0.1,0.1,0.1,0.2,0.1,0.3c0,0.2-0.1,0.4-0.3,0.5
			c-0.1,0.1-0.2,0.2-0.3,0.2c-0.1,0.1-0.2,0.1-0.3,0.1h-0.1c-0.5-0.1-1-0.1-1.5-0.2C70.8,46.1,70.7,46.1,70.7,46.1L70.7,46.1z
			 M62.1,46.1h-0.1c-0.5,0.1-1,0.1-1.5,0.2h-0.1c-0.2,0-0.4-0.1-0.5-0.3c-0.1-0.2-0.2-0.3-0.2-0.5c0-0.1,0.1-0.3,0.1-0.4
			c0.1-0.1,0.3-0.3,0.5-0.3c0.2-0.1,0.3-0.1,0.5-0.1c0.3,0,0.6,0.1,0.9,0.3c0.3,0.2,0.4,0.5,0.5,0.8C62.1,45.8,62.1,46,62.1,46.1
			L62.1,46.1z"/>
		<path id="Path_849" class="st2" d="M70.8,69.9h-8.9c-0.6,0-1.2,0.4-1.5,0.9c-0.2,0.6-0.1,1.3,0.3,1.7c0.7,0.8,1.6,1.4,2.5,1.9
			c1,0.5,2,0.7,3.1,0.7c1.1,0,2.1-0.2,3.1-0.7c0.9-0.5,1.8-1.1,2.5-1.9c0.6-0.7,0.5-1.7-0.1-2.2C71.6,70,71.2,69.8,70.8,69.9z"/>
	</g>
</g>
</svg>
