<?xml version="1.0" encoding="utf-8"?>
<!-- Generator: Adobe Illustrator 22.1.0, SVG Export Plug-In . SVG Version: 6.00 Build 0)  -->
<svg version="1.1" id="Layer_1" xmlns="http://www.w3.org/2000/svg" xmlns:xlink="http://www.w3.org/1999/xlink" x="0px" y="0px"
	 viewBox="0 0 136.1 136.1" style="enable-background:new 0 0 136.1 136.1;" xml:space="preserve">
<style type="text/css">
	.st0{fill:#FFFFFF;}
	.st1{fill:url(#Ellipse_32_1_);}
	.st2{fill:url(#Ellipse_33_1_);}
	.st3{fill:url(#Ellipse_34_1_);}
	.st4{fill:url(#Ellipse_35_1_);}
	.st5{fill:url(#Ellipse_36_1_);}
	.st6{fill:#212C40;}
	.st7{fill:url(#Path_877_1_);}
</style>
<g id="Group_247" transform="translate(390 -71)">
	<g transform="matrix(1, 0, 0, 1, -390, 71)">
		<rect id="Rectangle_92-4" x="0.1" y="-0.3" class="st0" width="136.5" height="136.5"/>
	</g>
</g>
<g id="Group_280" transform="translate(631 679.925)">
	<linearGradient id="Ellipse_32_1_" gradientUnits="userSpaceOnUse" x1="-598.432" y1="-638.7961" x2="-598.432" y2="-603.8168">
		<stop  offset="0" style="stop-color:#65D2FF"/>
		<stop  offset="0.1202" style="stop-color:#65D1F8"/>
		<stop  offset="0.2912" style="stop-color:#66CFE6"/>
		<stop  offset="0.4926" style="stop-color:#67CAC7"/>
		<stop  offset="0.7172" style="stop-color:#68C59C"/>
		<stop  offset="0.9584" style="stop-color:#6ABD66"/>
		<stop  offset="1" style="stop-color:#6ABC5C"/>
	</linearGradient>
	<circle id="Ellipse_32" class="st1" cx="-598.4" cy="-646.2" r="3.3"/>
	<linearGradient id="Ellipse_33_1_" gradientUnits="userSpaceOnUse" x1="-578.106" y1="-638.7961" x2="-578.106" y2="-603.8168">
		<stop  offset="0" style="stop-color:#65D2FF"/>
		<stop  offset="0.1202" style="stop-color:#65D1F8"/>
		<stop  offset="0.2912" style="stop-color:#66CFE6"/>
		<stop  offset="0.4926" style="stop-color:#67CAC7"/>
		<stop  offset="0.7172" style="stop-color:#68C59C"/>
		<stop  offset="0.9584" style="stop-color:#6ABD66"/>
		<stop  offset="1" style="stop-color:#6ABC5C"/>
	</linearGradient>
	<circle id="Ellipse_33" class="st2" cx="-578.1" cy="-660.8" r="3.3"/>
	<linearGradient id="Ellipse_34_1_" gradientUnits="userSpaceOnUse" x1="-549.003" y1="-638.7961" x2="-549.003" y2="-603.8168">
		<stop  offset="0" style="stop-color:#65D2FF"/>
		<stop  offset="0.1202" style="stop-color:#65D1F8"/>
		<stop  offset="0.2912" style="stop-color:#66CFE6"/>
		<stop  offset="0.4926" style="stop-color:#67CAC7"/>
		<stop  offset="0.7172" style="stop-color:#68C59C"/>
		<stop  offset="0.9584" style="stop-color:#6ABD66"/>
		<stop  offset="1" style="stop-color:#6ABC5C"/>
	</linearGradient>
	<circle id="Ellipse_34" class="st3" cx="-549" cy="-657.9" r="3.3"/>
	<linearGradient id="Ellipse_35_1_" gradientUnits="userSpaceOnUse" x1="-528.985" y1="-638.7961" x2="-528.985" y2="-603.8168">
		<stop  offset="0" style="stop-color:#65D2FF"/>
		<stop  offset="0.1202" style="stop-color:#65D1F8"/>
		<stop  offset="0.2912" style="stop-color:#66CFE6"/>
		<stop  offset="0.4926" style="stop-color:#67CAC7"/>
		<stop  offset="0.7172" style="stop-color:#68C59C"/>
		<stop  offset="0.9584" style="stop-color:#6ABD66"/>
		<stop  offset="1" style="stop-color:#6ABC5C"/>
	</linearGradient>
	<circle id="Ellipse_35" class="st4" cx="-529" cy="-632.8" r="3.3"/>
	<linearGradient id="Ellipse_36_1_" gradientUnits="userSpaceOnUse" x1="-588.115" y1="-638.7961" x2="-588.115" y2="-603.8168">
		<stop  offset="0" style="stop-color:#65D2FF"/>
		<stop  offset="0.1202" style="stop-color:#65D1F8"/>
		<stop  offset="0.2912" style="stop-color:#66CFE6"/>
		<stop  offset="0.4926" style="stop-color:#67CAC7"/>
		<stop  offset="0.7172" style="stop-color:#68C59C"/>
		<stop  offset="0.9584" style="stop-color:#6ABD66"/>
		<stop  offset="1" style="stop-color:#6ABC5C"/>
	</linearGradient>
	<circle id="Ellipse_36" class="st5" cx="-588.1" cy="-627.7" r="3.3"/>
	<g id="Group_280-2" transform="translate(22.79 11.395)">
		<path id="Path_868" class="st6" d="M-591.7-639.1l-0.4-1.8c-4.4-1.4-7.3-5.4-7.4-9.9c0-2.4,0.8-4.7,2.4-6.5l-0.8-1.5
			c-2,2.2-3.1,5.1-3.2,8.1C-601.1-645.2-597.2-640.3-591.7-639.1z"/>
		<path id="Path_869" class="st6" d="M-596.1-655.7c-1,1.4-1.5,3.1-1.5,4.9c0,3.4,2,6.4,5.1,7.8l-0.5-2.2c-1.8-1.3-2.9-3.4-2.9-5.6
			c0-1.1,0.3-2.2,0.8-3.2L-596.1-655.7z"/>
		<path id="Path_870" class="st6" d="M-594.2-664.1c1.6-0.6,3.4-1,5.2-1c2.5,0,4.9,0.6,7,1.8l0.9-1.4c-2.4-1.4-5.1-2.2-7.9-2.2
			c-2.1,0-4.1,0.4-6,1.2L-594.2-664.1z"/>
		<path id="Path_871" class="st6" d="M-584.3-660.1l0.9-1.4c-1.8-1-3.8-1.5-5.8-1.5c-1.4,0-2.8,0.2-4.1,0.8l0.8,1.5
			c1.1-0.3,2.2-0.5,3.3-0.5C-587.4-661.3-585.7-660.9-584.3-660.1z"/>
		<path id="Path_872" class="st6" d="M-589-659.5c-0.8,0-1.6,0.1-2.4,0.3l0.8,1.5c0.5-0.1,1-0.1,1.5-0.2c1,0,1.9,0.2,2.8,0.6
			l0.9-1.4C-586.5-659.2-587.8-659.5-589-659.5z"/>
		<path id="Path_873" class="st6" d="M-580-656c0.9,1.6,1.4,3.4,1.4,5.2c0,2.3-0.8,4.6-2.2,6.4l0.3,1.2c0.3-0.1,0.7-0.2,1.1-0.3
			c1.6-2.1,2.5-4.7,2.5-7.3c0-2.4-0.7-4.7-2-6.7L-580-656z"/>
		<path id="Path_874" class="st6" d="M-577.6-659.4c3.5,4.7,3.8,11,0.8,15.9c0.5,0.2,1.1,0.4,1.5,0.7c3.3-5.7,2.8-12.9-1.4-18
			L-577.6-659.4z"/>
		<path id="Path_875" class="st6" d="M-603.3-650.9c0-3.8,1.5-7.4,4.2-10.1l-0.9-1.5c-6.4,6-6.7,16.1-0.7,22.5
			c2.6,2.8,6.1,4.5,9.9,4.9l-0.4-1.7C-598.1-637.8-603.2-643.8-603.3-650.9z"/>
		<path id="Path_876" class="st6" d="M-581.2-654.3l-1.2,1.7c0.2,0.6,0.2,1.2,0.2,1.8v0.7l0.8,3.2c0.6-1.2,0.9-2.6,0.9-3.9
			C-580.4-652.1-580.7-653.2-581.2-654.3z"/>
	</g>
	<linearGradient id="Path_877_1_" gradientUnits="userSpaceOnUse" x1="-553.4839" y1="-638.7961" x2="-553.4839" y2="-603.8168">
		<stop  offset="0" style="stop-color:#65D2FF"/>
		<stop  offset="0.1202" style="stop-color:#65D1F8"/>
		<stop  offset="0.2912" style="stop-color:#66CFE6"/>
		<stop  offset="0.4926" style="stop-color:#67CAC7"/>
		<stop  offset="0.7172" style="stop-color:#68C59C"/>
		<stop  offset="0.9584" style="stop-color:#6ABD66"/>
		<stop  offset="1" style="stop-color:#6ABC5C"/>
	</linearGradient>
	<path id="Path_877" class="st7" d="M-532.8-611.7l-2.9-11.5c-0.1-1.9-1.7-3.3-3.6-3.2c-1.7,0.1-3,1.4-3.2,3l-0.5-1.8
		c-0.2-1.9-1.9-3.3-3.8-3.2c0,0,0,0,0,0c-1.3,0.2-2.4,1.1-2.8,2.5c-0.2-1.9-1.8-3.2-3.7-3.1c-1.9,0.2-3.2,1.8-3.1,3.7l-3.2-13.7
		c-0.4-1.9-2.3-3.1-4.2-2.6c-1.9,0.4-3.1,2.3-2.6,4.2l4.9,21.2c-1.7-1.8-5.4-4.9-9.4-4c-5.5,1.2-3.1,3.6-1.8,4.1
		c1.3,0.5,6.9,5,9.8,10.2c2.8,5.2,7.1,10.2,17.3,8.9c9.2-1.1,12.5-8.1,13-11.3C-532.6-609.4-532.6-610.6-532.8-611.7z"/>
	<path id="Path_878" class="st6" d="M-535.5-614.6l-2.8-10.8c-0.3-2.4-2.4-4.2-4.8-4.2c-0.2,0-0.4,0-0.6,0.1
		c-0.7,0.1-1.3,0.3-1.9,0.7c-0.8-1.6-2.4-2.6-4.2-2.7l0,0c-0.2,0-0.4,0-0.6,0.1c-0.8,0.1-1.5,0.4-2.2,0.9c-0.9-1-2.1-1.5-3.5-1.5
		c-0.2,0-0.4,0-0.6,0.1c-0.7,0.1-1.4,0.4-2,0.8l-2.1-8.9c-0.5-2.2-2.5-3.7-4.7-3.8c-0.4,0-0.7,0.1-1.1,0.2c-2.6,0.6-4.2,3.2-3.6,5.8
		l3.6,15.6c-1.5-0.9-3.2-1.5-5-1.5c-0.6,0-1.1,0.1-1.7,0.2c-2.8,0.6-4.4,1.8-4.5,3.4c0.1,1.6,1.1,2.9,2.6,3.4
		c0.9,0.4,5.9,4.4,8.4,8.9c2.4,4.4,6.2,9.4,14.8,9.4c0.9,0,1.9-0.1,3-0.2c3.9-0.3,7.5-2.2,10.2-5.1c1.7-1.9,2.9-4.3,3.4-6.9
		C-535.2-612-535.3-613.3-535.5-614.6z M-565-609c-2.7-4.9-8-9.3-9.5-9.9c-0.6-0.2-1.4-0.8-1.3-1.5c0-0.6,1.1-1.2,2.9-1.7
		c0.4-0.1,0.8-0.1,1.2-0.2c3.1,0,5.8,2.3,7.2,3.8c0.1,0.1,0.3,0.2,0.5,0.1c0.2-0.1,0.2-0.3,0.2-0.5c0,0,0,0,0,0l-4.6-19.9
		c-0.2-0.8,0-1.6,0.4-2.2c0.4-0.7,1.1-1.2,1.8-1.3c1.6-0.4,3.1,0.6,3.5,2.2l2.9,12.9c0.1,0.2,0.3,0.3,0.5,0.3c0.2,0,0.3-0.2,0.3-0.4
		c-0.1-1.5,1-2.9,2.5-3.2c1.6-0.2,3,1,3.2,2.6c0,0.2,0.2,0.3,0.4,0.3c0.2,0,0.4-0.1,0.4-0.3c0.3-1.1,1.2-1.9,2.3-2.1
		c1.6-0.2,3,1,3.2,2.6l0.4,1.8c0.1,0.2,0.2,0.3,0.4,0.3c0.2,0,0.3-0.1,0.4-0.3c0.1-1.3,1.1-2.3,2.4-2.5c1.6-0.1,3.1,1.1,3.2,2.7
		l2.8,10.9c0.2,1,0.3,2,0.2,3c-0.3,2.5-3.2,9.3-11.9,10.3C-558.6-599.7-562.3-604.1-565-609z"/>
	<g id="Group_281" transform="translate(0 0)">
		<path id="Path_879" class="st6" d="M-569.4-645.5l-7.5-13.2c1-0.9,1.5-2.1,1.5-3.4c0-2.6-2.1-4.6-4.7-4.6c-2.5,0-4.5,2.1-4.6,4.6
			c0,1.5,0.8,3,2.1,3.8l-7.2,24.3l0,0c-0.4,0-0.7,0.1-1.1,0.2l-6.4-10.7c1.9-1.7,2.1-4.6,0.4-6.5c-0.9-1-2.1-1.6-3.5-1.5
			c-2.6,0-4.6,2-4.7,4.6c0,2.6,2,4.6,4.6,4.7c0,0,0.1,0,0.1,0c0.4,0,0.7-0.1,1.1-0.2l6.5,10.7c-1.9,1.7-2,4.7-0.2,6.5
			c1.7,1.9,4.7,2,6.5,0.2c0.9-0.9,1.5-2.1,1.5-3.4c0-1.7-0.9-3.2-2.4-4l7.1-24.3h0.3c0.3,0,0.7-0.1,1-0.2l7.7,13.6
			C-570.7-644.7-570.1-645.2-569.4-645.5z M-598-647.5c0,0.1,0,0.1-0.1,0.2c0,0.1-0.1,0.2-0.1,0.2s-0.1,0.2-0.1,0.2
			c0,0.1-0.1,0.1-0.1,0.2c-0.1,0.1-0.1,0.2-0.2,0.2l0,0c-0.4,0.6-1.1,0.9-1.8,0.9c-0.2,0-0.5-0.1-0.7-0.2l0,0
			c-0.2-0.1-0.2-0.1-0.4-0.2l0,0c-0.1-0.1-0.2-0.2-0.3-0.2l-0.1-0.1l-0.2-0.2l-0.1-0.1c-0.1-0.1-0.2-0.2-0.2-0.2
			c0-0.1-0.1-0.1-0.1-0.2c0-0.1-0.1-0.2-0.1-0.2s-0.1-0.2-0.1-0.2c0-0.1,0-0.1-0.1-0.2c-0.1-0.1-0.1-0.3-0.1-0.4
			c0-1.3,1-2.3,2.3-2.3s2.3,1,2.3,2.3l0,0C-598-647.8-598-647.7-598-647.5L-598-647.5z M-587.4-629.4L-587.4-629.4
			c0,0.2,0,0.3-0.1,0.5c0,0.2-0.1,0.3-0.2,0.5c-0.4,0.8-1.2,1.4-2.1,1.4c-1.1,0-2-0.8-2.2-1.8c0-0.2-0.1-0.3-0.1-0.5l0,0
			c0-0.1,0-0.3,0.1-0.4v-0.2c0-0.1,0.1-0.2,0.1-0.2c0-0.1,0-0.1,0.1-0.2c0-0.1,0.1-0.1,0.1-0.2c0.1-0.1,0.1-0.2,0.2-0.2
			c0.7-1,2-1.3,3.1-0.6c0.1,0.1,0.2,0.2,0.3,0.3l0,0c0.2,0.2,0.4,0.4,0.5,0.7l0,0c0.1,0.2,0.1,0.2,0.2,0.4v0.1
			C-587.4-629.7-587.4-629.6-587.4-629.4L-587.4-629.4z M-577.6-661.8v0.2c0,0.1-0.1,0.2-0.1,0.2c0,0.1-0.1,0.1-0.1,0.2
			c0,0.1,0,0.1-0.1,0.2c0,0.1-0.1,0.1-0.1,0.2l0,0c-0.5,0.7-1.2,1.1-2,1.1c-0.7,0-1.4-0.3-1.8-0.9l0,0c-0.1-0.1-0.2-0.2-0.2-0.3
			v-0.1c-0.1-0.1-0.1-0.2-0.2-0.2c0-0.1,0-0.1-0.1-0.2c0-0.1-0.1-0.2-0.1-0.2c0-0.1,0-0.3-0.1-0.4c0-0.8,0.4-1.5,1-1.9
			c0.4-0.3,0.8-0.4,1.3-0.4c0.5,0,0.9,0.1,1.3,0.4c0.6,0.4,1,1.2,1,1.9V-661.8z"/>
		<path id="Path_880" class="st6" d="M-530.8-638.9c-0.8,0-1.5,0.2-2.2,0.5l-13.9-18.1c1.5-2.1,1-5-1.1-6.5c-2.1-1.5-5-1-6.5,1.1
			c-0.6,0.8-0.9,1.7-0.9,2.7c0,1.1,0.4,2.2,1.2,3l-7.9,11.3c0.6,0.5,1.2,1.1,1.6,1.8l8.2-11.8c0.5,0.2,1.1,0.3,1.6,0.3
			c0.7,0,1.3-0.1,1.9-0.5l14,18.2c-0.5,0.7-0.8,1.6-0.8,2.5c0,2.6,2.1,4.6,4.7,4.6c2.5,0,4.5-2.1,4.6-4.6
			C-526.2-636.9-528.3-638.9-530.8-638.9C-530.8-638.9-530.8-638.9-530.8-638.9z M-548.4-658.8c0,0.1-0.1,0.2-0.1,0.3l0,0
			c-0.2,0.8-0.9,1.4-1.7,1.5l0,0c-0.2,0-0.3,0.1-0.5,0.1h-0.2c-0.8-0.1-1.5-0.6-1.9-1.3l0,0c-0.1-0.1-0.1-0.3-0.2-0.5l0,0
			c0-0.2-0.1-0.3-0.1-0.5c0-1.3,1-2.3,2.3-2.3s2.3,1,2.3,2.3C-548.4-659-548.4-658.9-548.4-658.8z M-530.8-632.1
			c-1.3,0-2.3-1-2.3-2.3c0-0.1,0-0.3,0.1-0.4c0.2-0.9,0.9-1.7,1.9-1.8h0.4c1.3,0,2.3,1,2.3,2.3
			C-528.5-633.1-529.5-632.1-530.8-632.1C-530.8-632.1-530.8-632.1-530.8-632.1z"/>
	</g>
</g>
</svg>
