<?xml version="1.0" encoding="utf-8"?>
<!-- Generator: Adobe Illustrator 22.1.0, SVG Export Plug-In . SVG Version: 6.00 Build 0)  -->
<svg version="1.1" id="Layer_1" xmlns="http://www.w3.org/2000/svg" xmlns:xlink="http://www.w3.org/1999/xlink" x="0px" y="0px"
	 viewBox="0 0 174.6 174.6" style="enable-background:new 0 0 174.6 174.6;" xml:space="preserve">
<style type="text/css">
	.st0{fill:#FFFFFF;}
	.st1{fill:#212C40;}
	.st2{fill:url(#SVGID_1_);}
	.st3{fill:none;stroke:#212C40;stroke-width:3;stroke-miterlimit:10;}
	.st4{fill:none;stroke:#212C40;stroke-width:3;stroke-miterlimit:10;stroke-dasharray:3.136,3.136;}
	.st5{fill:none;stroke:#212C40;stroke-width:3;stroke-miterlimit:10;stroke-dasharray:3.1666,3.1666;}
	.st6{fill:none;stroke:#212C40;stroke-width:3;stroke-miterlimit:10;stroke-dasharray:2.7003,2.7003;}
</style>
<g>
	<ellipse transform="matrix(0.7071 -0.7071 0.7071 0.7071 -36.161 87.3)" class="st0" cx="87.3" cy="87.3" rx="85" ry="85"/>
	<path class="st1" d="M87.3,3.8c46,0,83.5,37.4,83.5,83.5s-37.4,83.5-83.5,83.5S3.8,133.3,3.8,87.3S41.3,3.8,87.3,3.8 M87.3,0.8
		C39.6,0.8,0.8,39.6,0.8,87.3s38.7,86.5,86.5,86.5s86.5-38.7,86.5-86.5S135,0.8,87.3,0.8L87.3,0.8z"/>
</g>
<linearGradient id="SVGID_1_" gradientUnits="userSpaceOnUse" x1="91.1875" y1="65.2506" x2="91.1875" y2="127.2511">
	<stop  offset="0" style="stop-color:#65D2FF"/>
	<stop  offset="1" style="stop-color:#6ABC5C"/>
</linearGradient>
<path class="st2" d="M129.2,78.8c-0.4-2-0.9-3.9-1.7-5.7c-0.8-1.9-1.7-3.6-2.8-5.3c-1.1-1.7-2.4-3.2-3.8-4.6
	c-1.4-1.4-2.9-2.7-4.6-3.8c-1.7-1.1-3.5-2.1-5.3-2.8s-3.8-1.3-5.7-1.7c-1.9-0.4-3.9-0.6-5.9-0.6s-3.9,0.2-5.9,0.6
	c-2,0.4-3.8,0.9-5.7,1.7s-3.6,1.7-5.3,2.8c-1.7,1.1-3.2,2.4-4.6,3.8c-1.4,1.4-2.7,2.9-3.8,4.6c-1.1,1.7-2,3.5-2.8,5.3
	c-0.7,1.8-1.3,3.7-1.7,5.7c-0.4,1.9-0.6,3.9-0.6,5.9s0.2,3.9,0.6,5.9c0.4,2,0.9,3.9,1.7,5.7c0.8,1.9,1.7,3.6,2.8,5.3
	c0.2,0.4,0.5,0.8,0.8,1.1l-20.5,20.5c-2.3,2.3-2.3,6,0,8.3c2.3,2.3,6,2.3,8.3,0l20.5-20.6l-1.3-1.3c0.2,0.1,0.4,0.3,0.6,0.4
	c1.7,1.1,3.5,2.1,5.3,2.8s3.8,1.3,5.7,1.7c1.9,0.4,3.9,0.6,5.9,0.6s3.9-0.2,5.9-0.6c2-0.4,3.9-0.9,5.7-1.7c1.9-0.8,3.6-1.7,5.3-2.8
	c1.7-1.1,3.2-2.4,4.6-3.8c1.4-1.4,2.7-2.9,3.8-4.6c1.1-1.7,2-3.5,2.8-5.3c0.7-1.8,1.3-3.7,1.7-5.7c0.4-1.9,0.6-3.9,0.6-5.9
	S129.5,80.8,129.2,78.8z"/>
<polyline class="st3" points="65.3,86.3 76.9,78.1 86.2,87.3 97.1,65.6 100.7,80.5 106.9,62.7 113.3,91.6 116.1,80.5 126.1,80.5 "/>
<path class="st3" d="M125.5,80.4c0,2-0.2,4-0.6,5.9c-0.4,2-1,3.9-1.7,5.7c-0.8,1.8-1.7,3.6-2.8,5.3c-1.1,1.7-2.4,3.2-3.8,4.6
	s-2.9,2.7-4.6,3.8c-1.7,1.1-3.4,2-5.3,2.8c-1.8,0.8-3.7,1.3-5.7,1.7s-3.9,0.6-5.9,0.6s-4-0.2-5.9-0.6s-3.9-1-5.7-1.7
	s-3.6-1.7-5.3-2.8s-3.2-2.4-4.6-3.8s-2.7-2.9-3.8-4.6c-1.1-1.7-2-3.4-2.8-5.3c-0.8-1.8-1.3-3.7-1.7-5.7c-0.4-2-0.6-3.9-0.6-5.9
	s0.2-4,0.6-5.9c0.4-2,1-3.9,1.7-5.7c0.8-1.8,1.7-3.6,2.8-5.3c1.1-1.7,2.4-3.2,3.8-4.6c1.4-1.4,2.9-2.7,4.6-3.8s3.4-2,5.3-2.8
	s3.7-1.3,5.7-1.7s3.9-0.6,5.9-0.6s4,0.2,5.9,0.6s3.9,1,5.7,1.7s3.6,1.7,5.3,2.8c1.7,1.1,3.2,2.4,4.6,3.8c1.4,1.4,2.7,2.9,3.8,4.6
	c1.1,1.7,2,3.4,2.8,5.3c0.8,1.8,1.3,3.7,1.7,5.7C125.3,76.5,125.5,78.4,125.5,80.4z"/>
<path class="st3" d="M78.9,106.6l-20.5,20.6c-2.3,2.3-6,2.3-8.3,0c-2.3-2.3-2.3-6,0-8.3l20.6-20.6L78.9,106.6z"/>
<g>
	<g>
		<line class="st3" x1="125.5" y1="80.4" x2="126.1" y2="79"/>
		<line class="st4" x1="127.2" y1="76.1" x2="133.6" y2="60.1"/>
		<polyline class="st3" points="134.2,58.6 134.8,57.3 135.4,58.6 		"/>
		<line class="st5" x1="136.9" y1="61.4" x2="153.6" y2="93.8"/>
		<polyline class="st3" points="154.3,95.2 155,96.5 156,95.4 		"/>
		<line class="st6" x1="157.9" y1="93.4" x2="167.9" y2="82.5"/>
		<line class="st3" x1="168.9" y1="81.5" x2="169.9" y2="80.4"/>
	</g>
</g>
<polyline class="st3" points="65.3,86.3 56.5,60.5 45.8,96.5 33.5,70.5 24,86 11.2,72.8 2.2,82.8 "/>
</svg>
