<?xml version="1.0" encoding="utf-8"?>
<!-- Generator: Adobe Illustrator 22.1.0, SVG Export Plug-In . SVG Version: 6.00 Build 0)  -->
<svg version="1.1" id="Layer_1" xmlns="http://www.w3.org/2000/svg" xmlns:xlink="http://www.w3.org/1999/xlink" x="0px" y="0px"
	 viewBox="0 0 136.1 136.1" style="enable-background:new 0 0 136.1 136.1;" xml:space="preserve">
<style type="text/css">
	.st0{fill:#FFFFFF;}
	.st1{fill:url(#Path_821_1_);}
	.st2{fill:#212C40;}
</style>
<g transform="matrix(1, 0, 0, 1, 0, 0)">
	<rect id="Rectangle_92-3" x="-0.3" y="-0.2" class="st0" width="136.2" height="136.2"/>
</g>
<g>
	<linearGradient id="Path_821_1_" gradientUnits="userSpaceOnUse" x1="69.7899" y1="71.4622" x2="69.7899" y2="38.9468">
		<stop  offset="0" style="stop-color:#6ABC5C"/>
		<stop  offset="1" style="stop-color:#65D2FF"/>
	</linearGradient>
	<path id="Path_821" class="st1" d="M88.7,28.3c0-1.7-1.4-3.2-3.1-3.2c0,0,0,0-0.1,0H54c-1.7,0-3.2,1.4-3.2,3.1c0,0,0,0,0,0.1v42.2
		c0,1.7,1.4,3.2,3.1,3.2c0,0,0,0,0.1,0h25.6l9.1-9.1L88.7,28.3L88.7,28.3z"/>
	<g id="Group_250" transform="translate(506.002 687.664)">
		<path id="Path_814" class="st2" d="M-439.5-660.2l8.3,8.3h-2v8.7h-12.5v-8.7h-2L-439.5-660.2 M-439.5-661.9
			c-0.5,0-0.9,0.2-1.2,0.5l-8.3,8.3c-0.7,0.6-0.7,1.7,0,2.3c0.3,0.3,0.8,0.5,1.3,0.5h0.3v7.1c0,0.9,0.8,1.7,1.7,1.7c0,0,0,0,0,0
			h12.6c0.9,0,1.7-0.8,1.7-1.7c0,0,0,0,0,0v-7h0.3c0.7,0,1.3-0.4,1.6-1c0.3-0.6,0.1-1.4-0.4-1.8l-8.4-8.4
			C-438.6-661.7-439-661.9-439.5-661.9z"/>
		<path id="Path_815" class="st2" d="M-425.6-636.1h-27.7c-0.5,0-1-0.4-1-0.9c0-0.5,0.4-1,0.9-1c0,0,0,0,0.1,0h27.7
			c0.5,0,1,0.4,1,0.9S-425-636.1-425.6-636.1C-425.5-636.1-425.6-636.1-425.6-636.1z"/>
		<path id="Path_816" class="st2" d="M-425.6-630.8h-27.7c-0.5,0-1-0.4-1-0.9c0-0.5,0.4-1,0.9-1c0,0,0,0,0.1,0h27.7
			c0.5,0,1,0.4,1,0.9C-424.6-631.2-425-630.8-425.6-630.8C-425.5-630.8-425.6-630.8-425.6-630.8z"/>
		<path id="Path_817" class="st2" d="M-433.5-625.5h-19.8c-0.5,0-1-0.4-1-0.9c0-0.5,0.4-1,0.9-1c0,0,0,0,0.1,0h19.8
			c0.5,0,1,0.4,1,0.9C-432.5-626-432.9-625.5-433.5-625.5C-433.5-625.5-433.5-625.5-433.5-625.5L-433.5-625.5z"/>
		<path id="Path_818" class="st2" d="M-429.6-616.3H-455c-2.3,0-4.1-1.8-4.1-4.1c0,0,0,0,0,0v-41.8c0-2.3,1.8-4.1,4.1-4.1
			c0,0,0,0,0,0h31.2c2.3,0,4.1,1.8,4.1,4.1c0,0,0,0,0,0v36c0,0.3-0.1,0.5-0.3,0.7l-9,9C-429.2-616.4-429.4-616.3-429.6-616.3z
			 M-455-664.5c-1.2,0-2.2,1-2.2,2.2v41.8c0,1.2,1,2.2,2.2,2.2h25l8.4-8.4v-35.6c0-1.2-1-2.2-2.2-2.2L-455-664.5z"/>
		<path id="Path_819" class="st2" d="M-429.6-616.3c-0.1,0-0.3,0-0.4-0.1c-0.4-0.1-0.6-0.5-0.6-0.9v-5.8c0-2.3,1.8-4.1,4.1-4.1
			c0,0,0,0,0,0h5.8c0.5,0,0.9,0.4,1,0.9c0,0.3-0.1,0.5-0.3,0.7l-9.1,9.1C-429.2-616.4-429.4-616.4-429.6-616.3z M-426.5-625.3
			c-1.2,0-2.2,1-2.2,2.2v3.5l5.8-5.8L-426.5-625.3z"/>
		<g id="Group_249" transform="translate(16.885 12.297)">
			<path id="Path_820" class="st2" d="M-459.1-659.7h1.1v-2.3h-1.1v-0.9h1.1v-1.1c0-1.3,1-2.4,2.3-2.4c0.1,0,0.1,0,0.2,0
				c0.7,0,1.5,0.2,2,0.7l-0.9,1c-0.3-0.3-0.7-0.5-1.1-0.4c-0.7,0-1.3,0.5-1.3,1.2c0,0,0,0.1,0,0.1v0.9h1.8v0.9h-1.8v2.3h2.7v1h-5.1
				v-1H-459.1z"/>
		</g>
	</g>
</g>
</svg>
