<?xml version="1.0" encoding="utf-8"?>
<!-- Generator: Adobe Illustrator 22.1.0, SVG Export Plug-In . SVG Version: 6.00 Build 0)  -->
<svg version="1.1" id="Layer_1" xmlns="http://www.w3.org/2000/svg" xmlns:xlink="http://www.w3.org/1999/xlink" x="0px" y="0px"
	 viewBox="0 0 174.6 174.6" style="enable-background:new 0 0 174.6 174.6;" xml:space="preserve">
<style type="text/css">
	.st0{fill:#FFFFFF;}
	.st1{fill:#212C40;}
	.st2{fill:url(#SVGID_1_);}
</style>
<g>
	<ellipse class="st0" cx="87.3" cy="87.3" rx="85" ry="85"/>
	<path class="st1" d="M87.3,3.8c46,0,83.5,37.4,83.5,83.5s-37.4,83.5-83.5,83.5S3.8,133.3,3.8,87.3S41.3,3.8,87.3,3.8 M87.3,0.8
		C39.6,0.8,0.8,39.6,0.8,87.3s38.7,86.5,86.5,86.5s86.5-38.7,86.5-86.5S135,0.8,87.3,0.8L87.3,0.8z"/>
</g>
<linearGradient id="SVGID_1_" gradientUnits="userSpaceOnUse" x1="85.2999" y1="26.5256" x2="85.2999" y2="166.5276">
	<stop  offset="0" style="stop-color:#65D2FF"/>
	<stop  offset="0.2013" style="stop-color:#65D2FC"/>
	<stop  offset="0.3585" style="stop-color:#65D0F2"/>
	<stop  offset="0.5007" style="stop-color:#66CEE1"/>
	<stop  offset="0.6341" style="stop-color:#67CBCA"/>
	<stop  offset="0.7613" style="stop-color:#68C7AC"/>
	<stop  offset="0.8822" style="stop-color:#69C287"/>
	<stop  offset="1" style="stop-color:#6ABC5C"/>
</linearGradient>
<path class="st2" d="M7.8,87.2c0,0.1,0,0.3,0.1,0.3l0.3-0.6H7.8C7.8,87.1,7.8,87.1,7.8,87.2z M31.2,66.2c-1.9-0.9-0.6,1.2-1.2,1.6
	C31.4,68.6,31.2,67,31.2,66.2z M6.5,86.8c0,1,1.3,1.3,1.3,0.4C7.5,86.5,6.5,85.5,6.5,86.8z M74.3,76.6c-0.4-0.9-1-1.9-2.1-1.8
	c-0.6,0-1.9,0.7-2.5,1c-0.7,0.3-1.9,1.3-2.2,0c-0.1-0.7,1-1.3,1.6-1.6c1.3-0.7,3.7-1.9,2.1-3.8c-0.3-0.4-0.4-0.7-1-0.6
	c-0.1,0.7-0.1,1.5,0.6,1.6c0.1,0.7-0.3,1.2-1,0.9c-0.4-0.3-0.3-1.3-0.4-1.8c0-0.3,0-0.4-0.1-0.6c-0.3-1.2-0.9-1.6-2.1-2.4
	c0.6-0.6,0.7-1.3,0.3-1.9c-0.3-0.3-0.9,0-1-0.3c-0.1-0.1-0.1-0.6-0.1-0.9c0-0.3,0.1-0.6,0.1-0.7c0.1-2.8-1.6-1.8-3.6-2.5
	c-0.9-0.3-1.3-0.9-2.4-0.7c-0.6,0.1-1.6,0.6-2.2,0.9c-0.6,0.3-1.6,0.7-2.7,1c0-0.1,0.1-0.3,0.1-0.4c-0.4,0-1,0-1.5-0.3
	c-0.1,0-0.1-0.1-0.3-0.1c-2.1-1-4.1-3.8-6.1-3.6c-0.1,1.2,1.3,1.2,1.6,2.2c-1.2,0.1-1.8-0.4-2.8-0.1c-1.3,0.4-1,1-0.6,2.4
	c0.3,0.9,1,1.9,0.6,3c-0.4,0.6-1.9,2.2-2.5,2.1c0.6-0.3,0.6-1.2,0-1.6c0.6-0.3,0.3-0.4,0.4-1c0.3-1,0.1-0.4-0.1-1.3
	c-0.1-0.4-0.4-0.7-0.4-1.2c-0.1-0.4,0.1-1.2-0.1-1.6c-0.6-0.9-2.5-0.7-2.2,0.6c0,0.1,0.9,0.4,1,0.7c0.1,0.3,0.1,1,0.3,1.3
	c-0.6-0.1-1.5-1.3-1.5-1.9c-1.6-0.4-1,1.3-0.9,2.1c-0.9,0-1.3-1-1.3-1.9c-1.3-0.1-1.9,1.2-3.4,1.3c-0.6,0-1.5-0.1-1.9,0.4
	c-0.3,0.4,0,1.6-0.1,2.2c-1.3,0-2.7,1.3-1,2.1c-0.6,0.3-1.6,0.3-1.5,1.2c0.7,0,2.1,0,1.9,0.9h-0.6v0.9c-0.9,0.3-1.3-0.4-2.2-0.4
	c-0.1,0.9,1,1,1,1.8h-2.7c0,0.9-1,0.9-1.8,1.2V75c1,0.1,1.9,0.3,3,0.1c0.9-0.1,2.4-0.3,1.3,1c1-0.4,2.4-1.2,3.6-1.2
	c0.1,0.7-0.6,1.2-0.9,1.8c-0.3,0.7-0.3,1.5-0.3,2.2c-0.9,0-1.8-0.1-2.5,0.4c-0.6,0.4-1.2,1.3-1.9,1.8c-0.4,0.3-2.2,0.7-1.8,1.5
	c0.3,0.6,1.8,0,2.2,1c-0.1,0-0.4,0.1-0.7,0.1V85c-1-0.4-0.7-1.3-1.9-1.3c-1,0-1.5,0.4-2.4,0c-0.9-0.3-1.3-0.7-2.5-0.4
	c-0.3,0.1-0.4,0.1-0.7,0.3c-0.6,0.4-0.6,1-0.6,2.1c-1.5,0.3-0.7-1.5-1.2-2.2c-0.4-1-1.6-0.6-2.8-0.6c-1,0-1.6-0.4-2.7-0.7
	c-1-0.4-2.2-0.3-3.1-0.6c0,0.4,0.3,0.9,0.6,1.2c-0.4,0.4-1,0.7-1.6,1v0.4c-0.1,0.1-0.3,0.1-0.4,0.1v0.4c-0.6,0.1-0.6,0.3-0.6,0.7
	c0.7,0.3-0.1,0.9,0,1.6c0.6,0,1.2-0.1,1.8-0.1c0,0.2-0.1,0.3-0.2,0.5L10,87.7c-0.3,0-0.6,0.1-1,0.1c0,0.3,0.3,0.7,0.8,0.6
	c-0.1,0.2-0.1,0.5-0.1,0.7c0.6,0.1,0.9,0.7,0.9,1.3C10.2,90.6,9.4,90.7,9,91c0-1.4-0.8-1.7-1.9-1.6c-1.6,0.1-2.5-0.1-2.4,1.8h1.5
	c0.3-0.7,1.5,1.2,2.5,1.2c0-0.1,0-0.3,0.1-0.4c0.2,0.5,1,0.7,1.5,0.7c0.7,0,1.6-0.9,2.4-0.4c0.9,0.4,1.2,1.6,0.9,2.1
	c-0.7,1-3,0.1-4,1.3c-0.9,1-0.4,2.8,0.9,3.4c-0.9,0.3-3-1-3,0.6c-0.9,0-1.8,0.1-2.2,1c0,0.1,0,0.3-0.1,0.3c0,0.1,0,0.3,0.1,0.6
	c0.3,0.3,0.9,0.4,1.2,1c-0.4,0-0.7,0.1-0.9,0.3c0,0.3,0.1,0.7,0.1,1c0.1,0,0.3,0.1,0.4,0.1c0,0,0.6-0.3,0.7-0.3s0.4,0.3,0.7,0.3
	c0.7,0.1,1.3,0,1.9-0.1c0,1-1.8,0.7-1.3,1.9c0.3,0.7,1.9,0.7,2.5,0.7c-0.3-1.6,1.3-1,1.9-1.2c0.4,0.7,0,1.5-0.1,2.2l-0.3,0.1
	c-1,0-1.6,1.3-0.4,1.2c0.3-0.3,0.4-0.6,0.6-0.9c0,0.1,0,0.4,0.1,0.6c0.1,0,0.3,0.1,0.4,0.1c0-0.3,0.1-0.6,0-0.9
	c0.6,0.1,0.6,0.7,1.2,0.9c0.6,0.1,1.2-0.1,1.8-0.3c1.3-0.1,2.7,0,4,0v0.6c0.4,0,0.9,0,1.3-0.3c0.3-0.1,0.6-0.4,0.7-0.7
	c0,0.6-0.6,0.9-0.3,1.6c0.3,0.1,0.4,0.3,0.6,0.6c-0.4,0.4-0.7,0.3-1,0.1c-0.1,0-0.4-0.1-0.6,0c-0.4,0.1-0.7,1-1.2,1.2
	c-1,0.1-2.5-2.8-2.5,0.1c-0.7,0.7-1.2,2.5-2.5,2.8c-0.1,0.4-0.3,1-0.1,1.6s0.6,0.7,0.4,1.5c-0.7,0.4-1,1.3-1.6,2.1
	c-0.6,0.6-1.3,1.2-2.1,1.8c0.3,0.6,0.6,1.2,0.7,1.8c1.2-0.1,2.5,0.3,3.7,0.4c1.3,0,2.1,0,2.7-0.4c0.3-0.1,0.3-0.7,0.6-0.9
	c0.3-0.1,0.9-0.3,1.2-0.4c0.6-0.3,1-0.9,1.6-0.9h0.1c0.4,0,1.3,0.9,1.9,1c0,0.9-1.3,1.2-2.2,1.2c-0.1,0-0.3,0-0.3,0
	c-1.2,0.1-1.9,0.6-3,0.7c-1.6,0.3-3.4,0.7-5.2,0.9c4.1,8.1,9.6,15.7,16,22.1c1-0.3,1.8-0.7,1.9-1.3c0.4-1.2-0.7-3-1.5-3.7
	c1.2-0.1,2.2,0.6,3.4,0.3c-0.7,0.4-1.2,1.3-0.6,2.1c0.6,1,1,0.4,1.9-0.1c0.3-0.3,0.7-0.4,1-0.6c0.1-0.1,0-0.4,0.1-0.6
	c0.1-0.1,0.6,0,0.7-0.1c0.6-0.4,1.5-1.3,1.5-2.1c1.3,0,2.2-0.1,3.6-0.1c0.3-0.3,0.4-0.3,0.7-0.4c0.4-0.6,0.1-0.6,0.3-0.9
	c0.3-0.7,0.6-1.3-0.4-1.8c0.7,0,1.6,0.1,2.2-0.1c0.9-0.3,0.9-0.7,1.9-0.9c0.7,0,1.3,0.1,2.1,0c0.6-0.1,1.2-0.6,1.9-0.4
	c0,0.4,0.1,0.7,0.1,1c1,0.3,1-1.3,0.9-2.1c0.3-0.3,0.4-0.3,0.7-0.3c0.4,0.6,0.4,1.3,0.4,1.9h0.7c0.1-0.7,0.9-1,0.6-1.9h0.1
	c0.1,0,0.1,0,0.3,0c0.6,0,1.3-0.1,1.9,0c0.4,0.1,0.7,0.9,1.5,0.9c0.4,0,1-0.4,1.6-0.4c0.6-0.1,1.3,0,1.9,0c0.6-1.6-1-1.8-1.2-3
	c1-0.3,1.2-1.3,1.5-2.1c0.4-0.9,1.2-1.3,1.6-2.1c0.6-0.9,0-2.2,0.3-3.1c0.1-1,0.9-2.1,1.3-3c0.9-1.8,2.2-3.8,1.8-5.9
	c-0.4-2.1,0.9-4.4-0.6-6.4c-0.6-0.9-1.9-1.8-1.9-3.1c1.5,0,2.4-0.3,2.5-1.6c0-0.9-0.3-2.4-0.3-3.6c-1.5-0.1-2.4-3-2.5-4.1
	c0-0.7,0.4-2.4,0.1-2.8c-0.4-0.7-1.6-0.4-2.4-0.6c-0.1-1,0.3-2.1,0-3c0.9-0.4,2.1,0.3,3.1,0.3c0.4-1.2,0.1-2.4-0.7-3h0.6
	c0.9,0.1,0.6,0.4,1.3,1c0.6,0.4,1.2,0.7,2.1,0.1c1.2-0.7,0.4-0.9,0.7-2.1c0.3-0.9,0.7-1.3,1.3-1.5c0.6-0.1,1.3-0.3,2.1-0.3
	c1-0.1,3-1,2.8-2.2c-0.7-0.1-1.3-0.6-2.1-0.9c0-0.6-0.1-1.3-0.1-2.2c-0.1-0.9-0.1-1.8,0-2.5c0.3-0.1,0.7-0.3,1-0.3
	c0,0.7,0,2.5,0.3,3.7c0.1,0.7,0.6,1.2,1.2,1c0-0.1,0-0.1,0.1-0.3c0.3-0.9,0-1.5-0.1-2.4C74.6,78.5,74.9,77.5,74.3,76.6z M47.9,86.5
	c0-0.1,0-0.1,0-0.3c0.1-0.1,0.3-0.3,0.4-0.3C48.2,86.1,48.1,86.3,47.9,86.5z M12.6,112.1c-0.1-0.1-0.1-0.1-0.1-0.4
	c-1-0.7-1.6-1.9-3.1-1.8c-0.3,1.3,0.7,1.8,1.8,1.8C11.4,112.4,12.4,113.6,12.6,112.1z M5,98.5c0,0.1,0,0.3,0.1,0.4
	C5.2,98.6,5.2,98.5,5,98.5z M48.2,23.7c-0.7-0.4-0.7-0.6-0.7-1.5c-1.2-0.7-1.6,2.7-1.6,3.4C46.6,25.8,47.5,24,48.2,23.7z M66.4,15.7
	c0.3-0.7,0-1.2,0-2.1c0-0.6,0.4-1,0.7-1.6c-0.1,0-0.4,0.3-0.7,0.4C66,12.9,66,13.2,66,14c0,0.6-0.1,1.2,0.1,1.8
	C66.3,15.7,66.4,15.7,66.4,15.7z M127.4,17.7c-0.4,0.3-0.9,0.7-1.2,1.3C126.7,18.6,127.3,18.1,127.4,17.7z M54.6,36.9
	c0.1-0.7,0.1-0.9,0.9-1.5c0.4-0.3,1.5-0.3,1.3-0.9v0.1c-1.3,0-2.5,0.1-3.7,0.4c-0.1,0.7,0.1,1.2,0.6,1.6
	C54,37.2,54.3,37.6,54.6,36.9z M49,21.4c0.3,0.1,1.3-0.1,1.5-0.4c0.3-0.4-0.4-0.9-0.6-1.2c-0.1-0.4-0.1-0.9,0-1.5
	c0.1-0.6,0.4-0.6,0.7-1.2c0.7-1.2-1.5-0.6-1.6-1.6c0.3,0,0.7-0.3,1.2-0.3c-0.6-0.3-1.9-1.8-2.4-0.4c-0.3,0.9-0.1,2.8,0,3.7
	C47.9,19.1,48.1,21.1,49,21.4z M50.2,12.9c-0.1,0.1-0.4,0.1-0.6,0.3c0.3,0,0.7,0.1,1,0.1C50.4,13.2,50.3,13.1,50.2,12.9z M8.1,85.3
	c0-0.3,0.3-0.4,0.3-0.9c0.9,0,1.2-0.9,1.9-1c-0.6-0.7-1.3-0.7-2.2-0.6c0,0.3-0.1,0.6,0,0.9c-0.3-0.1-0.4,0-0.7-0.3
	c0.1,0.7-0.1,1.5-0.9,1.5C6.3,86.1,7.4,85.6,8.1,85.3z M76.2,55.4c-1.6,1-0.6,3.6-0.4,5.2c1.5,0.3,4.6,1.2,2.8-1.5
	c0.4,0,0.4-0.7,0.7-1c-1.6-0.1-0.3-1.3-0.6-2.1C78.3,55.1,76.8,55,76.2,55.4z M57.4,33.7c1.6,0.1,2.4-1.3,3-2.8
	C58.9,30.8,57.3,32.2,57.4,33.7z M163.7,115.4h-1.2c-0.1,0.4-0.1,1-0.1,1.5c-1.3,0.6-1.2,1.5-1.9,2.7c-0.6,0.9-1.3,0.9-2.1,1
	c-0.1,0-0.4,0.1-0.6,0.3c0-1.3-1.2-2.7-2.5-2.7c0.4-1.3,1.5-2.4,2.4-3.4l0.1-0.1c1.2-1.3,1.5-2.5,1.3-4.3c-0.1-1.5-0.4-3.3-1.3-4.4
	c-0.4-0.7-2.8-2.5-3.3-2.1c-0.6-0.4-0.7-1.3-1.6-1.6c-0.4-0.1-1,0.3-1.3,0.1c-0.4-0.1-0.6-0.7-0.9-1c-0.4-0.4-0.9-0.7-1.3-0.9
	c-1.3-0.4-3-0.3-4.4-0.3c-0.6,0-3,0.4-2.5-0.6c0.3-0.7,2.2-0.3,2.8-0.3c0.4,0,0.9,0.4,1.3,0.4c0.6,0,0.7-0.4,1.2-0.7
	c0.7-0.3,1.2-0.3,1.6-0.1c0.3,0.1,0.6,0.3,0.9,0.6c0.6,0.4,0.9,0.9,1.6,1c0.7,0.3,1.8-0.1,2.5,0.1c0.3,0,1.3,1.3,1.5,0.3
	c0-0.3-1.3-1.5-1.5-1.8c-0.9-1-1.5-2.5-2.2-3.8c-0.7-1.3-1.6-2.7-2.8-3.6c0.7-0.7,2.2-1.8,2.1-3c-2.1-0.6-3-1.3-3.7-3.4
	c-0.6-1.6-1-3.7-2.5-4.9c-1.5-1.2-3.3-1.3-5-1.8c-1.6-0.4-3.8-0.9-5.6-0.4c-0.1-1.2-1-2.4-1.3-3.7c-0.3-1.3-0.9-2.5-1.6-3.4
	c-0.4-0.4-1-0.9-1.3-1.5c-0.3-0.6,0-1.5-0.1-2.2c0-0.3-0.1-0.6-0.1-0.7c-0.3-1-0.7-1.9-1.5-2.5c1.2-1.9,0-3.6-0.6-5.5
	c-0.1-0.7-0.3-1.9-0.9-2.7c-0.7-1-2.2-1.5-3.3-2.4c-0.9-0.7-1.5-1.6-2.1-2.5c-0.4-0.7-0.7-2.1-1.5-2.5c-0.7-0.6-2.1-0.1-3-0.6
	c-0.4-0.1-0.7-0.6-1.2-0.7c-0.4-0.1-1.2,0-1.5-0.1c-0.9-0.4-1-1.6-1.9-2.1c-0.7-0.3-2.1-0.3-2.8,0c0.3,4.4-10.1,2.4-12.4,2.2
	c-0.3-1-0.6-1.9-1.2-2.7c0.3,0.1,0.9,0.1,1.2,0.3c0.4,0.3,0.4,0.7,0.7,0.9c0.7,0.4,2.1,0.3,2.8,0.4c1.9,0.3,4,0,5.2-1.6
	c0.7-1,0.7-1.8,2.1-2.2c0.9-0.3,1.8-0.4,2.7-0.7c2.2-0.6,3-3.3,0.3-3.7c-0.4-0.1-1-0.1-1.3,0.1c-0.1-1-1.2-1.8-2.2-1.5
	c-1.3,0.4-0.9,1.9-2.8,1.8c0.4-0.4,0.9-1,0.9-1.9c1-0.6,2.7-0.7,3.7-0.9c1.2-0.1,2.1-0.6,3.1-0.7c0.3-0.3,0.4-0.9,0.4-1.3
	c2.5-0.9,1.5-3.7,2.7-5.5c0.4-0.7,1.2-1.3,1.6-2.2c0.4-1,0.1-2.1,0.6-3.1c0.4-1.2,1.3-1.5,1.3-2.8v-0.6c0-0.9-0.1-1.5,0.3-2.5
	c0.7-1.8,2.4-3.3,2.4-5.2c-4.6-2.5-9.8-4.3-15.1-5.5c0,0,0,0-0.1,0c-0.9,0.3-1.3,0.9-2.4,0.7c-1.6-0.3-3-1-4.7-0.4
	c-0.7,0.3-1.5,0.9-2.2,1.2c-0.6,0.3-1.6,0.1-1.6,1c-1.9,0.6-3.4,1.3-4.4,3.3c-0.7,0.3-1.8,0.1-2.5,0.1c1.3-0.7,4.3-2.5,3.8-4.3
	c-0.7,0.1-1.3-0.1-1.3-1C92.3,6,93.2,7,94.1,6c0.3-0.3,0.6-1,0.9-1.6c-2.4-0.3-4.7-0.4-7.1-0.4c-5.6,0-11,0.6-16.3,1.6
	c-0.1,0-0.4,0.1-0.6,0.1c-0.4,0.1-0.9,0.1-1.2,0.3c0.1,0.6,0.3,1,0.4,1.2c-1.9,0.3-1.2,1.2-0.3,2.2c0.6,0.7,2.5,1.2,2.7,1.8
	c-1,0-1.5,0-2.2-0.4c-0.4-0.3-1.2-1.3-2.1-0.6c-0.6,0.4-0.1,4.6,0.1,5.3c1.5,0.4,1.6-1.5,2.7-1.2c0.4,0.1,0.4,1,1,1
	c0.6,0,0.7-0.6,1.3-0.7c0.1,1.9-1.8,0.9-2.7,1c-0.3,1.3,1.3,1.5,2.4,1.8c0.1,0.1,0.4,0.4,0.4,0.7c-0.7-0.4-2.5,0.1-2.1,1.3
	c0.6,0.7,1.5,0.9,2.1,1.5c-0.4,0.4-1.2,0.3-1.8,0.1c-0.7-1.3-1.9-0.8-2.7,0c0.2-0.4,0.2-0.8,0.1-1.1c0.7-0.3,1.3-0.4,1.8-1.3
	c0.4-1-0.3-1.9-1.3-1.3c-1,0.6-1.5,0.7-2.5,0.1c-0.7-0.4-1-1.2-1.9-1c-0.1-0.4-0.1-1.2-0.3-1.6c-0.1-0.6-0.3-1.2-0.3-1.9
	c-0.1-1.2,1-2.1,0.1-3c-0.3-0.4-0.7-0.9-1-1.3c-0.3-0.3-0.3-0.9-0.6-1.2C62.7,7.6,62,7.9,61.4,8c-0.3,0.6-0.4,1.2-0.3,1.5
	c0.1,0.4,1,1.3,0.9,1.9c-0.3,0.6-1.2,0.3-1.6,0c-0.4-0.3-1.2-2.1-1.9-2.2c-0.1,0-0.3,0.1-0.3,0.1c-0.3,0.3,0,1.2,0.1,1.5
	c0.3,0.3,0.9,0.4,0.9,0.9c-1.2,0-0.3,0.6-1,0.9c-0.4-0.3-0.3-1.3-0.9-1.3c0,0.4,0.3,1,0,1.5c-0.1,0.3-0.6,0-0.7,0.3
	c-0.1,0.4,0.3,0.6,0.4,0.9c0.4,0.4,0.3,0.9,0.6,1.3c0.4,0.4,1,0.4,1.6,0.4c0.1-0.4,0-0.9,0.1-1.3c1-0.1,2.7,2.1,0.9,1.3
	c0.3,0.4,0.1,1,0.4,1.5c0.1,0.3,0.9,0.6,1.2,0.7c0,0.3-0.3,0.9,0,1.2c0.1,0.3,0.9,0.3,1,0.3c0.4,0.1,0.6,0.4,1.2,0.4
	s0.7-0.6,1.2-0.6c0,0.3-0.3,1.5,0.6,1.2c0.3-0.1,0.6-1.3,0.4-1.6c0.6,0,0.6,0.9,1.3,0.7c0.1,0.7-2.5,2.5-1.2,3.4
	c0.7,0.5,1.6-0.1,2.3-0.9c-0.1,0.5-0.1,0.9,0.3,1.2c0.3,0.3,3-0.7,2.2,0.6c-0.3,0.6-2.1,0-2.7,0c-0.3,0.4-1,1.9-0.9,2.5
	c0,0.3,0.1,0.4,0.6,0.3l0.7,0.4v0.7c-0.6,0.1-0.6,0.7-0.4,1.3c-1,0.3-1.3-0.6-2.1-0.7c-0.4,0.7-1.6,0.3-2.4,0.9
	c-1,0.7-0.6,1.3,0.3,1.8c1,0.4,5.2-0.6,4.9,0.4c-0.3,1-2.1,0-2.5,0.7c-0.7,1.3,1.2,1.5,1.8,1.8c1,0.4,1.5,1.2,2.5,0.6
	c0.3-0.1,0.6-0.6,0.7-0.7c0.4-0.3,0.7-0.3,1.2-0.6c0.9-0.7,1.5-1.5,2.2-2.2l1.5,1v0.1c-0.7,0-0.9,0.9-1.5,1.3
	c-0.6,0.4-1.3,0.6-1.9,1.2c1,0,2.1-0.3,3.1-0.1c-0.7,0.4-2.2,0.9-1.2,1.6c1.2,0.9,1.6-0.9,2.5-0.7c0.4,0,0.9,0.6,0.4,1
	c-0.3,0.4-1.2,0.3-1.6,0.3c-1.2,0-1.9,0-2.8,0.6c-0.9,0-0.4,0.7-0.3,1.3c-0.1,0-0.3,0-0.3,0c0,0.7-1.2,2.1-0.1,2.4
	c-0.4,0.6-0.6,1.3-0.7,2.2h0.9c-0.1,1.2-0.4,1.8-1.2,2.7c-0.4,0.7-1.5,1.6-1.2,2.7c0.7-0.3,0.4-1.3,1.2-1.6c0.1,1-1.2,1.5-1,3
	c0.3-0.1,0.6-0.3,0.9-0.4c0.1,0,0.1-0.1,0.3-0.1c-1.9,1.3-0.6,2.1-0.7,3.8c0.3-0.1,0.9-0.4,1.3-0.9c-2.4,2.4-2.8,6.4-3,9.5
	c-1.6,0.3-0.4,3,1,2.7c1-0.1,3.6-2.7,1.5-3.3c-0.1-1.2,0.6-2.8,0.9-3.8c0.3-1.3,1.2-1.9,1.8-3c0.6-1.2,0-2.4-0.3-3.4
	c-0.3-1-0.6-1.8-0.7-2.8l2.5-1.8c0,0,0,0.1-0.1,0.1c-0.7,1-1,2.2-0.9,3.6c0,0.3,0,1.6,0.7,1.3c0.4-0.1,0.3-1.3,0.3-1.8
	c1.2-0.4,3,0.4,2.1-1.6c0.4,0.4,0.1,1.5,0.6,1.9c0.9,0.7,0.9-0.6,1.2-1.2c0.6-1.8,0.6-3.3,0.7-5.2c0.3,0.4,0.4,0.9,0.9,1.2
	c0.1-0.3,0.3-0.4,0.4-0.7c0.3,0,0.6,0,0.9,0.3c0.1,1.2-1.8,1.5-1.6,2.8c0.3,1.9,1.9-0.1,1.8-1.3c0.4,0.6,0.4,1.5,1,1.9
	c0.6,0.6,1.3,0.6,1.9,1.2c-1.9-0.3-3.8-1.3-4.6,1c-0.4,1.3-0.9,4.3,0.1,5.2c1.3,1.2,2.7,1.6,2.8,3.7c0.1,1.2-0.3,1.5-1,2.4
	c-0.7,0.9-0.9,1.6-1.3,2.7c-0.7,1.8-3.8,5.3-3.6,7.8L78.6,72c-0.6-0.7-1.2-1.2-1.8,0c-0.1,0.4-0.1,0.9,0,1.3c0.3,0.7,1,1.5,1.5,1.9
	c-0.1,1.8,0.7,1,1.5,2.1c0.6,0.9,0.4,2.1,1,3h1.8c0.4-1.8-1.9-3.3-1.8-5.3c0.7-0.6,1.5,0.4,1.9,0.9c0.9,0.7,1.3,0.9,2.4,1.2
	c1,0.3,4.1,2.7,4.7,0.7c0.3-1-0.9-1.8-1.3-2.5c-0.6-1-0.3-1.5,0.7-0.4c1.6,1.5,3,1.5,5.3,1.3c1.5,0,1.9-0.3,1.8-1.8
	c1,0,2.1,0.1,3-0.3c1.3-0.4,1-1.2,1.2-2.5c1.6,0.1,4-1.2,5.3,0.1c-0.7,0-1,0-1.6,0.4c-0.7,0.4-0.4,1.2-1.6,0.6
	c-0.4,1.8-1.3,3-2.1,4.6c-0.1,0.4-0.1,0.9-0.3,1.2c-0.1,0.4-0.6,0.6-0.9,1c-0.4,0.9-0.4,1.8-0.3,2.7c1.5,0.7,2.2,2.1,2.8,3.6
	c0.1,0.4,1.8,5,2.2,3c0.4-0.1,0.7-0.4,1.2-0.4c0.3,1.2-0.7,1.6-0.9,2.7c-0.1,0.9,0.9,1.8,1.9,1.5c1.5-0.4,0.1-2.2,1.6-2.4
	c0.4,0,0.9,0.4,1.3,0.4c0.6,0,0.7-0.6,1.3-0.4c0.7,1-0.1,1.2-0.7,1.8c-0.9,0.9-0.9,0.7-0.1,1.6c0.3,0.3,1.5,0.6,1,1.3
	c0,0,0,0.1-0.1,0.1c-0.3,0.4-1.8,0.1-2.2,0.4c-0.9,1.3-0.7,3.1-0.1,4.4c0.4,1.2,0.7,0.9,0.1,1.9c-0.4,0.7-1,1-1,1.9
	c-0.1,1.3,1,3,1.8,4c0.9,1.3,2.1,2.2,3.6,2.7c0.1,1.6-1.6,0.1-2.1-0.3s-0.9-1.5-1.6-1.9c-0.9-0.4-2.1-0.4-2.4,0.4v0.6
	c0.1,0.7,1,1.2,0.9,2.4c-0.3,0.1-0.6,0.1-0.9,0c-0.6-0.1-0.9-0.9-1.5-1.2c-0.9-0.4-2.4-0.7-3.3-0.1c-1.2,0.7-1,1.5-2.5,1
	c-1.3-0.4-2.1-0.7-3.6-0.7c-0.1,0.4,0.1,0.9,0.4,1c-1,0-1.6,0.2-2.1,0.5c-0.2,0.1-0.5,0.2-0.7,0.2c-1,0-0.7,0.1-1.3-0.7
	c-0.7-0.9-1.3-1.8-2.4-2.1c-0.6-0.1-2.8-0.3-3.1,0.3c-0.7,0.7,0.7,2.1-1.5,2.1c-0.6,0.6-0.4,1,0,1.5c0.1,0.1,0.1,0.1,0.3,0.3
	c0.4,0.4,0.7,0.4,1,0.3l1.3,0.7c0.1,0.4,0,1,0.4,1.3c0,0,0.6,0.1,1.1,0.3c-0.1,0.2-0.1,0.4-0.2,0.6c-0.7,1.8-2.1,2.5-3.4,3.7
	c-1.2,0.9-1.9,1.6-2.5,2.7c-0.1,0.3-0.3,0.6-0.4,0.9c0.4,0.4,1.2,0.3,1.5-0.3v-0.1c0.6-0.1,1.5,0.4,2.1,0.1c0.4-0.3,0.6-1.3,0.7-1.8
	c1.5-0.9,3.8-0.9,5.6-0.9c0.1,1-1.2,1.6-0.6,2.5c0.4,0.7,1.8,0.1,1.6,1.5c-0.1,0.7-1.5,1.5-1.3,2.4c0.1,0.9,1.9,1,1.8,2.4
	c0,0.1-0.6,1-0.7,1.3c-0.1,0.6-0.1,0.9-0.4,1.3v0.1c-0.1,0.3-0.4,0.7-0.6,1c-0.3,0.4-0.6,0.7-0.9,1.2c-1,1.5-2.5,2.7-4,3.7
	c-0.9,0.6-1.8,0.6-2.8,1.2s-1.8,1.8-2.7,2.2c-0.9,0.6-1.8-0.4-3-0.4c-1.5,0.1-1.3,1-1.3,2.4c-1,0-2.8,0.3-2.7,1.8
	c0.7,0.1,1.5,0.1,2.2,0.1c0,0.7-0.1,1.5-0.1,2.2c-1.9,0-1.2,1.9,0.6,1.9c1.2,0,2.5-1.2,3.7-0.9c0,1-1.3,0.9-2.1,0.9
	c-1.6,2.7,3,3.6,2.5,1c1.3,1,2.5-1.2,3.7-1.5c1.8-0.4,2.8-0.3,3.8-1.8c0,1.2,0.1,1.9,1.2,2.5c0.7,0.4,2.4,0.3,2.8,1.3
	c-1.2,0.3-3,0-2.8,1.6c0,0,0,0.3,0,0.4c0.3,0,0.6,0.1,1,0.1h2.2c0.6,0,1-0.3,1.3-0.4c0.3-0.3,0.3-0.4,0.3-0.9c1.5,0,2.1,0.3,3,0.9
	c0.1,0,0.1,0.1,0.3,0.3c0.1,0.1,0.1,0.1,0.3,0.3c0.9,0.9,2.5,1,3.1,2.1c0.9,1.3,4,1.2,5.5,0.9c1.9-0.3,1.6-2.2,3-3.1h3.6v-0.1
	c0.4-0.7,1.5-1.5,2.1-2.2c0,0.3-1.3,1.9-1.9,2.7c0,0,0,0.1-0.1,0.1v0.1c-0.9,1-2.1,1.6-2.7,3.1c-0.6,1.3-0.7,2.8-0.9,4.3
	c-1.9,0.1-3.6,0.7-5.3-0.3c-0.4-0.3-0.9-0.3-1.2-0.4c-1.3-0.1-2.5,0.1-4-0.1c-1.9-0.6-3.7-0.3-5.6,0.1c-0.7,0.1-1.9,0.4-2.5,0.9
	c-1.3,0.9,0,0.9,0.4,1.8c-0.3,0-0.7,0.1-1,0.1c0,0.9,0.7,1.3-0.3,2.1c-0.9,0.6-1.8,0.1-2.8,0.1c-1.9,0.1-1.8,2.1-1.5,3.8
	c0,0.4,0.1,0.7,0.1,1v0.1c0.1,0,0.3,0,0.3,0c36.3,0,67.1-23.1,78.7-55.4C165.5,116,164.7,115.4,163.7,115.4z M80.1,54.4
	c0-1.3-0.7-3.4-2.4-3.6C77.7,51.6,79.6,54.1,80.1,54.4z M65.1,25.5c-1-0.7-1.3,1-1.3,1.6C64.8,27.9,65.1,26.3,65.1,25.5z M8,94.9
	c0.6,0.3,1.5,0.1,1-0.6v-0.1C8,93.6,7.5,94.2,8,94.9z M84.6,91.8c-0.3,0.6-1.3,1.6-1.2,2.4c2.1,0.4,4.6-1.5,5.3-3.3
	c0.1-0.4,0-1,0.3-1.5c0.3-0.4,1-0.6,1-1.2s-0.9-0.6-1-1.2c-0.1-0.4,0.4-1,0.3-1.5c-0.6,0.4-2.2,1-2.5,1.9c-0.4,0.9,0.1,1.9-0.3,3
	C85.1,90.2,85.1,90.8,84.6,91.8z M71.2,37.9c-0.1-0.1-0.1-0.7-0.3-1c-0.3-0.6-0.6-1.3-1.2-1.5c-0.7-0.3-1.3,0.4-2.2,0
	c-0.4-0.3-1.3-1-1.5-1.6c-0.3-0.7-0.3-1.5-0.7-2.1c-1.2-0.3-1.3,0.6-1.5,1.5c-0.9,0-1.6,0-1.8,1.2c-0.1,0-0.3,0-0.3,0
	c0,0.7,1,1.5,1.8,1.6c0.6-0.9,1,0,1.6,0c0.6,0,0.6-0.4,1.3-0.4c0.1,0.7-0.3,0.7-0.7,1c-0.7,0.4-0.6-0.1-1,0.7
	c-0.6,1.2,0.1,2.4,1.3,1.2c0.1,0.1,0.3,0.4,0.3,0.6c-1,0.7-3.4,0.3-4.6,0.3c-1,2.8,2.8,1.2,4,1c0.4-0.1,1.2-0.1,1.5-0.3
	c0.3-0.1,0.7-0.7,1-0.7c0.4,0,0.4,0.7,0.9,0.9s1,0.1,1.5,0C70.6,39.6,70.3,38.1,71.2,37.9z M67.3,49c-1.5,0.7-1.6,0-1.6,1.8
	c0,0.7,0,2.7,1.3,1.6c0.4-0.3,1-2.1,1-2.5c0.6-0.1,1-2.2,1.3-2.8c0.4-1.2,0.7-1.9,1.3-3.1c-1.2,0.4-3.8,3-4.4,4.1
	C67.5,47.6,68.7,48.3,67.3,49z M62.7,47.7c1,0.3,1.9-2.2,1.8-3.1C62.9,44.9,62.7,46.2,62.7,47.7z M64.1,60c0-0.1,0-0.3,0-0.3
	c-0.1-1.6-2.7-1.2-2.7,0.6c0.4,0.1,0.7,0.3,1.2,0.3c-0.1-0.3,0-0.4-0.3-0.7C63,59.7,63.5,59.9,64.1,60z M61.7,22.4
	c-0.7,0.3-1.2,1.2-0.4,1.3c0.3,0.4,0.6,1.8,1.5,1.5c0.6-0.3,0.4-0.9,0.4-1.6c0,0,0,0,0-0.1C63.5,22.7,62.3,22.3,61.7,22.4z
	 M60.1,52.3c-0.1,0.9-0.4,2.1-0.3,3c1-0.1,2.4-3,2.8-1.2c0-0.1-0.1,0.7-0.3,0.9c0,0.3,0.1,0.6,0.1,1v0.1c-0.1,0.6-0.4,1-0.6,1.6
	c1.6,0.1,1.9-0.7,3.1-1.6c0.9-0.7,1.2-1.5,1.2-2.5v-0.4c-0.9-0.7-1.3-1.5-1.3-2.4v-0.9c0-0.3,0.1-0.6,0.1-0.9c0,0-0.1,0-0.1,0.1
	c-0.6,0.4-1.2,0.9-1.6,1.6c-0.3,0.4-0.3,1-1,0.9c-0.4,0-0.4-0.7-0.7-0.9C60.2,50.2,60.4,51.3,60.1,52.3z"/>
<path class="st1" d="M81.5,61.2c-7.8,0-14.1,6.3-14.1,14.1c0,5.7,3.4,10.6,8.3,12.9L75,84.6c-2.9-2-4.8-5.4-4.8-9.2
	C70.2,69,75.2,64,81.5,64c6.3,0,11.4,5.1,11.4,11.4c0,0.4,0,0.8,0,1.1l1.3,5.3c1-1.9,1.5-4.2,1.5-6.4C95.7,67.5,89.2,61.2,81.5,61.2
	z"/>
<path class="st1" d="M81.5,55.5c-11,0-19.8,8.8-19.8,19.8c0,9.5,6.7,17.4,15.5,19.3l-0.6-3c-6.9-2.1-12.1-8.7-12.1-16.3
	c0-9.5,7.7-17.1,17.1-17.1c9.5,0,17.1,7.7,17.1,17.1c0,3.9-1.4,7.6-3.7,10.5l0.5,2c0.6-0.3,1.1-0.4,1.8-0.5c2.5-3.3,4-7.5,4-12
	C101.4,64.4,92.4,55.5,81.5,55.5z"/>
<path class="st1" d="M78.8,101.3l-0.6-2.8c-11.4-1.6-20-11.4-20-23.1C58.2,62.5,68.6,52,81.5,52c12.9,0,23.4,10.5,23.4,23.4
	c0,4.4-1.3,8.6-3.4,12.1c0.9,0.3,1.8,0.6,2.5,1.1c2.3-3.9,3.5-8.3,3.5-13.1c0.1-14.5-11.6-26.3-26-26.3S55.4,61,55.4,75.4
	C55.4,88.7,65.6,99.9,78.8,101.3z"/>
<path class="st1" d="M132.3,119.4l-4.8-19c-0.4-3.3-3.3-5.6-6.3-5.2c-2.5,0.4-4.4,2.4-4.8,4.9l-0.6-3c-0.4-3.3-3.3-5.6-6.3-5.2
	c-2.3,0.3-3.9,1.9-4.5,4c-0.4-3.3-3.3-5.6-6.3-5.2c-2.9,0.4-5.1,3.2-4.8,6.2l-5.2-22.5c-0.8-3-3.8-5.1-6.9-4.3
	c-3,0.8-5.1,3.8-4.3,6.9l8,34.7c-2.8-2.9-8.8-8.1-15.4-6.6c-9,2-5.1,5.9-2.9,6.7c2.1,0.8,11.4,8.2,16,16.8s11.6,16.7,28.4,14.7
	c15.2-1.8,20.6-13.3,21.4-18.6C132.8,124.4,132.8,121.6,132.3,119.4z"/>
</svg>
