<?xml version="1.0" encoding="utf-8"?>
<!-- Generator: Adobe Illustrator 22.1.0, SVG Export Plug-In . SVG Version: 6.00 Build 0)  -->
<svg version="1.1" id="Layer_1" xmlns="http://www.w3.org/2000/svg" xmlns:xlink="http://www.w3.org/1999/xlink" x="0px" y="0px"
	 viewBox="0 0 136.1 136.1" style="enable-background:new 0 0 136.1 136.1;" xml:space="preserve">
<style type="text/css">
	.st0{fill:#FFFFFF;}
	.st1{fill:url(#Path_841_1_);}
	.st2{fill:#212C40;}
</style>
<g id="Group_247-2" transform="translate(542 -71)">
	<g transform="matrix(1, 0, 0, 1, -542, 71)">
		<path id="Path_866-2" class="st0" d="M-0.2-0.4h136.4v136.7H-0.2V-0.4z"/>
	</g>
</g>
<g id="Group_255" transform="translate(807.8 686.664)">
	<linearGradient id="Path_841_1_" gradientUnits="userSpaceOnUse" x1="-737.4789" y1="-654.7018" x2="-737.4789" y2="-610.2555">
		<stop  offset="0" style="stop-color:#65D2FF"/>
		<stop  offset="1" style="stop-color:#6ABC5C"/>
	</linearGradient>
	<path id="Path_841" class="st1" d="M-737.4-662.1L-737.4-662.1c-11,0-19.9,8.9-19.9,19.8c0.2,4.5,1.6,8.9,3.9,12.7
		c3.7,5.7,14.4,18.4,15.9,20.4c0,0,0,0.1,0.1,0.1c0,0,0,0,0,0l0.1-0.1c1.5-1.8,12.2-14.6,15.9-20.4c2.3-3.8,3.6-8.2,3.8-12.7
		C-717.7-653.2-726.5-662.1-737.4-662.1z"/>
	<path id="Path_842" class="st2" d="M-740.4-611.5l-0.5-0.1l-0.5,0.1l-0.3-0.4l-0.2-0.2c-1.6-1.8-12.2-14.5-15.9-20.4
		c-2.5-4-3.9-8.6-4.1-13.3c0-5.6,2.2-10.9,6.1-14.8c3.9-3.9,9.2-6.1,14.8-6.1l0.1,1.1v-1.1l0,0c11.5,0,20.9,9.4,20.9,20.9
		c-0.2,4.7-1.6,9.3-4.1,13.3c-3.6,5.7-13.7,17.8-15.9,20.4c-0.1,0.1-0.2,0.2-0.2,0.3L-740.4-611.5z M-741-664.4
		c-5,0-9.7,1.9-13.2,5.4c-3.5,3.5-5.4,8.3-5.4,13.2c0.2,4.3,1.5,8.4,3.7,12.1c3.2,5.1,12.1,15.8,15,19.2l0.1-0.1l0,0
		c3.2-3.8,11.8-14.2,14.9-19.2c2.2-3.7,3.5-7.8,3.7-12.1c0-10.2-8.3-18.6-18.5-18.6C-740.8-664.4-740.9-664.4-741-664.4L-741-664.4z
		"/>
	<g id="Group_254" transform="translate(14.996 11.63)">
		<path id="Path_843" class="st2" d="M-757.6-652.9v-1.5c0-1.6,0.4-2,1.5-3.1l2.1-2.1c0.5-0.5,0.7-1.1,0.7-1.8c0-1.3-1-2.3-2.2-2.4
			c-0.1,0-0.1,0-0.2,0c-1.4,0-2.6,1.2-2.7,2.6l-3.4-0.2c0.3-3.2,3-5.6,6.3-5.4c3.2,0,5.7,1.8,5.7,5.2c0,2.3-1.4,3.4-2.9,4.9
			c-1,0.9-1.5,1.3-1.5,2.7v1L-757.6-652.9L-757.6-652.9z M-756-651.2c1.1,0,2,1,2,2.1c0,1.1-1,2-2.1,2c-1.1,0-2-1-2-2.1
			C-758.1-650.3-757.1-651.3-756-651.2z"/>
	</g>
</g>
</svg>
