<?xml version="1.0" encoding="utf-8"?>
<!-- Generator: Adobe Illustrator 22.1.0, SVG Export Plug-In . SVG Version: 6.00 Build 0)  -->
<svg version="1.1" id="Layer_1" xmlns="http://www.w3.org/2000/svg" xmlns:xlink="http://www.w3.org/1999/xlink" x="0px" y="0px"
	 viewBox="0 0 174.6 174.6" style="enable-background:new 0 0 174.6 174.6;" xml:space="preserve">
<style type="text/css">
	.st0{fill:#FFFFFF;}
	.st1{fill:#212C40;}
	.st2{fill:url(#SVGID_1_);}
</style>
<g>
	<ellipse transform="matrix(0.7071 -0.7071 0.7071 0.7071 -36.161 87.3)" class="st0" cx="87.3" cy="87.3" rx="85" ry="85"/>
	<path class="st1" d="M87.3,3.8c46,0,83.5,37.4,83.5,83.5s-37.4,83.5-83.5,83.5S3.8,133.3,3.8,87.3S41.3,3.8,87.3,3.8 M87.3,0.8
		C39.6,0.8,0.8,39.6,0.8,87.3s38.7,86.5,86.5,86.5s86.5-38.7,86.5-86.5S135,0.8,87.3,0.8L87.3,0.8z"/>
</g>
<g>
	<linearGradient id="SVGID_1_" gradientUnits="userSpaceOnUse" x1="90.35" y1="71.7756" x2="90.35" y2="136.3148">
		<stop  offset="0" style="stop-color:#65D2FF"/>
		<stop  offset="1" style="stop-color:#6ABC5C"/>
	</linearGradient>
	<path class="st2" d="M92.5,76.7l-1.8-0.4V75c-0.3-0.1-0.6-0.3-1-0.4l-1,0.9l-1.5-1.1l0.5-1.2c-0.2-0.2-0.5-0.5-0.7-0.8l-1.3,0.4
		l-0.9-1.6l1-1c-0.1-0.3-0.2-0.6-0.3-1L84.1,69l-0.2-1.8l1.4-0.5c0-0.3,0.1-0.6,0.1-0.9L84.1,65l0.6-1.7l1.5,0.1
		c0.1-0.3,0.3-0.5,0.4-0.7l-0.9-1.3l1.2-1.3l1.4,0.8c0.2-0.2,0.4-0.3,0.6-0.5l-0.3-1.6l1.6-0.7l1,1.4c0.2-0.1,0.5-0.1,0.7-0.2
		l0.4-1.7h2l0.4,1.7c0.2,0,0.5,0.1,0.7,0.1l1.1-1.4l1.6,0.7l-0.3,1.7c0.2,0.1,0.4,0.3,0.6,0.4l1.6-0.9l1.2,1.3l-1,1.4
		c0.1,0.2,0.3,0.4,0.4,0.6l1.8-0.1l0.6,1.7l-1.4,0.9c0,0.3,0.1,0.5,0.1,0.8l1.6,0.6l-0.2,1.8l-1.8,0.3c-0.1,0.3-0.1,0.5-0.2,0.8
		l1.2,1.1l-1,1.5l-1.5-0.4c-0.2,0.2-0.4,0.5-0.6,0.7l0.6,1.4l-1.5,1.1l-1-1c-0.3,0.2-0.6,0.3-0.9,0.4v1.4l-1.7,0.5l-0.6-1.2
		c-0.3,0-0.7,0-1,0L92.5,76.7z M117.8,101.8l-1-0.9v0.2l-0.9-0.8c-0.4,0.2-0.9,0.4-1.3,0.6v2.4h-0.2l-2.3,0.5l-0.4,0.1h-0.2l-1-2.1
		c-0.5,0-1,0-1.5,0l-1,2.1h-0.2l-1.3-0.3l-1.5-0.3h-0.2l-0.1-2.2c-0.5-0.2-1-0.4-1.4-0.6l-1.7,1.5l-0.2-0.1l-0.2-0.2l-1.8-1
		l-0.4-0.3l0.9-2.1c-0.4-0.4-0.8-0.8-1.2-1.3l-2.2,0.7L95,95.1l1.7-1.6c-0.2-0.5-0.4-1-0.5-1.6l-2.4-0.3l-0.3-3l2.3-0.8
		c0-0.5,0.1-1,0.2-1.6l-2.1-1.3l0.9-2.8l2.6,0.2c0.2-0.4,0.5-0.8,0.7-1.2l-1.5-2.2l2-2.2L101,78c0.3-0.3,0.7-0.5,1.1-0.8l-0.5-2.7
		l2.7-1.2l1.4,1.9c0.4-0.1,0.9-0.3,1.3-0.3l0.5-2.4h0.3h1.2h1.5h0.3l0.5,2.2c0.5,0.1,1,0.1,1.4,0.2l1.4-1.9l0.2,0.1l2.1,0.9l0.4,0.2
		l-0.1,0.4V76l-0.1,0.6c0.4,0.3,0.8,0.5,1.2,0.8l0.5-0.3V46.7c0-3.4-2.8-6.2-6.2-6.2H68.6c-3.4,0-6.2,2.8-6.2,6.2v87
		c0,3.4,2.8,6.2,6.2,6.2h43.5c3.4,0,6.2-2.8,6.2-6.2v-32.3L117.8,101.8z"/>
	<polygon class="st1" points="69.8,82.9 71.2,82.9 70.5,81.1 	"/>
	<path class="st1" d="M72.1,85.2L71.6,84h-2.3l-0.5,1.2h-1.4l2.5-5.8H71l2.5,5.8H72.1z M78.2,88.3l6-6l-6-6H64.6v12.1L78.2,88.3z"/>
	<path class="st1" d="M71.4,97c-0.1,0-0.2-0.1-0.3-0.1s-0.2,0-0.3,0h-1v1.3h1.1c0.1,0,0.2,0,0.3,0s0.2-0.1,0.3-0.1
		c0.1-0.1,0.1-0.1,0.2-0.2c0.1-0.1,0.1-0.2,0.1-0.3s0-0.2-0.1-0.3C71.6,97.1,71.5,97,71.4,97z"/>
	<path class="st1" d="M70.9,95.8c0.1,0,0.2-0.1,0.3-0.1s0.1-0.1,0.2-0.2c0-0.1,0.1-0.2,0.1-0.3c0-0.1,0-0.2-0.1-0.3
		c-0.1-0.1-0.1-0.2-0.2-0.2s-0.2-0.1-0.3-0.1s-0.2,0-0.3,0h-0.9v1.2h0.9C70.7,95.8,70.8,95.8,70.9,95.8z"/>
	<path class="st1" d="M72.8,98.4c-0.1,0.2-0.3,0.4-0.5,0.5c-0.2,0.1-0.4,0.2-0.7,0.3c-0.3,0.1-0.5,0.1-0.8,0.1h-2.4v-5.8h2.2
		c0.3,0,0.5,0,0.8,0.1c0.3,0,0.5,0.1,0.7,0.2s0.4,0.3,0.5,0.4c0.1,0.2,0.2,0.4,0.2,0.8c0,0.3-0.1,0.6-0.3,0.8
		c-0.2,0.2-0.4,0.4-0.7,0.5c0.2,0,0.4,0.1,0.5,0.2c0.2,0.1,0.3,0.2,0.4,0.3c0.1,0.1,0.2,0.3,0.3,0.4c0.1,0.2,0.1,0.3,0.1,0.5
		C73,98,72.9,98.2,72.8,98.4z M82.9,102.3l6-6l-6-6H64.6v12.1L82.9,102.3z"/>
	<path class="st1" d="M72.3,113.3c-0.4,0.2-0.8,0.2-1.2,0.2c-0.5,0-0.9-0.1-1.3-0.2c-0.4-0.1-0.7-0.3-1-0.6c-0.3-0.3-0.5-0.6-0.7-1
		c-0.2-0.4-0.2-0.8-0.2-1.3s0.1-0.9,0.2-1.3c0.2-0.4,0.4-0.7,0.7-1c0.3-0.3,0.6-0.5,1-0.6c0.4-0.1,0.8-0.2,1.3-0.2
		c0.2,0,0.3,0,0.5,0s0.4,0.1,0.5,0.1c0.2,0.1,0.3,0.2,0.5,0.3c0.2,0.1,0.3,0.2,0.4,0.4l-1,0.8c-0.1-0.2-0.3-0.3-0.5-0.4
		c-0.2-0.1-0.4-0.1-0.6-0.1c-0.2,0-0.5,0-0.7,0.1c-0.2,0.1-0.4,0.2-0.5,0.4c-0.2,0.2-0.3,0.4-0.4,0.6c0,0.4,0,0.7,0,0.9
		c0,0.3,0,0.5,0.1,0.8c0.1,0.2,0.2,0.4,0.3,0.6s0.3,0.3,0.5,0.4c0.2,0.1,0.4,0.1,0.6,0.1c0.3,0,0.5-0.1,0.7-0.2
		c0.2-0.1,0.4-0.3,0.5-0.5l1.1,0.8C73,112.8,72.7,113.1,72.3,113.3z M88.9,104.4H64.6v12.1H89l6-6L88.9,104.4z"/>
	<path class="st1" d="M107.3,134.1H63.7c-2.7,0-4.9-2.2-4.9-4.9v-6.5h53.4v6.5C112.2,131.9,110,134.1,107.3,134.1z M63.7,37.2h43.6
		c2.7,0,4.9,2.2,4.9,4.9v8H58.8v-8C58.8,39.4,61,37.2,63.7,37.2z M110.8,69.9l-1.8,2.4c-0.2,0-0.4-0.1-0.5-0.1l-0.7-2.9H104
		l-0.7,2.9c-0.2,0-0.4,0.1-0.6,0.1l-1.8-2.3l-3.5,1.5l0.5,2.8c-0.2,0.1-0.4,0.3-0.6,0.4l-2.4-1.3l-2.5,2.8l1.5,2.2
		c-0.1,0.2-0.3,0.5-0.4,0.7l-2.6-0.2l-1.2,3.6l2.2,1.3c0,0.3-0.1,0.6-0.1,0.9l-2.4,0.8l0.4,3.8l2.4,0.3c0.1,0.3,0.2,0.7,0.3,1
		l-1.7,1.6l1.9,3.3l2.3-0.7c0.2,0.3,0.5,0.6,0.7,0.8l-0.9,2.1l3.1,2.2l1.8-1.5c0.3,0.2,0.7,0.3,1,0.4l0.1,2.3l3.7,0.8l1-2.2
		c0.4,0,0.7,0,1.1,0l1,2.1l3.7-0.8l0.1-2.5c0.3-0.1,0.5-0.2,0.7-0.4v21.7H58.8V52.7h53.4v17.8L110.8,69.9z M97.2,95.1
		c-0.5-0.4-0.9-0.9-1.3-1.4l-0.3-0.4l-2.1,0.6l-0.7-1.3l1.6-1.5l-0.2-0.5c-0.2-0.6-0.4-1.2-0.6-1.8l-0.1-0.5l-2.2-0.2l-0.2-1.5
		l2.2-0.8v-0.5c0-0.6,0.1-1.2,0.2-1.7l0.1-0.5l-2.1-1.3l0.5-1.4l2.4,0.2l0.2-0.4c0.2-0.5,0.5-1,0.8-1.4l0.3-0.4l-1.4-2l1-1.1
		l2.3,1.2l0.4-0.3c0.4-0.3,0.8-0.6,1.2-0.9l0.4-0.3l-0.5-2.6l1.3-0.6L102,74l0.5-0.1c0.5-0.1,0.9-0.2,1.4-0.3l0.5-0.1l0.6-2.7h1.5
		l0.6,2.7l0.5,0.1c0.5,0.1,0.9,0.2,1.3,0.3l0.5,0.1l1.7-2.3l1,0.4v2.2L112,75l0.1,0.1v21.6l-0.1,0.1c-0.5,0.3-1.1,0.6-1.6,0.8
		l-0.5,0.2l-0.1,2.3l-1.4,0.3l-0.9-2H107c-0.6,0.1-1.3,0.1-1.9,0h-0.5l-0.9,2l-1.4-0.3V98l-0.5-0.2c-0.6-0.2-1.2-0.5-1.8-0.8
		l-0.4-0.2L98,98.2l-1.2-0.9l0.8-2L97.2,95.1z M107.3,34.7H63.7c-4.1,0-7.4,3.3-7.4,7.4v87.1c0,4.1,3.3,7.4,7.4,7.4h43.6
		c4.1,0,7.4-3.3,7.4-7.4V42.1C114.7,38,111.4,34.7,107.3,34.7z"/>
	<path class="st1" d="M89.1,125.6h-7.3c-1.3,0-2.3,1-2.3,2.3s1,2.3,2.3,2.3h7.3c1.3,0,2.3-1,2.3-2.3S90.4,125.6,89.1,125.6z"/>
	<path class="st1" d="M98.8,65.6l-1.2,0.1l-0.4,0.1l-0.1,0.3c-0.1,0.3-0.2,0.6-0.3,1l-0.1,0.3l1.1,1l-0.3,0.5l-1.1-0.3H96l-0.2,0.3
		c-0.2,0.3-0.4,0.5-0.7,0.8l-0.2,0.2l0.5,1.3l-0.3,0.5l-1-0.9L93.7,71c-0.3,0.2-0.6,0.3-1,0.5l-0.4,0.2V73l-0.6,0.1l-0.4-0.8
		L91.1,72h-0.4c-0.4,0-0.7,0-1.2,0h-0.3l-0.6,1.2L88,73.1v-0.9l-0.1-0.4l-0.3-0.1c-0.4-0.1-0.7-0.3-1.1-0.5L86.2,71l-1,0.8l-0.5-0.3
		l0.4-0.9l0.1-0.4L84.9,70c-0.3-0.3-0.5-0.5-0.8-0.9l-0.2-0.3l-1.2,0.4l-0.3-0.5l0.7-0.7l0.2-0.3l-0.1-0.3c-0.1-0.3-0.2-0.7-0.4-1.1
		L82.7,66l-1.3-0.2l-0.1-0.5l1-0.3l0.3-0.2v-0.3c0-0.3,0.1-0.7,0.1-1.1l0.1-0.3l-1.2-0.7l0.2-0.5l1.1,0.1l0.4-0.3l0.2-0.3
		c0.1-0.3,0.3-0.6,0.5-0.9l0.2-0.3l-0.9-1.3l0.4-0.4l1.1,0.6l0.4,0.1l0.3-0.2c0.2-0.2,0.5-0.4,0.8-0.6l0.3-0.2l-0.4-1.5l0.5-0.2
		l0.8,1l0.3,0.2l0.3-0.1c0.3-0.1,0.5-0.1,0.9-0.2h0.3l0.4-1.6h0.6l0.3,1.3l0.2,0.3h0.3c0.3,0,0.5,0.1,0.9,0.2l0.3,0.1l1-1.3l0.5,0.2
		l-0.2,1.3v0.4l0.3,0.2c0.2,0.1,0.4,0.3,0.7,0.5l0.3,0.2l1.5-0.8l0.4,0.4l-0.7,1.1L96,60.3l0.2,0.3c0.2,0.2,0.3,0.5,0.5,0.8l0.2,0.3
		l1.6-0.1l0.2,0.5l-1.3,0.6L97.1,63l0.1,0.3c0.1,0.3,0.1,0.6,0.1,0.9v0.3l1.5,0.5L98.8,65.6z M98.5,63.5l1.5-0.9l-0.8-2.5l-1.8,0.2
		c0,0,0,0,0-0.1l1-1.5l-1.7-1.9L95,57.7c0,0,0,0-0.1,0l0.3-1.8l-2.4-1.1l-1.1,1.5c0,0,0,0-0.1,0l-0.3-1.8h-2.6l-0.4,1.7h-0.1
		l-1.1-1.4l-2.4,1.1l0.3,1.7l-0.1,0.1l-1.5-0.8l-1.7,1.9l0.9,1.4c0,0.1-0.1,0.1-0.1,0.2l-1.6-0.1l-0.8,2.4l1.3,0.8
		c0,0.1,0,0.2,0,0.3L80,64.3l0.3,2.6l1.5,0.2c0,0.1,0.1,0.2,0.1,0.4l-1.1,1l1.3,2.2l1.4-0.4c0.1,0.1,0.2,0.2,0.3,0.3l-0.5,1.3
		l2.1,1.5l1.1-0.9c0.1,0.1,0.3,0.1,0.4,0.2v1.4l2.5,0.5l0.6-1.3c0.1,0,0.3,0,0.4,0l0.6,1.3l2.5-0.5v-1.5c0.1,0,0.2-0.1,0.3-0.2
		l1.1,1l2.1-1.5l-0.6-1.5c0.1-0.1,0.1-0.1,0.2-0.2l1.5,0.5l1.3-2.2l-1.2-1.2c0-0.1,0-0.1,0.1-0.2l1.6-0.2l0.3-2.6l-1.7-0.6
		C98.5,63.6,98.5,63.5,98.5,63.5z"/>
	<path class="st1" d="M90.1,66.4c-1,0-1.9-0.8-1.9-1.9c0-1.1,0.8-1.9,1.9-1.9s1.9,0.8,1.9,1.9C92,65.6,91.1,66.4,90.1,66.4z
		 M90.1,61.6c-1.6,0-2.9,1.3-2.9,2.9c0,1.6,1.3,2.9,2.9,2.9s2.9-1.3,2.9-2.9C93,62.9,91.7,61.6,90.1,61.6z"/>
	<path class="st1" d="M106,82.3c1.9,0,3.4,1.5,3.4,3.4c0,1.9-1.5,3.4-3.4,3.4s-3.4-1.5-3.4-3.4C102.6,83.8,104.1,82.3,106,82.3z
		 M106,90.2c2.5,0,4.5-2,4.5-4.5s-2-4.5-4.5-4.5s-4.5,2-4.5,4.5S103.5,90.2,106,90.2z"/>
</g>
</svg>
