<?xml version="1.0" encoding="utf-8"?>
<!-- Generator: Adobe Illustrator 22.1.0, SVG Export Plug-In . SVG Version: 6.00 Build 0)  -->
<svg version="1.1" id="Layer_1" xmlns="http://www.w3.org/2000/svg" xmlns:xlink="http://www.w3.org/1999/xlink" x="0px" y="0px"
	 viewBox="0 0 174.6 174.6" style="enable-background:new 0 0 174.6 174.6;" xml:space="preserve">
<style type="text/css">
	.st0{fill:#FFFFFF;}
	.st1{fill:#212C40;}
	.st2{fill:url(#SVGID_1_);}
</style>
<g>
	<ellipse class="st0" cx="87.3" cy="87.3" rx="85" ry="85"/>
	<path class="st1" d="M87.3,3.8c46,0,83.5,37.4,83.5,83.5s-37.4,83.5-83.5,83.5S3.8,133.3,3.8,87.3S41.3,3.8,87.3,3.8 M87.3,0.8
		C39.6,0.8,0.8,39.6,0.8,87.3s38.7,86.5,86.5,86.5s86.5-38.7,86.5-86.5S135,0.8,87.3,0.8L87.3,0.8z"/>
</g>
<g>
	<linearGradient id="SVGID_1_" gradientUnits="userSpaceOnUse" x1="90.15" y1="76.7189" x2="90.15" y2="112.076">
		<stop  offset="0" style="stop-color:#65D2FF"/>
		<stop  offset="1" style="stop-color:#6ABC5C"/>
	</linearGradient>
	<path class="st2" d="M90.2,69.2C78.3,56.6,54.6,58.6,54.6,58.6v49.3c0,0,23.4-2,35.4,10.4l0,0.3c0-0.1,0.1-0.1,0.2-0.1
		c0,0.1,0.1,0.1,0.1,0.1v-0.3c12-12.4,35.4-10.4,35.4-10.4V58.6C125.7,58.6,102,56.6,90.2,69.2z"/>
	<path class="st1" d="M55.3,103.2c2.5,0,6,0.1,9.9,0.7c6.3,0.9,14.9,3.2,21.1,8.7V66.1C76.3,55.6,57.1,55.8,52.8,56v47.3
		C53.3,103.3,54.3,103.2,55.3,103.2z M87.4,116c-0.3,0-0.5-0.1-0.7-0.3c-11.4-12.2-34.7-10.4-34.9-10.4c-0.3,0-0.6-0.1-0.8-0.3
		s-0.3-0.5-0.3-0.7V55c0-0.5,0.4-1,0.9-1c0.2,0,6.2-0.5,13.6,0.6c6.9,1,16.5,3.6,22.9,10.4c0.2,0.2,0.3,0.4,0.3,0.7V115
		c0,0.4-0.3,0.8-0.6,0.9C87.6,116,87.6,116,87.4,116z"/>
	<path class="st1" d="M81.1,73c-0.2,0-0.4,0-0.5-0.1c-10.9-6.7-22.1-6.4-22.2-6.4c-0.5,0.1-1-0.4-1-1s0.4-1,1-1
		c0.5,0,11.9-0.3,23.3,6.7c0.5,0.3,0.6,0.9,0.3,1.4C81.8,72.9,81.3,73,81.1,73z"/>
	<path class="st1" d="M81.1,82.1c-0.2,0-0.4,0-0.5-0.1c-10.9-6.7-22.1-6.4-22.2-6.4c-0.5,0.1-1-0.4-1-1s0.4-1,1-1
		c0.5,0,11.9-0.3,23.3,6.7c0.5,0.3,0.6,0.9,0.3,1.4C81.8,81.9,81.3,82.1,81.1,82.1z"/>
	<path class="st1" d="M81.1,91.2c-0.2,0-0.4,0-0.5-0.1c-10.9-6.7-22.1-6.4-22.2-6.4c-0.5,0-1-0.4-1-1s0.4-1,1-1
		c0.5,0,11.9-0.3,23.3,6.7c0.5,0.3,0.6,0.9,0.3,1.4C81.8,91,81.3,91.2,81.1,91.2z"/>
	<path class="st1" d="M81.1,100.2c-0.2,0-0.4,0-0.5-0.1c-10.9-6.7-22.1-6.4-22.2-6.4c-0.5,0-1-0.4-1-1s0.4-1,1-1
		c0.5,0,11.9-0.3,23.3,6.7c0.5,0.3,0.6,0.9,0.3,1.4C81.8,100,81.3,100.2,81.1,100.2z"/>
	<path class="st1" d="M93.9,73c-0.3,0-0.7-0.2-0.9-0.5c-0.3-0.5-0.1-1.1,0.3-1.4c11.4-7,22.8-6.7,23.3-6.7c0.6,0,1,0.5,1,1
		c0,0.6-0.5,1-1,1c-0.1,0-11.3-0.3-22.2,6.4C94.3,73,94.1,73,93.9,73z"/>
	<path class="st1" d="M93.9,82.1c-0.3,0-0.7-0.2-0.9-0.5c-0.3-0.5-0.1-1.1,0.3-1.4c11.4-7,22.8-6.7,23.3-6.7c0.6,0,1,0.5,1,1
		c0,0.6-0.5,1-1,1c-0.1,0-11.3-0.3-22.2,6.4C94.3,82,94.1,82.1,93.9,82.1z"/>
	<path class="st1" d="M93.9,91.2c-0.3,0-0.7-0.2-0.9-0.5c-0.3-0.5-0.1-1.1,0.3-1.4c11.4-7,22.8-6.7,23.3-6.7c0.6,0,1,0.5,1,1
		c0,0.6-0.5,1-1,1c-0.1,0-11.3-0.3-22.2,6.4C94.3,91.1,94.1,91.2,93.9,91.2z"/>
	<path class="st1" d="M93.9,100.2c-0.3,0-0.7-0.2-0.9-0.5c-0.3-0.5-0.1-1.1,0.3-1.4c11.4-7,22.8-6.7,23.3-6.7c0.6,0,1,0.5,1,1
		c0,0.6-0.5,1-1,1c-0.1,0-11.3-0.3-22.2,6.4C94.3,100.2,94.1,100.2,93.9,100.2z"/>
	<path class="st1" d="M88.6,66.1v46.6c6.2-5.5,14.8-7.8,21.1-8.7c5.7-0.8,10.5-0.8,12.5-0.7V56C117.9,55.8,98.8,55.6,88.6,66.1z
		 M87.6,116c-0.1,0-0.2,0-0.4-0.1c-0.4-0.2-0.6-0.5-0.6-0.9V65.7c0-0.3,0.1-0.5,0.3-0.7c6.3-6.8,15.9-9.4,22.8-10.4
		c7.5-1.1,13.4-0.6,13.7-0.6c0.5,0,0.9,0.5,0.9,1v49.3c0,0.3-0.1,0.5-0.3,0.7s-0.5,0.3-0.8,0.3c-0.2,0-23.5-1.8-34.9,10.4
		C88.3,115.9,87.9,116,87.6,116z"/>
	<path class="st1" d="M129.3,116.4h-84c-0.6,0-1-0.4-1-1v-55c0-0.6,0.4-1,1-1s1,0.4,1,1v53.9h82.1V60.9c0-0.6,0.4-1,1-1s1,0.4,1,1
		v54.5C130.3,115.9,129.8,116.4,129.3,116.4z"/>
	<path class="st1" d="M92.9,115.5c0,2.9-2.4,5.3-5.3,5.3s-5.3-2.4-5.3-5.3"/>
</g>
</svg>
