<?xml version="1.0" encoding="utf-8"?>
<!-- Generator: Adobe Illustrator 22.1.0, SVG Export Plug-In . SVG Version: 6.00 Build 0)  -->
<svg version="1.1" xmlns="http://www.w3.org/2000/svg" xmlns:xlink="http://www.w3.org/1999/xlink" x="0px" y="0px"
	 viewBox="0 0 306.1 286.5" style="enable-background:new 0 0 306.1 286.5;" xml:space="preserve">
<style type="text/css">
	.st0{fill:none;stroke:#212C40;stroke-linecap:round;stroke-linejoin:round;stroke-miterlimit:10;}
	.st1{fill:#FFFFFF;stroke:#212C40;stroke-linecap:round;stroke-linejoin:round;stroke-miterlimit:10;}
	.st2{fill:#FFFFFF;}
	.st3{fill:#65D2FF;}
	.st4{fill:#214672;}
	.st5{fill:url(#SVGID_1_);}
	.st6{fill:url(#SVGID_2_);}
</style>
<g id="Layer_1">
	<line class="st0" x1="1.6" y1="284.4" x2="292.9" y2="284.4"/>
	<g>
		<g>
			<path class="st1" d="M64,153.7c-1.9,4.9-16.6,16.6-16.6,16.6l8.3,2"/>
			<path class="st1" d="M53.7,119.6c0,0-0.5,13.2,0.6,15.6c1.2,2.3,10.1,9.6,10.1,9.6"/>
			<path class="st1" d="M79,227.9c0,0,0,8.6,1.3,12.9c1.3,4.3,18.5,42.7,18.5,42.7h3.6l0.3-1.6c0,0,2.7,2.3,7.8,2.1
				c5.1-0.2,11.2-0.5,11.2-0.5v-2c0,0-15.7-3.3-19.3-8.7c-3.5-5.5-16.3-89.7-16.3-89.7"/>
			<path class="st1" d="M87.2,173.5c0,0-5.2,50.9-6,53.2c-13.4,7.2-54.5,42.9-54.5,42.9s-1.7,8.5,0,9.9c1.7,1.4,6.8,1.8,6.8,1.8
				l-0.5,3.1H21.6l-3-7.2l-1.8-1.2l-0.7-4.9l6-6.2c0,0,21.3-35.1,26-38.8c4.7-3.6,18.5-6.5,18.5-6.5l-0.8-40.1"/>
			<polygon class="st2" points="53.8,44.2 44.3,58.2 40.9,67.1 43.8,72.7 46.8,75.2 50.1,76 54.6,85.8 57,93.1 66,82.6 62.2,73.3 
							"/>
			<path class="st1" d="M122.7,35.4c0,0,2.7-2.8,3.5-5.2c0.8-2.4,1.6-25.2,2.9-25.2c1.4,0,2.1,7.7,2.1,7.7v19.4l-5.4,8.3"/>
			<path class="st1" d="M130.2,6.7c0,0,2.2-5.1,2.3-4.6s3.8,15.6,3.8,15.6l1.7,15.5l-3.9,2.6l-2.8-3.7V12.7L130.2,6.7z"/>
			<circle class="st3" cx="200.3" cy="216.1" r="5.5"/>
			<path class="st1" d="M205.1,169.1l-0.3,43.8l-8.5-0.4c0,0-6.2-5.8-7.1-8.6s-6.6-20.6-6.1-27.2c0.5-6.6,8.7-13.6,8.7-13.6
				L205.1,169.1z"/>
			<path class="st1" d="M194,219.9c1.1-2.2,13.3-1.4,13.3-1.4s2.1,4,3.1,6.9c1,2.9,2.9,50.9,2.9,50.9h-6.4c0,0-16.5-40.6-16.5-45.3
				C190.4,226.3,192.9,222.1,194,219.9z"/>
			<polygon class="st1" points="190.9,284.1 213.3,284.1 213.3,276.2 206.9,276.2 190.9,281 			"/>
			<circle class="st3" cx="228.2" cy="217.1" r="6.5"/>
			<circle class="st3" cx="253.1" cy="133.8" r="4.8"/>
			<path class="st1" d="M54.6,46.3c0,0,5.9,4.4,7,6c1.2,1.6,0,4.9,0,4.9s5.2,1.3,6.2,2.6s-1,4.2-1,4.2l1,3.6c0,0,2.3,4.9,1.8,7
				c-0.5,2.1-15.1,1-15.1,1"/>
			<path class="st1" d="M62.8,76c0,0,2,3,2.6,5.3"/>
			<path class="st1" d="M50.1,76c-3.6,0.5-13.9-8.1-13.9-8.1s-1-9.5,0-12.5c1-3,12.2-10.1,14.6-18.5c3.9,0.1,3.9,9.4,3.9,11.4
				c-1.5,1.2-4.2,3.4-4,3.9s1,3,1.2,5.3c0.1,2.3-3.8,2.2-2.9,4.7c0.9,2.5,2.5,6.6,2.5,6.6s-5.6-5.2-8.1-2.7
				C40.8,68.7,47.6,76,50.1,76c2,4,3.8,8.3,3.8,8.3s-4.6,10.8-5.3,13.9c-0.7,3.1,0,9.7,1.2,12.5c1.2,2.8,13.8,31.1,15.4,36
				c1.6,4.9-10,26.8-10.9,28.4c17.7,14.7,48.4-12.1,48.4-12.1s-5.3-7.3-7-19c-1.7-11.7-10-33.6-16.5-44.2
				c15.2-11.2,47.7-57.9,47.7-57.9l-5.5-8.7c0,0-21.9,26.7-28.6,34C86,74.4,69.3,80,65.4,81.3s-8.1,9.4-8.1,9.4"/>
			<path class="st0" d="M67.6,66.5c0,0-2.1,1.6-6.6,0c3.1,3.2,7.5,2.5,7.5,2.5"/>
			<path class="st1" d="M60.2,57.8c0,0-1.3-0.7-3.3,2.1"/>
			<path class="st4" d="M60.2,53c-1.6,0.4-5.6,4.7-5.6,4.7S57.6,51.2,60.2,53z"/>
			<line class="st1" x1="53.8" y1="84.3" x2="61.6" y2="84.3"/>
			<path class="st1" d="M22.1,264.9c0,0,1.7,4.8,4.7,4.7"/>
			<path class="st1" d="M102.5,272.8c0,0-3.6,4.3-6.1,5.1"/>
			<path class="st1" d="M164.7,70c0,0,1.4-4.2,0-7.4c-1.4-3.3-26.7-29.4-26.7-29.4l-3.9,2.6c0,0,13.3,36.7,15.3,38.9
				c2,2.2,9.4,2.2,9.4,2.2L164.7,70z"/>
			<path class="st1" d="M165.3,80.9l3.8-7.9c0,0,25.5,2.5,28.1,4.9c2.6,2.5,9.4,9,9.4,9l-4.9,3.6l-7,8.7c0,0-10.8-0.1-15.9-1.7
				C173.6,96,165.3,80.9,165.3,80.9z"/>
			<path class="st1" d="M228,86.1c-3.5-2.1-12.4-1.3-13.9-1.4c-1.6-0.1-7.5,2.2-7.5,2.2l-4.9,3.6l-7,8.7c0,0-6.4,12.6-7.5,19.5
				c-1.1,6.9,0.4,22.5,0.9,29.1s3.1,18.1,9,21.9c5.9,3.8,11.2-3.8,11.2-3.8s24.3-29.6,25-31.6c0.7-2.1,8.6-25.4,7.2-34
				C238.8,91.9,231.5,88.2,228,86.1z"/>
			<path class="st3" d="M164.7,70c0,0,3.9-0.8,4.4,3c0.5,3.8-3.8,7.9-3.8,7.9s-7,1-6.5-4S164.7,70,164.7,70z"/>
			<path class="st0" d="M223.5,86.5c0,0,6.6,8.6,6.6,11.4c0,2.8-3,4.8-5,11.5c-2,6.7,2.1,12.5,0.4,21.3s-15.8,16.9-17.1,19.8
				c-1.3,2.8-1.2,11.1-1.2,11.1"/>
			<path class="st1" d="M199.8,70.7c0.9,14,13,13.5,20.7,15.5S246.4,82,246.4,73s-7.4-16.7-15.4-20.7
				C223.1,48.3,198.9,56.7,199.8,70.7z"/>
			<path class="st1" d="M224.8,64.8c0,0-6.2-11.2-14.2-9.3"/>
			<path class="st1" d="M222.2,71.2c0,0-14.8,6.2-21.9-5"/>
			<path class="st1" d="M210.6,63.3c0,0,6.1-3.7,9.6,1.6"/>
			<path class="st1" d="M231.4,107.6c0-2.7,4-10.4,4-10.4s5.4-4.2,7.4-2.5c2,1.7,9.8,8,10.4,12.9c0.6,4.9,2.6,21.5,2.6,21.5
				l-7.7,4.7c0,0-7.8-4.4-10.4-6.8C235.3,124.7,231.4,110.3,231.4,107.6z"/>
			<path class="st1" d="M249.6,138.2l9.2-6c0,0,5.3,2,8.6,6c3.3,4,14.3,29.9,14.3,29.9l-3.4,4.3c0,0-25.9-21.9-27.7-24.8
				S249.6,138.2,249.6,138.2z"/>
			<polygon class="st1" points="292.8,170.6 281.8,168.1 278.4,172.4 280.3,181 279.8,184.2 281.8,185.7 284.6,180.2 295.3,178.8 
				303.9,171.4 303.9,166.5 			"/>
			<path class="st1" d="M221.9,223.5c0-2.6,13.5-4.3,13.5-4.3s4.6,2.7,6.9,6.5c2.3,3.8,7.3,48.3,7.3,48.3l-5.9,2.7
				c0,0-20.4-34.5-21.9-39.3C220.5,232.6,221.9,226.1,221.9,223.5z"/>
			<polygon class="st1" points="244.9,284.1 243.8,276.7 249.6,274 260.4,281.4 260.4,284.1 			"/>
			<path class="st3" d="M227.6,164.3c0,0,1.1-7.6-0.6-9c-1.8-1.5-6.4-6.1-11.3-4.3c-4.9,1.8-7.7,8.5-8.5,10.7
				c-0.8,2.2,3.1,8.6,3.1,8.6l5.6-8.6h7.4L227.6,164.3z"/>
			<linearGradient id="SVGID_1_" gradientUnits="userSpaceOnUse" x1="76.7326" y1="146.7685" x2="89.7412" y2="146.7685">
				<stop  offset="0" style="stop-color:#6ABC5C"/>
				<stop  offset="1" style="stop-color:#65D2FF"/>
			</linearGradient>
			<path class="st5" d="M76.7,146.2c1,0.3,8.1-2.2,12-4.9c1,5,1,5,1,5l-13,6V146.2z"/>
			<linearGradient id="SVGID_2_" gradientUnits="userSpaceOnUse" x1="230.0244" y1="79.1948" x2="230.0244" y2="62.4373">
				<stop  offset="0" style="stop-color:#6ABC5C"/>
				<stop  offset="1" style="stop-color:#65D2FF"/>
			</linearGradient>
			<ellipse class="st6" cx="230" cy="71.2" rx="7.8" ry="8.7"/>
			<path class="st1" d="M209.4,173.2c0-3,6.5-11.6,6.5-11.6h7.4c0,0,8.5,4.4,10.8,8.6c2.3,4.2-2,42.3-2,42.3l-9.6,0.8
				c0,0-6.3-4.4-6.9-7S209.4,176.2,209.4,173.2z"/>
		</g>
		<path class="st0" d="M215.9,161.6c0,0-2.6,11.1-2.6,14.5c0,3.4,3.2,20.1,3.9,24.8c0.7,4.8,5.3,12.3,5.3,12.3"/>
		<path class="st0" d="M221.9,223.5c0,0,0.9,9.1,2.5,12.3c1.5,3.2,19.4,40.9,19.4,40.9"/>
		<path class="st0" d="M205,218.4c0,0,4,5.3,4.2,9.3c0.1,4,1.4,48.5,1.4,48.5"/>
		<polyline class="st0" points="196.9,169.8 198.1,176.1 202.1,212.8 		"/>
		<path class="st0" d="M237.8,95.6c0,0-2.4,10.3-2.4,13.8c0,3.5,2.9,11.3,5,14.4c2,3.2,9,9.1,9,9.1"/>
		<path class="st0" d="M251.2,137.2c0,0-1,5.9,1.2,8.1c2.2,2.2,26.7,26.2,26.7,26.2"/>
		<path class="st0" d="M166.3,79.9c0,0,7.9,8.7,12,11.2c4.1,2.5,20.3,3.2,20.3,3.2"/>
		<path class="st0" d="M135,35.2c0,0,13.9,33,15.9,35.4c2,2.4,8.2,4.9,8.2,4.9"/>
	</g>
</g>
<g id="Layer_2">
</g>
</svg>
