<?xml version="1.0" encoding="utf-8"?>
<!-- Generator: Adobe Illustrator 22.1.0, SVG Export Plug-In . SVG Version: 6.00 Build 0)  -->
<svg version="1.1" xmlns="http://www.w3.org/2000/svg" xmlns:xlink="http://www.w3.org/1999/xlink" x="0px" y="0px"
	 viewBox="0 0 634.4 512.2" style="enable-background:new 0 0 634.4 512.2;" xml:space="preserve">
<style type="text/css">
	.st0{display:none;fill:#212C40;}
	.st1{fill:#FFFFFF;stroke:#212C40;stroke-width:0.75;stroke-linecap:round;stroke-linejoin:round;stroke-miterlimit:10;}
	.st2{fill:#214672;}
	.st3{opacity:0.3;}
	.st4{fill:#65D2FF;}
	.st5{opacity:0.3;fill:#65D2FF;}
	.st6{fill:url(#SVGID_1_);}
	.st7{fill:none;stroke:#6ABC5C;stroke-linejoin:bevel;stroke-miterlimit:10;}
	.st8{fill:none;stroke:#212C40;stroke-width:0.75;stroke-linejoin:bevel;stroke-miterlimit:10;}
	.st9{fill:url(#SVGID_2_);}
	.st10{fill:none;stroke:#212C40;stroke-width:0.75;stroke-linecap:round;stroke-linejoin:round;stroke-miterlimit:10;}
	.st11{fill:url(#SVGID_3_);}
	.st12{fill:url(#SVGID_4_);}
	.st13{fill:#FFFFFF;}
	.st14{fill:none;stroke:#212C40;stroke-width:1.2;stroke-linecap:round;stroke-linejoin:round;stroke-miterlimit:10;}
	.st15{fill:url(#SVGID_5_);}
	.st16{fill:url(#SVGID_6_);}
	
		.st17{fill:none;stroke:#212C40;stroke-width:0.75;stroke-linecap:round;stroke-linejoin:round;stroke-miterlimit:10;stroke-dasharray:5,5;}
	.st18{opacity:0.3;clip-path:url(#SVGID_8_);fill:#65D2FF;}
</style>
<g id="Layer_1">
	<rect x="-281.6" y="486" class="st0" width="1083" height="571"/>
	<circle class="st1" cx="21.6" cy="490.1" r="19"/>
	<circle class="st1" cx="39.3" cy="449.1" r="8.6"/>
	<circle class="st1" cx="56.3" cy="427.4" r="3.4"/>
	<polygon class="st2" points="51.3,471.8 57.3,466.6 51.6,463.8 	"/>
	<g class="st3">
		<g>
			<path class="st4" d="M371.7,54.5l-2.5-3.2c12.6-10,26.7-17.8,41.7-23.4l1.4,3.8C397.7,37.1,384,44.8,371.7,54.5z"/>
		</g>
		<g>
			<path class="st4" d="M595.1,97.2c-22.4-38.6-60.4-65.1-104.3-72.7l0.7-4c45,7.9,84,35.1,107.1,74.7L595.1,97.2z"/>
		</g>
		<g>
			<path class="st4" d="M552.3,300.5l-2.3-3.4c34-23.3,57.1-60,63.6-100.5l4,0.6C611,238.9,587.2,276.5,552.3,300.5z"/>
		</g>
		<g>
			<path class="st4" d="M389,307.7c-35.3-19.9-61-52.2-72.5-90.8l3.9-1.2c11.1,37.6,36.2,69,70.6,88.4L389,307.7z"/>
		</g>
		<g>
			<path class="st4" d="M315.7,151.5l-4-0.6c2.8-19.6,9.3-38.3,19.2-55.5l3.5,2C324.7,114.2,318.4,132.4,315.7,151.5z"/>
		</g>
	</g>
	<ellipse class="st5" cx="606.2" cy="198.5" rx="4.7" ry="1.2"/>
	<ellipse class="st5" cx="553.7" cy="189.3" rx="4.7" ry="1.2"/>
	<linearGradient id="SVGID_1_" gradientUnits="userSpaceOnUse" x1="400.3159" y1="298.4495" x2="524.1736" y2="298.4495">
		<stop  offset="0" style="stop-color:#6ABC5C"/>
		<stop  offset="1" style="stop-color:#65D2FF"/>
	</linearGradient>
	<rect x="407.4" y="264.2" class="st6" width="112.5" height="68.5"/>
	<g>
		<path class="st7" d="M421.8,29c-15.1,4.4-29.2,11.2-41.9,19.8"/>
		<path class="st7" d="M598.7,106.6c-19.3-39.2-55.2-68.7-98.5-79.3"/>
		<path class="st7" d="M540.3,301.9c34.8-20.6,60.6-54.8,70-95.4"/>
		<path class="st7" d="M318,205.4c8.6,38.6,32,71.6,64,92.6"/>
		<path class="st7" d="M340,89c-10.6,15.6-18.2,33.3-22.3,52.4"/>
	</g>
	<path class="st8" d="M447.8,99.9c-8.8,2-17.1,5.5-24.4,10.3"/>
	<path class="st8" d="M484.4,100.8C478,99,471.2,98,464.2,98"/>
	<path class="st8" d="M508.2,112.3c-7.1-5.2-15.1-9.1-23.8-11.5"/>
	<path class="st8" d="M538.8,168c-0.2-3.1-0.6-6.1-1.1-9c-1.8-9.9-5.6-19.1-11-27.2c-1.1-1.7-2.2-3.3-3.4-4.8"/>
	<path class="st8" d="M524.9,216.4c0.9-1.3,1.8-2.5,2.6-3.9c6.1-9.7,10-20.8,11.1-32.8"/>
	<path class="st8" d="M470.8,247.2c17.4-1.5,33-9,44.9-20.3"/>
	<path class="st8" d="M409.7,223.8c9.1,9.7,20.7,17,33.8,20.8c4.3,1.2,8.8,2.1,13.4,2.6"/>
	<path class="st8" d="M423.4,110.2c-20.4,13.3-33.9,36.4-33.9,62.6c0,9.9,1.9,19.4,5.4,28"/>
	<g>
		<path class="st2" d="M537,325.8l-0.3-0.7c1.5-0.7,3-1.5,4.5-2.2l0.3,0.7C540,324.3,538.5,325,537,325.8z M386.8,323.4
			c-1.5-0.8-3-1.6-4.4-2.4l0.4-0.7c1.4,0.8,2.9,1.6,4.4,2.3L386.8,323.4z M545.9,321.2l-0.4-0.7c1.5-0.8,2.9-1.6,4.3-2.5l0.4,0.6
			C548.9,319.5,547.4,320.4,545.9,321.2z M378,318.6c-1.4-0.8-2.9-1.7-4.3-2.6l0.4-0.6c1.4,0.9,2.8,1.8,4.3,2.6L378,318.6z
			 M554.6,316.1l-0.4-0.6c1.4-0.9,2.8-1.8,4.2-2.7l0.4,0.6C557.4,314.2,556,315.2,554.6,316.1z M369.6,313.2
			c-1.4-0.9-2.8-1.9-4.1-2.9l0.4-0.6c1.3,1,2.7,1.9,4.1,2.9L369.6,313.2z M562.9,310.4l-0.4-0.6c1.4-1,2.7-2,4-3l0.5,0.6
			C565.6,308.5,564.3,309.5,562.9,310.4z M361.4,307.4c-1.3-1-2.6-2.1-3.9-3.1l0.5-0.6c1.3,1,2.6,2.1,3.9,3.1L361.4,307.4z
			 M570.9,304.3l-0.5-0.6c1.3-1,2.6-2.1,3.8-3.2l0.5,0.6C573.5,302.2,572.2,303.3,570.9,304.3z M353.6,301c-1.3-1.1-2.5-2.2-3.7-3.3
			l0.5-0.6c1.2,1.1,2.5,2.2,3.7,3.3L353.6,301z M578.5,297.8l-0.5-0.6c1.2-1.1,2.5-2.3,3.6-3.4l0.5,0.5
			C580.9,295.5,579.7,296.7,578.5,297.8z M346.2,294.3c-1.2-1.2-2.4-2.4-3.5-3.5l0.5-0.5c1.2,1.2,2.3,2.4,3.5,3.5L346.2,294.3z
			 M585.7,290.8l-0.5-0.5c1.2-1.2,2.3-2.4,3.4-3.6l0.6,0.5C588,288.4,586.9,289.6,585.7,290.8z M339.2,287.1
			c-1.1-1.2-2.3-2.5-3.3-3.8l0.6-0.5c1.1,1.2,2.2,2.5,3.3,3.7L339.2,287.1z M592.5,283.4l-0.6-0.5c1.1-1.3,2.2-2.5,3.2-3.8l0.6,0.5
			C594.6,280.9,593.6,282.1,592.5,283.4z M332.7,279.5c-1-1.3-2.1-2.6-3.1-3.9l0.6-0.5c1,1.3,2.1,2.6,3.1,3.9L332.7,279.5z
			 M598.8,275.6l-0.6-0.5c1-1.3,2-2.7,3-4l0.6,0.4C600.8,272.9,599.8,274.3,598.8,275.6z M326.6,271.5c-1-1.4-1.9-2.7-2.9-4.1
			l0.6-0.4c0.9,1.4,1.9,2.8,2.9,4.1L326.6,271.5z M604.7,267.5l-0.6-0.4c0.9-1.4,1.9-2.8,2.7-4.2l0.6,0.4
			C606.5,264.7,605.6,266.1,604.7,267.5z M321,263.1c-0.9-1.4-1.8-2.9-2.6-4.3l0.6-0.4c0.8,1.4,1.7,2.9,2.6,4.3L321,263.1z M610,259
			l-0.6-0.4c0.8-1.4,1.7-2.9,2.5-4.3l0.7,0.4C611.7,256.1,610.9,257.6,610,259z M315.9,254.5c-0.8-1.5-1.6-3-2.4-4.4l0.7-0.3
			c0.8,1.5,1.5,3,2.4,4.4L315.9,254.5z M614.9,250.3l-0.7-0.3c0.8-1.5,1.5-3,2.2-4.5l0.7,0.3C616.4,247.3,615.6,248.8,614.9,250.3z
			 M311.3,245.5c-0.7-1.5-1.4-3-2.1-4.6l0.7-0.3c0.7,1.5,1.4,3.1,2.1,4.6L311.3,245.5z M619.2,241.2l-0.7-0.3
			c0.7-1.5,1.3-3.1,1.9-4.6l0.7,0.3C620.5,238.2,619.9,239.7,619.2,241.2z M307.2,236.3c-0.6-1.5-1.2-3.1-1.8-4.7l0.7-0.3
			c0.6,1.6,1.2,3.1,1.8,4.7L307.2,236.3z M623,232l-0.7-0.3c0.6-1.5,1.1-3.1,1.7-4.7l0.7,0.2C624.1,228.8,623.5,230.4,623,232z
			 M303.7,226.9c-0.5-1.6-1-3.2-1.5-4.8l0.7-0.2c0.5,1.6,1,3.2,1.5,4.8L303.7,226.9z M626.2,222.5l-0.7-0.2c0.5-1.6,1-3.2,1.4-4.8
			l0.7,0.2C627.2,219.2,626.7,220.9,626.2,222.5z M300.8,217.3c-0.4-1.6-0.9-3.2-1.2-4.9l0.7-0.2c0.4,1.6,0.8,3.2,1.2,4.8
			L300.8,217.3z M628.8,212.8l-0.7-0.2c0.4-1.6,0.8-3.2,1.1-4.9l0.7,0.2C629.6,209.5,629.2,211.2,628.8,212.8z M630.9,203l-0.7-0.1
			c0.3-1.6,0.6-3.3,0.8-4.9l0.7,0.1C631.5,199.6,631.2,201.3,630.9,203z M632.4,193l-0.7-0.1c0.2-1.7,0.4-3.3,0.5-5l0.7,0.1
			C632.8,189.7,632.6,191.4,632.4,193z M633.3,183l-0.7,0c0.1-1.6,0.2-3.3,0.2-5l0.8,0C633.5,179.7,633.4,181.4,633.3,183z
			 M633.6,173h-0.8l0-0.2c0-1.7,0-3.3-0.1-5l0.8,0c0,1.7,0.1,3.4,0.1,5L633.6,173z M632.6,162.8c-0.1-1.6-0.2-3.3-0.4-5l0.7-0.1
			c0.1,1.7,0.3,3.3,0.4,5L632.6,162.8z M631.7,152.8c-0.2-1.7-0.4-3.3-0.7-5l0.7-0.1c0.2,1.6,0.5,3.3,0.7,5L631.7,152.8z
			 M630.2,142.9c-0.3-1.6-0.6-3.3-1-4.9l0.7-0.2c0.3,1.6,0.7,3.3,1,4.9L630.2,142.9z M628.2,133.2c-0.4-1.6-0.8-3.2-1.2-4.8l0.7-0.2
			c0.4,1.6,0.9,3.2,1.2,4.9L628.2,133.2z M304.5,118.6l-0.7-0.2c0.5-1.6,1.1-3.2,1.7-4.7l0.7,0.3C305.6,115.5,305,117.1,304.5,118.6
			z M308,109.3l-0.7-0.3c0.6-1.5,1.3-3.1,2-4.6l0.7,0.3C309.3,106.2,308.6,107.8,308,109.3z M618.6,104.7c-0.7-1.5-1.4-3.1-2.1-4.6
			l0.7-0.3c0.7,1.5,1.4,3,2.1,4.6L618.6,104.7z M312,100.2l-0.7-0.3c0.7-1.5,1.5-3,2.2-4.5l0.7,0.3C313.5,97.2,312.7,98.7,312,100.2
			z M614.3,95.7c-0.8-1.5-1.6-3-2.4-4.4l0.7-0.4c0.8,1.5,1.6,3,2.4,4.4L614.3,95.7z M316.6,91.3l-0.7-0.4c0.8-1.4,1.6-2.9,2.5-4.3
			L319,87C318.2,88.4,317.4,89.9,316.6,91.3z M609.4,86.9c-0.8-1.4-1.7-2.9-2.6-4.3l0.6-0.4c0.9,1.4,1.8,2.9,2.6,4.3L609.4,86.9z
			 M321.6,82.7l-0.6-0.4c0.9-1.4,1.8-2.8,2.7-4.2l0.6,0.4C323.4,79.9,322.5,81.3,321.6,82.7z M604.1,78.5c-0.9-1.4-1.9-2.8-2.9-4.1
			l0.6-0.4c1,1.3,1.9,2.7,2.9,4.1L604.1,78.5z M327.2,74.5l-0.6-0.4c1-1.3,2-2.7,3-4l0.6,0.5C329.2,71.8,328.2,73.1,327.2,74.5z
			 M598.2,70.4c-1-1.3-2.1-2.6-3.1-3.9l0.6-0.5c1,1.3,2.1,2.6,3.1,3.9L598.2,70.4z M333.3,66.5l-0.6-0.5c1-1.3,2.1-2.6,3.2-3.8
			l0.6,0.5C335.4,64,334.3,65.2,333.3,66.5z M591.9,62.6c-1.1-1.2-2.2-2.5-3.3-3.7l0.6-0.5c1.1,1.2,2.3,2.5,3.3,3.8L591.9,62.6z
			 M339.8,59l-0.6-0.5c1.1-1.2,2.3-2.5,3.4-3.7l0.5,0.5C342.1,56.5,340.9,57.7,339.8,59z M585.2,55.3c-1.2-1.2-2.3-2.4-3.5-3.5
			l0.5-0.5c1.2,1.2,2.4,2.3,3.5,3.5L585.2,55.3z M346.8,51.8l-0.5-0.5c1.2-1.2,2.4-2.3,3.7-3.4l0.5,0.6
			C349.2,49.5,348,50.6,346.8,51.8z M578,48.3c-1.2-1.1-2.5-2.2-3.7-3.3l0.5-0.6c1.3,1.1,2.5,2.2,3.8,3.3L578,48.3z M354.1,45
			l-0.5-0.6c1.3-1.1,2.6-2.2,3.8-3.2l0.5,0.6C356.7,42.9,355.4,44,354.1,45z M570.4,41.8c-1.3-1-2.6-2.1-3.9-3.1l0.5-0.6
			c1.3,1,2.7,2.1,3.9,3.1L570.4,41.8z M361.9,38.7l-0.5-0.6c1.3-1,2.7-2,4-3l0.4,0.6C364.6,36.7,363.2,37.7,361.9,38.7z M562.5,35.7
			c-1.4-1-2.7-1.9-4.1-2.9l0.4-0.6c1.4,0.9,2.8,1.9,4.1,2.9L562.5,35.7z M370,32.9l-0.4-0.6c1.4-0.9,2.8-1.9,4.2-2.7l0.4,0.6
			C372.8,31.1,371.4,32,370,32.9z M554.2,30.1c-1.4-0.9-2.8-1.8-4.3-2.6l0.4-0.6c1.4,0.8,2.9,1.7,4.3,2.6L554.2,30.1z M378.5,27.6
			l-0.4-0.6c1.4-0.8,2.9-1.7,4.4-2.5l0.4,0.7C381.4,25.9,379.9,26.7,378.5,27.6z M545.6,25.1c-1.5-0.8-2.9-1.6-4.4-2.3l0.3-0.7
			c1.5,0.8,3,1.5,4.4,2.4L545.6,25.1z M387.2,22.7l-0.3-0.7c1.5-0.8,3-1.5,4.5-2.2l0.3,0.7C390.2,21.2,388.7,22,387.2,22.7z
			 M396.3,18.4l-0.3-0.7c1.5-0.7,3.1-1.3,4.6-2l0.3,0.7C399.3,17.1,397.8,17.7,396.3,18.4z M405.6,14.6l-0.3-0.7
			c1.6-0.6,3.2-1.1,4.7-1.7l0.2,0.7C408.7,13.5,407.1,14.1,405.6,14.6z M415.1,11.4l-0.2-0.7c1.6-0.5,3.2-1,4.8-1.4l0.2,0.7
			C418.3,10.5,416.6,11,415.1,11.4z M508.7,10.1c-1.6-0.4-3.2-0.9-4.8-1.2l0.2-0.7c1.6,0.4,3.3,0.8,4.9,1.2L508.7,10.1z M424.7,8.8
			l-0.2-0.7c1.6-0.4,3.3-0.8,4.9-1.1l0.2,0.7C427.9,8.1,426.3,8.4,424.7,8.8z M499,7.7c-1.6-0.3-3.3-0.7-4.9-1l0.1-0.7
			c1.6,0.3,3.3,0.6,4.9,1L499,7.7z M434.5,6.8L434.3,6c1.7-0.3,3.3-0.6,5-0.8l0.1,0.7C437.8,6.2,436.1,6.5,434.5,6.8z M489.2,6
			c-1.6-0.2-3.3-0.5-5-0.7l0.1-0.7c1.6,0.2,3.3,0.4,5,0.7L489.2,6z M444.4,5.3l-0.1-0.7c1.7-0.2,3.3-0.4,5-0.5l0.1,0.7
			C447.7,4.9,446,5.1,444.4,5.3z M479.3,4.8c-1.7-0.1-3.3-0.3-5-0.4l0-0.7c1.7,0.1,3.3,0.2,5,0.4L479.3,4.8z M454.3,4.4l0-0.7
			c1.7-0.1,3.3-0.2,5-0.2l0,0.8C457.6,4.3,456,4.3,454.3,4.4z M469.3,4.2c-1.7,0-3.3-0.1-5-0.1V3.4c1.7,0,3.4,0,5,0.1L469.3,4.2z"/>
	</g>
	<rect x="452.7" y="216.9" class="st4" width="18.1" height="1.5"/>
	<rect x="303.3" y="146.8" class="st4" width="8.8" height="44.9"/>
	<rect x="351.4" y="159" class="st4" width="8.8" height="32.7"/>
	<polygon class="st4" points="470.8,32.7 466.7,39.7 479.6,39.7 	"/>
	<polygon class="st4" points="447.5,18.1 437.8,22.5 449.2,27.8 	"/>
	<polygon class="st4" points="440.1,44.4 441.8,53.4 450.9,44.4 	"/>
	<polygon class="st4" points="479.6,51.1 467.4,62.7 470.2,71.1 473.3,80.8 481.7,65.8 	"/>
	<polygon class="st4" points="452.8,55.6 442.2,58.7 447.5,66.5 458.4,66.5 	"/>
	<linearGradient id="SVGID_2_" gradientUnits="userSpaceOnUse" x1="538.9598" y1="87.6495" x2="561.6443" y2="87.6495">
		<stop  offset="0" style="stop-color:#6ABC5C"/>
		<stop  offset="1" style="stop-color:#65D2FF"/>
	</linearGradient>
	<rect x="539" y="83.9" class="st9" width="22.7" height="7.4"/>
	<rect x="539" y="114.4" class="st4" width="8.1" height="7.4"/>
	<rect x="548.2" y="114.4" class="st4" width="13.4" height="7.4"/>
	<path id="XMLID_10_" class="st4" d="M409.5,79.7v-2.4h-2.7c-0.2-1.3-0.7-2.5-1.5-3.5l1.9-1.9l-1.7-1.7l-1.9,1.9
		c-1-0.7-2.2-1.3-3.5-1.5v-2.7h-2.4v2.7c-1.3,0.2-2.5,0.7-3.5,1.5l-1.9-1.9l-1.7,1.7l1.9,1.9c-0.7,1-1.3,2.2-1.5,3.5h-2.7v2.4h2.7
		c0.2,1.3,0.7,2.5,1.5,3.5l-1.9,1.9l1.7,1.7l1.9-1.9c1,0.7,2.2,1.3,3.5,1.5v2.7h2.4v-2.7c1.3-0.2,2.5-0.7,3.5-1.5l1.9,1.9l1.7-1.7
		l-1.9-1.9c0.7-1,1.3-2.2,1.5-3.5H409.5z M398.8,82.2c-2,0-3.7-1.6-3.7-3.7c0-2,1.6-3.7,3.7-3.7c2,0,3.7,1.6,3.7,3.7
		C402.5,80.5,400.8,82.2,398.8,82.2z"/>
	<circle class="st4" cx="577.9" cy="197.7" r="8.4"/>
	<g>
		<g>
			<rect x="510.5" y="112.3" class="st10" width="53.4" height="11.4"/>
			<rect x="514.1" y="115.7" class="st10" width="5.9" height="4.9"/>
			<circle class="st10" cx="526.3" cy="118.1" r="1.5"/>
			<circle class="st10" cx="532.9" cy="118.1" r="1.5"/>
		</g>
	</g>
	<g>
		<g>
			<rect x="510.5" y="97.1" class="st10" width="53.4" height="11.4"/>
			<rect x="514.1" y="100.4" class="st10" width="5.9" height="4.9"/>
			<rect x="539" y="99.2" class="st10" width="22.7" height="7.4"/>
			<circle class="st10" cx="526.3" cy="102.8" r="1.5"/>
			<circle class="st10" cx="532.9" cy="102.8" r="1.5"/>
		</g>
	</g>
	<g>
		<g>
			<rect x="510.5" y="81.8" class="st10" width="53.4" height="11.4"/>
			<rect x="514.1" y="85.2" class="st10" width="5.9" height="4.9"/>
			<circle class="st10" cx="526.3" cy="87.6" r="1.5"/>
			<circle class="st10" cx="532.9" cy="87.6" r="1.5"/>
		</g>
	</g>
	<g>
		<g>
			<rect x="510.5" y="66.6" class="st10" width="53.4" height="11.4"/>
			<rect x="514.1" y="69.9" class="st10" width="5.9" height="4.9"/>
			<rect x="539" y="68.7" class="st10" width="22.7" height="7.4"/>
			<circle class="st10" cx="526.3" cy="72.3" r="1.5"/>
			<circle class="st10" cx="532.9" cy="72.3" r="1.5"/>
		</g>
	</g>
	<rect x="315.3" y="167.9" class="st10" width="8.8" height="23.7"/>
	<rect x="363.3" y="178.6" class="st5" width="8.8" height="13"/>
	<rect x="375.3" y="167.9" class="st10" width="8.8" height="23.7"/>
	<rect x="327.3" y="162.6" class="st10" width="8.8" height="29.1"/>
	<linearGradient id="SVGID_3_" gradientUnits="userSpaceOnUse" x1="340.1716" y1="164.4392" x2="347.494" y2="164.4392">
		<stop  offset="0" style="stop-color:#6ABC5C"/>
		<stop  offset="1" style="stop-color:#65D2FF"/>
	</linearGradient>
	<rect x="339.3" y="137.2" class="st11" width="8.8" height="54.4"/>
	<polyline class="st10" points="385.1,196.2 299.7,196.2 299.7,137.2 	"/>
	<g>
		<linearGradient id="SVGID_4_" gradientUnits="userSpaceOnUse" x1="569.4509" y1="204.7184" x2="590.0425" y2="204.7184">
			<stop  offset="0" style="stop-color:#6ABC5C"/>
			<stop  offset="1" style="stop-color:#65D2FF"/>
		</linearGradient>
		<path class="st12" d="M568,188.4L568,188.4c-4.6,4.6-5.4,11.7-2,17.2l11.9,19.5l11.9-19.5c3.4-5.5,2.5-12.6-2-17.2l0,0
			C582.3,182.9,573.4,182.9,568,188.4z"/>
		<circle class="st13" cx="577.9" cy="197.7" r="8.4"/>
	</g>
	<g>
		<path class="st14" d="M599.7,173.5L599.7,173.5c-3,3-3.6,7.8-1.4,11.4l7.9,12.9l7.9-12.9c2.2-3.7,1.7-8.4-1.4-11.4l0,0
			C609.2,169.9,603.3,169.9,599.7,173.5z"/>
		<circle class="st14" cx="606.2" cy="179.7" r="5.6"/>
	</g>
	<g>
		<path class="st10" d="M548.1,168L548.1,168c-2.6,2.6-3.1,6.6-1.2,9.7l6.8,11l6.8-11c1.9-3.1,1.4-7.2-1.2-9.7l0,0
			C556.2,164.9,551.2,164.9,548.1,168z"/>
		<circle class="st10" cx="553.7" cy="173.3" r="4.8"/>
	</g>
	<path id="XMLID_7_" class="st10" d="M386.6,111.9v-3.4h-3.8c-0.3-1.8-1-3.5-2-4.9l2.7-2.7l-2.4-2.4l-2.7,2.7c-1.4-1-3.1-1.7-4.9-2
		v-3.8h-3.4v3.8c-1.8,0.3-3.5,1-4.9,2l-2.7-2.7l-2.4,2.4l2.7,2.7c-1,1.4-1.7,3.1-2,4.9h-3.8v3.4h3.8c0.3,1.8,1,3.5,2,4.9l-2.7,2.7
		l2.4,2.4l2.7-2.7c1.4,1,3.1,1.7,4.9,2v3.8h3.4v-3.8c1.8-0.3,3.5-1,4.9-2l2.7,2.7l2.4-2.4l-2.7-2.7c1-1.4,1.7-3.1,2-4.9H386.6z
		 M371.9,115.3c-2.8,0-5.1-2.3-5.1-5.1c0-2.8,2.3-5.1,5.1-5.1s5.1,2.3,5.1,5.1C376.9,113,374.7,115.3,371.9,115.3z"/>
	<path id="XMLID_1_" class="st14" d="M385.4,75.6v-5.1h-5.7c-0.4-2.7-1.5-5.2-3.1-7.4l4-4l-3.6-3.6l-4,4c-2.1-1.6-4.6-2.6-7.4-3.1
		v-5.7h-5.1v5.7c-2.7,0.4-5.2,1.5-7.4,3.1l-4-4l-3.6,3.6l4,4c-1.6,2.1-2.6,4.6-3.1,7.4h-5.7v5.1h5.7c0.4,2.7,1.5,5.2,3.1,7.4l-4,4
		l3.6,3.6l4-4c2.1,1.6,4.6,2.6,7.4,3.1v5.7h5.1v-5.7c2.7-0.4,5.2-1.5,7.4-3.1l4,4l3.6-3.6l-4-4c1.6-2.1,2.6-4.6,3.1-7.4H385.4z
		 M363.1,80.7c-4.2,0-7.7-3.4-7.7-7.7c0-4.2,3.4-7.7,7.7-7.7s7.7,3.4,7.7,7.7C370.7,77.3,367.3,80.7,363.1,80.7z"/>
	<polyline class="st10" points="453,66.8 453,121.9 444.4,121.9 444.4,153.6 	"/>
	<polyline class="st10" points="557,123.8 557,146.4 571.9,146.4 571.9,185.7 	"/>
	<polyline class="st10" points="564.4,118.1 606.2,118.1 606.2,170.8 	"/>
	<polyline class="st10" points="557,146.4 553.7,146.4 553.7,165.7 	"/>
	<polyline class="st10" points="343.8,196.2 343.8,205.9 415,205.9 	"/>
	<g>
		<polygon class="st5" points="444.1,159.5 415,181 415,184.9 444.1,163.2 456.4,172.2 458.9,170.3 		"/>
		<linearGradient id="SVGID_5_" gradientUnits="userSpaceOnUse" x1="461.9731" y1="214" x2="461.9731" y2="187.6646">
			<stop  offset="0" style="stop-color:#6ABC5C"/>
			<stop  offset="1" style="stop-color:#65D2FB"/>
		</linearGradient>
		<rect x="454.5" y="183.3" class="st15" width="14.9" height="26.4"/>
		<polygon class="st5" points="450.4,181 462.5,172.8 473.5,180.6 473.5,183.8 462.6,176.3 450.4,184.6 		"/>
		<rect x="452.7" y="209.7" class="st4" width="18.1" height="1.5"/>
		<rect x="452.7" y="213.3" class="st4" width="18.1" height="1.5"/>
		<g>
			<rect x="481.7" y="205.1" class="st4" width="27.3" height="7.4"/>
			<rect x="481.7" y="197" class="st4" width="27.3" height="7.3"/>
			<path class="st10" d="M406.5,182.4"/>
			<polyline class="st10" points="415,181 415,209.7 450.4,209.7 450.4,181 462.5,172.8 473.5,180.6 473.5,209.7 479.5,209.7 
				479.5,220 415,220 415,209.7 			"/>
			<polygon class="st10" points="442.8,182.4 462,168 481.7,183.1 480.1,185.3 462.5,172.8 444.4,184.9 			"/>
			<polygon class="st10" points="406.9,183 444.4,153.6 462,168 458.9,170.3 444.1,159.5 408.8,185.6 			"/>
			<rect x="424.2" y="185.6" class="st4" width="3.5" height="21"/>
			
				<rect x="438.4" y="185.6" transform="matrix(-1 -1.224647e-16 1.224647e-16 -1 880.3112 392.1281)" class="st4" width="3.5" height="21"/>
			<linearGradient id="SVGID_6_" gradientUnits="userSpaceOnUse" x1="429.7708" y1="196.064" x2="437.5887" y2="196.064">
				<stop  offset="0" style="stop-color:#6ABC5C"/>
				<stop  offset="1" style="stop-color:#65D2FF"/>
			</linearGradient>
			<polygon class="st16" points="428.6,206.6 437.5,206.6 437.5,185.6 428.6,185.6 			"/>
			<rect x="427.7" y="212.2" class="st4" width="10.6" height="5.2"/>
			<rect x="448.8" y="209.7" class="st10" width="25.5" height="10.3"/>
			<rect x="454.5" y="183.3" class="st4" width="14.9" height="26.4"/>
			<rect x="452.7" y="216.9" class="st10" width="18.1" height="3.1"/>
			<rect x="452.7" y="213.3" class="st10" width="18.1" height="3.6"/>
			<rect x="452.7" y="209.7" class="st10" width="18.1" height="3.6"/>
			<rect x="466.3" y="161.3" class="st10" width="8" height="6.7"/>
			<rect x="467.6" y="154.5" class="st10" width="5.5" height="6.7"/>
			<rect x="467.6" y="149.4" class="st10" width="5.5" height="2.3"/>
			<rect x="466.3" y="151.7" class="st10" width="8" height="2.9"/>
			<line class="st10" x1="466.3" y1="164.6" x2="457.9" y2="164.6"/>
			<polyline class="st10" points="474.4,164.6 518.6,164.6 518.6,188 473.5,188 			"/>
			<polyline class="st10" points="473.5,191.6 518.6,191.6 518.6,188 			"/>
			<polyline class="st10" points="479.5,220 513.7,220 513.7,191.6 			"/>
			<circle class="st10" cx="444.4" cy="171.2" r="5.1"/>
		</g>
	</g>
	<line class="st10" x1="545.8" y1="172.8" x2="518.6" y2="172.8"/>
	<line class="st14" x1="336.2" y1="220" x2="546.4" y2="220"/>
	<circle class="st2" cx="343.8" cy="196.2" r="1.6"/>
	<circle class="st2" cx="553.7" cy="165.7" r="1.6"/>
	<circle class="st2" cx="518.6" cy="172.8" r="1.6"/>
	<circle class="st2" cx="444.4" cy="153.6" r="1.6"/>
	<circle class="st2" cx="571.9" cy="185.7" r="1.6"/>
	<circle class="st2" cx="463.6" cy="256.9" r="1.6"/>
	<line class="st10" x1="463.6" y1="256.9" x2="463.6" y2="220"/>
	<g>
		<polygon class="st10" points="447.5,18.1 437.8,22.5 434.4,27.8 428.8,30.5 428.8,37.9 425.6,43.6 429.2,51.3 441.8,53.4 
			442.2,58.7 447.5,66.5 458.4,66.5 467.4,62.7 473.3,80.8 481.7,65.8 486.4,62.7 489.1,57.2 494.4,56.4 495.8,46.1 494.2,36 
			488.5,32.8 487.2,25.7 474.2,18.1 464.5,16.4 		"/>
		<polygon class="st10" points="445.8,37.5 428.8,30.5 434.4,27.8 		"/>
		<path class="st10" d="M440.1,44.4c-0.5,0-14.5-0.9-14.5-0.9l3.2-5.7L440.1,44.4z"/>
		<polygon class="st10" points="445.8,37.5 440.1,44.4 428.8,30.5 		"/>
		<polygon class="st10" points="441.8,53.4 440.1,44.4 429.2,51.3 		"/>
		<polygon class="st10" points="442.2,58.7 452.8,55.6 447.5,66.5 		"/>
		<polygon class="st10" points="441.8,53.4 450.9,44.4 452.8,55.6 		"/>
		<polygon class="st10" points="440.1,44.4 450.9,44.4 445.8,37.5 		"/>
		<polygon class="st10" points="447.5,18.1 449.2,27.8 437.8,22.5 		"/>
		<polygon class="st10" points="445.8,37.5 449.2,27.8 437.8,22.5 		"/>
		<polygon class="st10" points="464.5,16.4 470.8,32.7 474.2,18.1 		"/>
		<polygon class="st10" points="449.2,27.8 464.5,16.4 447.5,18.1 		"/>
		<polygon class="st10" points="487.2,25.7 470.8,32.7 488.5,32.8 		"/>
		<polygon class="st10" points="489.1,57.2 479.6,51.1 486.4,62.7 		"/>
		<polygon class="st10" points="495.8,46.1 479.6,51.1 494.2,36 		"/>
		<polygon class="st10" points="470.8,32.7 479.6,39.7 488.5,32.8 		"/>
		<polygon class="st10" points="494.2,36 479.6,39.7 479.6,51.1 		"/>
		<polygon class="st10" points="450.9,44.4 466.7,39.7 452.8,55.6 		"/>
		<polygon class="st10" points="479.6,51.1 466.7,39.7 479.6,39.7 		"/>
		<polygon class="st10" points="458.4,66.5 452.8,55.6 467.4,62.7 		"/>
		<polygon class="st10" points="481.7,65.8 470.2,71.1 467.4,62.7 		"/>
		<polygon class="st10" points="479.6,51.1 467.4,62.7 481.7,65.8 		"/>
		<polygon class="st10" points="466.7,39.7 462.9,53.4 479.6,51.1 		"/>
		<polygon class="st10" points="467.4,62.7 462.9,53.4 452.8,55.6 		"/>
		<polygon class="st10" points="470.8,32.7 449.2,27.8 450.9,44.4 		"/>
		<polygon class="st10" points="466.7,39.7 470.8,32.7 479.6,39.7 		"/>
	</g>
	<g>
		<path class="st10" d="M177,401.5h271.9c11,0,20-8.9,20-20v-36.4h-9v33.1c0,7.9-6.4,14.2-14.2,14.2H116.1"/>
	</g>
	<g>
		<path class="st17" d="M463.8,345.2v34.8c0,9.4-7.6,17.1-17.1,17.1c0,0-240.7,0-305.8,0s-86.8,69.3-86.8,69.3"/>
	</g>
	<ellipse class="st5" cx="577.9" cy="225.1" rx="10" ry="2.6"/>
	<g>
		<defs>
			<rect id="SVGID_7_" x="389.5" y="345.2" width="149.1" height="9.8"/>
		</defs>
		<clipPath id="SVGID_8_">
			<use xlink:href="#SVGID_7_"  style="overflow:visible;"/>
		</clipPath>
		<ellipse class="st18" cx="463.6" cy="345.6" rx="71.1" ry="3.1"/>
	</g>
	<g>
		<g>
			<path class="st10" d="M524.5,337.4H402.8V264c0-3.9,3.2-7.1,7.1-7.1h107.4c3.9,0,7.1,3.2,7.1,7.1V337.4z"/>
			<path class="st10" d="M530.8,345.2H396.4c-2.1,0-3.9-1.7-3.9-3.9v-1.5h142.2v1.5C534.7,343.4,533,345.2,530.8,345.2z"/>
			<rect x="392.6" y="337.4" class="st10" width="142.2" height="2.4"/>
			<rect x="447.1" y="339.8" class="st10" width="33" height="1.5"/>
		</g>
		<g>
			<rect x="414.2" y="272.5" class="st13" width="30.6" height="22.9"/>
			<rect x="414.2" y="272.5" class="st10" width="30.6" height="5.4"/>
		</g>
		<g>
			<rect x="449.6" y="272.5" class="st13" width="30.6" height="22.9"/>
			<rect x="449.6" y="272.5" class="st10" width="30.6" height="5.4"/>
		</g>
		<g>
			<rect x="485.2" y="272.5" class="st13" width="30.6" height="22.9"/>
			<rect x="485.2" y="272.5" class="st10" width="30.6" height="5.4"/>
		</g>
		<g>
			<rect x="414.2" y="301.8" class="st13" width="30.6" height="22.9"/>
			<rect x="414.2" y="301.8" class="st10" width="30.6" height="5.4"/>
		</g>
		<g>
			<rect x="449.6" y="301.8" class="st13" width="30.6" height="22.9"/>
			<rect x="449.6" y="301.8" class="st10" width="30.6" height="5.4"/>
		</g>
	</g>
</g>
<g id="Layer_2">
</g>
<g id="Layer_3">
</g>
</svg>
