<?xml version="1.0" encoding="utf-8"?>
<!-- Generator: Adobe Illustrator 22.1.0, SVG Export Plug-In . SVG Version: 6.00 Build 0)  -->
<svg version="1.1" id="Layer_1" xmlns="http://www.w3.org/2000/svg" xmlns:xlink="http://www.w3.org/1999/xlink" x="0px" y="0px"
	 viewBox="0 0 230.6 333.9" style="enable-background:new 0 0 230.6 333.9;" xml:space="preserve">
<style type="text/css">
	.st0{opacity:0.4;fill:#65D2FF;}
	.st1{opacity:0.69;fill:#65D2FF;}
	.st2{fill:url(#SVGID_1_);}
	.st3{fill:#FFFFFF;}
	.st4{opacity:0.3;fill:#65D2FF;}
	.st5{fill:url(#SVGID_2_);}
	.st6{fill:none;stroke:#FFFFFF;stroke-miterlimit:10;}
	.st7{fill:#FFFFFF;stroke:#FFFFFF;stroke-width:0.25;stroke-miterlimit:10;}
	.st8{fill:url(#SVGID_3_);}
	.st9{fill:#65D2FF;}
	.st10{fill:none;stroke:#FFFFFF;stroke-width:0.5;stroke-miterlimit:10;}
	.st11{opacity:0.1;fill:#FFFFFF;}
	.st12{opacity:0.5;fill:#FFFFFF;}
	.st13{opacity:0.6;fill:#65D2FF;}
	.st14{opacity:0.2;fill:#FFFFFF;}
	.st15{fill:none;stroke:#FFFFFF;stroke-linecap:round;stroke-linejoin:round;stroke-miterlimit:10;}
</style>
<path class="st0" d="M97.7,49.2c9.2,0,17.9,1.9,25.8,5.3l-5.4,12.6c-6.3-2.8-13.3-4.3-20.7-4.3c-28.7,0-52,23.3-52,52
	c0,28.4,24.3,51.5,52.6,51.9v13.6c-35.7-0.6-66-29.7-66-65.5C32.1,78.6,61.5,49.2,97.7,49.2z"/>
<path class="st1" d="M97.5,62.8c7.4,0,14.3,1.5,20.7,4.3c9.3,4,17.2,10.7,22.7,19.1l-11.3,7.5c-6.9-10.4-18.7-17.3-32.1-17.3
	c-21.2,0-38.3,17.2-38.3,38.3c0,20.9,18.2,37.9,39,38.3v8.4v5.2c-28.3-0.5-52.6-23.5-52.6-51.9C45.5,86.1,68.8,62.8,97.5,62.8z"/>
<linearGradient id="SVGID_1_" gradientUnits="userSpaceOnUse" x1="75.0803" y1="139.6209" x2="116.4136" y2="82.9542">
	<stop  offset="0" style="stop-color:#6ABC5C"/>
	<stop  offset="1" style="stop-color:#65D2FF"/>
</linearGradient>
<path class="st2" d="M97.5,76.4c13.4,0,25.2,6.9,32.1,17.3c4,6,6.3,13.3,6.3,21c0,0.3,0,0.5,0,0.7h-13.3c0-0.2,0-0.5,0-0.7
	c0-13.8-11.2-25.1-25.1-25.1c-13.8,0-25.1,11.2-25.1,25.1c0,13.5,12.3,24.6,25.7,25v9.7v3.6c-20.8-0.5-39-17.4-39-38.3
	C59.1,93.6,76.3,76.4,97.5,76.4z"/>
<g>
	<g>
		<path class="st3" d="M105.1,148.2h-1.8l-0.3,1.3h-1.4l2-6.4h1.2l2,6.4h-1.4L105.1,148.2z M103.6,147.1h1.2l-0.6-2.3L103.6,147.1z"
			/>
	</g>
</g>
<g>
	<g>
		<path class="st3" d="M146,115.9c0,0.2-0.1,0.4-0.2,0.6c-0.1,0.2-0.2,0.3-0.4,0.4c0.2,0.1,0.4,0.3,0.5,0.5s0.2,0.4,0.2,0.7
			c0,0.4-0.1,0.8-0.4,1s-0.6,0.4-1,0.4s-0.8-0.1-1-0.4c-0.3-0.3-0.4-0.6-0.4-1c0-0.3,0.1-0.5,0.2-0.7s0.3-0.4,0.5-0.5
			c-0.2-0.1-0.3-0.3-0.4-0.4c-0.1-0.2-0.2-0.4-0.2-0.6c0-0.4,0.1-0.8,0.4-1c0.2-0.2,0.6-0.4,1-0.4c0.4,0,0.7,0.1,1,0.4
			C145.9,115.2,146,115.5,146,115.9z M144.7,118.8c0.1,0,0.3-0.1,0.3-0.2c0.1-0.1,0.1-0.3,0.1-0.5c0-0.2,0-0.4-0.1-0.5
			c-0.1-0.1-0.2-0.2-0.3-0.2c-0.1,0-0.3,0.1-0.3,0.2c-0.1,0.1-0.1,0.3-0.1,0.5c0,0.2,0,0.4,0.1,0.5
			C144.5,118.7,144.6,118.8,144.7,118.8z M145.1,116c0-0.2,0-0.3-0.1-0.5c-0.1-0.1-0.2-0.2-0.3-0.2c-0.1,0-0.2,0.1-0.3,0.2
			c-0.1,0.1-0.1,0.3-0.1,0.5c0,0.2,0,0.3,0.1,0.5c0.1,0.1,0.2,0.2,0.3,0.2c0.1,0,0.2-0.1,0.3-0.2C145.1,116.3,145.1,116.2,145.1,116
			z"/>
		<path class="st3" d="M149.8,117.5c0,0.7-0.1,1.2-0.4,1.6c-0.2,0.4-0.6,0.5-1.1,0.5c-0.5,0-0.8-0.2-1-0.5c-0.2-0.3-0.4-0.8-0.4-1.5
			v-0.9c0-0.7,0.1-1.2,0.4-1.6c0.2-0.4,0.6-0.5,1.1-0.5c0.5,0,0.8,0.2,1.1,0.5c0.2,0.4,0.4,0.9,0.4,1.5V117.5z M148.8,116.5
			c0-0.4,0-0.7-0.1-0.9c-0.1-0.2-0.2-0.3-0.4-0.3c-0.3,0-0.5,0.4-0.5,1.1v1.2c0,0.4,0,0.7,0.1,0.9c0.1,0.2,0.2,0.3,0.4,0.3
			c0.2,0,0.3-0.1,0.3-0.3c0.1-0.2,0.1-0.5,0.1-0.8V116.5z"/>
		<path class="st3" d="M150.6,115.6c0-0.3,0.1-0.5,0.2-0.7c0.2-0.2,0.4-0.3,0.7-0.3s0.5,0.1,0.7,0.3c0.2,0.2,0.3,0.4,0.3,0.7v0.2
			c0,0.3-0.1,0.5-0.2,0.7c-0.2,0.2-0.4,0.3-0.7,0.3c-0.3,0-0.5-0.1-0.7-0.3c-0.2-0.2-0.3-0.4-0.3-0.8V115.6z M151.2,115.8
			c0,0.1,0,0.2,0.1,0.3c0.1,0.1,0.1,0.1,0.2,0.1c0.1,0,0.2,0,0.2-0.1s0.1-0.2,0.1-0.3v-0.2c0-0.1,0-0.2-0.1-0.3
			c-0.1-0.1-0.1-0.1-0.2-0.1c-0.1,0-0.2,0-0.2,0.1c-0.1,0.1-0.1,0.2-0.1,0.3V115.8z M151.7,119.2l-0.5-0.3l2-3.8l0.5,0.3
			L151.7,119.2z M152.6,118.3c0-0.3,0.1-0.5,0.3-0.7s0.4-0.3,0.7-0.3c0.3,0,0.5,0.1,0.7,0.3c0.2,0.2,0.3,0.4,0.3,0.8v0.2
			c0,0.3-0.1,0.5-0.2,0.7c-0.2,0.2-0.4,0.3-0.7,0.3c-0.3,0-0.5-0.1-0.7-0.3c-0.2-0.2-0.2-0.4-0.2-0.7V118.3z M153.2,118.6
			c0,0.1,0,0.2,0.1,0.3c0.1,0.1,0.1,0.1,0.2,0.1c0.2,0,0.3-0.1,0.3-0.4v-0.3c0-0.1,0-0.2-0.1-0.3s-0.1-0.1-0.2-0.1
			c-0.2,0-0.3,0.2-0.3,0.5V118.6z"/>
	</g>
</g>
<g>
	<g>
		<path class="st3" d="M102.1,162.9v-6.4h2c0.7,0,1.2,0.1,1.5,0.4c0.3,0.3,0.5,0.7,0.5,1.3c0,0.3-0.1,0.6-0.2,0.8
			c-0.1,0.2-0.3,0.4-0.6,0.5c0.3,0.1,0.5,0.2,0.7,0.5s0.2,0.5,0.2,0.9c0,0.6-0.2,1.1-0.5,1.4c-0.3,0.3-0.8,0.5-1.5,0.5H102.1z
			 M103.4,159.2h0.7c0.5,0,0.8-0.3,0.8-0.8c0-0.3-0.1-0.5-0.2-0.6c-0.1-0.1-0.3-0.2-0.6-0.2h-0.7V159.2z M103.4,160.2v1.7h0.8
			c0.2,0,0.4-0.1,0.5-0.2c0.1-0.1,0.2-0.3,0.2-0.6c0-0.6-0.2-0.9-0.6-0.9H103.4z"/>
	</g>
</g>
<g>
	<g>
		<path class="st3" d="M106.4,175.2c0,0.7-0.2,1.3-0.6,1.6c-0.4,0.4-0.9,0.6-1.6,0.6c-0.7,0-1.3-0.2-1.7-0.7s-0.6-1.1-0.6-2v-1.1
			c0-0.9,0.2-1.5,0.6-2c0.4-0.5,0.9-0.7,1.6-0.7c0.7,0,1.2,0.2,1.6,0.6c0.4,0.4,0.6,0.9,0.6,1.7h-1.3c0-0.4-0.1-0.8-0.2-0.9
			s-0.4-0.3-0.7-0.3c-0.3,0-0.6,0.1-0.7,0.4s-0.2,0.6-0.2,1.2v1.2c0,0.6,0.1,1.1,0.2,1.3c0.1,0.2,0.4,0.4,0.7,0.4
			c0.3,0,0.6-0.1,0.7-0.2c0.1-0.2,0.2-0.5,0.2-0.9H106.4z"/>
	</g>
</g>
<g>
	<g>
		<polygon class="st4" points="157.5,166.1 150,158.3 142.6,166.1 146.7,166.1 146.7,176.9 153.4,176.9 153.4,166.1 		"/>
		<polygon class="st4" points="193.4,159.2 185.9,151.4 178.5,159.2 182.6,159.2 182.6,176.9 189.2,176.9 189.2,159.2 		"/>
		<linearGradient id="SVGID_2_" gradientUnits="userSpaceOnUse" x1="158.785" y1="172.9074" x2="158.785" y2="151.7401">
			<stop  offset="0" style="stop-color:#6ABC5C"/>
			<stop  offset="1" style="stop-color:#65D2FF"/>
		</linearGradient>
		<polygon class="st5" points="166.2,157.2 158.8,149.4 151.4,157.2 155.5,157.2 155.5,176.9 162.1,176.9 162.1,157.2 		"/>
		<polygon class="st4" points="184.6,148.8 177.2,141.1 169.7,148.8 173.8,148.8 173.8,176.9 180.5,176.9 180.5,148.8 		"/>
		<polygon class="st4" points="175.4,140.3 168,132.5 160.5,140.3 164.6,140.3 164.6,176.9 171.3,176.9 171.3,140.3 		"/>
	</g>
	<g>
		<g>
			<path class="st3" d="M147.7,180.3h0.2c0.1,0,0.1,0,0.2-0.1c0-0.1,0.1-0.1,0.1-0.2c0-0.1,0-0.2-0.1-0.2c0,0-0.1-0.1-0.1-0.1
				c-0.1,0-0.1,0-0.1,0.1c0,0-0.1,0.1-0.1,0.2h-0.4c0-0.1,0-0.2,0.1-0.3c0.1-0.1,0.1-0.2,0.2-0.2c0.1-0.1,0.2-0.1,0.3-0.1
				c0.2,0,0.4,0.1,0.5,0.2s0.2,0.3,0.2,0.5c0,0.1,0,0.2-0.1,0.3s-0.1,0.1-0.2,0.2c0.1,0,0.2,0.1,0.2,0.2s0.1,0.2,0.1,0.3
				c0,0.2-0.1,0.3-0.2,0.5c-0.1,0.1-0.3,0.2-0.5,0.2c-0.2,0-0.3-0.1-0.5-0.2c-0.1-0.1-0.2-0.3-0.2-0.5h0.4c0,0.1,0,0.1,0.1,0.2
				c0,0.1,0.1,0.1,0.2,0.1c0.1,0,0.1,0,0.2-0.1s0.1-0.1,0.1-0.2c0-0.2-0.1-0.3-0.2-0.3h-0.2V180.3z"/>
			<path class="st3" d="M150.3,180.6c0,0.3-0.1,0.5-0.2,0.7s-0.3,0.2-0.5,0.2c-0.2,0-0.4-0.1-0.5-0.2s-0.2-0.4-0.2-0.7v-0.4
				c0-0.3,0.1-0.5,0.2-0.7c0.1-0.2,0.3-0.2,0.5-0.2c0.2,0,0.4,0.1,0.5,0.2s0.2,0.4,0.2,0.7V180.6z M149.8,180.2c0-0.2,0-0.3-0.1-0.4
				c0-0.1-0.1-0.1-0.2-0.1c-0.1,0-0.2,0.2-0.2,0.5v0.5c0,0.2,0,0.3,0.1,0.4c0,0.1,0.1,0.1,0.2,0.1c0.1,0,0.1,0,0.2-0.1
				c0-0.1,0.1-0.2,0.1-0.4V180.2z"/>
			<path class="st3" d="M150.6,179.8c0-0.1,0-0.2,0.1-0.3c0.1-0.1,0.2-0.1,0.3-0.1c0.1,0,0.2,0,0.3,0.1c0.1,0.1,0.1,0.2,0.1,0.3v0.1
				c0,0.1,0,0.2-0.1,0.3c-0.1,0.1-0.2,0.1-0.3,0.1c-0.1,0-0.2,0-0.3-0.1c-0.1-0.1-0.1-0.2-0.1-0.3V179.8z M150.9,179.9
				c0,0.1,0,0.1,0,0.1s0.1,0.1,0.1,0.1c0,0,0.1,0,0.1-0.1c0,0,0-0.1,0-0.1v-0.1c0-0.1,0-0.1,0-0.1s-0.1-0.1-0.1-0.1
				c0,0-0.1,0-0.1,0.1s0,0.1,0,0.1V179.9z M151.1,181.4l-0.2-0.1l0.9-1.7l0.2,0.1L151.1,181.4z M151.5,181c0-0.1,0-0.2,0.1-0.3
				s0.2-0.1,0.3-0.1c0.1,0,0.2,0,0.3,0.1s0.1,0.2,0.1,0.3v0.1c0,0.1,0,0.2-0.1,0.3s-0.2,0.1-0.3,0.1c-0.1,0-0.2,0-0.3-0.1
				c-0.1-0.1-0.1-0.2-0.1-0.3V181z M151.8,181.1c0,0.1,0,0.1,0,0.1c0,0,0.1,0.1,0.1,0.1c0.1,0,0.1-0.1,0.1-0.2V181
				c0-0.1,0-0.1,0-0.1s-0.1-0.1-0.1-0.1C151.8,180.8,151.8,180.9,151.8,181.1L151.8,181.1z"/>
		</g>
	</g>
	<g>
		<g>
			<path class="st3" d="M157.2,180.7h0.2v0.4h-0.2v0.5h-0.4v-0.5h-0.7l0-0.3l0.7-1.4h0.4V180.7z M156.5,180.7h0.3V180l0,0
				L156.5,180.7z"/>
			<path class="st3" d="M157.8,180.5l0.1-1.1h1.1v0.4h-0.7l0,0.5c0.1-0.1,0.2-0.1,0.3-0.1c0.2,0,0.3,0.1,0.4,0.2
				c0.1,0.1,0.1,0.3,0.1,0.5c0,0.2-0.1,0.4-0.2,0.5c-0.1,0.1-0.3,0.2-0.5,0.2c-0.1,0-0.2,0-0.3-0.1c-0.1-0.1-0.2-0.1-0.2-0.2
				s-0.1-0.2-0.1-0.3h0.4c0,0.1,0,0.2,0.1,0.2s0.1,0.1,0.1,0.1c0.1,0,0.1,0,0.2-0.1c0-0.1,0.1-0.2,0.1-0.3c0-0.1,0-0.2-0.1-0.3
				c0-0.1-0.1-0.1-0.2-0.1c-0.1,0-0.1,0-0.2,0.1l0,0L157.8,180.5z"/>
			<path class="st3" d="M159.4,179.8c0-0.1,0-0.2,0.1-0.3c0.1-0.1,0.2-0.1,0.3-0.1c0.1,0,0.2,0,0.3,0.1c0.1,0.1,0.1,0.2,0.1,0.3v0.1
				c0,0.1,0,0.2-0.1,0.3c-0.1,0.1-0.2,0.1-0.3,0.1c-0.1,0-0.2,0-0.3-0.1c-0.1-0.1-0.1-0.2-0.1-0.3V179.8z M159.6,179.9
				c0,0.1,0,0.1,0,0.1s0.1,0.1,0.1,0.1c0,0,0.1,0,0.1-0.1c0,0,0-0.1,0-0.1v-0.1c0-0.1,0-0.1,0-0.1s-0.1-0.1-0.1-0.1
				c0,0-0.1,0-0.1,0.1s0,0.1,0,0.1V179.9z M159.8,181.4l-0.2-0.1l0.9-1.7l0.2,0.1L159.8,181.4z M160.2,181c0-0.1,0-0.2,0.1-0.3
				s0.2-0.1,0.3-0.1c0.1,0,0.2,0,0.3,0.1s0.1,0.2,0.1,0.3v0.1c0,0.1,0,0.2-0.1,0.3s-0.2,0.1-0.3,0.1c-0.1,0-0.2,0-0.3-0.1
				c-0.1-0.1-0.1-0.2-0.1-0.3V181z M160.5,181.1c0,0.1,0,0.1,0,0.1c0,0,0.1,0.1,0.1,0.1c0.1,0,0.1-0.1,0.1-0.2V181
				c0-0.1,0-0.1,0-0.1s-0.1-0.1-0.1-0.1C160.5,180.8,160.5,180.9,160.5,181.1L160.5,181.1z"/>
		</g>
	</g>
	<g>
		<g>
			<path class="st3" d="M175.6,179.3v0.4h0c-0.2,0-0.3,0-0.4,0.1c-0.1,0.1-0.1,0.2-0.2,0.4c0.1-0.1,0.2-0.2,0.3-0.2
				c0.2,0,0.3,0.1,0.4,0.2c0.1,0.1,0.1,0.3,0.1,0.5c0,0.1,0,0.3-0.1,0.4s-0.1,0.2-0.2,0.3c-0.1,0.1-0.2,0.1-0.3,0.1
				c-0.2,0-0.4-0.1-0.5-0.2c-0.1-0.2-0.2-0.4-0.2-0.6v-0.2c0-0.2,0-0.5,0.1-0.6s0.2-0.3,0.3-0.4
				C175.2,179.4,175.3,179.3,175.6,179.3L175.6,179.3z M175.2,180.4c-0.1,0-0.1,0-0.1,0.1c0,0-0.1,0.1-0.1,0.1v0.2
				c0,0.2,0,0.3,0.1,0.3c0,0.1,0.1,0.1,0.2,0.1c0.1,0,0.1,0,0.2-0.1c0-0.1,0.1-0.2,0.1-0.3c0-0.1,0-0.2-0.1-0.3
				C175.4,180.5,175.3,180.4,175.2,180.4z"/>
			<path class="st3" d="M177.5,180.6c0,0.3-0.1,0.5-0.2,0.7s-0.3,0.2-0.5,0.2c-0.2,0-0.4-0.1-0.5-0.2s-0.2-0.4-0.2-0.7v-0.4
				c0-0.3,0.1-0.5,0.2-0.7c0.1-0.2,0.3-0.2,0.5-0.2c0.2,0,0.4,0.1,0.5,0.2s0.2,0.4,0.2,0.7V180.6z M177,180.2c0-0.2,0-0.3-0.1-0.4
				c0-0.1-0.1-0.1-0.2-0.1c-0.1,0-0.2,0.2-0.2,0.5v0.5c0,0.2,0,0.3,0.1,0.4c0,0.1,0.1,0.1,0.2,0.1c0.1,0,0.1,0,0.2-0.1
				c0-0.1,0.1-0.2,0.1-0.4V180.2z"/>
			<path class="st3" d="M177.8,179.8c0-0.1,0-0.2,0.1-0.3c0.1-0.1,0.2-0.1,0.3-0.1c0.1,0,0.2,0,0.3,0.1c0.1,0.1,0.1,0.2,0.1,0.3v0.1
				c0,0.1,0,0.2-0.1,0.3c-0.1,0.1-0.2,0.1-0.3,0.1c-0.1,0-0.2,0-0.3-0.1c-0.1-0.1-0.1-0.2-0.1-0.3V179.8z M178.1,179.9
				c0,0.1,0,0.1,0,0.1s0.1,0.1,0.1,0.1c0,0,0.1,0,0.1-0.1c0,0,0-0.1,0-0.1v-0.1c0-0.1,0-0.1,0-0.1s-0.1-0.1-0.1-0.1
				c0,0-0.1,0-0.1,0.1s0,0.1,0,0.1V179.9z M178.3,181.4l-0.2-0.1l0.9-1.7l0.2,0.1L178.3,181.4z M178.7,181c0-0.1,0-0.2,0.1-0.3
				s0.2-0.1,0.3-0.1c0.1,0,0.2,0,0.3,0.1s0.1,0.2,0.1,0.3v0.1c0,0.1,0,0.2-0.1,0.3s-0.2,0.1-0.3,0.1c-0.1,0-0.2,0-0.3-0.1
				c-0.1-0.1-0.1-0.2-0.1-0.3V181z M179,181.1c0,0.1,0,0.1,0,0.1c0,0,0.1,0.1,0.1,0.1c0.1,0,0.1-0.1,0.1-0.2V181c0-0.1,0-0.1,0-0.1
				s-0.1-0.1-0.1-0.1C179,180.8,179,180.9,179,181.1L179,181.1z"/>
		</g>
	</g>
	<g>
		<g>
			<path class="st3" d="M166.7,179.9c0,0.1,0,0.2-0.1,0.3c0,0.1-0.1,0.1-0.2,0.2c0.1,0.1,0.2,0.1,0.2,0.2c0.1,0.1,0.1,0.2,0.1,0.3
				c0,0.2-0.1,0.3-0.2,0.5c-0.1,0.1-0.3,0.2-0.5,0.2c-0.2,0-0.3-0.1-0.5-0.2c-0.1-0.1-0.2-0.3-0.2-0.5c0-0.1,0-0.2,0.1-0.3
				c0.1-0.1,0.1-0.2,0.2-0.2c-0.1,0-0.1-0.1-0.2-0.2c0-0.1-0.1-0.2-0.1-0.3c0-0.2,0.1-0.3,0.2-0.4s0.2-0.2,0.4-0.2
				c0.2,0,0.3,0.1,0.4,0.2S166.7,179.8,166.7,179.9z M166.1,181.2c0.1,0,0.1,0,0.1-0.1c0-0.1,0.1-0.1,0.1-0.2s0-0.2-0.1-0.2
				s-0.1-0.1-0.1-0.1c-0.1,0-0.1,0-0.1,0.1c0,0.1-0.1,0.1-0.1,0.2s0,0.2,0.1,0.2C166,181.2,166.1,181.2,166.1,181.2z M166.3,180
				c0-0.1,0-0.2,0-0.2s-0.1-0.1-0.1-0.1c-0.1,0-0.1,0-0.1,0.1s0,0.1,0,0.2c0,0.1,0,0.2,0,0.2c0,0.1,0.1,0.1,0.1,0.1
				c0.1,0,0.1,0,0.1-0.1C166.3,180.1,166.3,180,166.3,180z"/>
			<path class="st3" d="M167.2,180.5l0.1-1.1h1.1v0.4h-0.7l0,0.5c0.1-0.1,0.2-0.1,0.3-0.1c0.2,0,0.3,0.1,0.4,0.2
				c0.1,0.1,0.1,0.3,0.1,0.5c0,0.2-0.1,0.4-0.2,0.5c-0.1,0.1-0.3,0.2-0.5,0.2c-0.1,0-0.2,0-0.3-0.1c-0.1-0.1-0.2-0.1-0.2-0.2
				s-0.1-0.2-0.1-0.3h0.4c0,0.1,0,0.2,0.1,0.2s0.1,0.1,0.1,0.1c0.1,0,0.1,0,0.2-0.1c0-0.1,0.1-0.2,0.1-0.3c0-0.1,0-0.2-0.1-0.3
				c0-0.1-0.1-0.1-0.2-0.1c-0.1,0-0.1,0-0.2,0.1l0,0L167.2,180.5z"/>
			<path class="st3" d="M168.7,179.8c0-0.1,0-0.2,0.1-0.3c0.1-0.1,0.2-0.1,0.3-0.1c0.1,0,0.2,0,0.3,0.1c0.1,0.1,0.1,0.2,0.1,0.3v0.1
				c0,0.1,0,0.2-0.1,0.3c-0.1,0.1-0.2,0.1-0.3,0.1c-0.1,0-0.2,0-0.3-0.1c-0.1-0.1-0.1-0.2-0.1-0.3V179.8z M169,179.9
				c0,0.1,0,0.1,0,0.1s0.1,0.1,0.1,0.1c0,0,0.1,0,0.1-0.1c0,0,0-0.1,0-0.1v-0.1c0-0.1,0-0.1,0-0.1s-0.1-0.1-0.1-0.1
				c0,0-0.1,0-0.1,0.1s0,0.1,0,0.1V179.9z M169.2,181.4l-0.2-0.1l0.9-1.7l0.2,0.1L169.2,181.4z M169.6,181c0-0.1,0-0.2,0.1-0.3
				s0.2-0.1,0.3-0.1c0.1,0,0.2,0,0.3,0.1s0.1,0.2,0.1,0.3v0.1c0,0.1,0,0.2-0.1,0.3s-0.2,0.1-0.3,0.1c-0.1,0-0.2,0-0.3-0.1
				c-0.1-0.1-0.1-0.2-0.1-0.3V181z M169.9,181.1c0,0.1,0,0.1,0,0.1c0,0,0.1,0.1,0.1,0.1c0.1,0,0.1-0.1,0.1-0.2V181
				c0-0.1,0-0.1,0-0.1s-0.1-0.1-0.1-0.1C169.9,180.8,169.9,180.9,169.9,181.1L169.9,181.1z"/>
		</g>
	</g>
	<g>
		<g>
			<path class="st3" d="M184.3,180.7h0.2v0.4h-0.2v0.5h-0.4v-0.5h-0.7l0-0.3l0.7-1.4h0.4V180.7z M183.6,180.7h0.3V180l0,0
				L183.6,180.7z"/>
			<path class="st3" d="M186.1,180.6c0,0.3-0.1,0.5-0.2,0.7s-0.3,0.2-0.5,0.2c-0.2,0-0.4-0.1-0.5-0.2s-0.2-0.4-0.2-0.7v-0.4
				c0-0.3,0.1-0.5,0.2-0.7c0.1-0.2,0.3-0.2,0.5-0.2c0.2,0,0.4,0.1,0.5,0.2s0.2,0.4,0.2,0.7V180.6z M185.7,180.2c0-0.2,0-0.3-0.1-0.4
				c0-0.1-0.1-0.1-0.2-0.1c-0.1,0-0.2,0.2-0.2,0.5v0.5c0,0.2,0,0.3,0.1,0.4c0,0.1,0.1,0.1,0.2,0.1c0.1,0,0.1,0,0.2-0.1
				c0-0.1,0.1-0.2,0.1-0.4V180.2z"/>
			<path class="st3" d="M186.4,179.8c0-0.1,0-0.2,0.1-0.3c0.1-0.1,0.2-0.1,0.3-0.1c0.1,0,0.2,0,0.3,0.1c0.1,0.1,0.1,0.2,0.1,0.3v0.1
				c0,0.1,0,0.2-0.1,0.3c-0.1,0.1-0.2,0.1-0.3,0.1c-0.1,0-0.2,0-0.3-0.1c-0.1-0.1-0.1-0.2-0.1-0.3V179.8z M186.7,179.9
				c0,0.1,0,0.1,0,0.1s0.1,0.1,0.1,0.1c0,0,0.1,0,0.1-0.1c0,0,0-0.1,0-0.1v-0.1c0-0.1,0-0.1,0-0.1s-0.1-0.1-0.1-0.1
				c0,0-0.1,0-0.1,0.1s0,0.1,0,0.1V179.9z M186.9,181.4l-0.2-0.1l0.9-1.7l0.2,0.1L186.9,181.4z M187.3,181c0-0.1,0-0.2,0.1-0.3
				s0.2-0.1,0.3-0.1c0.1,0,0.2,0,0.3,0.1s0.1,0.2,0.1,0.3v0.1c0,0.1,0,0.2-0.1,0.3s-0.2,0.1-0.3,0.1c-0.1,0-0.2,0-0.3-0.1
				c-0.1-0.1-0.1-0.2-0.1-0.3V181z M187.6,181.1c0,0.1,0,0.1,0,0.1c0,0,0.1,0.1,0.1,0.1c0.1,0,0.1-0.1,0.1-0.2V181
				c0-0.1,0-0.1,0-0.1s-0.1-0.1-0.1-0.1C187.6,180.8,187.6,180.9,187.6,181.1L187.6,181.1z"/>
		</g>
	</g>
</g>
<path class="st6" d="M125.9,121.9c0-1.1,0.9-2,2-2c1.1,0,2,0.9,2,2c0,1.1-0.9,2-2,2C126.8,123.8,125.9,123,125.9,121.9z"/>
<path class="st7" d="M130,122.3h50.5c0.1,0,0.3-0.1,0.3-0.3c0-0.1-0.1-0.3-0.3-0.3H130c-0.1,0-0.3,0.1-0.3,0.3
	C129.7,122.2,129.8,122.3,130,122.3z"/>
<g>
	<g>
		<path class="st3" d="M143.4,57.1l0.2-2.5h2.4v0.8h-1.6l-0.1,1.1c0.2-0.1,0.4-0.2,0.6-0.2c0.4,0,0.7,0.1,0.9,0.4
			c0.2,0.3,0.3,0.7,0.3,1.2c0,0.5-0.1,0.9-0.4,1.2c-0.3,0.3-0.6,0.5-1,0.5c-0.3,0-0.5-0.1-0.7-0.2s-0.4-0.3-0.5-0.5
			s-0.2-0.5-0.2-0.7h0.9c0,0.2,0.1,0.4,0.2,0.5s0.2,0.2,0.3,0.2c0.2,0,0.3-0.1,0.4-0.2c0.1-0.2,0.1-0.4,0.1-0.7
			c0-0.3-0.1-0.5-0.2-0.6c-0.1-0.1-0.2-0.2-0.4-0.2c-0.2,0-0.3,0.1-0.4,0.2l-0.1,0.1L143.4,57.1z"/>
		<path class="st3" d="M147,57.1l0.2-2.5h2.4v0.8h-1.6l-0.1,1.1c0.2-0.1,0.4-0.2,0.6-0.2c0.4,0,0.7,0.1,0.9,0.4
			c0.2,0.3,0.3,0.7,0.3,1.2c0,0.5-0.1,0.9-0.4,1.2c-0.3,0.3-0.6,0.5-1,0.5c-0.3,0-0.5-0.1-0.7-0.2s-0.4-0.3-0.5-0.5
			s-0.2-0.5-0.2-0.7h0.9c0,0.2,0.1,0.4,0.2,0.5s0.2,0.2,0.3,0.2c0.2,0,0.3-0.1,0.4-0.2c0.1-0.2,0.1-0.4,0.1-0.7
			c0-0.3-0.1-0.5-0.2-0.6c-0.1-0.1-0.2-0.2-0.4-0.2c-0.2,0-0.3,0.1-0.4,0.2l-0.1,0.1L147,57.1z"/>
		<path class="st3" d="M150.6,55.6c0-0.3,0.1-0.5,0.2-0.7c0.2-0.2,0.4-0.3,0.7-0.3s0.5,0.1,0.7,0.3c0.2,0.2,0.3,0.4,0.3,0.7v0.2
			c0,0.3-0.1,0.5-0.2,0.7c-0.2,0.2-0.4,0.3-0.7,0.3c-0.3,0-0.5-0.1-0.7-0.3c-0.2-0.2-0.3-0.4-0.3-0.8V55.6z M151.2,55.8
			c0,0.1,0,0.2,0.1,0.3c0.1,0.1,0.1,0.1,0.2,0.1c0.1,0,0.2,0,0.2-0.1s0.1-0.2,0.1-0.3v-0.2c0-0.1,0-0.2-0.1-0.3
			c-0.1-0.1-0.1-0.1-0.2-0.1c-0.1,0-0.2,0-0.2,0.1c-0.1,0.1-0.1,0.2-0.1,0.3V55.8z M151.7,59.2l-0.5-0.3l2-3.8l0.5,0.3L151.7,59.2z
			 M152.6,58.3c0-0.3,0.1-0.5,0.3-0.7s0.4-0.3,0.7-0.3c0.3,0,0.5,0.1,0.7,0.3c0.2,0.2,0.3,0.4,0.3,0.8v0.2c0,0.3-0.1,0.5-0.2,0.7
			c-0.2,0.2-0.4,0.3-0.7,0.3c-0.3,0-0.5-0.1-0.7-0.3c-0.2-0.2-0.2-0.4-0.2-0.7V58.3z M153.2,58.6c0,0.1,0,0.2,0.1,0.3
			c0.1,0.1,0.1,0.1,0.2,0.1c0.2,0,0.3-0.1,0.3-0.4v-0.3c0-0.1,0-0.2-0.1-0.3s-0.1-0.1-0.2-0.1c-0.2,0-0.3,0.2-0.3,0.5V58.6z"/>
	</g>
</g>
<path class="st6" d="M125.9,61.9c0-1.1,0.9-2,2-2c1.1,0,2,0.9,2,2c0,1.1-0.9,2-2,2C126.8,63.8,125.9,63,125.9,61.9z"/>
<path class="st7" d="M130,62.3h50.5c0.1,0,0.3-0.1,0.3-0.3c0-0.1-0.1-0.3-0.3-0.3H130c-0.1,0-0.3,0.1-0.3,0.3
	C129.7,62.2,129.8,62.3,130,62.3z"/>
<g>
	<g>
		<path class="st3" d="M156,88.4v0.8H156c-0.4,0-0.6,0.1-0.9,0.3c-0.2,0.2-0.3,0.5-0.4,0.9c0.2-0.2,0.5-0.4,0.8-0.4
			c0.4,0,0.6,0.2,0.9,0.5c0.2,0.3,0.3,0.7,0.3,1.2c0,0.3-0.1,0.6-0.2,0.9c-0.1,0.3-0.3,0.5-0.5,0.6c-0.2,0.1-0.5,0.2-0.7,0.2
			c-0.4,0-0.8-0.2-1.1-0.5c-0.3-0.4-0.4-0.8-0.4-1.4v-0.4c0-0.5,0.1-1,0.3-1.4c0.2-0.4,0.4-0.7,0.7-0.9c0.3-0.2,0.7-0.3,1.1-0.3H156
			z M155.2,90.8c-0.1,0-0.2,0-0.3,0.1c-0.1,0.1-0.1,0.2-0.2,0.3v0.3c0,0.3,0,0.6,0.1,0.8c0.1,0.2,0.2,0.3,0.4,0.3
			c0.2,0,0.3-0.1,0.4-0.2c0.1-0.2,0.1-0.4,0.1-0.6c0-0.3,0-0.5-0.1-0.6C155.5,90.9,155.3,90.8,155.2,90.8z"/>
		<path class="st3" d="M157.5,90.9l0.2-2.5h2.4v0.8h-1.6l-0.1,1.1c0.2-0.1,0.4-0.2,0.6-0.2c0.4,0,0.7,0.1,0.9,0.4
			c0.2,0.3,0.3,0.7,0.3,1.2c0,0.5-0.1,0.9-0.4,1.2c-0.3,0.3-0.6,0.5-1,0.5c-0.3,0-0.5-0.1-0.7-0.2s-0.4-0.3-0.5-0.5
			s-0.2-0.5-0.2-0.7h0.9c0,0.2,0.1,0.4,0.2,0.5s0.2,0.2,0.3,0.2c0.2,0,0.3-0.1,0.4-0.2c0.1-0.2,0.1-0.4,0.1-0.7
			c0-0.3-0.1-0.5-0.2-0.6c-0.1-0.1-0.2-0.2-0.4-0.2c-0.2,0-0.3,0.1-0.4,0.2l-0.1,0.1L157.5,90.9z"/>
		<path class="st3" d="M161.1,89.4c0-0.3,0.1-0.5,0.2-0.7c0.2-0.2,0.4-0.3,0.7-0.3s0.5,0.1,0.7,0.3c0.2,0.2,0.3,0.4,0.3,0.7v0.2
			c0,0.3-0.1,0.5-0.2,0.7c-0.2,0.2-0.4,0.3-0.7,0.3c-0.3,0-0.5-0.1-0.7-0.3c-0.2-0.2-0.3-0.4-0.3-0.8V89.4z M161.7,89.6
			c0,0.1,0,0.2,0.1,0.3c0.1,0.1,0.1,0.1,0.2,0.1c0.1,0,0.2,0,0.2-0.1s0.1-0.2,0.1-0.3v-0.2c0-0.1,0-0.2-0.1-0.3
			c-0.1-0.1-0.1-0.1-0.2-0.1c-0.1,0-0.2,0-0.2,0.1c-0.1,0.1-0.1,0.2-0.1,0.3V89.6z M162.2,92.9l-0.5-0.3l2-3.8l0.5,0.3L162.2,92.9z
			 M163,92.1c0-0.3,0.1-0.5,0.3-0.7s0.4-0.3,0.7-0.3c0.3,0,0.5,0.1,0.7,0.3c0.2,0.2,0.3,0.4,0.3,0.8v0.2c0,0.3-0.1,0.5-0.2,0.7
			c-0.2,0.2-0.4,0.3-0.7,0.3c-0.3,0-0.5-0.1-0.7-0.3c-0.2-0.2-0.2-0.4-0.2-0.7V92.1z M163.6,92.4c0,0.1,0,0.2,0.1,0.3
			c0.1,0.1,0.1,0.1,0.2,0.1c0.2,0,0.3-0.1,0.3-0.4v-0.3c0-0.1,0-0.2-0.1-0.3s-0.1-0.1-0.2-0.1c-0.2,0-0.3,0.2-0.3,0.5V92.4z"/>
	</g>
</g>
<path class="st6" d="M140.9,95.7c0-1.1,0.9-2,2-2c1.1,0,2,0.9,2,2c0,1.1-0.9,2-2,2C141.8,97.6,140.9,96.7,140.9,95.7z"/>
<path class="st7" d="M144.9,96.1h35.8c0.1,0,0.2-0.1,0.2-0.3c0-0.1-0.1-0.3-0.2-0.3h-35.8c-0.1,0-0.2,0.1-0.2,0.3
	C144.7,96,144.8,96.1,144.9,96.1z"/>
<g>
	<g>
		<path class="st3" d="M187.9,210.4l-1.2,3.3h-0.8l1.2-3.1h-1.5v-0.6h2.3V210.4z"/>
		<path class="st3" d="M190.6,210.9c0,0.2,0,0.3-0.1,0.5c-0.1,0.1-0.2,0.3-0.3,0.3c0.2,0.1,0.3,0.2,0.4,0.4s0.1,0.3,0.1,0.5
			c0,0.3-0.1,0.6-0.3,0.8c-0.2,0.2-0.5,0.3-0.8,0.3c-0.3,0-0.6-0.1-0.8-0.3c-0.2-0.2-0.3-0.5-0.3-0.8c0-0.2,0-0.4,0.1-0.5
			c0.1-0.2,0.2-0.3,0.4-0.4c-0.1-0.1-0.2-0.2-0.3-0.3c-0.1-0.1-0.1-0.3-0.1-0.5c0-0.3,0.1-0.6,0.3-0.8c0.2-0.2,0.4-0.3,0.7-0.3
			c0.3,0,0.6,0.1,0.7,0.3C190.5,210.4,190.6,210.6,190.6,210.9z M189.5,213.1c0.1,0,0.2,0,0.3-0.1c0.1-0.1,0.1-0.2,0.1-0.4
			c0-0.2,0-0.3-0.1-0.4s-0.1-0.1-0.3-0.1s-0.2,0-0.3,0.1s-0.1,0.2-0.1,0.4c0,0.2,0,0.3,0.1,0.4C189.3,213.1,189.4,213.1,189.5,213.1
			z M189.8,211c0-0.1,0-0.3-0.1-0.3c0-0.1-0.1-0.1-0.2-0.1c-0.1,0-0.2,0-0.2,0.1c0,0.1-0.1,0.2-0.1,0.4c0,0.1,0,0.3,0.1,0.4
			s0.1,0.1,0.2,0.1s0.2,0,0.2-0.1C189.8,211.2,189.8,211.1,189.8,211z"/>
		<path class="st3" d="M191.3,210.7c0-0.2,0.1-0.4,0.2-0.6c0.1-0.1,0.3-0.2,0.5-0.2s0.4,0.1,0.5,0.2c0.1,0.1,0.2,0.3,0.2,0.6v0.2
			c0,0.2-0.1,0.4-0.2,0.6c-0.1,0.1-0.3,0.2-0.5,0.2c-0.2,0-0.4-0.1-0.5-0.2c-0.1-0.1-0.2-0.3-0.2-0.6V210.7z M191.7,210.9
			c0,0.1,0,0.2,0.1,0.2c0,0.1,0.1,0.1,0.2,0.1c0.1,0,0.1,0,0.2-0.1c0-0.1,0.1-0.1,0.1-0.2v-0.2c0-0.1,0-0.2-0.1-0.2
			c0-0.1-0.1-0.1-0.2-0.1c-0.1,0-0.1,0-0.2,0.1s-0.1,0.1-0.1,0.3V210.9z M192.1,213.4l-0.3-0.2l1.5-2.9l0.3,0.2L192.1,213.4z
			 M192.7,212.8c0-0.2,0.1-0.4,0.2-0.6c0.1-0.1,0.3-0.2,0.5-0.2c0.2,0,0.4,0.1,0.5,0.2c0.1,0.1,0.2,0.3,0.2,0.6v0.2
			c0,0.2-0.1,0.4-0.2,0.6c-0.1,0.1-0.3,0.2-0.5,0.2c-0.2,0-0.4-0.1-0.5-0.2c-0.1-0.1-0.2-0.3-0.2-0.6V212.8z M193.2,213
			c0,0.1,0,0.2,0.1,0.2c0,0.1,0.1,0.1,0.2,0.1c0.1,0,0.2-0.1,0.2-0.3v-0.2c0-0.1,0-0.2-0.1-0.2s-0.1-0.1-0.2-0.1
			c-0.2,0-0.2,0.1-0.2,0.4V213z"/>
	</g>
</g>
<g>
	<path class="st4" d="M92,225c8,0,14.5,6.5,14.5,14.5c0,8-6.5,14.5-14.5,14.5c-8,0-14.5-6.5-14.5-14.5C77.6,231.5,84,225,92,225z"/>
	<path class="st3" d="M92,239.5h11.9c0,6.6-5.3,11.9-11.9,11.9c-6.6,0-11.9-5.3-11.9-11.9c0-6.6,5.3-11.9,11.9-11.9
		c1.3,0,2.4,0.2,3.7,0.6L92,239.5z"/>
</g>
<g>
	<path class="st4" d="M181.7,225c8,0,14.5,6.5,14.5,14.5c0,8-6.5,14.5-14.5,14.5c-8,0-14.5-6.5-14.5-14.5
		C167.3,231.5,173.8,225,181.7,225z"/>
	<path class="st3" d="M181.9,239.7l12.1,0c0,6.7-5.5,12.1-12.2,12.1c-6.7,0-12.1-5.5-12.1-12.2c0-4,1.8-7.5,5-9.8L181.9,239.7z"/>
</g>
<g>
	<path class="st4" d="M136.9,225c8,0,14.5,6.5,14.5,14.5c0,8-6.5,14.5-14.5,14.5c-8,0-14.5-6.5-14.5-14.5
		C122.4,231.5,128.9,225,136.9,225z"/>
	<linearGradient id="SVGID_3_" gradientUnits="userSpaceOnUse" x1="133.1472" y1="245.6649" x2="149.1901" y2="245.6649">
		<stop  offset="0" style="stop-color:#6ABC5C"/>
		<stop  offset="1" style="stop-color:#65D2FF"/>
	</linearGradient>
	<path class="st8" d="M136.9,239.5l12.3,0c0,6.8-5.5,12.3-12.2,12.3c-1.4,0-2.5-0.2-3.8-0.6L136.9,239.5z"/>
</g>
<g>
	<path class="st4" d="M47.1,225c8,0,14.5,6.5,14.5,14.5c0,8-6.5,14.5-14.5,14.5c-8,0-14.5-6.5-14.5-14.5
		C32.7,231.5,39.2,225,47.1,225z"/>
	<path class="st9" d="M47.6,239.1l11.5,0.2c-0.1,3.8-1.8,7.1-4.9,9.2L47.6,239.1z"/>
</g>
<g>
	<g>
		<path class="st10" d="M45.8,202.2c0-0.8,0.6-1.4,1.4-1.4c0.8,0,1.4,0.6,1.4,1.4c0,0.8-0.6,1.4-1.4,1.4
			C46.4,203.6,45.8,203,45.8,202.2z M48.4,202.2c0-0.7-0.5-1.2-1.2-1.2c-0.7,0-1.2,0.5-1.2,1.2c0,0.7,0.5,1.2,1.2,1.2
			C47.8,203.4,48.4,202.9,48.4,202.2z"/>
	</g>
	<g>
		<path class="st10" d="M47,203.6v17.8c0,0.1,0.1,0.2,0.2,0.2c0.1,0,0.2-0.1,0.2-0.2v-17.8c0-0.1-0.1-0.2-0.2-0.2
			C47,203.4,47,203.5,47,203.6z"/>
	</g>
</g>
<g>
	<g>
		<path class="st10" d="M90.6,202.2c0-0.8,0.6-1.4,1.4-1.4c0.8,0,1.4,0.6,1.4,1.4c0,0.8-0.6,1.4-1.4,1.4
			C91.3,203.6,90.6,203,90.6,202.2z M93.2,202.2c0-0.7-0.5-1.2-1.2-1.2c-0.7,0-1.2,0.5-1.2,1.2c0,0.7,0.5,1.2,1.2,1.2
			C92.7,203.4,93.2,202.9,93.2,202.2z"/>
	</g>
	<g>
		<path class="st10" d="M91.8,203.6v17.8c0,0.1,0.1,0.2,0.2,0.2s0.2-0.1,0.2-0.2v-17.8c0-0.1-0.1-0.2-0.2-0.2S91.8,203.5,91.8,203.6
			z"/>
	</g>
</g>
<g>
	<g>
		<path class="st10" d="M135.5,202.2c0-0.8,0.6-1.4,1.4-1.4c0.8,0,1.4,0.6,1.4,1.4c0,0.8-0.6,1.4-1.4,1.4
			C136.1,203.6,135.5,203,135.5,202.2z M138.1,202.2c0-0.7-0.5-1.2-1.2-1.2c-0.7,0-1.2,0.5-1.2,1.2c0,0.7,0.5,1.2,1.2,1.2
			C137.5,203.4,138.1,202.9,138.1,202.2z"/>
	</g>
	<g>
		<path class="st10" d="M136.7,203.6v17.8c0,0.1,0.1,0.2,0.2,0.2s0.2-0.1,0.2-0.2v-17.8c0-0.1-0.1-0.2-0.2-0.2
			S136.7,203.5,136.7,203.6z"/>
	</g>
</g>
<g>
	<g>
		<path class="st10" d="M180.4,202.2c0-0.8,0.6-1.4,1.4-1.4c0.8,0,1.4,0.6,1.4,1.4c0,0.8-0.6,1.4-1.4,1.4
			C181,203.6,180.4,203,180.4,202.2z M183,202.2c0-0.7-0.5-1.2-1.2-1.2c-0.7,0-1.2,0.5-1.2,1.2c0,0.7,0.5,1.2,1.2,1.2
			C182.4,203.4,183,202.9,183,202.2z"/>
	</g>
	<g>
		<path class="st10" d="M181.6,203.6v17.8c0,0.1,0.1,0.2,0.2,0.2s0.2-0.1,0.2-0.2v-17.8c0-0.1-0.1-0.2-0.2-0.2
			S181.6,203.5,181.6,203.6z"/>
	</g>
</g>
<g>
	<g>
		<path class="st3" d="M141.3,211.5h0.4c0.1,0,0.2,0,0.3-0.1c0.1-0.1,0.1-0.2,0.1-0.4c0-0.1,0-0.3-0.1-0.3c-0.1-0.1-0.2-0.1-0.3-0.1
			c-0.1,0-0.2,0-0.2,0.1c-0.1,0.1-0.1,0.2-0.1,0.3h-0.7c0-0.2,0-0.4,0.1-0.5c0.1-0.2,0.2-0.3,0.4-0.4c0.2-0.1,0.3-0.1,0.5-0.1
			c0.3,0,0.6,0.1,0.8,0.3c0.2,0.2,0.3,0.5,0.3,0.8c0,0.2,0,0.3-0.1,0.5c-0.1,0.1-0.2,0.3-0.3,0.3c0.2,0.1,0.3,0.2,0.4,0.3
			c0.1,0.2,0.1,0.3,0.1,0.5c0,0.3-0.1,0.6-0.3,0.8s-0.5,0.3-0.8,0.3c-0.3,0-0.6-0.1-0.8-0.3c-0.2-0.2-0.3-0.5-0.3-0.8h0.7
			c0,0.1,0,0.2,0.1,0.3c0.1,0.1,0.2,0.1,0.3,0.1c0.1,0,0.2,0,0.3-0.1s0.1-0.2,0.1-0.4c0-0.4-0.1-0.6-0.4-0.6h-0.4V211.5z"/>
		<path class="st3" d="M143.6,211.8l0.2-1.9h1.8v0.6h-1.2l-0.1,0.8c0.1-0.1,0.3-0.1,0.4-0.1c0.3,0,0.5,0.1,0.7,0.3
			c0.2,0.2,0.3,0.5,0.3,0.9c0,0.4-0.1,0.7-0.3,0.9c-0.2,0.2-0.5,0.3-0.8,0.3c-0.2,0-0.4,0-0.5-0.1c-0.2-0.1-0.3-0.2-0.4-0.4
			s-0.1-0.4-0.1-0.6h0.7c0,0.2,0.1,0.3,0.1,0.4c0.1,0.1,0.1,0.1,0.3,0.1c0.1,0,0.2-0.1,0.3-0.2c0.1-0.1,0.1-0.3,0.1-0.5
			c0-0.2,0-0.4-0.1-0.5c-0.1-0.1-0.2-0.2-0.3-0.2c-0.1,0-0.2,0-0.3,0.1l0,0.1L143.6,211.8z"/>
		<path class="st3" d="M146.3,210.7c0-0.2,0.1-0.4,0.2-0.6c0.1-0.1,0.3-0.2,0.5-0.2s0.4,0.1,0.5,0.2c0.1,0.1,0.2,0.3,0.2,0.6v0.2
			c0,0.2-0.1,0.4-0.2,0.6c-0.1,0.1-0.3,0.2-0.5,0.2c-0.2,0-0.4-0.1-0.5-0.2c-0.1-0.1-0.2-0.3-0.2-0.6V210.7z M146.8,210.9
			c0,0.1,0,0.2,0.1,0.2c0,0.1,0.1,0.1,0.2,0.1c0.1,0,0.1,0,0.2-0.1c0-0.1,0.1-0.1,0.1-0.2v-0.2c0-0.1,0-0.2-0.1-0.2
			c0-0.1-0.1-0.1-0.2-0.1c-0.1,0-0.1,0-0.2,0.1s-0.1,0.1-0.1,0.3V210.9z M147.1,213.4l-0.3-0.2l1.5-2.9l0.3,0.2L147.1,213.4z
			 M147.8,212.8c0-0.2,0.1-0.4,0.2-0.6c0.1-0.1,0.3-0.2,0.5-0.2c0.2,0,0.4,0.1,0.5,0.2c0.1,0.1,0.2,0.3,0.2,0.6v0.2
			c0,0.2-0.1,0.4-0.2,0.6c-0.1,0.1-0.3,0.2-0.5,0.2c-0.2,0-0.4-0.1-0.5-0.2c-0.1-0.1-0.2-0.3-0.2-0.6V212.8z M148.2,213
			c0,0.1,0,0.2,0.1,0.2c0,0.1,0.1,0.1,0.2,0.1c0.1,0,0.2-0.1,0.2-0.3v-0.2c0-0.1,0-0.2-0.1-0.2s-0.1-0.1-0.2-0.1
			c-0.2,0-0.2,0.1-0.2,0.4V213z"/>
	</g>
</g>
<g>
	<g>
		<path class="st3" d="M97.8,210.9c0,0.2,0,0.3-0.1,0.5c-0.1,0.1-0.2,0.3-0.3,0.3c0.2,0.1,0.3,0.2,0.4,0.4s0.1,0.3,0.1,0.5
			c0,0.3-0.1,0.6-0.3,0.8c-0.2,0.2-0.5,0.3-0.8,0.3c-0.3,0-0.6-0.1-0.8-0.3c-0.2-0.2-0.3-0.5-0.3-0.8c0-0.2,0-0.4,0.1-0.5
			c0.1-0.2,0.2-0.3,0.4-0.4c-0.1-0.1-0.2-0.2-0.3-0.3c-0.1-0.1-0.1-0.3-0.1-0.5c0-0.3,0.1-0.6,0.3-0.8c0.2-0.2,0.4-0.3,0.7-0.3
			c0.3,0,0.6,0.1,0.7,0.3C97.7,210.4,97.8,210.6,97.8,210.9z M96.8,213.1c0.1,0,0.2,0,0.3-0.1c0.1-0.1,0.1-0.2,0.1-0.4
			c0-0.2,0-0.3-0.1-0.4s-0.1-0.1-0.3-0.1s-0.2,0-0.3,0.1s-0.1,0.2-0.1,0.4c0,0.2,0,0.3,0.1,0.4C96.6,213.1,96.7,213.1,96.8,213.1z
			 M97.1,211c0-0.1,0-0.3-0.1-0.3c0-0.1-0.1-0.1-0.2-0.1c-0.1,0-0.2,0-0.2,0.1c0,0.1-0.1,0.2-0.1,0.4c0,0.1,0,0.3,0.1,0.4
			s0.1,0.1,0.2,0.1s0.2,0,0.2-0.1C97.1,211.2,97.1,211.1,97.1,211z"/>
		<path class="st3" d="M99.9,212.2c-0.2,0.2-0.3,0.2-0.5,0.2c-0.3,0-0.5-0.1-0.7-0.3s-0.2-0.5-0.2-0.9c0-0.2,0-0.5,0.1-0.7
			c0.1-0.2,0.2-0.4,0.4-0.5s0.3-0.2,0.6-0.2c0.2,0,0.4,0.1,0.6,0.2c0.2,0.1,0.3,0.3,0.4,0.5c0.1,0.2,0.1,0.5,0.1,0.8v0.3
			c0,0.6-0.1,1.1-0.4,1.5s-0.7,0.5-1.2,0.5H99v-0.6h0c0.3,0,0.5-0.1,0.6-0.2S99.9,212.5,99.9,212.2z M99.6,211.9
			c0.1,0,0.3-0.1,0.3-0.3v-0.3c0-0.2,0-0.4-0.1-0.6c-0.1-0.1-0.2-0.2-0.3-0.2c-0.1,0-0.2,0.1-0.3,0.2c-0.1,0.1-0.1,0.3-0.1,0.5
			c0,0.2,0,0.4,0.1,0.5C99.4,211.8,99.5,211.9,99.6,211.9z"/>
		<path class="st3" d="M101.3,210.7c0-0.2,0.1-0.4,0.2-0.6c0.1-0.1,0.3-0.2,0.5-0.2s0.4,0.1,0.5,0.2c0.1,0.1,0.2,0.3,0.2,0.6v0.2
			c0,0.2-0.1,0.4-0.2,0.6c-0.1,0.1-0.3,0.2-0.5,0.2c-0.2,0-0.4-0.1-0.5-0.2c-0.1-0.1-0.2-0.3-0.2-0.6V210.7z M101.8,210.9
			c0,0.1,0,0.2,0.1,0.2c0,0.1,0.1,0.1,0.2,0.1c0.1,0,0.1,0,0.2-0.1c0-0.1,0.1-0.1,0.1-0.2v-0.2c0-0.1,0-0.2-0.1-0.2
			c0-0.1-0.1-0.1-0.2-0.1c-0.1,0-0.1,0-0.2,0.1s-0.1,0.1-0.1,0.3V210.9z M102.2,213.4l-0.3-0.2l1.5-2.9l0.3,0.2L102.2,213.4z
			 M102.8,212.8c0-0.2,0.1-0.4,0.2-0.6c0.1-0.1,0.3-0.2,0.5-0.2c0.2,0,0.4,0.1,0.5,0.2c0.1,0.1,0.2,0.3,0.2,0.6v0.2
			c0,0.2-0.1,0.4-0.2,0.6c-0.1,0.1-0.3,0.2-0.5,0.2c-0.2,0-0.4-0.1-0.5-0.2c-0.1-0.1-0.2-0.3-0.2-0.6V212.8z M103.3,213
			c0,0.1,0,0.2,0.1,0.2c0,0.1,0.1,0.1,0.2,0.1c0.1,0,0.2-0.1,0.2-0.3v-0.2c0-0.1,0-0.2-0.1-0.2s-0.1-0.1-0.2-0.1
			c-0.2,0-0.2,0.1-0.2,0.4V213z"/>
	</g>
</g>
<g>
	<g>
		<path class="st3" d="M52.4,213.7h-0.7v-2.9l-0.7,0.3v-0.6l1.4-0.6h0.1V213.7z"/>
		<path class="st3" d="M53.7,211.8l0.2-1.9h1.8v0.6h-1.2l-0.1,0.8c0.1-0.1,0.3-0.1,0.4-0.1c0.3,0,0.5,0.1,0.7,0.3
			c0.2,0.2,0.3,0.5,0.3,0.9c0,0.4-0.1,0.7-0.3,0.9c-0.2,0.2-0.5,0.3-0.8,0.3c-0.2,0-0.4,0-0.5-0.1c-0.2-0.1-0.3-0.2-0.4-0.4
			s-0.1-0.4-0.1-0.6h0.7c0,0.2,0.1,0.3,0.1,0.4c0.1,0.1,0.1,0.1,0.3,0.1c0.1,0,0.2-0.1,0.3-0.2c0.1-0.1,0.1-0.3,0.1-0.5
			c0-0.2,0-0.4-0.1-0.5c-0.1-0.1-0.2-0.2-0.3-0.2c-0.1,0-0.2,0-0.3,0.1l0,0.1L53.7,211.8z"/>
		<path class="st3" d="M56.4,210.7c0-0.2,0.1-0.4,0.2-0.6c0.1-0.1,0.3-0.2,0.5-0.2s0.4,0.1,0.5,0.2c0.1,0.1,0.2,0.3,0.2,0.6v0.2
			c0,0.2-0.1,0.4-0.2,0.6c-0.1,0.1-0.3,0.2-0.5,0.2c-0.2,0-0.4-0.1-0.5-0.2c-0.1-0.1-0.2-0.3-0.2-0.6V210.7z M56.9,210.9
			c0,0.1,0,0.2,0.1,0.2c0,0.1,0.1,0.1,0.2,0.1c0.1,0,0.1,0,0.2-0.1c0-0.1,0.1-0.1,0.1-0.2v-0.2c0-0.1,0-0.2-0.1-0.2
			c0-0.1-0.1-0.1-0.2-0.1c-0.1,0-0.1,0-0.2,0.1s-0.1,0.1-0.1,0.3V210.9z M57.3,213.4l-0.3-0.2l1.5-2.9l0.3,0.2L57.3,213.4z
			 M57.9,212.8c0-0.2,0.1-0.4,0.2-0.6c0.1-0.1,0.3-0.2,0.5-0.2c0.2,0,0.4,0.1,0.5,0.2c0.1,0.1,0.2,0.3,0.2,0.6v0.2
			c0,0.2-0.1,0.4-0.2,0.6c-0.1,0.1-0.3,0.2-0.5,0.2c-0.2,0-0.4-0.1-0.5-0.2c-0.1-0.1-0.2-0.3-0.2-0.6V212.8z M58.4,213
			c0,0.1,0,0.2,0.1,0.2c0,0.1,0.1,0.1,0.2,0.1c0.1,0,0.2-0.1,0.2-0.3v-0.2c0-0.1,0-0.2-0.1-0.2s-0.1-0.1-0.2-0.1
			c-0.2,0-0.2,0.1-0.2,0.4V213z"/>
	</g>
</g>
<path class="st9" d="M171.2,239.5c0-6,4.9-10.9,10.9-10.9c6,0,10.9,4.9,10.9,10.9c0,6-4.9,10.9-10.9,10.9
	C176.1,250.4,171.2,245.5,171.2,239.5z M192.6,239.5c0-5.7-4.7-10.4-10.4-10.4c-5.7,0-10.4,4.7-10.4,10.4c0,5.7,4.7,10.4,10.4,10.4
	C187.9,249.9,192.6,245.2,192.6,239.5z"/>
<path class="st3" d="M126,239.5c0-6,4.9-10.9,10.9-10.9c6,0,10.9,4.9,10.9,10.9c0,6-4.9,10.9-10.9,10.9
	C130.9,250.4,126,245.5,126,239.5z M147.3,239.5c0-5.7-4.7-10.4-10.4-10.4c-5.7,0-10.4,4.7-10.4,10.4c0,5.7,4.7,10.4,10.4,10.4
	C142.6,249.9,147.3,245.2,147.3,239.5z"/>
<path class="st9" d="M81.1,239.5c0-6,4.9-10.9,10.9-10.9c6,0,10.9,4.9,10.9,10.9c0,6-4.9,10.9-10.9,10.9
	C86,250.4,81.1,245.5,81.1,239.5z M102.4,239.5c0-5.7-4.7-10.4-10.4-10.4c-5.7,0-10.4,4.7-10.4,10.4c0,5.7,4.7,10.4,10.4,10.4
	C97.8,249.9,102.4,245.2,102.4,239.5z"/>
<path class="st3" d="M36.4,239.5c0-6,4.9-10.9,10.9-10.9c6,0,10.9,4.9,10.9,10.9c0,6-4.9,10.9-10.9,10.9
	C41.3,250.4,36.4,245.5,36.4,239.5z M57.7,239.5c0-5.7-4.7-10.4-10.4-10.4s-10.4,4.7-10.4,10.4c0,5.7,4.7,10.4,10.4,10.4
	S57.7,245.2,57.7,239.5z"/>
<g>
	<rect x="32.7" y="271" class="st4" width="163.5" height="2.5"/>
	<rect x="32.7" y="279" class="st11" width="163.5" height="2.5"/>
	<rect x="102.8" y="271" class="st12" width="50.9" height="2.5"/>
	<rect x="67.8" y="279" class="st13" width="64.7" height="2.5"/>
	<rect x="153.7" y="271" class="st14" width="32.8" height="2.5"/>
	<rect x="131.9" y="279" class="st4" width="64.3" height="2.5"/>
	<rect x="32.7" y="271" class="st3" width="94.6" height="2.5"/>
	<rect x="32.7" y="279" class="st3" width="38.7" height="2.5"/>
	<g>
		<g>
			<path class="st3" d="M32.8,266.3c0,0,0.1,0,0.1,0.1c0.1,0,0.1,0,0.2,0c0.1,0,0.2,0,0.2,0c0,0,0.1-0.1,0.1-0.1s0-0.1,0.1-0.2
				c0-0.1,0-0.2,0-0.3v-1.1H34v1.1c0,0.2,0,0.3,0,0.4c0,0.1-0.1,0.2-0.1,0.3c-0.1,0.1-0.1,0.2-0.2,0.2c-0.1,0.1-0.2,0.1-0.4,0.1
				c-0.2,0-0.3,0-0.5-0.1L32.8,266.3z"/>
			<path class="st3" d="M35.5,264.6h0.4l0.8,2.1h-0.4l-0.2-0.5h-0.7l-0.2,0.5h-0.4L35.5,264.6z M36,265.9l-0.3-0.8l-0.3,0.8H36z"/>
			<path class="st3" d="M37.9,265.3v1.4h-0.4v-2.1h0.3l1.1,1.4v-1.4h0.4v2.1H39L37.9,265.3z"/>
			<path class="st3" d="M42.9,267.1v-2.7h0.3v2.7H42.9z"/>
			<path class="st3" d="M46.9,266.7v-2.1h1.4v0.4h-1v0.5h0.8v0.3h-0.8v0.9H46.9z"/>
			<path class="st3" d="M50.6,266.3v0.4h-1.5v-2.1h1.4v0.4h-1v0.5h0.9v0.3h-0.9v0.6H50.6z"/>
			<path class="st3" d="M53.3,266.1c0,0.1,0,0.2-0.1,0.2c0,0.1-0.1,0.1-0.1,0.2c-0.1,0-0.1,0.1-0.2,0.1c-0.1,0-0.2,0-0.3,0h-1v-2.1
				h1.1c0.1,0,0.1,0,0.2,0c0.1,0,0.1,0.1,0.2,0.1c0,0.1,0.1,0.1,0.1,0.2c0,0.1,0,0.1,0,0.2c0,0.1,0,0.2-0.1,0.3
				c-0.1,0.1-0.1,0.2-0.2,0.2c0.1,0,0.2,0.1,0.3,0.2S53.3,266,53.3,266.1z M52,264.9v0.5h0.6c0.1,0,0.1,0,0.2-0.1
				c0,0,0.1-0.1,0.1-0.2c0-0.1,0-0.1-0.1-0.2s-0.1-0.1-0.2-0.1H52z M52.8,266.1c0,0,0-0.1,0-0.1c0,0,0-0.1-0.1-0.1c0,0,0,0-0.1-0.1
				c0,0-0.1,0-0.1,0H52v0.6h0.6c0,0,0.1,0,0.1,0s0.1,0,0.1-0.1c0,0,0-0.1,0.1-0.1C52.8,266.1,52.8,266.1,52.8,266.1z"/>
			<path class="st3" d="M56.7,267.1v-2.7h0.3v2.7H56.7z"/>
			<path class="st3" d="M62.4,266.7v-1.4l-0.5,1h-0.2l-0.5-1v1.4h-0.4v-2.1h0.4l0.6,1.2l0.6-1.2h0.4v2.1H62.4z"/>
			<path class="st3" d="M64.5,264.6h0.4l0.8,2.1h-0.4l-0.2-0.5h-0.7l-0.2,0.5h-0.4L64.5,264.6z M64.9,265.9l-0.3-0.8l-0.3,0.8H64.9z
				"/>
			<path class="st3" d="M66.4,266.7v-2.1h0.9c0.1,0,0.2,0,0.3,0.1c0.1,0,0.2,0.1,0.2,0.2c0.1,0.1,0.1,0.1,0.1,0.2
				c0,0.1,0.1,0.2,0.1,0.3c0,0.1,0,0.3-0.1,0.4c-0.1,0.1-0.2,0.2-0.3,0.2l0.5,0.8h-0.5l-0.4-0.7h-0.4v0.7H66.4z M66.8,265.6h0.5
				c0,0,0.1,0,0.1,0c0,0,0.1,0,0.1-0.1c0,0,0-0.1,0.1-0.1c0,0,0-0.1,0-0.1c0,0,0-0.1,0-0.1s0-0.1-0.1-0.1c0,0-0.1-0.1-0.1-0.1
				c0,0-0.1,0-0.1,0h-0.5V265.6z"/>
			<path class="st3" d="M71.6,267.1v-2.7h0.3v2.7H71.6z"/>
			<path class="st3" d="M76.1,264.6h0.4l0.8,2.1h-0.4l-0.2-0.5h-0.7l-0.2,0.5h-0.4L76.1,264.6z M76.5,265.9l-0.3-0.8l-0.3,0.8H76.5z
				"/>
			<path class="st3" d="M78,266.7v-2.1h0.9c0.1,0,0.2,0,0.3,0.1c0.1,0,0.2,0.1,0.2,0.2c0.1,0.1,0.1,0.1,0.1,0.2
				c0,0.1,0.1,0.2,0.1,0.3c0,0.1,0,0.2,0,0.3s-0.1,0.2-0.1,0.2c-0.1,0.1-0.1,0.1-0.2,0.2c-0.1,0-0.2,0.1-0.3,0.1h-0.5v0.7H78z
				 M78.4,265.6h0.5c0.1,0,0.1,0,0.2-0.1s0.1-0.1,0.1-0.3c0-0.1,0-0.1,0-0.1s0-0.1-0.1-0.1S79,265,79,265c0,0-0.1,0-0.1,0h-0.5
				V265.6z"/>
			<path class="st3" d="M80.5,266.7v-2.1h0.9c0.1,0,0.2,0,0.3,0.1c0.1,0,0.2,0.1,0.2,0.2c0.1,0.1,0.1,0.1,0.1,0.2
				c0,0.1,0.1,0.2,0.1,0.3c0,0.1,0,0.3-0.1,0.4c-0.1,0.1-0.2,0.2-0.3,0.2l0.5,0.8h-0.5l-0.4-0.7h-0.4v0.7H80.5z M80.9,265.6h0.5
				c0,0,0.1,0,0.1,0c0,0,0.1,0,0.1-0.1c0,0,0-0.1,0.1-0.1c0,0,0-0.1,0-0.1c0,0,0-0.1,0-0.1s0-0.1-0.1-0.1c0,0-0.1-0.1-0.1-0.1
				c0,0-0.1,0-0.1,0h-0.5V265.6z"/>
			<path class="st3" d="M85.6,267.1v-2.7H86v2.7H85.6z"/>
			<path class="st3" d="M91.3,266.7v-1.4l-0.5,1h-0.2l-0.5-1v1.4h-0.4v-2.1H90l0.6,1.2l0.6-1.2h0.4v2.1H91.3z"/>
			<path class="st3" d="M93.3,264.6h0.4l0.8,2.1h-0.4l-0.2-0.5h-0.7l-0.2,0.5h-0.4L93.3,264.6z M93.8,265.9l-0.3-0.8l-0.3,0.8H93.8z
				"/>
			<path class="st3" d="M95.3,264.6l0.5,1l0.5-1h0.4L96,266v0.7h-0.4v-0.7l-0.8-1.4H95.3z"/>
			<path class="st3" d="M100.1,267.1v-2.7h0.3v2.7H100.1z"/>
			<path class="st3" d="M103.9,266.3c0,0,0.1,0,0.1,0.1c0.1,0,0.1,0,0.2,0c0.1,0,0.2,0,0.2,0c0,0,0.1-0.1,0.1-0.1s0-0.1,0.1-0.2
				c0-0.1,0-0.2,0-0.3v-1.1h0.4v1.1c0,0.2,0,0.3,0,0.4c0,0.1-0.1,0.2-0.1,0.3c-0.1,0.1-0.1,0.2-0.2,0.2c-0.1,0.1-0.2,0.1-0.4,0.1
				c-0.2,0-0.3,0-0.5-0.1L103.9,266.3z"/>
			<path class="st3" d="M106.9,266.3c0.1,0,0.2,0,0.2-0.1c0.1,0,0.1-0.1,0.2-0.2c0-0.1,0.1-0.1,0.1-0.2c0-0.1,0-0.2,0-0.3v-1.1h0.4
				v1.1c0,0.1,0,0.3-0.1,0.4c0,0.1-0.1,0.2-0.2,0.3c-0.1,0.1-0.2,0.2-0.3,0.2c-0.1,0.1-0.3,0.1-0.4,0.1c-0.2,0-0.3,0-0.4-0.1
				c-0.1-0.1-0.2-0.1-0.3-0.2s-0.1-0.2-0.2-0.3c0-0.1,0-0.3,0-0.4v-1.1h0.4v1.1c0,0.1,0,0.2,0,0.3s0,0.2,0.1,0.2
				c0,0.1,0.1,0.1,0.2,0.2C106.7,266.3,106.8,266.3,106.9,266.3z"/>
			<path class="st3" d="M109.2,265.3v1.4h-0.4v-2.1h0.3l1.1,1.4v-1.4h0.4v2.1h-0.3L109.2,265.3z"/>
			<path class="st3" d="M114.3,267.1v-2.7h0.3v2.7H114.3z"/>
			<path class="st3" d="M118,266.3c0,0,0.1,0,0.1,0.1c0.1,0,0.1,0,0.2,0c0.1,0,0.2,0,0.2,0c0,0,0.1-0.1,0.1-0.1s0-0.1,0.1-0.2
				c0-0.1,0-0.2,0-0.3v-1.1h0.4v1.1c0,0.2,0,0.3,0,0.4c0,0.1-0.1,0.2-0.1,0.3c-0.1,0.1-0.1,0.2-0.2,0.2c-0.1,0.1-0.2,0.1-0.4,0.1
				c-0.2,0-0.3,0-0.5-0.1L118,266.3z"/>
			<path class="st3" d="M121.1,266.3c0.1,0,0.2,0,0.2-0.1c0.1,0,0.1-0.1,0.2-0.2c0-0.1,0.1-0.1,0.1-0.2c0-0.1,0-0.2,0-0.3v-1.1h0.4
				v1.1c0,0.1,0,0.3-0.1,0.4c0,0.1-0.1,0.2-0.2,0.3c-0.1,0.1-0.2,0.2-0.3,0.2c-0.1,0.1-0.3,0.1-0.4,0.1c-0.2,0-0.3,0-0.4-0.1
				c-0.1-0.1-0.2-0.1-0.3-0.2s-0.1-0.2-0.2-0.3c0-0.1,0-0.3,0-0.4v-1.1h0.4v1.1c0,0.1,0,0.2,0,0.3s0,0.2,0.1,0.2
				c0,0.1,0.1,0.1,0.2,0.2C120.9,266.3,121,266.3,121.1,266.3z"/>
			<path class="st3" d="M123,266.7v-2.1h0.4v1.8h1.1v0.4H123z"/>
			<path class="st3" d="M127.8,267.1v-2.7h0.3v2.7H127.8z"/>
			<path class="st3" d="M132.3,264.6h0.4l0.8,2.1H133l-0.2-0.5h-0.7l-0.2,0.5h-0.4L132.3,264.6z M132.8,265.9l-0.3-0.8l-0.3,0.8
				H132.8z"/>
			<path class="st3" d="M135.1,266.3c0.1,0,0.2,0,0.2-0.1c0.1,0,0.1-0.1,0.2-0.2c0-0.1,0.1-0.1,0.1-0.2c0-0.1,0-0.2,0-0.3v-1.1h0.4
				v1.1c0,0.1,0,0.3-0.1,0.4c0,0.1-0.1,0.2-0.2,0.3c-0.1,0.1-0.2,0.2-0.3,0.2c-0.1,0.1-0.3,0.1-0.4,0.1c-0.2,0-0.3,0-0.4-0.1
				c-0.1-0.1-0.2-0.1-0.3-0.2s-0.1-0.2-0.2-0.3c0-0.1,0-0.3,0-0.4v-1.1h0.4v1.1c0,0.1,0,0.2,0,0.3s0,0.2,0.1,0.2
				c0,0.1,0.1,0.1,0.2,0.2C134.9,266.3,135,266.3,135.1,266.3z"/>
			<path class="st3" d="M138.5,266.5c-0.2,0.2-0.4,0.3-0.6,0.3c-0.1,0-0.3,0-0.4-0.1c-0.1-0.1-0.2-0.1-0.3-0.2s-0.2-0.2-0.2-0.3
				c-0.1-0.1-0.1-0.3-0.1-0.4c0-0.1,0-0.3,0.1-0.4c0.1-0.1,0.1-0.2,0.2-0.3c0.1-0.1,0.2-0.2,0.3-0.2c0.1-0.1,0.3-0.1,0.4-0.1
				c0.2,0,0.4,0,0.5,0.1c0.1,0.1,0.2,0.2,0.3,0.3l-0.3,0.2c-0.1-0.1-0.1-0.2-0.2-0.2c-0.1-0.1-0.2-0.1-0.3-0.1c-0.1,0-0.2,0-0.2,0.1
				s-0.1,0.1-0.2,0.2c-0.1,0.1-0.1,0.1-0.1,0.2c0,0.1,0,0.2,0,0.3c0,0.1,0,0.2,0,0.3s0.1,0.2,0.1,0.2c0.1,0.1,0.1,0.1,0.2,0.2
				s0.2,0.1,0.2,0.1c0.2,0,0.4-0.1,0.6-0.3v-0.1H138v-0.3h0.8v1.1h-0.3V266.5z"/>
			<path class="st3" d="M142.3,267.1v-2.7h0.3v2.7H142.3z"/>
			<path class="st3" d="M147.6,265.1C147.5,265.1,147.5,265.1,147.6,265.1c-0.1-0.1-0.2-0.1-0.2-0.1c-0.1,0-0.1,0-0.2-0.1
				c-0.1,0-0.1,0-0.2,0c-0.1,0-0.2,0-0.3,0.1c-0.1,0-0.1,0.1-0.1,0.2c0,0,0,0.1,0,0.1s0.1,0.1,0.1,0.1c0,0,0.1,0,0.2,0.1
				c0.1,0,0.1,0,0.2,0.1c0.1,0,0.2,0.1,0.3,0.1c0.1,0,0.2,0.1,0.2,0.1c0.1,0,0.1,0.1,0.1,0.2c0,0.1,0,0.1,0,0.2c0,0.1,0,0.2-0.1,0.3
				c0,0.1-0.1,0.1-0.2,0.2c-0.1,0.1-0.2,0.1-0.3,0.1c-0.1,0-0.2,0-0.3,0c-0.2,0-0.3,0-0.5-0.1c-0.2,0-0.3-0.1-0.4-0.2l0.2-0.4
				c0,0,0.1,0,0.1,0.1s0.1,0.1,0.2,0.1c0.1,0,0.1,0.1,0.2,0.1s0.2,0,0.2,0c0.2,0,0.3-0.1,0.3-0.2c0,0,0-0.1,0-0.1
				c0,0-0.1-0.1-0.1-0.1c0,0-0.1,0-0.2-0.1c-0.1,0-0.1,0-0.2-0.1c-0.1,0-0.2-0.1-0.3-0.1c-0.1,0-0.1-0.1-0.2-0.1s-0.1-0.1-0.1-0.2
				c0-0.1,0-0.1,0-0.2c0-0.1,0-0.2,0.1-0.3s0.1-0.2,0.2-0.2s0.2-0.1,0.2-0.1c0.1,0,0.2,0,0.3,0c0.1,0,0.3,0,0.4,0.1
				c0.1,0,0.2,0.1,0.3,0.2L147.6,265.1z"/>
			<path class="st3" d="M150.2,266.3v0.4h-1.5v-2.1h1.4v0.4h-1v0.5h0.9v0.3h-0.9v0.6H150.2z"/>
			<path class="st3" d="M151.1,266.7v-2.1h0.9c0.1,0,0.2,0,0.3,0.1c0.1,0,0.2,0.1,0.2,0.2c0.1,0.1,0.1,0.1,0.1,0.2
				c0,0.1,0.1,0.2,0.1,0.3c0,0.1,0,0.2,0,0.3s-0.1,0.2-0.1,0.2c-0.1,0.1-0.1,0.1-0.2,0.2c-0.1,0-0.2,0.1-0.3,0.1h-0.5v0.7H151.1z
				 M151.5,265.6h0.5c0.1,0,0.1,0,0.2-0.1s0.1-0.1,0.1-0.3c0-0.1,0-0.1,0-0.1s0-0.1-0.1-0.1s-0.1-0.1-0.1-0.1c0,0-0.1,0-0.1,0h-0.5
				V265.6z"/>
			<path class="st3" d="M156,267.1v-2.7h0.3v2.7H156z"/>
			<path class="st3" d="M160.9,266.7c-0.2,0-0.3,0-0.4-0.1c-0.1-0.1-0.2-0.1-0.3-0.2s-0.2-0.2-0.2-0.3s-0.1-0.3-0.1-0.4
				c0-0.1,0-0.3,0.1-0.4c0.1-0.1,0.1-0.2,0.2-0.3s0.2-0.2,0.3-0.2c0.1-0.1,0.3-0.1,0.4-0.1c0.2,0,0.3,0,0.4,0.1
				c0.1,0.1,0.2,0.1,0.3,0.2c0.1,0.1,0.2,0.2,0.2,0.3s0.1,0.3,0.1,0.4c0,0.1,0,0.3-0.1,0.4c-0.1,0.1-0.1,0.2-0.2,0.3
				s-0.2,0.2-0.3,0.2C161.2,266.7,161,266.7,160.9,266.7z M160.3,265.6c0,0.1,0,0.2,0,0.3c0,0.1,0.1,0.2,0.1,0.2
				c0.1,0.1,0.1,0.1,0.2,0.2c0.1,0,0.2,0.1,0.3,0.1c0.1,0,0.2,0,0.3-0.1s0.1-0.1,0.2-0.2c0.1-0.1,0.1-0.1,0.1-0.2s0-0.2,0-0.3
				c0-0.1,0-0.2,0-0.3c0-0.1-0.1-0.2-0.1-0.2c-0.1-0.1-0.1-0.1-0.2-0.2c-0.1,0-0.2-0.1-0.3-0.1c-0.1,0-0.2,0-0.3,0.1
				s-0.1,0.1-0.2,0.2c-0.1,0.1-0.1,0.1-0.1,0.2S160.3,265.5,160.3,265.6z"/>
			<path class="st3" d="M162.7,265.6c0-0.1,0-0.3,0.1-0.4s0.1-0.2,0.2-0.3c0.1-0.1,0.2-0.2,0.3-0.2c0.1-0.1,0.3-0.1,0.4-0.1
				c0.2,0,0.4,0,0.5,0.1c0.1,0.1,0.2,0.2,0.3,0.3l-0.3,0.2c0-0.1-0.1-0.1-0.1-0.2c0,0-0.1-0.1-0.1-0.1c0,0-0.1,0-0.1-0.1
				c-0.1,0-0.1,0-0.1,0c-0.1,0-0.2,0-0.3,0.1c-0.1,0-0.1,0.1-0.2,0.2c-0.1,0.1-0.1,0.1-0.1,0.2c0,0.1,0,0.2,0,0.3c0,0.1,0,0.2,0,0.3
				c0,0.1,0.1,0.2,0.1,0.2c0.1,0.1,0.1,0.1,0.2,0.2c0.1,0,0.2,0.1,0.3,0.1c0,0,0.1,0,0.1,0s0.1,0,0.1-0.1s0.1-0.1,0.1-0.1
				s0.1-0.1,0.1-0.1l0.3,0.2c0,0.1-0.1,0.2-0.1,0.2c-0.1,0.1-0.1,0.1-0.2,0.2c-0.1,0-0.2,0.1-0.3,0.1c-0.1,0-0.2,0-0.3,0
				c-0.2,0-0.3,0-0.4-0.1c-0.1-0.1-0.2-0.1-0.3-0.2c-0.1-0.1-0.2-0.2-0.2-0.3S162.7,265.8,162.7,265.6z"/>
			<path class="st3" d="M167,264.9h-0.7v1.8h-0.4v-1.8h-0.7v-0.4h1.8V264.9z"/>
			<path class="st3" d="M170.3,267.1v-2.7h0.3v2.7H170.3z"/>
			<path class="st3" d="M174.7,265.3v1.4h-0.4v-2.1h0.3l1.1,1.4v-1.4h0.4v2.1h-0.3L174.7,265.3z"/>
			<path class="st3" d="M178,266.7c-0.2,0-0.3,0-0.4-0.1c-0.1-0.1-0.2-0.1-0.3-0.2s-0.2-0.2-0.2-0.3s-0.1-0.3-0.1-0.4
				c0-0.1,0-0.3,0.1-0.4c0.1-0.1,0.1-0.2,0.2-0.3s0.2-0.2,0.3-0.2c0.1-0.1,0.3-0.1,0.4-0.1c0.2,0,0.3,0,0.4,0.1
				c0.1,0.1,0.2,0.1,0.3,0.2c0.1,0.1,0.2,0.2,0.2,0.3s0.1,0.3,0.1,0.4c0,0.1,0,0.3-0.1,0.4c-0.1,0.1-0.1,0.2-0.2,0.3
				s-0.2,0.2-0.3,0.2C178.3,266.7,178.2,266.7,178,266.7z M177.4,265.6c0,0.1,0,0.2,0,0.3c0,0.1,0.1,0.2,0.1,0.2
				c0.1,0.1,0.1,0.1,0.2,0.2c0.1,0,0.2,0.1,0.3,0.1c0.1,0,0.2,0,0.3-0.1s0.1-0.1,0.2-0.2c0.1-0.1,0.1-0.1,0.1-0.2s0-0.2,0-0.3
				c0-0.1,0-0.2,0-0.3c0-0.1-0.1-0.2-0.1-0.2c-0.1-0.1-0.1-0.1-0.2-0.2c-0.1,0-0.2-0.1-0.3-0.1c-0.1,0-0.2,0-0.3,0.1
				s-0.1,0.1-0.2,0.2c-0.1,0.1-0.1,0.1-0.1,0.2S177.4,265.5,177.4,265.6z"/>
			<path class="st3" d="M180.1,264.6l0.6,1.6l0.6-1.6h0.4l-0.8,2.1h-0.3l-0.8-2.1H180.1z"/>
			<path class="st3" d="M185,267.1v-2.7h0.3v2.7H185z"/>
			<path class="st3" d="M188.9,266.7v-2.1h0.8c0.2,0,0.3,0,0.5,0.1c0.1,0.1,0.2,0.1,0.3,0.2s0.2,0.2,0.2,0.3s0.1,0.3,0.1,0.4
				c0,0.2,0,0.3-0.1,0.4s-0.1,0.2-0.2,0.3s-0.2,0.2-0.3,0.2c-0.1,0.1-0.3,0.1-0.4,0.1H188.9z M190.3,265.6c0-0.1,0-0.2,0-0.3
				s-0.1-0.2-0.1-0.2c-0.1-0.1-0.1-0.1-0.2-0.1c-0.1,0-0.2-0.1-0.3-0.1h-0.4v1.4h0.4c0.1,0,0.2,0,0.3-0.1c0.1,0,0.1-0.1,0.2-0.1
				c0.1-0.1,0.1-0.1,0.1-0.2S190.3,265.7,190.3,265.6z"/>
			<path class="st3" d="M193.1,266.3v0.4h-1.5v-2.1h1.4v0.4h-1v0.5h0.9v0.3h-0.9v0.6H193.1z"/>
			<path class="st3" d="M193.8,265.6c0-0.1,0-0.3,0.1-0.4s0.1-0.2,0.2-0.3c0.1-0.1,0.2-0.2,0.3-0.2c0.1-0.1,0.3-0.1,0.4-0.1
				c0.2,0,0.4,0,0.5,0.1c0.1,0.1,0.2,0.2,0.3,0.3l-0.3,0.2c0-0.1-0.1-0.1-0.1-0.2c0,0-0.1-0.1-0.1-0.1c0,0-0.1,0-0.1-0.1
				c-0.1,0-0.1,0-0.1,0c-0.1,0-0.2,0-0.3,0.1c-0.1,0-0.1,0.1-0.2,0.2c-0.1,0.1-0.1,0.1-0.1,0.2c0,0.1,0,0.2,0,0.3c0,0.1,0,0.2,0,0.3
				c0,0.1,0.1,0.2,0.1,0.2c0.1,0.1,0.1,0.1,0.2,0.2c0.1,0,0.2,0.1,0.3,0.1c0,0,0.1,0,0.1,0s0.1,0,0.1-0.1s0.1-0.1,0.1-0.1
				s0.1-0.1,0.1-0.1l0.3,0.2c0,0.1-0.1,0.2-0.1,0.2c-0.1,0.1-0.1,0.1-0.2,0.2c-0.1,0-0.2,0.1-0.3,0.1c-0.1,0-0.2,0-0.3,0
				c-0.2,0-0.3,0-0.4-0.1c-0.1-0.1-0.2-0.1-0.3-0.2c-0.1-0.1-0.2-0.2-0.2-0.3S193.8,265.8,193.8,265.6z"/>
		</g>
	</g>
</g>
<path class="st3" d="M184.7,57.6c-2.6,0-4.7,2.1-4.7,4.7c0,2.6,2.1,4.7,4.7,4.7c2.6,0,4.7-2.1,4.7-4.7
	C189.4,59.7,187.3,57.6,184.7,57.6z M186.6,61.5v3.4h-1.3V63h-1.1v1.8h-1.3v-3.4h-0.8l2.7-1.7l2.7,1.7H186.6z"/>
<g>
	<path class="st3" d="M184.7,91.1c-2.6,0-4.7,2.1-4.7,4.7c0,2.6,2.1,4.7,4.7,4.7c2.6,0,4.7-2.1,4.7-4.7
		C189.4,93.2,187.3,91.1,184.7,91.1z M187.9,94.8h-0.5v3.1h-1.1v-2.5h-1.2v2.5H182v-3.1h-0.5v-0.3h0.5v-0.3h5.5v0.3h0.5V94.8z"/>
	<rect x="182.8" y="95.3" class="st3" width="1.5" height="1.5"/>
</g>
<g>
	<rect x="183.3" y="119.3" class="st3" width="1.2" height="1.2"/>
	<rect x="185" y="119.3" class="st3" width="1.2" height="1.2"/>
	<rect x="185" y="121" class="st3" width="1.2" height="1.2"/>
	<rect x="183.3" y="122.7" class="st3" width="1.2" height="1.2"/>
	<path class="st3" d="M184.7,117.1c-2.6,0-4.7,2.1-4.7,4.7s2.1,4.7,4.7,4.7c2.6,0,4.7-2.1,4.7-4.7S187.3,117.1,184.7,117.1z
		 M187,124.8h-0.8v-2.1H185v2.1h-2.5v-6.2h4.5V124.8z"/>
	<rect x="183.3" y="121" class="st3" width="1.2" height="1.2"/>
</g>
<path class="st15" d="M189.2,29.5c-14.6-16.5-36-27-59.7-27c-32.7,0-60.8,19.7-73.1,47.9c-29.3,4-51.9,29.1-51.9,59.4
	c0,24.9,15.1,46.2,36.7,55.3"/>
<path class="st15" d="M56.5,292.9C66.4,301,79,306,92.8,306.1c14.2,16,34.9,26.2,58,26.2c42.7,0,77.4-34.6,77.4-77.4
	c0-19.8-7.4-37.8-19.6-51.4c4.4-6.6,6.9-14.5,6.9-23c0-13.3-6.2-25.2-16-32.8"/>
<g>
	<g>
		<path class="st3" d="M12.7,233.6c-0.1,0-0.2,0-0.3-0.1c-0.2-0.2-0.3-0.5-0.1-0.7l2.8-4.2c0.2-0.2,0.5-0.3,0.7-0.2
			c0.2,0.2,0.3,0.5,0.1,0.7l-2.8,4.2C13,233.5,12.8,233.6,12.7,233.6z M18.2,225.2c-0.1,0-0.2,0-0.3-0.1c-0.2-0.2-0.3-0.5-0.1-0.7
			l2.8-4.2c0.2-0.2,0.5-0.3,0.7-0.2c0.2,0.2,0.3,0.5,0.1,0.7l-2.8,4.2C18.5,225.1,18.3,225.2,18.2,225.2z M23.7,216.8
			c-0.1,0-0.2,0-0.3-0.1c-0.2-0.2-0.3-0.5-0.1-0.7l2.8-4.2c0.2-0.2,0.5-0.3,0.7-0.2c0.2,0.2,0.3,0.5,0.1,0.7l-2.8,4.2
			C24,216.7,23.9,216.8,23.7,216.8z M29.2,208.3c-0.1,0-0.2,0-0.3-0.1c-0.2-0.2-0.3-0.5-0.1-0.7l2.8-4.2c0.2-0.2,0.5-0.3,0.7-0.2
			c0.2,0.2,0.3,0.5,0.1,0.7l-2.8,4.2C29.5,208.2,29.4,208.3,29.2,208.3z M34.7,199.9c-0.1,0-0.2,0-0.3-0.1c-0.2-0.2-0.3-0.5-0.1-0.7
			l2.8-4.2c0.2-0.2,0.5-0.3,0.7-0.2c0.2,0.2,0.3,0.5,0.1,0.7l-2.8,4.2C35,199.8,34.9,199.9,34.7,199.9z M40.2,191.5
			c-0.1,0-0.2,0-0.3-0.1c-0.2-0.2-0.3-0.5-0.1-0.7l2.8-4.2c0.2-0.2,0.5-0.3,0.7-0.2c0.2,0.2,0.3,0.5,0.1,0.7l-2.8,4.2
			C40.6,191.4,40.4,191.5,40.2,191.5z"/>
	</g>
	<g>
		<path class="st3" d="M45.7,183c-0.1,0-0.2,0-0.3-0.1c-0.2-0.2-0.3-0.5-0.1-0.7l1.4-2.2c0.1-0.2,0.4-0.3,0.6-0.2l2.5,0.7
			c0.3,0.1,0.4,0.4,0.4,0.6c-0.1,0.3-0.4,0.4-0.6,0.4l-2.1-0.6l-1.2,1.8C46.1,182.9,45.9,183,45.7,183z"/>
	</g>
	<g>
		<path class="st3" d="M115.2,199.4c0,0-0.1,0-0.1,0l-4.7-1.3c-0.3-0.1-0.4-0.4-0.4-0.6c0.1-0.3,0.4-0.4,0.6-0.4l4.7,1.3
			c0.3,0.1,0.4,0.4,0.4,0.6C115.7,199.2,115.5,199.4,115.2,199.4z M105.9,196.8c0,0-0.1,0-0.1,0l-4.7-1.3c-0.3-0.1-0.4-0.4-0.4-0.6
			c0.1-0.3,0.4-0.4,0.6-0.4l4.7,1.3c0.3,0.1,0.4,0.4,0.4,0.6C106.3,196.7,106.1,196.8,105.9,196.8z M96.5,194.3c0,0-0.1,0-0.1,0
			l-4.7-1.3c-0.3-0.1-0.4-0.4-0.4-0.6c0.1-0.3,0.4-0.4,0.6-0.4l4.7,1.3c0.3,0.1,0.4,0.4,0.4,0.6C96.9,194.1,96.7,194.3,96.5,194.3z
			 M87.1,191.7c0,0-0.1,0-0.1,0l-4.7-1.3c-0.3-0.1-0.4-0.4-0.4-0.6c0.1-0.3,0.4-0.4,0.6-0.4l4.7,1.3c0.3,0.1,0.4,0.4,0.4,0.6
			C87.6,191.6,87.4,191.7,87.1,191.7z M77.8,189.2c0,0-0.1,0-0.1,0l-4.7-1.3c-0.3-0.1-0.4-0.4-0.4-0.6c0.1-0.3,0.4-0.4,0.6-0.4
			l4.7,1.3c0.3,0.1,0.4,0.4,0.4,0.6C78.2,189,78,189.2,77.8,189.2z M68.4,186.6c0,0-0.1,0-0.1,0l-4.7-1.3c-0.3-0.1-0.4-0.4-0.4-0.6
			c0.1-0.3,0.4-0.4,0.6-0.4l4.7,1.3c0.3,0.1,0.4,0.4,0.4,0.6C68.8,186.5,68.6,186.6,68.4,186.6z M59,184.1c0,0-0.1,0-0.1,0l-4.7-1.3
			c-0.3-0.1-0.4-0.4-0.4-0.6c0.1-0.3,0.4-0.4,0.6-0.4l4.7,1.3c0.3,0.1,0.4,0.4,0.4,0.6C59.4,183.9,59.2,184.1,59,184.1z"/>
	</g>
	<g>
		<path class="st3" d="M122.4,201.3c0,0-0.1,0-0.1,0l-2.5-0.7c-0.3-0.1-0.4-0.4-0.4-0.6c0.1-0.3,0.4-0.4,0.6-0.4l2.2,0.6l1.7-1.6
			c0.2-0.2,0.5-0.2,0.7,0c0.2,0.2,0.2,0.5,0,0.7l-1.9,1.8C122.7,201.3,122.6,201.3,122.4,201.3z"/>
	</g>
	<g>
		<path class="st3" d="M128.1,195.9c-0.1,0-0.3-0.1-0.4-0.2c-0.2-0.2-0.2-0.5,0-0.7l3.9-3.7c0.2-0.2,0.5-0.2,0.7,0
			c0.2,0.2,0.2,0.5,0,0.7l-3.9,3.7C128.4,195.8,128.3,195.9,128.1,195.9z M135.9,188.5c-0.1,0-0.3-0.1-0.4-0.2
			c-0.2-0.2-0.2-0.5,0-0.7l3.9-3.7c0.2-0.2,0.5-0.2,0.7,0c0.2,0.2,0.2,0.5,0,0.7l-3.9,3.7C136.1,188.4,136,188.5,135.9,188.5z
			 M189.9,136.8c-0.1,0-0.3-0.1-0.4-0.2c-0.2-0.2-0.2-0.5,0-0.7l3.9-3.7c0.2-0.2,0.5-0.2,0.7,0c0.2,0.2,0.2,0.5,0,0.7l-3.9,3.7
			C190.1,136.8,190,136.8,189.9,136.8z M197.6,129.5c-0.1,0-0.3-0.1-0.4-0.2c-0.2-0.2-0.2-0.5,0-0.7l3.9-3.7c0.2-0.2,0.5-0.2,0.7,0
			c0.2,0.2,0.2,0.5,0,0.7l-3.9,3.7C197.8,129.4,197.7,129.5,197.6,129.5z M205.3,122.1c-0.1,0-0.3-0.1-0.4-0.2
			c-0.2-0.2-0.2-0.5,0-0.7l3.9-3.7c0.2-0.2,0.5-0.2,0.7,0c0.2,0.2,0.2,0.5,0,0.7l-3.9,3.7C205.6,122,205.4,122.1,205.3,122.1z"/>
	</g>
	<g>
		<path class="st3" d="M213,114.7c-0.1,0-0.3-0.1-0.4-0.2c-0.2-0.2-0.2-0.5,0-0.7l1.9-1.8c0.2-0.2,0.5-0.2,0.7,0
			c0.2,0.2,0.2,0.5,0,0.7l-1.9,1.8C213.3,114.6,213.1,114.7,213,114.7z"/>
	</g>
</g>
<polygon class="st3" points="219.6,107.6 212.2,110.7 216.8,115.1 "/>
<circle class="st3" cx="12.4" cy="233.5" r="1.8"/>
</svg>
