<?xml version="1.0" encoding="utf-8"?>
<!-- Generator: Adobe Illustrator 22.1.0, SVG Export Plug-In . SVG Version: 6.00 Build 0)  -->
<svg version="1.1" xmlns="http://www.w3.org/2000/svg" xmlns:xlink="http://www.w3.org/1999/xlink" x="0px" y="0px"
	 viewBox="0 0 321.4 322.5" style="enable-background:new 0 0 321.4 322.5;" xml:space="preserve">
<style type="text/css">
	.st0{fill:none;stroke:#6ABC5C;stroke-linejoin:bevel;stroke-miterlimit:10;}
	.st1{opacity:0.36;}
	.st2{fill:#65D2FF;}
	.st3{opacity:0.3;fill:#65D2FF;}
	.st4{fill:url(#SVGID_1_);}
	.st5{fill:none;stroke:#212C40;stroke-width:0.75;stroke-linecap:round;stroke-linejoin:round;stroke-miterlimit:10;}
	.st6{fill:url(#SVGID_2_);}
	.st7{fill:url(#SVGID_3_);}
	.st8{fill:#6ABC5C;stroke:#212C40;stroke-width:0.75;stroke-miterlimit:10;}
	.st9{fill:url(#SVGID_4_);stroke:#212C40;stroke-width:0.75;stroke-miterlimit:10;}
	.st10{fill:#FFFFFF;}
</style>
<g id="Layer_1">
	<path class="st0" d="M127.9,294.4c10.5,2.6,21.4,3.9,32.7,3.9c13.2,0,25.9-1.9,37.9-5.3"/>
	<g>
		<g class="st1">
			<path class="st2" d="M302.7,154.6c-2.6-48.3-29.7-94.1-75.4-118.3C158-0.2,71.9,26.3,35.3,95.6c-17.5,33.2-21.3,71.3-10.5,107.2
				l4.9-1.5C19.3,166.7,22.9,130,39.8,97.9C75.1,31.2,158.1,5.6,224.9,40.9c44,23.3,70.2,67.3,72.7,113.8H302.7z"/>
		</g>
		<g>
			<g>
				<polygon class="st3" points="139.8,136.6 101.3,165 101.3,170.1 139.8,141.5 156.1,153.4 159.4,150.9 				"/>
				<linearGradient id="SVGID_1_" gradientUnits="userSpaceOnUse" x1="163.435" y1="208.6493" x2="163.435" y2="173.8339">
					<stop  offset="0" style="stop-color:#6ABC5C"/>
					<stop  offset="1" style="stop-color:#65D2FF"/>
				</linearGradient>
				<rect x="153.6" y="168" class="st4" width="19.7" height="34.9"/>
				<polygon class="st3" points="148.2,165 164.1,154.2 178.7,164.5 178.7,168.7 164.3,158.8 148.2,169.8 				"/>
				<rect x="151.2" y="203" class="st2" width="23.9" height="2"/>
				<rect x="151.2" y="207.7" class="st2" width="23.9" height="2"/>
				<g>
					<rect x="189.5" y="196.9" class="st2" width="36.1" height="9.8"/>
					<rect x="189.5" y="186.2" class="st2" width="36.1" height="9.6"/>
					<path class="st5" d="M90,166.9"/>
					<polyline class="st5" points="101.3,165 101.3,203 148.2,203 148.2,165 164.1,154.2 178.7,164.5 178.7,203 186.6,203 
						186.6,216.6 101.3,216.6 101.3,203 					"/>
					<polygon class="st5" points="138.1,166.9 163.4,147.9 189.5,167.8 187.4,170.7 164.1,154.2 140.2,170.2 					"/>
					<polygon class="st5" points="90.6,167.6 140.2,128.8 163.4,147.9 159.4,150.9 139.8,136.6 93.1,171.1 					"/>
					<rect x="113.5" y="171.1" class="st2" width="4.7" height="27.7"/>
					
						<rect x="132.2" y="171.1" transform="matrix(-1 -1.224647e-16 1.224647e-16 -1 269.1846 369.8759)" class="st2" width="4.7" height="27.7"/>
					<linearGradient id="SVGID_2_" gradientUnits="userSpaceOnUse" x1="125.2126" y1="195.0988" x2="125.2126" y2="170.952">
						<stop  offset="0" style="stop-color:#6ABC5C"/>
						<stop  offset="1" style="stop-color:#65D2FF"/>
					</linearGradient>
					<polygon class="st6" points="119.3,198.8 131.1,198.8 131.1,171.1 119.3,171.1 					"/>
					<rect x="118.2" y="206.3" class="st2" width="14.1" height="6.9"/>
					<rect x="146.1" y="203" class="st5" width="33.8" height="13.6"/>
					<rect x="153.6" y="168" class="st2" width="19.7" height="34.9"/>
					<rect x="151.2" y="212.5" class="st5" width="23.9" height="4.1"/>
					<rect x="151.2" y="207.7" class="st5" width="23.9" height="4.7"/>
					<rect x="151.2" y="203" class="st5" width="23.9" height="4.7"/>
					<rect x="169.2" y="138.9" class="st5" width="10.6" height="8.9"/>
					<rect x="170.9" y="130" class="st5" width="7.3" height="8.9"/>
					<rect x="170.9" y="123.2" class="st5" width="7.3" height="3"/>
					<rect x="169.2" y="126.3" class="st5" width="10.6" height="3.8"/>
					<line class="st5" x1="169.2" y1="143.4" x2="158" y2="143.4"/>
					<polyline class="st5" points="179.8,143.4 238.4,143.4 238.4,174.2 178.7,174.2 					"/>
					<polyline class="st5" points="178.7,179 238.4,179 238.4,174.2 					"/>
					<polyline class="st5" points="186.6,216.6 231.8,216.6 231.8,179 					"/>
					<circle class="st5" cx="140.2" cy="152.1" r="6.7"/>
				</g>
			</g>
			<line class="st5" x1="41.7" y1="216.6" x2="275.1" y2="216.6"/>
		</g>
		<ellipse class="st3" cx="180.1" cy="227.2" rx="10" ry="2.6"/>
		<path class="st0" d="M294.8,189.5c1.9-9.2,2.9-18.6,2.9-28.4C297.8,85.4,236.3,24,160.6,24S23.4,85.4,23.4,161.2
			c0,37.5,15.1,71.5,39.5,96.3"/>
		<path class="st0" d="M255.1,260.6c10.8-10.3,19.9-22.3,26.9-35.6"/>
		<g>
			<linearGradient id="SVGID_3_" gradientUnits="userSpaceOnUse" x1="160.5751" y1="308.8281" x2="160.5751" y2="10.2775">
				<stop  offset="0" style="stop-color:#6ABC5C"/>
				<stop  offset="1" style="stop-color:#65D2FF"/>
			</linearGradient>
			<path class="st7" d="M160.6,320.7h-0.2v-1h0.2c1.6,0,3.2,0,4.8-0.1l0,1C163.8,320.7,162.2,320.7,160.6,320.7z M155.3,320.6
				c-1.7-0.1-3.4-0.1-5-0.2l0.1-1c1.6,0.1,3.3,0.2,5,0.2L155.3,320.6z M170.4,320.4l-0.1-1c1.6-0.1,3.3-0.2,5-0.4l0.1,1
				C173.7,320.2,172,320.3,170.4,320.4z M145.3,320c-1.7-0.2-3.4-0.3-5-0.6l0.1-1c1.6,0.2,3.3,0.4,4.9,0.5L145.3,320z M180.3,319.5
				l-0.1-1c1.6-0.2,3.3-0.4,4.9-0.7l0.2,1C183.7,319,182,319.3,180.3,319.5z M135.4,318.7c-1.7-0.3-3.3-0.6-4.9-0.9l0.2-1
				c1.6,0.3,3.3,0.6,4.9,0.9L135.4,318.7z M190.2,317.9l-0.2-1c1.6-0.3,3.3-0.6,4.9-1l0.2,1C193.5,317.3,191.9,317.6,190.2,317.9z
				 M125.6,316.8c-1.6-0.4-3.3-0.8-4.9-1.2l0.2-1c1.6,0.4,3.2,0.8,4.8,1.2L125.6,316.8z M200,315.8l-0.2-1c1.6-0.4,3.2-0.8,4.8-1.3
				l0.3,1C203.3,314.9,201.6,315.4,200,315.8z M115.9,314.3c-1.6-0.5-3.2-1-4.8-1.5l0.3-1c1.6,0.5,3.2,1,4.8,1.5L115.9,314.3z
				 M209.7,313l-0.3-1c1.6-0.5,3.2-1,4.7-1.6l0.3,0.9C212.8,311.9,211.2,312.5,209.7,313z M106.3,311.2c-1.6-0.6-3.1-1.2-4.7-1.8
				l0.4-0.9c1.5,0.6,3.1,1.2,4.7,1.8L106.3,311.2z M219.1,309.6l-0.4-0.9c1.5-0.6,3.1-1.2,4.6-1.9l0.4,0.9
				C222.2,308.3,220.7,309,219.1,309.6z M97,307.5c-1.5-0.7-3.1-1.4-4.5-2.1l0.4-0.9c1.5,0.7,3,1.4,4.5,2.1L97,307.5z M228.3,305.6
				l-0.4-0.9c1.5-0.7,3-1.4,4.5-2.2l0.5,0.9C231.4,304.2,229.8,304.9,228.3,305.6z M88,303.3c-1.5-0.8-3-1.5-4.4-2.3l0.5-0.9
				c1.5,0.8,2.9,1.6,4.4,2.3L88,303.3z M237.3,301.1l-0.5-0.9c1.4-0.8,2.9-1.6,4.3-2.5l0.5,0.9C240.2,299.4,238.7,300.3,237.3,301.1
				z M79.3,298.4c-1.4-0.8-2.9-1.7-4.3-2.6l0.5-0.8c1.4,0.9,2.8,1.8,4.2,2.6L79.3,298.4z M245.9,296l-0.5-0.8
				c1.4-0.9,2.8-1.8,4.2-2.7l0.6,0.8C248.7,294.1,247.3,295.1,245.9,296z M70.8,293.1c-1.4-0.9-2.8-1.9-4.1-2.9l0.6-0.8
				c1.3,1,2.7,1.9,4.1,2.9L70.8,293.1z M254.2,290.3l-0.6-0.8c1.3-1,2.7-2,4-3l0.6,0.8C256.9,288.3,255.6,289.3,254.2,290.3z
				 M62.7,287.2c-1.3-1-2.6-2.1-3.9-3.1l0.6-0.8c1.3,1.1,2.6,2.1,3.9,3.1L62.7,287.2z M262.1,284.2l-0.6-0.8
				c1.3-1.1,2.5-2.1,3.8-3.2l0.7,0.8C264.7,282,263.4,283.1,262.1,284.2z M55,280.8c-1.3-1.1-2.5-2.2-3.7-3.4l0.7-0.7
				c1.2,1.1,2.4,2.3,3.7,3.4L55,280.8z M269.7,277.6l-0.7-0.7c1.2-1.1,2.4-2.3,3.6-3.5l0.7,0.7C272.1,275.2,270.9,276.4,269.7,277.6
				z M47.7,273.9c-1.2-1.2-2.3-2.4-3.5-3.6l0.7-0.7c1.1,1.2,2.3,2.4,3.5,3.6L47.7,273.9z M276.7,270.5l-0.7-0.7
				c1.1-1.2,2.3-2.4,3.4-3.7l0.8,0.7C279,268,277.9,269.3,276.7,270.5z M40.9,266.6c-1.1-1.3-2.2-2.5-3.3-3.8l0.8-0.6
				c1,1.3,2.1,2.5,3.2,3.8L40.9,266.6z M283.4,263l-0.8-0.6c1-1.3,2.1-2.6,3.1-3.9l0.8,0.6C285.5,260.4,284.4,261.7,283.4,263z
				 M34.5,258.9c-1-1.3-2-2.7-3-4l0.8-0.6c1,1.3,2,2.7,3,4L34.5,258.9z M289.5,255.1l-0.8-0.6c1-1.3,1.9-2.7,2.9-4.1l0.8,0.6
				C291.5,252.4,290.5,253.7,289.5,255.1z M28.6,250.8c-0.9-1.4-1.9-2.8-2.8-4.2l0.8-0.5c0.9,1.4,1.8,2.8,2.7,4.2L28.6,250.8z
				 M295.2,246.8l-0.8-0.5c0.9-1.4,1.8-2.8,2.6-4.2l0.9,0.5C296.9,244,296.1,245.4,295.2,246.8z M23.2,242.3
				c-0.9-1.4-1.7-2.9-2.5-4.4l0.9-0.5c0.8,1.4,1.6,2.9,2.5,4.3L23.2,242.3z M300.3,238.2l-0.9-0.5c0.8-1.4,1.6-2.9,2.3-4.4l0.9,0.5
				C301.9,235.3,301.1,236.8,300.3,238.2z M18.4,233.5c-0.8-1.5-1.5-3-2.2-4.5l0.9-0.4c0.7,1.5,1.4,3,2.2,4.5L18.4,233.5z
				 M304.8,229.3l-0.9-0.4c0.7-1.5,1.4-3,2.1-4.5l0.9,0.4C306.2,226.3,305.5,227.8,304.8,229.3z M14.1,224.4
				c-0.7-1.5-1.3-3.1-1.9-4.6l0.9-0.4c0.6,1.5,1.2,3.1,1.9,4.6L14.1,224.4z M308.8,220.2l-0.9-0.4c0.6-1.5,1.2-3.1,1.8-4.7l0.9,0.3
				C310,217,309.4,218.6,308.8,220.2z M10.4,215.1c-0.6-1.6-1.1-3.2-1.6-4.8l1-0.3c0.5,1.6,1.1,3.2,1.6,4.7L10.4,215.1z
				 M312.2,210.7l-1-0.3c0.5-1.6,1-3.2,1.5-4.8l1,0.3C313.2,207.5,312.7,209.2,312.2,210.7z M7.3,205.5c-0.5-1.6-0.9-3.2-1.3-4.8
				l1-0.2c0.4,1.6,0.9,3.2,1.3,4.8L7.3,205.5z M315,201.1l-1-0.2c0.4-1.6,0.8-3.2,1.2-4.8l1,0.2C315.9,197.9,315.5,199.5,315,201.1z
				 M4.8,195.8c-0.4-1.6-0.7-3.3-1-4.9l1-0.2c0.3,1.6,0.6,3.3,1,4.9L4.8,195.8z M317.2,191.3l-1-0.2c0.3-1.6,0.6-3.3,0.9-4.9l1,0.2
				C317.8,188.1,317.5,189.7,317.2,191.3z M3,186c-0.3-1.7-0.5-3.3-0.7-5l1-0.1c0.2,1.6,0.4,3.3,0.7,4.9L3,186z M318.8,181.5l-1-0.1
				c0.2-1.6,0.4-3.3,0.5-4.9l1,0.1C319.2,178.1,319,179.8,318.8,181.5z M1.8,176c-0.2-1.6-0.3-3.3-0.4-5l1-0.1
				c0.1,1.7,0.2,3.3,0.4,5L1.8,176z M319.8,171.5l-1-0.1c0.1-1.6,0.2-3.3,0.2-5l1,0C319.9,168.1,319.9,169.8,319.8,171.5z M1.1,166
				c0-1.6-0.1-3.2-0.1-4.9V161h1v0.1c0,1.6,0,3.2,0.1,4.8L1.1,166z M320.1,161.5h-1v-0.3c0-1.7,0-3.3-0.1-5l1,0
				c0.1,1.6,0.1,3.3,0.1,5V161.5z M2.1,156.1l-1,0c0.1-1.7,0.1-3.3,0.2-5l1,0.1C2.3,152.7,2.2,154.4,2.1,156.1z M318.8,151.2
				c-0.1-1.7-0.2-3.3-0.4-5l1-0.1c0.2,1.6,0.3,3.3,0.4,5L318.8,151.2z M2.8,146.1l-1-0.1c0.2-1.6,0.3-3.3,0.5-5l1,0.1
				C3.1,142.8,2.9,144.5,2.8,146.1z M317.9,141.3c-0.2-1.6-0.4-3.3-0.7-4.9l1-0.2c0.3,1.6,0.5,3.3,0.7,5L317.9,141.3z M4,136.2
				l-1-0.2c0.3-1.6,0.5-3.3,0.9-4.9l1,0.2C4.6,133,4.3,134.6,4,136.2z M316.3,131.5c-0.3-1.6-0.6-3.3-1-4.9l1-0.2
				c0.4,1.6,0.7,3.3,1,4.9L316.3,131.5z M5.9,126.5l-1-0.2c0.4-1.6,0.8-3.3,1.2-4.9l1,0.2C6.6,123.2,6.2,124.8,5.9,126.5z
				 M314.1,121.8c-0.4-1.6-0.8-3.2-1.3-4.8l1-0.3c0.5,1.6,0.9,3.2,1.3,4.8L314.1,121.8z M8.4,116.8l-1-0.3c0.5-1.6,1-3.2,1.5-4.8
				l1,0.3C9.3,113.6,8.8,115.2,8.4,116.8z M311.4,112.2c-0.5-1.6-1.1-3.2-1.6-4.7l0.9-0.3c0.6,1.6,1.1,3.2,1.6,4.8L311.4,112.2z
				 M11.4,107.4l-0.9-0.3c0.6-1.6,1.2-3.1,1.8-4.7l0.9,0.4C12.6,104.2,12,105.8,11.4,107.4z M308,102.8c-0.6-1.5-1.3-3.1-1.9-4.6
				l0.9-0.4c0.7,1.5,1.3,3.1,1.9,4.6L308,102.8z M15.1,98.1l-0.9-0.4c0.7-1.5,1.4-3.1,2.1-4.6l0.9,0.4
				C16.5,95.1,15.8,96.6,15.1,98.1z M304,93.6c-0.7-1.5-1.4-3-2.2-4.5l0.9-0.5c0.8,1.5,1.5,3,2.2,4.5L304,93.6z M19.3,89.1l-0.9-0.5
				c0.8-1.5,1.5-3,2.3-4.4l0.9,0.5C20.9,86.2,20.1,87.7,19.3,89.1z M299.5,84.8c-0.8-1.4-1.6-2.9-2.5-4.3l0.9-0.5
				c0.9,1.4,1.7,2.9,2.5,4.4L299.5,84.8z M24.1,80.4l-0.9-0.5c0.8-1.4,1.7-2.9,2.6-4.3l0.8,0.5C25.9,77.6,25,79,24.1,80.4z
				 M294.4,76.2c-0.9-1.4-1.8-2.8-2.7-4.2l0.8-0.6c0.9,1.4,1.9,2.8,2.8,4.2L294.4,76.2z M29.5,72l-0.8-0.6c0.9-1.4,1.9-2.7,2.9-4.1
				l0.8,0.6C31.4,69.3,30.4,70.7,29.5,72z M288.8,67.9c-1-1.3-2-2.7-3-4l0.8-0.6c1,1.3,2,2.7,3,4L288.8,67.9z M35.3,64l-0.8-0.6
				c1-1.3,2.1-2.6,3.1-3.9l0.8,0.6C37.4,61.4,36.4,62.7,35.3,64z M282.7,60.1c-1.1-1.3-2.1-2.5-3.2-3.8l0.8-0.7
				c1.1,1.2,2.2,2.5,3.3,3.8L282.7,60.1z M41.7,56.3l-0.8-0.7c1.1-1.2,2.2-2.5,3.4-3.7l0.7,0.7C43.9,53.9,42.8,55.1,41.7,56.3z
				 M276.1,52.6c-1.1-1.2-2.3-2.4-3.5-3.6l0.7-0.7c1.2,1.2,2.3,2.4,3.5,3.6L276.1,52.6z M48.5,49.1l-0.7-0.7
				c1.2-1.2,2.4-2.4,3.6-3.5l0.7,0.7C50.9,46.7,49.7,47.9,48.5,49.1z M269,45.6c-1.2-1.1-2.4-2.3-3.7-3.3l0.7-0.8
				c1.2,1.1,2.5,2.2,3.7,3.4L269,45.6z M55.8,42.3l-0.7-0.8c1.2-1.1,2.5-2.2,3.8-3.3l0.6,0.8C58.3,40.1,57,41.2,55.8,42.3z
				 M261.6,39c-1.3-1.1-2.6-2.1-3.9-3.1l0.6-0.8c1.3,1,2.6,2.1,3.9,3.1L261.6,39z M63.4,35.9l-0.6-0.8c1.3-1,2.7-2,4-3l0.6,0.8
				C66.1,33.9,64.7,34.9,63.4,35.9z M253.7,32.9c-1.3-1-2.7-1.9-4.1-2.9l0.6-0.8c1.4,0.9,2.8,1.9,4.1,2.9L253.7,32.9z M71.5,30.1
				l-0.6-0.8c1.4-0.9,2.8-1.9,4.2-2.8l0.5,0.8C74.2,28.2,72.8,29.1,71.5,30.1z M245.5,27.3c-1.4-0.9-2.8-1.8-4.2-2.6l0.5-0.9
				c1.4,0.9,2.9,1.7,4.3,2.6L245.5,27.3z M79.9,24.7l-0.5-0.9c1.4-0.8,2.9-1.7,4.4-2.5l0.5,0.9C82.8,23,81.3,23.9,79.9,24.7z
				 M236.9,22.2c-1.4-0.8-2.9-1.6-4.4-2.3L233,19c1.5,0.8,3,1.6,4.4,2.3L236.9,22.2z M88.6,19.9L88.2,19c1.5-0.8,3-1.5,4.5-2.2
				l0.4,0.9C91.6,18.4,90.1,19.2,88.6,19.9z M228.1,17.7c-1.5-0.7-3-1.4-4.5-2l0.4-0.9c1.5,0.7,3,1.4,4.6,2.1L228.1,17.7z
				 M97.7,15.6l-0.4-0.9c1.5-0.7,3.1-1.3,4.6-1.9l0.4,0.9C100.7,14.3,99.2,15,97.7,15.6z M219,13.8c-1.5-0.6-3.1-1.2-4.7-1.8
				l0.3-0.9c1.6,0.6,3.1,1.2,4.7,1.8L219,13.8z M106.9,12l-0.3-0.9c1.6-0.6,3.2-1.1,4.8-1.6l0.3,1C110.1,10.9,108.5,11.4,106.9,12z
				 M209.6,10.4c-1.6-0.5-3.2-1-4.8-1.5l0.3-1c1.6,0.5,3.2,1,4.8,1.5L209.6,10.4z M116.4,8.9l-0.3-1c1.6-0.5,3.2-0.9,4.8-1.3l0.2,1
				C119.6,8,118,8.4,116.4,8.9z M200.1,7.6c-1.6-0.4-3.2-0.8-4.8-1.2l0.2-1c1.6,0.4,3.3,0.8,4.9,1.2L200.1,7.6z M126.1,6.4l-0.2-1
				c1.6-0.4,3.3-0.7,4.9-1l0.2,1C129.3,5.7,127.7,6.1,126.1,6.4z M190.3,5.5c-1.6-0.3-3.3-0.6-4.9-0.9l0.2-1
				c1.6,0.3,3.3,0.5,4.9,0.9L190.3,5.5z M135.9,4.6l-0.2-1c1.6-0.3,3.3-0.5,5-0.7l0.1,1C139.1,4.1,137.5,4.3,135.9,4.6z M180.5,3.9
				c-1.6-0.2-3.3-0.4-4.9-0.5l0.1-1c1.7,0.2,3.3,0.3,5,0.5L180.5,3.9z M145.7,3.4l-0.1-1c1.6-0.2,3.3-0.3,5-0.4l0.1,1
				C149,3.1,147.4,3.2,145.7,3.4z M170.6,3c-1.6-0.1-3.3-0.2-5-0.2l0-1c1.7,0.1,3.4,0.1,5,0.2L170.6,3z M155.7,2.7l0-1
				c1.6,0,3.3-0.1,4.9-0.1l0.1,1l-0.1,0C159,2.7,157.3,2.7,155.7,2.7z"/>
		</g>
		<g>
			<rect x="178.1" y="186" class="st8" width="3.9" height="41.3"/>
			<linearGradient id="SVGID_4_" gradientUnits="userSpaceOnUse" x1="180.0557" y1="186.417" x2="180.0557" y2="176.4139">
				<stop  offset="0" style="stop-color:#6ABC5C"/>
				<stop  offset="1" style="stop-color:#65D2FF"/>
			</linearGradient>
			<rect x="169.7" y="176" class="st9" width="20.7" height="12.2"/>
			<g>
				<path class="st10" d="M175.2,183.2c0-0.2,0-0.3-0.1-0.4c-0.1-0.1-0.3-0.2-0.5-0.3c-0.5-0.2-0.8-0.4-1-0.6
					c-0.2-0.2-0.3-0.5-0.3-0.9c0-0.4,0.1-0.7,0.4-1c0.3-0.2,0.6-0.4,1.1-0.4c0.3,0,0.6,0.1,0.8,0.2c0.2,0.1,0.4,0.3,0.5,0.5
					c0.1,0.2,0.2,0.5,0.2,0.8h-1c0-0.2,0-0.4-0.1-0.5c-0.1-0.1-0.2-0.2-0.4-0.2c-0.2,0-0.3,0-0.4,0.1s-0.1,0.2-0.1,0.4
					c0,0.1,0.1,0.2,0.2,0.4c0.1,0.1,0.3,0.2,0.6,0.3c0.5,0.2,0.8,0.4,1,0.6c0.2,0.2,0.3,0.6,0.3,0.9c0,0.4-0.1,0.7-0.4,1
					c-0.3,0.2-0.6,0.4-1.1,0.4c-0.3,0-0.6-0.1-0.8-0.2c-0.3-0.1-0.5-0.3-0.6-0.5c-0.1-0.2-0.2-0.5-0.2-0.8h1c0,0.3,0.1,0.5,0.2,0.6
					c0.1,0.1,0.3,0.2,0.5,0.2C175.1,183.7,175.2,183.6,175.2,183.2z"/>
				<path class="st10" d="M180.2,182.5c0,0.6-0.2,1.1-0.5,1.5c-0.3,0.4-0.7,0.5-1.3,0.5c-0.5,0-1-0.2-1.3-0.5s-0.5-0.8-0.5-1.5v-0.8
					c0-0.7,0.2-1.2,0.5-1.5c0.3-0.4,0.7-0.6,1.3-0.6c0.5,0,0.9,0.2,1.3,0.5s0.5,0.9,0.5,1.5V182.5z M179.2,181.7
					c0-0.4-0.1-0.8-0.2-1s-0.3-0.3-0.6-0.3c-0.3,0-0.4,0.1-0.6,0.3s-0.2,0.5-0.2,0.9v0.8c0,0.4,0.1,0.7,0.2,0.9
					c0.1,0.2,0.3,0.3,0.6,0.3c0.3,0,0.4-0.1,0.6-0.3c0.1-0.2,0.2-0.5,0.2-0.9V181.7z"/>
				<path class="st10" d="M181.9,183.7h1.7v0.8h-2.7v-4.8h1V183.7z"/>
				<path class="st10" d="M184.1,184.5v-4.8h1.3c0.6,0,1,0.2,1.3,0.5c0.3,0.4,0.5,0.8,0.5,1.5v0.8c0,0.6-0.2,1.1-0.5,1.5
					c-0.3,0.4-0.8,0.5-1.4,0.5H184.1z M185.1,180.5v3.2h0.3c0.3,0,0.5-0.1,0.7-0.3s0.2-0.5,0.2-0.9v-0.8c0-0.4-0.1-0.8-0.2-0.9
					c-0.1-0.2-0.3-0.3-0.6-0.3H185.1z"/>
			</g>
		</g>
	</g>
</g>
<g id="Layer_2">
</g>
</svg>
