<?xml version="1.0" encoding="utf-8"?>
<!-- Generator: Adobe Illustrator 22.1.0, SVG Export Plug-In . SVG Version: 6.00 Build 0)  -->
<svg version="1.1" xmlns="http://www.w3.org/2000/svg" xmlns:xlink="http://www.w3.org/1999/xlink" x="0px" y="0px"
	 viewBox="0 0 119.1 164" style="enable-background:new 0 0 119.1 164;" xml:space="preserve">
<style type="text/css">
	.st0{display:none;fill:#212C40;}
	.st1{fill:#FFFFFF;}
	.st2{opacity:0.3;fill:#65D2FF;}
	.st3{fill:#212C40;}
	.st4{fill:url(#SVGID_1_);}
	.st5{fill:none;stroke:#212C40;stroke-linecap:round;stroke-linejoin:round;stroke-miterlimit:10;}
</style>
<g id="Layer_1">
	<rect x="-521.9" y="293" class="st0" width="1083" height="571"/>
</g>
<g id="Layer_2">
	<polygon class="st1" points="35.1,88.4 22.7,105 17.2,114.2 17.8,116.5 18.9,117.9 20.7,117.5 21.9,118 26.7,129 29.1,132.7 
		40.9,149.1 41.9,145.8 43.3,142.4 42.4,140.7 39.1,120.4 36.1,98.6 	"/>
	<g>
		<path class="st1" d="M117.2,57.3c-0.6-1-1.6-1.3-1.6-1.3s-0.4-1.9-2.8-1.4c-2-2.3-3.2-1.3-3.2-1.3s-0.6-2.6-3.7-1.4
			c1.6-7.5,1-12.1,1-12.1c-0.2-2.6-2.9-2-2.9,0c0,2-1.6,20.3-1.6,20.3s-2.6-1.2-3.9-4c-1.2-2.8-4.2-2.3-4.2-2.3s2.3,4.2,4,7.2
			c1.7,3-0.7,8.2,3.5,10.2c-0.6,7.8-2.8,13.9-2.8,13.9l0,0.2h0l-2.8,8.3l-1.9,5.1c0,0-13.3-25.8-16.4-29.4
			c-2.1-2.5-9.9-6.9-14.7-9.5c-2.3-1.2-3.9-2.1-3.9-2.1v-3.7c6-4.8,8.9-22,8.9-22c3.7-10.8,1.2-21.3,0-22.6
			c-4.9-0.7-6.5,2.3-6.5,2.3s0.9-3.5,3.3-4.2c-1.1-1.7-7.8-3.9-10.2-3.6c-2.4,0.3-4,3.8-4,3.8S49.2,5,50.2,2c-1.9,0-5,0-5,0
			s-11.9,5.6-9.4,14.9c0.1,0.1,0.2,0.1,0.3,0.2l-0.7,1.4c-3.9,3.5,0,13,0,13s-3.4,4.9,4,9.8c0.2,1,0.4,3.6,0.5,6.5
			c0.1,4.3,0.1,8.9,0.1,8.9l-2.4,2.1l-0.8,0.7c0,0-13,9.5-16.6,13C16.6,75.9,1.6,112,1.6,114.8c0,2.9,4.8,8,4.8,8l-1.2,1.4l9.8,11
			c0,0,16.6,15.6,23.5,21c-0.2,1.6-0.4,3.5-0.9,6.1h42.8c0.1-1.5,0.1-2.7,0.1-4.2c0.9,0,1.5-0.6,1.5-0.6l0.3-4.5l-0.1-0.2l-0.4-0.8
			c2.7-12.4-4.4-49.5-4.4-49.5s0,0,0,0c0.9,1,15.2,17.7,20.2,17.2c6.6-0.7,9.6-16.1,9.6-16.1l1.9,1.8l3.1-10.6l-2.5-1.8l0,0
			l-0.2-0.1l0.1-0.1l1.1-20.2l3.1-6.7c0,0,1.5,0.3,1.9-1C116.3,63.5,117.8,58.4,117.2,57.3z M27.2,130.2l-5.6-12.9l-2.7,0.5
			c0,0-1.8-1.7-1.7-3.7c0.1-2,15.7-24.2,17.9-25.8c2.5,27.3,7.9,54.7,7.9,54.7l0.1,0.1c-0.4,0.7-0.7,1.3-0.9,1.9
			c-0.7,2.2-1.2,4.1-1.2,4.1L27.2,130.2z"/>
		<g>
			<polygon class="st2" points="63.1,59.8 64.4,60.6 67.5,76.6 59.3,68.2 66,73.2 			"/>
			<polygon class="st2" points="37.6,58.7 37.6,58.7 51.4,75.5 55.9,68.2 50.1,78.2 			"/>
			<g>
				<path class="st3" d="M52.8,26.6c0,0,0.2-3.3-1.1-3.3c-1.3,0-8.3,2.4-8.9,6.3C47.8,25.2,52.8,26.6,52.8,26.6z"/>
				<path class="st3" d="M59.1,25.9c2.2,0.7,6,1.9,6.2,2.4c0.3,0.4-7.2-1.2-8.4-0.2C56.9,27.3,56.9,25.2,59.1,25.9z"/>
				<ellipse class="st3" cx="47.9" cy="32" rx="1.2" ry="1.1"/>
				<ellipse class="st3" cx="59.8" cy="32.2" rx="1.2" ry="1.1"/>
			</g>
			<linearGradient id="SVGID_1_" gradientUnits="userSpaceOnUse" x1="53.4225" y1="108.5509" x2="73.6255" y2="108.5509">
				<stop  offset="0" style="stop-color:#6ABC5C"/>
				<stop  offset="1" style="stop-color:#65D2FF"/>
			</linearGradient>
			<path class="st4" d="M59.3,68.2l5.2,3.9c0,0-1.8,0.7-3.1,2.1c10.6,14.6,12.1,70.1,12.1,70.1l-4.9,4.6L64,144
				c0,0,1.7-60.6-5.7-68.7c-2.4-1.5-4.9-3.1-4.9-3.1l2.4-4H59.3z"/>
			<g>
				<path class="st5" d="M65.1,18.9c-16.1,2.4-12.3-1.3-23.6,0c-2,0.6-3.6-0.8-5.6-2C33.3,7.6,45.2,2,45.2,2s3.1,0,5,0
					c-1,3,0.6,5.6,0.6,5.6s1.6-3.4,4-3.8c2.4-0.3,9.1,1.9,10.2,3.6c-2.4,0.7-3.3,4.2-3.3,4.2s1.6-3,6.5-2.3c1.1,1.3,3.7,11.8,0,22.6
					C68.2,26.6,66.9,20.9,65.1,18.9z"/>
				<path class="st5" d="M35.5,18.5c1.1,0.7,2.9,1.9,5.5,3.6c-4.2,4.4-0.5,15.8-0.5,15.8l-4.9-6.4C35.5,31.4,31.6,21.9,35.5,18.5z"
					/>
				<path class="st5" d="M21.6,117.3l-2.7,0.5c0,0-1.8-1.7-1.7-3.7c0.1-2,15.7-24.2,17.9-25.8c2.5,27.3,7.9,54.7,7.9,54.7"/>
				<path class="st5" d="M35.5,31.4c0,0-3.4,4.9,4,9.8c0.6,2.5,0.6,15.4,0.6,15.4l-3.2,2.8c0,0-13,9.5-16.6,13S1.6,112,1.6,114.8
					s4.8,8,4.8,8l-1.3,1.4l9.8,11c0,0,23.2,21.7,26.1,22.8c3,1.1,12-7.7,12-7.7s3.7,5.3,5.2,5c1.6-0.3,0.5-3.3,0.5-3.3
					s1.1,0,1.9-0.7c0.7-0.7,0.7-2.4,0.7-2.4s-3.9-6-5-6.6c-1.1-0.6-5.3,0.5-5.3,0.5l2.3-2.4c0,0,5.7,0.6,6.9-3.1
					c-3.7,0.6-8,0.3-8.9,0.8s-4.9,4.9-4.9,4.9s1.6-5.2-0.6-6c-0.2,2.6-3.1,5.8-3.8,8s-1.3,4.1-1.3,4.1l-13.7-18.9"/>
				<path class="st5" d="M68.2,31.8c0,0-3.9,23.2-12,23.2s-14-7.4-14-7.4"/>
				<polyline class="st5" points="59.3,53.8 59.3,68.2 55.9,68.2 40.1,56.6 				"/>
				<path class="st5" d="M38.5,156.2c-0.2,1.6-0.4,3.5-0.9,6.1h42.8c0.1-1.5,0.1-2.7,0.1-4.2c0.9,0,1.5-0.6,1.5-0.6l0.3-4.5l-0.4-1
					c2.6-12.4-4.4-49.5-4.4-49.5s15.1,17.8,20.2,17.2c6.6-0.7,9.6-16.1,9.6-16.1l1.9,1.8l3.1-10.6l-2.5-1.8"/>
				<path class="st5" d="M59.3,57.6c0,0,15.5,8,18.6,11.6s16.4,29.4,16.4,29.4l1.9-5.1l2.8-8.4c0,0,2.2-6.1,2.8-13.9
					c-4.3-2-1.9-7.2-3.6-10.2c-1.7-3-4-7.2-4-7.2s2.9-0.5,4.2,2.3c1.3,2.8,3.9,4,3.9,4s1.6-18.3,1.6-20.3c0-2,2.7-2.6,2.9,0
					c0,0,0.5,4.6-1,12.1c3.1-1.1,3.7,1.4,3.7,1.4s1.3-1,3.3,1.3c2.4-0.5,2.8,1.4,2.8,1.4s0.9,0.2,1.6,1.3c0.6,1-0.9,6.1-1.4,7.4
					c-0.4,1.3-1.9,1-1.9,1l-3.1,6.7l-1.1,20.3"/>
				<path class="st5" d="M58.8,39.8c0,0-1.7,3-5.1,0.8"/>
				<path class="st5" d="M60.1,43.4c0,0-2.6,4.6-10.1,1"/>
				<polyline class="st5" points="71.9,158.1 75.5,158.1 75.8,150.7 78.2,150.7 77.6,158.1 80.6,158.1 				"/>
				<line class="st5" x1="82.4" y1="152.8" x2="78.4" y2="152.8"/>
				<line class="st5" x1="75.7" y1="152.7" x2="72" y2="152.7"/>
				<polyline class="st5" points="61.1,150.7 72,150.7 71.6,160.5 60.1,160.5 60.1,151.6 				"/>
				<polygon class="st5" points="61.8,152.3 70.3,152.3 70.3,154.9 67.5,155.2 67.6,157 70.3,157 70.3,158.8 61.5,158.8 				"/>
				<polyline class="st5" points="60.1,157.5 54.9,157.5 54.9,152.5 53.8,151.2 53.1,150.2 52,151.3 52,157 45.5,156.5 				"/>
				<line class="st5" x1="82" y1="151.9" x2="78.1" y2="151.9"/>
				<line class="st5" x1="75.7" y1="151.9" x2="71.9" y2="151.9"/>
				<polyline class="st5" points="15,135.2 27.2,130.2 21.6,117.3 5.2,124.2 				"/>
				<line class="st5" x1="112.1" y1="94.6" x2="99.1" y2="85.3"/>
				<line class="st5" x1="107.4" y1="103.5" x2="96.3" y2="93.6"/>
				<path class="st5" d="M75.2,93.6c0,0,1,2.1,2.8,10.6"/>
			</g>
			<polyline class="st5" points="55.9,68.2 51.4,75.5 37.6,58.7 			"/>
			<polyline class="st5" points="59.3,68.2 66,73.2 63.1,59.8 			"/>
		</g>
	</g>
</g>
<g id="Layer_3">
</g>
</svg>
