<?xml version="1.0" encoding="utf-8"?>
<!-- Generator: Adobe Illustrator 22.1.0, SVG Export Plug-In . SVG Version: 6.00 Build 0)  -->
<svg version="1.1" id="Layer_1" xmlns="http://www.w3.org/2000/svg" xmlns:xlink="http://www.w3.org/1999/xlink" x="0px" y="0px"
	 viewBox="0 0 141.3 342.2" style="enable-background:new 0 0 141.3 342.2;" xml:space="preserve">
<style type="text/css">
	.st0{fill:none;stroke:#FFFFFF;stroke-linecap:round;stroke-linejoin:round;stroke-miterlimit:10;}
	.st1{fill:#FFFFFF;}
	.st2{fill:none;stroke:#212C40;stroke-width:0.75;stroke-linecap:round;stroke-linejoin:round;stroke-miterlimit:10;}
	.st3{opacity:0.3;fill:#65D2FF;}
	.st4{fill:url(#SVGID_1_);}
	.st5{fill:#222C40;}
</style>
<g>
	<line class="st0" x1="2.4" y1="340.2" x2="139.9" y2="340.2"/>
	<g>
		<path class="st1" d="M131.5,5.2c-4-2.1-9.7,1.3-9.7,1.3c-1.7-0.6-4,0.6-4,0.6l0,0c-4.9-2.2-15.4-0.3-17.7-6
			C85.1,4.9,85.9,22.7,85.9,22.8c-0.4,0.5-0.7,1-1,1.6c0,0,0,0,0,0s0,0,0,0c-0.4,0.8-0.8,1.6-1.1,2.4l-2.2-0.5c0,0-2.6,9.1,1.4,12.4
			c0.2,3.9,0.8,7.7,1.8,10.8c0,0,0,0,0-0.1c-1.1,5.2-1,11.4-0.6,13.6s1.7,4.3,3.9,5c1.2,0.4,2.4,0.6,3.3,0.8c0.7,0.2,0,0,0,0
			c-0.3,0.2-0.6,0.4-0.9,0.6l0,0l0,0c-14.6,9.8-22,54.4-19.8,59.7c2.3,5.4,19.9-4.8,19.9-4.8s-9.1,14.6-20.3,32.4
			c-11.2,17.8-3.9,59.7-3.9,59.7l18.6,4.5c0,0,1.6,2.7,3,8.3c-1.2,5.8-0.7,12.9,0.8,20.6l0,0c-10.6,15.6-13.2,63.8-13.1,78.3
			c-3.1,0.8-1,10.1-1,10.1l1.7-0.1v-2.9c0,0,2.1,4.7,3.6,4.7s3,0,4.6,0c-1.7,0-3.8-3.7-3.8-3.7S79,332.7,80,329s16.7-51.4,16.7-51.4
			l0,0c8.9,25.2,20.5,49.4,17.9,56.3c0,0-1.4,3.5-3.2,6c2.7,0,3.8,0,5.1,0c1.3,0,3.7-4.7,3.7-4.7v4l1.4-0.1c0,0,2.3-12.9-1.9-12.9
			L107,241.7l4.2-13.5l-6.5-1.9c2.4,0.7,6.2,1.8,9.9,2.9c8.8-77-13.5-94.9-3.3-112c0,0-8.1-6.9-5-4c3,2.9,8.2,6.8,10.3,6
			c2.1-0.8,4.8-15.6,3.3-20.7S112.6,77,109.2,73c-3.2-3.8-9.1-4.7-9.7-4.7l1.6-17.4l-1.2-3.1c0,0-2.4,4.6-2.7,2.3
			c-0.3-2.3-1.6,4.1-2.4,6.1s0.1,4-0.8,5.2c-2.1-2.9-7-4.2-9.3-11.7c1,3,2.5,5.2,4.8,6.2c3.4,1.5,7.8-1.6,11.5-4.9
			c2.8-2.5,5.2-5.2,6.4-6.3c2,0.5,5-1.7,6.9-4.2l0,0c2.2,4.7,0.3,30.6,0.3,30.6l6.4,4c0,0,3.5-16.1,1.8-26.3
			c3.7,5.8-0.1,30.3-0.1,30.3s4.3,2.8,6.7,4.4C139.2,52.2,135.5,7.3,131.5,5.2z M104.7,226.2l-19.8-5.4
			C84.9,220.8,102.9,225.7,104.7,226.2z"/>
		<path class="st1" d="M99.1,97.8l0.8,10.5C100.3,104.8,99.1,97.8,99.1,97.8z"/>
	</g>
	<g>
		<path class="st2" d="M111.1,33.9c6.5-36.4-28.4-18.8-28.4-2.3c0,9.7,0.9,21.6,6.8,24.2c6,2.6,15.2-8.8,17.9-11.2
			C112.1,45.9,122.2,32.2,111.1,33.9z"/>
		<polygon class="st3" points="99.4,68.2 106.6,73.8 102.3,77.8 101.2,76.3 104.2,73.2 		"/>
		<polygon class="st3" points="90.3,69.4 83.3,79.5 96.5,85.2 96.2,83.7 86.2,77.2 		"/>
		<path class="st2" d="M85.7,22.8c0,0-0.8-17.9,14.3-21.7c2.8,6.8,17.3,2.7,19.9,8c2.6,5.3-6.4,24.8-6.4,24.8"/>
		<path class="st2" d="M98.9,54.6l-2.5,6.4c0,0,0.9,1,1.1,3.3c0.3,2.3-2.1,3.8-2.1,3.8l10.3,14.4c0,0-5.3,3.2-8.6,4.4
			c-0.5-0.9-3.2-16.1-4.1-17.1c-0.9-0.9-2.7-1-4.9-1.7c-2.2-0.7-3.4-2.7-3.9-5c-0.4-2.2-0.6-8.4,0.6-13.6c2.3,7.7,7.2,9,9.4,11.9
			c0.8-1.1,0-3.3,0.8-5.2S98.9,54.6,98.9,54.6z"/>
		<polyline class="st2" points="101,50.9 99.4,68.2 99,73.2 		"/>
		<path class="st2" d="M117.7,7.1c0,0,2.3-1.3,4-0.6c1.7,0.6,1.7,5.5,1.7,5.5l-3.3,2.3"/>
		<path class="st2" d="M101.2,76.3l3-3.1l-4.8-4.9c0,0,6.4,0.8,9.7,4.8c3.4,4,9.2,20.2,10.8,25.4s-1.2,19.9-3.3,20.7
			c-2.1,0.8-7.3-3.1-10.3-6c-3-2.9-7.2-15.2-7.2-15.2l-2.9-0.6c0,0-1.3-7.6-1.7-9.6c7.3-2.2,12.7-6.3,12.7-6.3l3.5,6.3L110,90
			l6.9,9.5"/>
		<path class="st2" d="M91.2,68.9c-15.2,8.5-23,54.9-20.7,60.3c2.3,5.4,19.9-4.8,19.9-4.8l1.8,1.4l8.8-3.7c0,0-3.4-5.1-4.1-12.4
			c-3.6-2.4-18.5,4.7-18.5,4.7"/>
		<path class="st2" d="M111.2,117.1c-10.2,17.1,12.1,35,3.3,112c-6.5-1.9-12.8-3.7-12.8-3.7s3.1-27.3,0-39.2
			c-1.7,22.7-7.3,36.9-7.3,36.9l-28.3-6.8c0,0-7.3-41.8,3.9-59.7s20.3-32.4,20.3-32.4"/>
		<path class="st2" d="M84.8,220.8c0,0,1.6,2.7,3,8.3c-6,29.9,31.1,93,26.6,104.8c1.9,2.3,3.2,1,3.8,0c0.6-1,1.3-7.7,1.3-7.7
			l-15-100"/>
		<path class="st2" d="M121.7,6.5c0,0,5.8-3.4,9.7-1.3c4,2.1,7.7,47-2,78.2c-2.4-1.6-6.7-4.4-6.7-4.4s3.8-24.4,0.1-30.3
			C124.5,58.9,121,75,121,75l-6.4-4c0,0,1.9-25.9-0.3-30.6"/>
		<linearGradient id="SVGID_1_" gradientUnits="userSpaceOnUse" x1="96.3356" y1="42.7912" x2="96.3356" y2="26.245">
			<stop  offset="0" style="stop-color:#6ABC5C"/>
			<stop  offset="1" style="stop-color:#65D2FF"/>
		</linearGradient>
		<path class="st4" d="M81.5,26.2l26.7,5.9L112,33l-0.8,1.4l-2.7-0.1c0,0-4.4,10.6-9.5,8c-5.1-2.6-3.4-10.8-3.4-10.8l-3.1-0.6
			c0,0-3.4,10.9-8.7,8.3C78.5,36.6,81.5,26.2,81.5,26.2z"/>
		<path class="st1" d="M82.7,28.9l8.1,1.9c0,0-2.7,8.2-6.2,6.9C81,36.2,82.7,28.9,82.7,28.9z"/>
		<path class="st1" d="M97.5,32.2l8.7,1.9c0,0-3.5,8.1-6.9,6.4C95.9,38.9,97.5,32.2,97.5,32.2z"/>
		<ellipse class="st5" cx="88" cy="33.3" rx="0.9" ry="1.4"/>
		<ellipse class="st5" cx="99.2" cy="35.5" rx="1" ry="1.7"/>
		<path class="st5" d="M85.5,24.8c0,0,2.3-2.8,3.7-1.9s2.7,5.6,2.7,5.6l-1.5-0.3c0,0-0.7-3-1.5-3.8C87.4,22.9,85.5,24.8,85.5,24.8z"
			/>
		<path class="st5" d="M97,29.2l0.4-1.6c0,0,9.6-0.9,12.3,1C103.1,27.8,97,29.2,97,29.2z"/>
		<path class="st2" d="M88.3,46.8c0,0,5.1,1.9,10.9-2.3"/>
		<path class="st2" d="M89.8,39.4c0,0-0.6,2.1,1.6,1.8"/>
		<line class="st2" x1="111.2" y1="228.2" x2="106.9" y2="241.9"/>
		<path class="st2" d="M96.6,277.6c0,0-15.7,47.7-16.7,51.4c-1,3.7,0.7,7.1,0.7,7.1s-4.4-2.7-5.1-8.1c-0.1-14.5,2.5-62.7,13.1-78.3"
			/>
		<path class="st2" d="M114.4,333.9c0,0-1.4,3.5-3.2,6c2.7,0,3.8,0,5.1,0s3.7-4.7,3.7-4.7v4l1.4-0.1c0,0,2.3-12.9-1.9-12.9"/>
		<path class="st2" d="M80.5,336.2c0,0,2.1,3.7,3.8,3.7c-1.6,0-3.1,0-4.6,0s-3.6-4.7-3.6-4.7v2.9l-1.7,0.1c0,0-2.2-9.3,1-10.1"/>
		<path class="st2" d="M84.5,96.4c0,0-4.3,11.7,1,14.9"/>
		<line class="st2" x1="97" y1="109.7" x2="102.6" y2="107.1"/>
		<line class="st2" x1="104.9" y1="111.4" x2="98.7" y2="117.1"/>
		<path class="st2" d="M110.7,87.6c0,0-5.4,7.2-14.6,9.6"/>
		<path class="st2" d="M92.2,125.7c0,0-4.2-6.1-2-15.8"/>
		<path class="st2" d="M99,97.8c0,0,1.1,7,0.8,10.5"/>
		<path class="st2" d="M98.7,123c-2.6,12.9,5.9,34.8,3.1,63.2"/>
		<polygon class="st2" points="90.3,69.4 95.8,81.8 96.2,83.7 86.2,77.2 		"/>
	</g>
</g>
</svg>
